<?xml version="1.0" encoding="UTF-8" standalone="no"?>
<!-- Created with Inkscape (http://www.inkscape.org/) -->

<svg
   xmlns:dc="http://purl.org/dc/elements/1.1/"
   xmlns:cc="http://creativecommons.org/ns#"
   xmlns:rdf="http://www.w3.org/1999/02/22-rdf-syntax-ns#"
   xmlns:svg="http://www.w3.org/2000/svg"
   xmlns="http://www.w3.org/2000/svg"
   xmlns:sodipodi="http://sodipodi.sourceforge.net/DTD/sodipodi-0.dtd"
   xmlns:inkscape="http://www.inkscape.org/namespaces/inkscape"
   width="80"
   height="120"
   id="svg4607"
   version="1.1"
   inkscape:version="0.47 r22583"
   sodipodi:docname="Upper_Y.svg">
  <defs
     id="defs4609">
    <inkscape:perspective
       sodipodi:type="inkscape:persp3d"
       inkscape:vp_x="0 : 526.18109 : 1"
       inkscape:vp_y="0 : 1000 : 0"
       inkscape:vp_z="744.09448 : 526.18109 : 1"
       inkscape:persp3d-origin="372.04724 : 350.78739 : 1"
       id="perspective4615" />
  </defs>
  <sodipodi:namedview
     id="base"
     pagecolor="#ffffff"
     bordercolor="#666666"
     borderopacity="1.0"
     inkscape:pageopacity="0.0"
     inkscape:pageshadow="2"
     inkscape:zoom="3.2"
     inkscape:cx="75"
     inkscape:cy="60"
     inkscape:document-units="px"
     inkscape:current-layer="flowRoot4617"
     showgrid="false"
     inkscape:window-width="1097"
     inkscape:window-height="632"
     inkscape:window-x="81"
     inkscape:window-y="61"
     inkscape:window-maximized="0" />
  <metadata
     id="metadata4612">
    <rdf:RDF>
      <cc:Work
         rdf:about="">
        <dc:format>image/svg+xml</dc:format>
        <dc:type
           rdf:resource="http://purl.org/dc/dcmitype/StillImage" />
        <dc:title />
      </cc:Work>
    </rdf:RDF>
  </metadata>
  <g
     inkscape:label="Layer 1"
     inkscape:groupmode="layer"
     id="layer1"
     transform="translate(-167.97316,-897.77561)">
    <g
       transform="translate(0,308.2677)"
       style="font-size:144px;font-style:normal;font-variant:normal;font-weight:normal;font-stretch:normal;text-align:start;line-height:125%;writing-mode:lr-tb;text-anchor:start;fill:none;stroke:#000000;stroke-opacity:1;font-family:Chalkboard;-inkscape-font-specification:Chalkboard"
       id="flowRoot4617">
      <path
         d="m 212.23006,693.68857 c -0.1061,2.43979 -0.8487,4.29614 -2.2276,5.56906 -1.273,1.16685 -2.705,1.75028 -4.2962,1.75028 -1.4851,0 -2.8641,-0.53039 -4.137,-1.59116 -1.2729,-1.16685 -2.0685,-2.91712 -2.3867,-5.25083 -1e-4,-6.4707 -0.053,-12.88838 -0.1591,-19.25304 -1e-4,-6.47068 -1e-4,-12.99443 0,-19.57127 -6.5769,-6.36459 -12.6233,-13.15353 -18.1393,-20.36685 -5.4099,-7.31926 -9.4939,-15.43417 -12.2519,-24.34475 0,-0.21207 -0.053,-0.42422 -0.1591,-0.63646 0,-0.31815 0,-0.58334 0,-0.79558 0,-2.22754 0.5834,-3.92477 1.7503,-5.09172 1.2729,-1.27283 2.7049,-1.90929 4.2961,-1.90939 2.4398,10e-5 4.5083,1.21999 6.2055,3.65967 2.3337,7.53158 5.6751,14.37356 10.0243,20.52597 4.3492,6.04647 9.2287,11.77464 14.6387,17.18453 5.0917,-6.04635 10.1834,-12.09275 15.2751,-18.13923 5.1978,-6.15241 9.653,-12.72919 13.3658,-19.73039 0.8485,-1.48498 1.8032,-2.54576 2.8641,-3.18232 1.1668,-0.63636 2.2806,-0.9546 3.3414,-0.95469 1.5911,9e-5 3.0231,0.58352 4.2961,1.75027 1.2729,1.16695 1.9094,2.70507 1.9094,4.61437 0,0.95478 -0.2652,2.12163 -0.7955,3.50055 -4.3493,7.95588 -9.494,15.48737 -15.4343,22.59448 -5.9404,7.00116 -11.7746,14.00226 -17.5028,21.00331 l -0.6364,0.63646 c -1e-4,6.36468 -1e-4,12.72932 0,19.09393 -1e-4,6.25858 0.053,12.57017 0.1591,18.9348"
         id="path5184" />
    </g>
  </g>
</svg>
