<?xml version="1.0" encoding="UTF-8" standalone="no"?>
<!-- Created with Inkscape (http://www.inkscape.org/) -->

<svg
   xmlns:dc="http://purl.org/dc/elements/1.1/"
   xmlns:cc="http://creativecommons.org/ns#"
   xmlns:rdf="http://www.w3.org/1999/02/22-rdf-syntax-ns#"
   xmlns:svg="http://www.w3.org/2000/svg"
   xmlns="http://www.w3.org/2000/svg"
   xmlns:sodipodi="http://sodipodi.sourceforge.net/DTD/sodipodi-0.dtd"
   xmlns:inkscape="http://www.inkscape.org/namespaces/inkscape"
   width="65"
   height="120"
   id="svg4607"
   version="1.1"
   inkscape:version="0.47 r22583"
   sodipodi:docname="Upper_F.svg">
  <defs
     id="defs4609">
    <inkscape:perspective
       sodipodi:type="inkscape:persp3d"
       inkscape:vp_x="0 : 526.18109 : 1"
       inkscape:vp_y="0 : 1000 : 0"
       inkscape:vp_z="744.09448 : 526.18109 : 1"
       inkscape:persp3d-origin="372.04724 : 350.78739 : 1"
       id="perspective4615" />
  </defs>
  <sodipodi:namedview
     id="base"
     pagecolor="#ffffff"
     bordercolor="#666666"
     borderopacity="1.0"
     inkscape:pageopacity="0.0"
     inkscape:pageshadow="2"
     inkscape:zoom="3.2"
     inkscape:cx="75"
     inkscape:cy="60"
     inkscape:document-units="px"
     inkscape:current-layer="flowRoot4617"
     showgrid="false"
     inkscape:window-width="1097"
     inkscape:window-height="632"
     inkscape:window-x="81"
     inkscape:window-y="61"
     inkscape:window-maximized="0" />
  <metadata
     id="metadata4612">
    <rdf:RDF>
      <cc:Work
         rdf:about="">
        <dc:format>image/svg+xml</dc:format>
        <dc:type
           rdf:resource="http://purl.org/dc/dcmitype/StillImage" />
        <dc:title />
      </cc:Work>
    </rdf:RDF>
  </metadata>
  <g
     inkscape:label="Layer 1"
     inkscape:groupmode="layer"
     id="layer1"
     transform="translate(-167.97316,-897.77561)">
    <g
       transform="translate(0,308.2677)"
       style="font-size:144px;font-style:normal;font-variant:normal;font-weight:normal;font-stretch:normal;text-align:start;line-height:125%;writing-mode:lr-tb;text-anchor:start;fill:none;stroke:#000000;stroke-opacity:1;font-family:Chalkboard;-inkscape-font-specification:Chalkboard"
       id="flowRoot4617">
      <path
         d="m 185.65769,693.68857 c -0.1061,2.43978 -0.84864,4.2431 -2.22763,5.40995 -1.27294,1.27292 -2.70499,1.90939 -4.29613,1.90939 -1.4851,0 -2.8641,-0.58343 -4.13702,-1.75028 -1.27293,-1.06077 -2.06851,-2.75801 -2.38674,-5.09171 l 0,-39.61989 c -2.75801,-1.27288 -4.13702,-3.23531 -4.13701,-5.88729 -1e-5,-1.1668 0.31822,-2.28061 0.95469,-3.34144 0.74254,-1.16679 1.80331,-2.01541 3.18232,-2.54585 l 0,-1.11382 c -1e-5,-1.27287 -1e-5,-2.75795 0,-4.45524 0.10607,-1.80326 0.15911,-3.71265 0.15912,-5.72818 -1e-5,-3.07617 -0.15913,-6.04634 -0.47735,-8.9105 -0.31824,-2.86401 -1.06078,-5.14467 -2.22762,-6.84199 -0.63647,-1.485 -0.9547,-2.81096 -0.9547,-3.9779 0,-3.07615 1.64419,-5.14466 4.9326,-6.20552 3.92484,-0.63637 7.8497,-1.00764 11.77458,-1.11381 4.03092,-0.21207 8.00881,-0.31814 11.9337,-0.31824 4.03091,-0.10598 8.06184,-0.21206 12.09282,-0.31823 4.03089,-0.10598 8.00879,-0.42421 11.9337,-0.95469 2.5458,9e-5 4.45519,0.58352 5.72818,1.75027 1.37894,1.16694 2.06844,2.65203 2.06851,4.45525 -7e-5,1.48517 -0.53045,2.86417 -1.59116,4.13702 -0.95476,1.16693 -2.49288,2.01555 -4.61437,2.54585 -6.47077,0.8487 -12.94148,1.27301 -19.41215,1.27293 -6.47075,-0.10599 -12.94146,0.0531 -19.41216,0.47735 0.53037,2.2277 0.8486,4.5614 0.9547,7.0011 0.21213,2.33378 0.31821,4.66748 0.31823,7.00111 -2e-5,1.80338 -0.0531,3.50061 -0.15911,5.09171 -3e-5,1.59122 -3e-5,3.12934 0,4.61437 l 0,1.59116 c 5.72815,5e-5 11.61543,-0.10603 17.66188,-0.31824 6.04636,-0.31817 11.29718,-1.16679 15.75248,-2.54585 2.43972,6e-5 4.34911,0.58348 5.72818,1.75027 1.37894,1.16691 2.06844,2.65199 2.06851,4.45525 -7e-5,2.65199 -1.48515,4.66745 -4.45525,6.04641 -2.97022,1.27297 -6.57685,2.17463 -10.81989,2.70497 -4.24314,0.53043 -8.75142,0.79563 -13.52486,0.79558 -4.77351,5e-5 -8.91053,5e-5 -12.41105,0 l 0,38.02873 0,0"
         id="path5146" />
    </g>
  </g>
</svg>
