<?xml version="1.0" encoding="UTF-8" standalone="no"?>
<!-- Created with Inkscape (http://www.inkscape.org/) -->

<svg
   xmlns:dc="http://purl.org/dc/elements/1.1/"
   xmlns:cc="http://creativecommons.org/ns#"
   xmlns:rdf="http://www.w3.org/1999/02/22-rdf-syntax-ns#"
   xmlns:svg="http://www.w3.org/2000/svg"
   xmlns="http://www.w3.org/2000/svg"
   xmlns:sodipodi="http://sodipodi.sourceforge.net/DTD/sodipodi-0.dtd"
   xmlns:inkscape="http://www.inkscape.org/namespaces/inkscape"
   width="100"
   height="120"
   id="svg4607"
   version="1.1"
   inkscape:version="0.47 r22583"
   sodipodi:docname="Upper_Q.svg">
  <defs
     id="defs4609">
    <inkscape:perspective
       sodipodi:type="inkscape:persp3d"
       inkscape:vp_x="0 : 526.18109 : 1"
       inkscape:vp_y="0 : 1000 : 0"
       inkscape:vp_z="744.09448 : 526.18109 : 1"
       inkscape:persp3d-origin="372.04724 : 350.78739 : 1"
       id="perspective4615" />
  </defs>
  <sodipodi:namedview
     id="base"
     pagecolor="#ffffff"
     bordercolor="#666666"
     borderopacity="1.0"
     inkscape:pageopacity="0.0"
     inkscape:pageshadow="2"
     inkscape:zoom="3.2"
     inkscape:cx="75"
     inkscape:cy="60"
     inkscape:document-units="px"
     inkscape:current-layer="flowRoot4617"
     showgrid="false"
     inkscape:window-width="1097"
     inkscape:window-height="632"
     inkscape:window-x="81"
     inkscape:window-y="61"
     inkscape:window-maximized="0" />
  <metadata
     id="metadata4612">
    <rdf:RDF>
      <cc:Work
         rdf:about="">
        <dc:format>image/svg+xml</dc:format>
        <dc:type
           rdf:resource="http://purl.org/dc/dcmitype/StillImage" />
        <dc:title />
      </cc:Work>
    </rdf:RDF>
  </metadata>
  <g
     inkscape:label="Layer 1"
     inkscape:groupmode="layer"
     id="layer1"
     transform="translate(-167.97316,-897.77561)">
    <g
       transform="translate(0,308.2677)"
       style="font-size:144px;font-style:normal;font-variant:normal;font-weight:normal;font-stretch:normal;text-align:start;line-height:125%;writing-mode:lr-tb;text-anchor:start;fill:none;stroke:#000000;stroke-opacity:1;font-family:Chalkboard;-inkscape-font-specification:Chalkboard"
       id="flowRoot4617">
      <path
         d="m 261.71516,696.67642 c 2.5457,1.48508 3.9247,3.44751 4.137,5.8873 0.106,1.59115 -0.3714,3.02319 -1.4321,4.29613 -1.0608,1.27291 -2.4929,1.96242 -4.2961,2.06851 -1.273,0.21214 -2.599,-2e-5 -3.9779,-0.63647 -9.0166,-3.60664 -16.9724,-8.11492 -23.8674,-13.52486 -0.2122,0.10608 -0.4244,0.26519 -0.6365,0.47735 -1.5912,0.84862 -3.0232,1.59116 -4.2961,2.22762 -1.273,0.63646 -2.5459,1.16685 -3.8188,1.59116 -1.273,0.42431 -2.5989,0.79558 -3.9779,1.11381 -1.379,0.42431 -2.9702,0.79558 -4.7735,1.11382 -0.2122,-10e-6 -0.4774,-10e-6 -0.7955,0 -0.3183,0.10607 -0.6365,0.15911 -0.9547,0.15911 -2.7581,0.21215 -5.6222,0 -8.5923,-0.63646 -2.9702,-0.63647 -5.8343,-1.32597 -8.5923,-2.06851 -4.4552,-1.27293 -8.3271,-3.2884 -11.6154,-6.04641 -3.2884,-2.758 -6.0465,-5.94032 -8.2741,-9.54696 -2.1215,-3.71269 -3.8188,-7.69059 -5.0917,-11.9337 -1.1668,-4.24307 -1.9094,-8.53919 -2.2276,-12.8884 -0.1061,-1.59112 -0.1591,-3.18228 -0.1591,-4.77348 0,-1.59112 0,-3.12924 0,-4.61436 0.2121,-3.50051 0.7956,-7.31929 1.7503,-11.45636 1.0607,-4.13695 2.4397,-8.16789 4.137,-12.09282 1.8033,-4.03086 3.8718,-7.7966 6.2055,-11.29723 2.3337,-3.50047 4.9326,-6.36456 7.7967,-8.59227 3.6066,-2.75792 7.4784,-4.9325 11.6155,-6.52376 4.1369,-1.69713 8.38,-2.70487 12.7292,-3.0232 7.3193,-0.63636 14.3204,0.53049 21.0034,3.50055 6.6827,2.86419 12.2518,7.6907 16.7071,14.47956 2.1215,3.39456 3.7127,6.94814 4.7735,10.66077 1.0607,3.71278 1.7502,7.53156 2.0685,11.45636 0.5303,5.09177 0.5303,10.13043 0,15.11602 -0.9548,5.72822 -2.652,11.77462 -5.0917,18.13923 -2.4399,6.36466 -5.7282,11.98675 -9.8652,16.86629 2.864,2.12156 5.8872,4.03095 9.0696,5.72818 3.1823,1.69724 6.6298,3.2884 10.3426,4.77348 m -29.2774,-19.25304 c 3.2884,-3.71268 5.8342,-7.95577 7.6376,-12.72928 1.8032,-4.77344 3.2353,-9.59996 4.2961,-14.47956 0.106,-2.12149 0.1591,-4.24304 0.1591,-6.36464 0.106,-2.22757 0.053,-4.40215 -0.1591,-6.52375 -0.3183,-2.97011 -0.8487,-5.83419 -1.5911,-8.59227 -0.7427,-2.75794 -1.8565,-5.35683 -3.3415,-7.79668 -2.8641,-4.45517 -6.789,-7.69053 -11.7746,-9.70608 -4.9857,-2.12146 -10.0774,-2.97008 -15.2751,-2.54586 -2.9702,0.31832 -5.7813,1.00782 -8.4331,2.06851 -2.652,1.06086 -5.0918,2.65202 -7.3194,4.77348 -2.8641,2.54594 -5.3039,5.5161 -7.3193,8.9105 -2.0155,3.39454 -3.6597,7.00117 -4.9326,10.81989 -1.273,3.81884 -2.1746,7.69066 -2.705,11.61547 -0.4243,3.81883 -0.4774,7.47849 -0.1591,10.979 0.3182,4.24313 1.2199,8.32711 2.705,12.25194 1.485,3.8188 3.5535,7.16024 6.2055,10.02431 2.6519,2.75802 5.8873,4.9326 9.7061,6.52375 3.8187,1.48509 8.2209,2.01548 13.2066,1.59116 1.485,-0.21214 2.9701,-0.47734 4.4553,-0.79558 1.485,-0.4243 2.9701,-1.00772 4.4552,-1.75027 -2.1216,-2.12154 -4.1371,-4.34916 -6.0464,-6.68288 -1.8034,-2.43976 -3.6067,-4.98561 -5.41,-7.63757 -0.4243,-0.74251 -0.7425,-1.43201 -0.9546,-2.0685 -0.1062,-0.63644 -0.2653,-1.2729 -0.4774,-1.9094 -0.1061,-1.80328 0.3712,-3.28836 1.432,-4.45524 1.0608,-1.2729 2.4398,-2.01544 4.1371,-2.22763 2.3336,-0.21212 4.4552,0.79562 6.3646,3.02321 1.8033,2.54588 3.6066,4.98566 5.41,7.31933 1.9093,2.22765 3.8187,4.3492 5.7281,6.36464"
         id="path5168" />
    </g>
  </g>
</svg>
