<?xml version="1.0" encoding="UTF-8" standalone="no"?>
<!-- Created with Inkscape (http://www.inkscape.org/) -->

<svg
   xmlns:dc="http://purl.org/dc/elements/1.1/"
   xmlns:cc="http://creativecommons.org/ns#"
   xmlns:rdf="http://www.w3.org/1999/02/22-rdf-syntax-ns#"
   xmlns:svg="http://www.w3.org/2000/svg"
   xmlns="http://www.w3.org/2000/svg"
   xmlns:sodipodi="http://sodipodi.sourceforge.net/DTD/sodipodi-0.dtd"
   xmlns:inkscape="http://www.inkscape.org/namespaces/inkscape"
   width="80"
   height="120"
   id="svg4607"
   version="1.1"
   inkscape:version="0.47 r22583"
   sodipodi:docname="Upper_N.svg">
  <defs
     id="defs4609">
    <inkscape:perspective
       sodipodi:type="inkscape:persp3d"
       inkscape:vp_x="0 : 526.18109 : 1"
       inkscape:vp_y="0 : 1000 : 0"
       inkscape:vp_z="744.09448 : 526.18109 : 1"
       inkscape:persp3d-origin="372.04724 : 350.78739 : 1"
       id="perspective4615" />
  </defs>
  <sodipodi:namedview
     id="base"
     pagecolor="#ffffff"
     bordercolor="#666666"
     borderopacity="1.0"
     inkscape:pageopacity="0.0"
     inkscape:pageshadow="2"
     inkscape:zoom="3.2"
     inkscape:cx="75"
     inkscape:cy="60"
     inkscape:document-units="px"
     inkscape:current-layer="flowRoot4617"
     showgrid="false"
     inkscape:window-width="1097"
     inkscape:window-height="632"
     inkscape:window-x="81"
     inkscape:window-y="61"
     inkscape:window-maximized="0" />
  <metadata
     id="metadata4612">
    <rdf:RDF>
      <cc:Work
         rdf:about="">
        <dc:format>image/svg+xml</dc:format>
        <dc:type
           rdf:resource="http://purl.org/dc/dcmitype/StillImage" />
        <dc:title />
      </cc:Work>
    </rdf:RDF>
  </metadata>
  <g
     inkscape:label="Layer 1"
     inkscape:groupmode="layer"
     id="layer1"
     transform="translate(-167.97316,-897.77561)">
    <g
       transform="translate(0,308.2677)"
       style="font-size:144px;font-style:normal;font-variant:normal;font-weight:normal;font-stretch:normal;text-align:start;line-height:125%;writing-mode:lr-tb;text-anchor:start;fill:none;stroke:#000000;stroke-opacity:1;font-family:Chalkboard;-inkscape-font-specification:Chalkboard"
       id="flowRoot4617">
      <path
         d="m 234.34719,605.06095 c 0.53032,-2.12145 1.37894,-3.71261 2.54586,-4.77348 1.16677,-1.06068 2.49274,-1.59106 3.9779,-1.59116 1.37893,10e-5 2.65185,0.47744 3.81879,1.43204 1.27284,0.95479 2.1745,2.43988 2.70497,4.45525 -9e-5,15.16914 -0.10617,29.86084 -0.31823,44.07514 -0.21224,14.2144 -0.74263,28.9061 -1.59116,44.07514 -9e-5,0 0.053,0.053 0.15911,0.15911 l -0.15911,0 c -0.10617,0.53039 -0.1592,1.00774 -0.15912,1.43205 -8e-5,0.31823 -8e-5,0.6895 0,1.11381 -0.63655,1.69724 -1.5382,2.97016 -2.70497,3.81878 -1.06086,0.84862 -2.22771,1.27293 -3.50056,1.27293 -1.90946,0 -3.71278,-0.84862 -5.40994,-2.54586 -0.21223,-0.4243 -0.42438,-0.79557 -0.63646,-1.11381 -0.21223,-0.31823 -0.42438,-0.63646 -0.63647,-0.95469 l -0.15911,0 0,-0.31824 c -3.81886,-6.47071 -7.74371,-12.62319 -11.77459,-18.45745 -4.03099,-5.94031 -8.16801,-11.72152 -12.41105,-17.34365 -4.24314,-5.72813 -8.5923,-11.35023 -13.04751,-16.8663 -4.3492,-5.62204 -8.85749,-11.35021 -13.52487,-17.18453 -2e-5,5.62217 -2e-5,11.08514 0,16.38895 -2e-5,5.19784 -2e-5,10.5017 0,15.9116 -2e-5,5.3039 -2e-5,10.87296 0,16.70718 0.10606,5.83428 0.1591,12.14587 0.15912,18.93481 -0.1061,2.43978 -0.84864,4.2431 -2.22762,5.40995 -1.27295,1.27292 -2.70499,1.90939 -4.29614,1.90939 -1.48509,0 -2.8641,-0.58343 -4.13701,-1.75028 -1.27294,-1.06077 -2.06852,-2.75801 -2.38674,-5.09171 -1e-5,-14.32042 -0.053,-28.79997 -0.15912,-43.43867 -1e-5,-14.74469 -1e-5,-29.27728 0,-43.59779 0.4243,-1.9093 1.21988,-3.39438 2.38674,-4.45525 1.16684,-1.06068 2.49281,-1.59107 3.9779,-1.59116 1.48507,9e-5 3.07623,0.58352 4.77348,1.75027 4.87954,5.83435 9.65301,11.56252 14.32044,17.18453 4.66737,5.5161 9.22869,11.08515 13.68398,16.70719 4.56128,5.62215 8.96348,11.40336 13.20663,17.34364 4.24303,5.83429 8.38004,11.93374 12.41105,18.29834 0.42424,-11.66847 0.68943,-22.85962 0.79558,-33.57348 0.21208,-10.71374 0.31816,-21.95793 0.31823,-33.73259"
         id="path5162" />
    </g>
  </g>
</svg>
