<?xml version="1.0" encoding="UTF-8" standalone="no"?>
<!-- Created with Inkscape (http://www.inkscape.org/) -->

<svg
   xmlns:dc="http://purl.org/dc/elements/1.1/"
   xmlns:cc="http://creativecommons.org/ns#"
   xmlns:rdf="http://www.w3.org/1999/02/22-rdf-syntax-ns#"
   xmlns:svg="http://www.w3.org/2000/svg"
   xmlns="http://www.w3.org/2000/svg"
   xmlns:sodipodi="http://sodipodi.sourceforge.net/DTD/sodipodi-0.dtd"
   xmlns:inkscape="http://www.inkscape.org/namespaces/inkscape"
   width="80"
   height="120"
   id="svg4607"
   version="1.1"
   inkscape:version="0.47 r22583"
   sodipodi:docname="Upper_T.svg">
  <defs
     id="defs4609">
    <inkscape:perspective
       sodipodi:type="inkscape:persp3d"
       inkscape:vp_x="0 : 526.18109 : 1"
       inkscape:vp_y="0 : 1000 : 0"
       inkscape:vp_z="744.09448 : 526.18109 : 1"
       inkscape:persp3d-origin="372.04724 : 350.78739 : 1"
       id="perspective4615" />
  </defs>
  <sodipodi:namedview
     id="base"
     pagecolor="#ffffff"
     bordercolor="#666666"
     borderopacity="1.0"
     inkscape:pageopacity="0.0"
     inkscape:pageshadow="2"
     inkscape:zoom="3.2"
     inkscape:cx="75"
     inkscape:cy="60"
     inkscape:document-units="px"
     inkscape:current-layer="flowRoot4617"
     showgrid="false"
     inkscape:window-width="1097"
     inkscape:window-height="632"
     inkscape:window-x="81"
     inkscape:window-y="61"
     inkscape:window-maximized="0" />
  <metadata
     id="metadata4612">
    <rdf:RDF>
      <cc:Work
         rdf:about="">
        <dc:format>image/svg+xml</dc:format>
        <dc:type
           rdf:resource="http://purl.org/dc/dcmitype/StillImage" />
        <dc:title />
      </cc:Work>
    </rdf:RDF>
  </metadata>
  <g
     inkscape:label="Layer 1"
     inkscape:groupmode="layer"
     id="layer1"
     transform="translate(-167.97316,-897.77561)">
    <g
       transform="translate(0,308.2677)"
       style="font-size:144px;font-style:normal;font-variant:normal;font-weight:normal;font-stretch:normal;text-align:start;line-height:125%;writing-mode:lr-tb;text-anchor:start;fill:none;stroke:#000000;stroke-opacity:1;font-family:Chalkboard;-inkscape-font-specification:Chalkboard"
       id="flowRoot4617">
      <path
         d="m 238.97603,602.83332 c 1.9093,0.63656 3.3413,1.59125 4.2961,2.86409 0.9546,1.27302 1.3789,2.59898 1.2729,3.9779 -0.1061,1.48517 -0.6896,2.81114 -1.7503,3.9779 -1.0608,1.06086 -2.652,1.8034 -4.7734,2.22762 l -24.8221,0.15912 0.1591,77.64862 c -0.1062,2.43978 -0.8487,4.24309 -2.2277,5.40994 -1.2729,1.27293 -2.705,1.90939 -4.2961,1.9094 -1.4851,-1e-5 -2.8641,-0.58343 -4.137,-1.75028 -1.273,-1.06077 -2.0685,-2.75801 -2.3867,-5.09171 l -0.1592,-78.12597 -25.1403,0 c -2.2276,-0.42423 -3.9249,-1.27284 -5.0917,-2.54586 -1.0608,-1.37892 -1.5381,-2.81096 -1.432,-4.29613 0.106,-1.59107 0.7425,-3.02311 1.9093,-4.29613 1.273,-1.27283 3.1293,-1.9093 5.5691,-1.90939 1.2729,9e-5 3.5005,9e-5 6.6829,0 3.2884,9e-5 7.0541,9e-5 11.2972,0 4.2431,9e-5 8.7514,9e-5 13.5249,0 4.7734,9e-5 9.2817,9e-5 13.5248,0 4.2431,9e-5 7.9558,9e-5 11.1382,0 3.2883,-0.10599 5.569,-0.15902 6.842,-0.15912"
         id="path5174" />
    </g>
  </g>
</svg>
