<?xml version="1.0" encoding="UTF-8" standalone="no"?>
<!-- Created with Inkscape (http://www.inkscape.org/) -->

<svg
   xmlns:dc="http://purl.org/dc/elements/1.1/"
   xmlns:cc="http://creativecommons.org/ns#"
   xmlns:rdf="http://www.w3.org/1999/02/22-rdf-syntax-ns#"
   xmlns:svg="http://www.w3.org/2000/svg"
   xmlns="http://www.w3.org/2000/svg"
   xmlns:sodipodi="http://sodipodi.sourceforge.net/DTD/sodipodi-0.dtd"
   xmlns:inkscape="http://www.inkscape.org/namespaces/inkscape"
   width="65"
   height="120"
   id="svg4607"
   version="1.1"
   inkscape:version="0.47 r22583"
   sodipodi:docname="Upper_L.svg">
  <defs
     id="defs4609">
    <inkscape:perspective
       sodipodi:type="inkscape:persp3d"
       inkscape:vp_x="0 : 526.18109 : 1"
       inkscape:vp_y="0 : 1000 : 0"
       inkscape:vp_z="744.09448 : 526.18109 : 1"
       inkscape:persp3d-origin="372.04724 : 350.78739 : 1"
       id="perspective4615" />
  </defs>
  <sodipodi:namedview
     id="base"
     pagecolor="#ffffff"
     bordercolor="#666666"
     borderopacity="1.0"
     inkscape:pageopacity="0.0"
     inkscape:pageshadow="2"
     inkscape:zoom="3.2"
     inkscape:cx="75"
     inkscape:cy="60"
     inkscape:document-units="px"
     inkscape:current-layer="flowRoot4617"
     showgrid="false"
     inkscape:window-width="1097"
     inkscape:window-height="632"
     inkscape:window-x="81"
     inkscape:window-y="61"
     inkscape:window-maximized="0" />
  <metadata
     id="metadata4612">
    <rdf:RDF>
      <cc:Work
         rdf:about="">
        <dc:format>image/svg+xml</dc:format>
        <dc:type
           rdf:resource="http://purl.org/dc/dcmitype/StillImage" />
        <dc:title />
      </cc:Work>
    </rdf:RDF>
  </metadata>
  <g
     inkscape:label="Layer 1"
     inkscape:groupmode="layer"
     id="layer1"
     transform="translate(-167.97316,-897.77561)">
    <g
       transform="translate(0,308.2677)"
       style="font-size:144px;font-style:normal;font-variant:normal;font-weight:normal;font-stretch:normal;text-align:start;line-height:125%;writing-mode:lr-tb;text-anchor:start;fill:none;stroke:#000000;stroke-opacity:1;font-family:Chalkboard;-inkscape-font-specification:Chalkboard"
       id="flowRoot4617">
      <path
         d="m 224.32288,687.16482 c 2.01541,0.63648 3.50049,1.59117 4.45525,2.86409 0.95463,1.27294 1.37894,2.5989 1.27293,3.9779 -7e-5,1.27293 -0.53045,2.54586 -1.59116,3.81878 -1.06084,1.16686 -2.59896,1.96243 -4.61436,2.38674 -8.16801,0.21216 -16.28292,0.31824 -24.34475,0.31824 -8.06191,0.10607 -16.12379,0.26519 -24.18564,0.47734 -4.13703,-0.42431 -6.41769,-2.70497 -6.84199,-6.84198 -1e-5,-14.00219 0.053,-27.95135 0.15912,-41.84752 0.10607,-13.89607 0.1591,-27.89827 0.15911,-42.00663 0.4243,-2.01538 1.21988,-3.5535 2.38674,-4.61436 1.27292,-1.06068 2.54585,-1.59107 3.81879,-1.59116 1.37899,-0.10598 2.70495,0.31832 3.9779,1.27293 1.27291,0.95478 2.2276,2.43987 2.86409,4.45524 -3e-5,13.15367 -0.0531,26.20117 -0.15912,39.14255 -0.1061,12.83539 -0.15914,25.82985 -0.15911,38.98342 7.10715,-0.21214 14.21432,-0.31822 21.32154,-0.31823 7.10713,-0.10607 14.26735,-0.26518 21.48066,-0.47735"
         id="path5158" />
    </g>
  </g>
</svg>
