<?xml version="1.0" encoding="UTF-8" standalone="no"?>
<svg
   xmlns:dc="http://purl.org/dc/elements/1.1/"
   xmlns:cc="http://creativecommons.org/ns#"
   xmlns:rdf="http://www.w3.org/1999/02/22-rdf-syntax-ns#"
   xmlns:svg="http://www.w3.org/2000/svg"
   xmlns="http://www.w3.org/2000/svg"
   xmlns:sodipodi="http://sodipodi.sourceforge.net/DTD/sodipodi-0.dtd"
   xmlns:inkscape="http://www.inkscape.org/namespaces/inkscape"
   version="1.0"
   width="65"
   height="80"
   id="svg2"
   sodipodi:version="0.32"
   inkscape:version="0.48.0 r9654"
   sodipodi:docname="a.svg"
   inkscape:output_extension="org.inkscape.output.svg.inkscape"
   inkscape:export-filename="E:\trevorde\EllieSoft\Hiragana Tracer\Resources\www\Resources\Alphabet\a.png"
   inkscape:export-xdpi="360"
   inkscape:export-ydpi="360">
  <metadata
     id="metadataHiragana">
    <rdf:RDF>
      <cc:Work
         rdf:about="">
        <dc:format>image/svg+xml</dc:format>
        <dc:type
           rdf:resource="http://purl.org/dc/dcmitype/StillImage" />
        <dc:title />
      </cc:Work>
    </rdf:RDF>
  </metadata>
  <sodipodi:namedview
     inkscape:window-height="752"
     inkscape:window-width="1280"
     inkscape:pageshadow="2"
     inkscape:pageopacity="0.0"
     guidetolerance="10.0"
     gridtolerance="10.0"
     objecttolerance="10.0"
     borderopacity="1.0"
     bordercolor="#666666"
     pagecolor="#ffffff"
     id="base"
     inkscape:zoom="7.0375"
     inkscape:cx="32.5"
     inkscape:cy="39.38219"
     inkscape:window-x="0"
     inkscape:window-y="75"
     inkscape:current-layer="svg2"
     showgrid="false"
     inkscape:window-maximized="0" />
  <!-- arrow ends -->
  <defs
     id="defsHiragana">
    <marker
       refX="0"
       refY="0"
       orient="auto"
       style="overflow:visible"
       id="Arrow2Mend">
      <path
         d="M 8.7185878,4.0337352 -2.2072895,0.01601326 8.7185884,-4.0017078 c -1.7454984,2.3720609 -1.7354408,5.6174519 -6e-7,8.035443 z"
         transform="scale(-0.6,-0.6)"
         class="arrow"
         id="path3344"
         style="font-size:12px;fill:#0000ff;fill-rule:evenodd;stroke:#0000ff;stroke-width:1pt;stroke-linejoin:round;marker-start:none"
         inkscape:connector-curvature="0" />
    </marker>
    <marker
       refX="0"
       refY="0"
       orient="auto"
       style="overflow:visible"
       id="Arrow2Send">
      <path
         d="M 8.7185878,4.0337352 -2.2072895,0.01601326 8.7185884,-4.0017078 c -1.7454984,2.3720609 -1.7354408,5.6174519 -6e-7,8.035443 z"
         transform="matrix(-0.3,0,0,-0.3,0.69,0)"
         class="arrow"
         id="path3338"
         style="font-size:12px;fill:#0000ff;fill-rule:evenodd;stroke:#0000ff;stroke-width:1pt;stroke-linejoin:round;marker-start:none"
         inkscape:connector-curvature="0" />
    </marker>
    <marker
       refX="0"
       refY="0"
       orient="auto"
       style="overflow:visible"
       id="Arrow1Send">
      <path
         d="M 0,0 5,-5 -12.5,0 5,5 0,0 z"
         transform="matrix(-0.2,0,0,-0.2,-1.2,0)"
         class="arrow"
         id="path3356"
         style="font-size:12px;fill:#0000ff;fill-rule:evenodd;stroke:#0000ff;stroke-width:1pt;stroke-linejoin:round;marker-start:none"
         inkscape:connector-curvature="0" />
    </marker>
    <marker
       refX="0"
       refY="0"
       orient="auto"
       style="overflow:visible"
       id="Arrow1Mend">
      <path
         d="M 0,0 5,-5 -12.5,0 5,5 0,0 z"
         transform="matrix(-0.4,0,0,-0.4,-4,0)"
         class="arrow"
         id="path3362"
         style="font-size:12px;fill:#0000ff;fill-rule:evenodd;stroke:#0000ff;stroke-width:1pt;stroke-linejoin:round;marker-start:none"
         inkscape:connector-curvature="0" />
    </marker>
    <marker
       refX="0"
       refY="0"
       orient="auto"
       style="overflow:visible"
       id="Arrow1Lend">
      <path
         d="M 0,0 5,-5 -12.5,0 5,5 0,0 z"
         transform="matrix(-0.8,0,0,-0.8,-10,0)"
         class="arrow"
         id="path3368"
         style="font-size:12px;fill:#0000ff;fill-rule:evenodd;stroke:#0000ff;stroke-width:1pt;stroke-linejoin:round;marker-start:none"
         inkscape:connector-curvature="0" />
    </marker>
  </defs>
  <style
     type="text/css"
     id="style3609">
		path.stroke /* arrow lines */
		{
			fill: none; fill-opacity: 0.75; fill-rule: evenodd;
			stroke: blue; stroke-width: 1px; stroke-linecap: butt; stroke-linejoin: miter; stroke-opacity:1;
			marker-end: url(#Arrow1Mend);
		}
		path.arrow /* heads */
		{
			font-size: 12px;
			fill-rule: evenodd;
			fill: blue;
			stroke: blue; stroke-width: 1pt;/*0.625*/ stroke-linejoin: round;
			marker-start: none;
		}
		text.number
		{
			font-size: 8px;
			fill: blue;
		}
		text.label
		{
			font-size: 22px;
		}
		text.cell
		{
			font-style: italic;
			text-transform: lowercase;
			fill: gray;
/*			display: none;*/
		}
/*		path.old
		{
			fill: gray;
		}
*/		path.rule
		{
			fill: none; fill-opacity: 0.75; fill-rule: evenodd;
			stroke: black; stroke-width: 1px; stroke-linecap: butt; stroke-linejoin: miter; stroke-opacity: 0.1;
		}
		path.rule[id*=&quot;V&quot;]
		{
			stroke-opacity: 0;
		}
		path#ruleH1, path#ruleV12
		{
			stroke-opacity: 0.8;
		}
		defs marker
		{
			overflow: visible;
		}
	</style>
  <!-- table rules -->
  <!-- glyphs -->
  <!-- -A -->
  <text
     style="font-size:10px;font-style:italic;text-transform:lowercase;fill:#808080"
     x="10.200195"
     y="70"
     id="cellA"
     class="label cell">A</text>
  <path
     id="path2195"
     d="m 27.02475,12.229668 c -0.23439,0.07033 -0.30471,0.328154 -0.1875,0.75 0.24998,0.34379 0.24997,2.09378 -0.0312,5.25 -2.68751,0.09378 -5.65627,0.06254 -8.875,-0.0625 l -0.1875,0.09375 c 0.0937,1.25003 0.15623,2.625019 0.1875,4.125 3.09374,-0.12498 5.96872,-0.24997 8.59375,-0.40625 -0.12501,2.31253 -0.18753,4.937519 -0.15625,7.90625 -1.84377,0.81251 -3.46878,1.843771 -4.90625,3.09375 -1.43751,1.25002 -2.62502,2.78126 -3.53125,4.59375 -0.87501,1.78126 -1.25002,3.75001 -1.15625,5.90625 0.0937,2.12501 0.62498,3.8125 1.59375,5.03125 0.99999,1.1875 2.31248,1.875 3.96875,2.09375 1.65623,0.25 3.21872,0.03125 4.65625,-0.6875 1.43748,-0.6875 2.53121,-1.3125 3.28125,-1.84375 l 0.59375,1.5 c 2.06248,-1.125 3.56246,-1.8125 4.46875,-2.09375 l 0.0312,-0.53125 c -0.46878,-0.84375 -0.90629,-1.65625 -1.3125,-2.46875 1.74997,-2.06249 3.15621,-4.15624 4.21875,-6.28125 1.06247,-2.15624 2.0312,-4.46873 2.875,-6.9375 1.09372,0.15627 2.37495,0.50002 3.84375,1.03125 1.49997,0.53127 2.74995,1.53127 3.78125,3 1.03121,1.46876 1.49995,2.968759 1.40625,4.53125 -0.0938,1.5625 -0.68755,2.96876 -1.78125,4.21875 -1.09379,1.25001 -2.5938,2.25 -4.53125,2.96875 -1.90628,0.71875 -3.87505,1.21875 -5.90625,1.5 l 0,0.5 c 0.99997,1.37499 1.68746,2.71875 2.09375,4 2.28122,-0.5 4.5312,-1.28125 6.71875,-2.34375 2.21871,-1.0625 4.12494,-2.65624 5.71875,-4.75 1.62496,-2.12499 2.40619,-4.24999 2.34375,-6.375 -0.0625,-2.15623 -0.78131,-4.18749 -2.15625,-6.125 -1.37504,-1.93748 -3.1563,-3.28123 -5.3125,-4.03125 -2.15629,-0.78123 -3.8438,-1.312481 -5.09375,-1.5625 l 0.59375,-2 0.75,-0.65625 c 0.37496,-0.37497 0.31245,-0.656219 -0.1875,-0.8125 l -4.34375,-0.875 c -0.56253,-0.06247 -0.81254,0.18753 -0.75,0.75 0.18747,0.15628 0.0312,1.218769 -0.46875,3.21875 -3.00002,0.15627 -5.53128,0.53127 -7.5625,1.09375 -2e-5,-1.81248 0.0937,-4.09372 0.28125,-6.84375 0.84373,-0.09372 2.49997,-0.24997 4.96875,-0.46875 2.49997,-0.24997 5.56246,-0.68747 9.1875,-1.3125 l -1.15625,-3.90625 c -3.71878,0.90628 -7.96879,1.59378 -12.71875,2.03125 0.12498,-1.24997 0.24997,-2.593709 0.375,-4 l 0.625,-0.59375 c 0.34373,-0.34371 0.24997,-0.593709 -0.25,-0.71875 l -4.3125,-0.5 c -0.11719,-0.01561 -0.20312,-0.02344 -0.28125,0 z m 9.84375,18.75 c -0.65628,2.03127 -1.34379,3.84376 -2.09375,5.46875 -0.75002,1.59376 -1.56253,2.968759 -2.40625,4.125 -0.34377,-0.96874 -0.68754,-2.09374 -1.0625,-3.40625 -0.37502,-1.34374 -0.65629,-2.99998 -0.84375,-4.96875 2.53123,-0.71873 4.65621,-1.12498 6.40625,-1.21875 z m -10.21875,2.8125 c 0.15623,1.62501 0.40622,3.25001 0.71875,4.875 0.34374,1.62501 0.84372,3.46876 1.53125,5.53125 -0.56252,0.46876 -1.28128,0.96876 -2.15625,1.53125 -0.87502,0.53126 -1.87503,0.84375 -3,0.90625 -1.12501,0.0625 -1.90628,-0.21875 -2.375,-0.84375 -0.43751,-0.625 -0.65628,-1.62499 -0.65625,-3 0.0312,-1.40624 0.34372,-2.74999 0.9375,-4.03125 0.62499,-1.31249 1.43748,-2.37499 2.46875,-3.1875 1.06248,-0.84373 1.90622,-1.43748 2.53125,-1.78125 z"
     inkscape:connector-curvature="0"
     style="fill:none;stroke:#000000;stroke-opacity:1" />
  <!-- -I -->
  <!-- -U -->
  <!-- -E -->
  <!-- -O -->
  <!-- column headers -->
  <!-- row headers -->
</svg>
