<?xml version="1.0" encoding="UTF-8" standalone="no"?>
<svg
   xmlns:dc="http://purl.org/dc/elements/1.1/"
   xmlns:cc="http://creativecommons.org/ns#"
   xmlns:rdf="http://www.w3.org/1999/02/22-rdf-syntax-ns#"
   xmlns:svg="http://www.w3.org/2000/svg"
   xmlns="http://www.w3.org/2000/svg"
   xmlns:sodipodi="http://sodipodi.sourceforge.net/DTD/sodipodi-0.dtd"
   xmlns:inkscape="http://www.inkscape.org/namespaces/inkscape"
   version="1.0"
   width="65"
   height="80"
   id="svg2"
   sodipodi:version="0.32"
   inkscape:version="0.48.0 r9654"
   sodipodi:docname="ke.svg"
   inkscape:output_extension="org.inkscape.output.svg.inkscape"
   inkscape:export-filename="E:\trevorde\EllieSoft\Hiragana Tracer\Resources\www\Resources\Alphabet\ke.png"
   inkscape:export-xdpi="360"
   inkscape:export-ydpi="360">
  <metadata
     id="metadataHiragana">
    <rdf:RDF>
      <cc:Work
         rdf:about="">
        <dc:format>image/svg+xml</dc:format>
        <dc:type
           rdf:resource="http://purl.org/dc/dcmitype/StillImage" />
        <dc:title />
      </cc:Work>
    </rdf:RDF>
  </metadata>
  <sodipodi:namedview
     inkscape:window-height="752"
     inkscape:window-width="1280"
     inkscape:pageshadow="2"
     inkscape:pageopacity="0.0"
     guidetolerance="10.0"
     gridtolerance="10.0"
     objecttolerance="10.0"
     borderopacity="1.0"
     bordercolor="#666666"
     pagecolor="#ffffff"
     id="base"
     inkscape:zoom="7.0375"
     inkscape:cx="32.5"
     inkscape:cy="5.8969805"
     inkscape:window-x="0"
     inkscape:window-y="50"
     inkscape:current-layer="svg2"
     showgrid="false"
     inkscape:window-maximized="0" />
  <!-- arrow ends -->
  <defs
     id="defsHiragana">
    <marker
       refX="0"
       refY="0"
       orient="auto"
       style="overflow:visible"
       id="Arrow2Mend">
      <path
         d="M 8.7185878,4.0337352 -2.2072895,0.01601326 8.7185884,-4.0017078 c -1.7454984,2.3720609 -1.7354408,5.6174519 -6e-7,8.035443 z"
         transform="scale(-0.6,-0.6)"
         class="arrow"
         id="path3344"
         style="font-size:12px;fill:#0000ff;fill-rule:evenodd;stroke:#0000ff;stroke-width:1pt;stroke-linejoin:round;marker-start:none"
         inkscape:connector-curvature="0" />
    </marker>
    <marker
       refX="0"
       refY="0"
       orient="auto"
       style="overflow:visible"
       id="Arrow2Send">
      <path
         d="M 8.7185878,4.0337352 -2.2072895,0.01601326 8.7185884,-4.0017078 c -1.7454984,2.3720609 -1.7354408,5.6174519 -6e-7,8.035443 z"
         transform="matrix(-0.3,0,0,-0.3,0.69,0)"
         class="arrow"
         id="path3338"
         style="font-size:12px;fill:#0000ff;fill-rule:evenodd;stroke:#0000ff;stroke-width:1pt;stroke-linejoin:round;marker-start:none"
         inkscape:connector-curvature="0" />
    </marker>
    <marker
       refX="0"
       refY="0"
       orient="auto"
       style="overflow:visible"
       id="Arrow1Send">
      <path
         d="M 0,0 5,-5 -12.5,0 5,5 0,0 z"
         transform="matrix(-0.2,0,0,-0.2,-1.2,0)"
         class="arrow"
         id="path3356"
         style="font-size:12px;fill:#0000ff;fill-rule:evenodd;stroke:#0000ff;stroke-width:1pt;stroke-linejoin:round;marker-start:none"
         inkscape:connector-curvature="0" />
    </marker>
    <marker
       refX="0"
       refY="0"
       orient="auto"
       style="overflow:visible"
       id="Arrow1Mend">
      <path
         d="M 0,0 5,-5 -12.5,0 5,5 0,0 z"
         transform="matrix(-0.4,0,0,-0.4,-4,0)"
         class="arrow"
         id="path3362"
         style="font-size:12px;fill:#0000ff;fill-rule:evenodd;stroke:#0000ff;stroke-width:1pt;stroke-linejoin:round;marker-start:none"
         inkscape:connector-curvature="0" />
    </marker>
    <marker
       refX="0"
       refY="0"
       orient="auto"
       style="overflow:visible"
       id="Arrow1Lend">
      <path
         d="M 0,0 5,-5 -12.5,0 5,5 0,0 z"
         transform="matrix(-0.8,0,0,-0.8,-10,0)"
         class="arrow"
         id="path3368"
         style="font-size:12px;fill:#0000ff;fill-rule:evenodd;stroke:#0000ff;stroke-width:1pt;stroke-linejoin:round;marker-start:none"
         inkscape:connector-curvature="0" />
    </marker>
  </defs>
  <style
     type="text/css"
     id="style3609">
		path.stroke /* arrow lines */
		{
			fill: none; fill-opacity: 0.75; fill-rule: evenodd;
			stroke: blue; stroke-width: 1px; stroke-linecap: butt; stroke-linejoin: miter; stroke-opacity:1;
			marker-end: url(#Arrow1Mend);
		}
		path.arrow /* heads */
		{
			font-size: 12px;
			fill-rule: evenodd;
			fill: blue;
			stroke: blue; stroke-width: 1pt;/*0.625*/ stroke-linejoin: round;
			marker-start: none;
		}
		text.number
		{
			font-size: 8px;
			fill: blue;
		}
		text.label
		{
			font-size: 22px;
		}
		text.cell
		{
			font-style: italic;
			text-transform: lowercase;
			fill: gray;
/*			display: none;*/
		}
/*		path.old
		{
			fill: gray;
		}
*/		path.rule
		{
			fill: none; fill-opacity: 0.75; fill-rule: evenodd;
			stroke: black; stroke-width: 1px; stroke-linecap: butt; stroke-linejoin: miter; stroke-opacity: 0.1;
		}
		path.rule[id*=&quot;V&quot;]
		{
			stroke-opacity: 0;
		}
		path#ruleH1, path#ruleV12
		{
			stroke-opacity: 0.8;
		}
		defs marker
		{
			overflow: visible;
		}
	</style>
  <!-- table rules -->
  <!-- glyphs -->
  <!-- -A -->
  <!-- -I -->
  <!-- -U -->
  <!-- -E -->
  <text
     style="font-size:10px;font-style:italic;text-transform:lowercase;fill:#808080"
     x="9.5556641"
     y="70"
     id="cellKE"
     class="label cell">KE</text>
  <path
     id="path2163"
     d="m 42.43779,12.17007 c -0.31056,0.041 -0.38284,0.25002 -0.21875,0.625 0.24997,0.53128 0.4687,2.15628 0.625,4.84375 0.15622,2.65628 0.24995,4.34377 0.28125,5.0625 -4.15628,0.31253 -8.68754,0.28127 -13.5625,-0.0937 l -0.125,0.40625 c 0.31248,1.28128 0.46872,2.62501 0.5,4 3.96872,-0.0312 8.43746,-0.21874 13.40625,-0.53125 0.0625,0.87502 0.0937,1.59376 0.0937,2.125 0.0312,0.53127 0.0624,1.84376 0.0625,3.9375 -3e-5,2.06251 -0.1563,4.00002 -0.4375,5.84375 -0.25004,1.81251 -0.78129,3.37501 -1.59375,4.6875 -0.78128,1.31251 -1.75004,2.43751 -2.90625,3.375 -1.12503,0.90626 -2.84379,1.74999 -5.15625,2.5 l 0,0.5 c 1.06247,1.34375 1.90621,2.65624 2.53125,3.90625 2.28122,-1.28125 4.12495,-2.53125 5.5,-3.71875 1.40622,-1.18749 2.5937,-2.59376 3.59375,-4.25 0.99996,-1.68749 1.68745,-3.65625 2.03125,-5.90625 0.34372,-2.28124 0.4687,-4.46875 0.40625,-6.5625 -0.0625,-2.09373 -0.12505,-4.34374 -0.1875,-6.75 2.84371,-0.31248 5.37494,-0.71874 7.5625,-1.21875 l -1.3125,-3.9375 c -2.00004,0.53128 -4.12506,0.93753 -6.375,1.25 -0.0938,-2.40622 -0.2188,-5.21871 -0.34375,-8.4375 l 0.34375,-0.875 c 0.21872,-0.37496 0.12495,-0.59371 -0.28125,-0.65625 l -4.03125,-0.0937 c -0.15626,-0.0234 -0.30273,-0.0449 -0.40625,-0.0312 z m -24.40625,2.40625 c -0.53126,0.0313 -0.75002,0.25002 -0.65625,0.65625 0.24999,0.43753 0.18748,2.15629 -0.1875,5.15625 -0.37501,3.00003 -0.62502,6.43751 -0.75,10.28125 -0.0938,3.84376 0.0625,6.9375 0.46875,9.3125 0.40624,2.375 1.06248,4.28126 1.96875,5.71875 0.90624,1.40626 1.96873,2.03126 3.1875,1.875 1.21873,-0.18749 2.96872,-1.68749 5.21875,-4.5 -1.06251,-1.03124 -2.12503,-2.15625 -3.1875,-3.40625 l -0.15625,0 c -0.87502,1.71876 -1.50002,2.46875 -1.875,2.25 -0.37501,-0.21874 -0.71877,-1.06251 -1.03125,-2.5 -0.31251,-1.46874 -0.46877,-4.28125 -0.46875,-8.4375 0.0312,-4.15623 0.49997,-8.84374 1.375,-14.0625 l 0.6875,-0.75 c 0.43748,-0.40622 0.43747,-0.68746 0,-0.84375 l -4.59375,-0.75 z"
     inkscape:connector-curvature="0"
     style="fill:none;stroke:#000000;stroke-opacity:1" />
  <!-- -O -->
  <!-- column headers -->
  <!-- row headers -->
</svg>
