<?xml version="1.0" encoding="UTF-8" standalone="no"?>
<svg
   xmlns:dc="http://purl.org/dc/elements/1.1/"
   xmlns:cc="http://creativecommons.org/ns#"
   xmlns:rdf="http://www.w3.org/1999/02/22-rdf-syntax-ns#"
   xmlns:svg="http://www.w3.org/2000/svg"
   xmlns="http://www.w3.org/2000/svg"
   xmlns:sodipodi="http://sodipodi.sourceforge.net/DTD/sodipodi-0.dtd"
   xmlns:inkscape="http://www.inkscape.org/namespaces/inkscape"
   version="1.0"
   width="65"
   height="80"
   id="svg2"
   sodipodi:version="0.32"
   inkscape:version="0.48.0 r9654"
   sodipodi:docname="mi.svg"
   inkscape:output_extension="org.inkscape.output.svg.inkscape"
   inkscape:export-filename="E:\trevorde\EllieSoft\Hiragana Tracer\Resources\www\Resources\Alphabet\mi.png"
   inkscape:export-xdpi="360"
   inkscape:export-ydpi="360">
  <metadata
     id="metadataHiragana">
    <rdf:RDF>
      <cc:Work
         rdf:about="">
        <dc:format>image/svg+xml</dc:format>
        <dc:type
           rdf:resource="http://purl.org/dc/dcmitype/StillImage" />
        <dc:title />
      </cc:Work>
    </rdf:RDF>
  </metadata>
  <sodipodi:namedview
     inkscape:window-height="752"
     inkscape:window-width="1280"
     inkscape:pageshadow="2"
     inkscape:pageopacity="0.0"
     guidetolerance="10.0"
     gridtolerance="10.0"
     objecttolerance="10.0"
     borderopacity="1.0"
     bordercolor="#666666"
     pagecolor="#ffffff"
     id="base"
     inkscape:zoom="7.0375"
     inkscape:cx="32.5"
     inkscape:cy="40"
     inkscape:window-x="0"
     inkscape:window-y="75"
     inkscape:current-layer="svg2"
     showgrid="false"
     inkscape:window-maximized="0" />
  <!-- arrow ends -->
  <defs
     id="defsHiragana">
    <marker
       refX="0"
       refY="0"
       orient="auto"
       style="overflow:visible"
       id="Arrow2Mend">
      <path
         d="M 8.7185878,4.0337352 -2.2072895,0.01601326 8.7185884,-4.0017078 c -1.7454984,2.3720609 -1.7354408,5.6174519 -6e-7,8.035443 z"
         transform="scale(-0.6,-0.6)"
         class="arrow"
         id="path3344"
         style="font-size:12px;fill:#0000ff;fill-rule:evenodd;stroke:#0000ff;stroke-width:1pt;stroke-linejoin:round;marker-start:none"
         inkscape:connector-curvature="0" />
    </marker>
    <marker
       refX="0"
       refY="0"
       orient="auto"
       style="overflow:visible"
       id="Arrow2Send">
      <path
         d="M 8.7185878,4.0337352 -2.2072895,0.01601326 8.7185884,-4.0017078 c -1.7454984,2.3720609 -1.7354408,5.6174519 -6e-7,8.035443 z"
         transform="matrix(-0.3,0,0,-0.3,0.69,0)"
         class="arrow"
         id="path3338"
         style="font-size:12px;fill:#0000ff;fill-rule:evenodd;stroke:#0000ff;stroke-width:1pt;stroke-linejoin:round;marker-start:none"
         inkscape:connector-curvature="0" />
    </marker>
    <marker
       refX="0"
       refY="0"
       orient="auto"
       style="overflow:visible"
       id="Arrow1Send">
      <path
         d="M 0,0 5,-5 -12.5,0 5,5 0,0 z"
         transform="matrix(-0.2,0,0,-0.2,-1.2,0)"
         class="arrow"
         id="path3356"
         style="font-size:12px;fill:#0000ff;fill-rule:evenodd;stroke:#0000ff;stroke-width:1pt;stroke-linejoin:round;marker-start:none"
         inkscape:connector-curvature="0" />
    </marker>
    <marker
       refX="0"
       refY="0"
       orient="auto"
       style="overflow:visible"
       id="Arrow1Mend">
      <path
         d="M 0,0 5,-5 -12.5,0 5,5 0,0 z"
         transform="matrix(-0.4,0,0,-0.4,-4,0)"
         class="arrow"
         id="path3362"
         style="font-size:12px;fill:#0000ff;fill-rule:evenodd;stroke:#0000ff;stroke-width:1pt;stroke-linejoin:round;marker-start:none"
         inkscape:connector-curvature="0" />
    </marker>
    <marker
       refX="0"
       refY="0"
       orient="auto"
       style="overflow:visible"
       id="Arrow1Lend">
      <path
         d="M 0,0 5,-5 -12.5,0 5,5 0,0 z"
         transform="matrix(-0.8,0,0,-0.8,-10,0)"
         class="arrow"
         id="path3368"
         style="font-size:12px;fill:#0000ff;fill-rule:evenodd;stroke:#0000ff;stroke-width:1pt;stroke-linejoin:round;marker-start:none"
         inkscape:connector-curvature="0" />
    </marker>
  </defs>
  <style
     type="text/css"
     id="style3609">
		path.stroke /* arrow lines */
		{
			fill: none; fill-opacity: 0.75; fill-rule: evenodd;
			stroke: blue; stroke-width: 1px; stroke-linecap: butt; stroke-linejoin: miter; stroke-opacity:1;
			marker-end: url(#Arrow1Mend);
		}
		path.arrow /* heads */
		{
			font-size: 12px;
			fill-rule: evenodd;
			fill: blue;
			stroke: blue; stroke-width: 1pt;/*0.625*/ stroke-linejoin: round;
			marker-start: none;
		}
		text.number
		{
			font-size: 8px;
			fill: blue;
		}
		text.label
		{
			font-size: 22px;
		}
		text.cell
		{
			font-style: italic;
			text-transform: lowercase;
			fill: gray;
/*			display: none;*/
		}
/*		path.old
		{
			fill: gray;
		}
*/		path.rule
		{
			fill: none; fill-opacity: 0.75; fill-rule: evenodd;
			stroke: black; stroke-width: 1px; stroke-linecap: butt; stroke-linejoin: miter; stroke-opacity: 0.1;
		}
		path.rule[id*=&quot;V&quot;]
		{
			stroke-opacity: 0;
		}
		path#ruleH1, path#ruleV12
		{
			stroke-opacity: 0.8;
		}
		defs marker
		{
			overflow: visible;
		}
	</style>
  <!-- table rules -->
  <!-- glyphs -->
  <!-- -A -->
  <!-- -I -->
  <text
     style="font-size:10px;font-style:italic;text-transform:lowercase;fill:#808080"
     x="9.5605469"
     y="70"
     id="cellMI"
     class="label cell">MI</text>
  <path
     id="path2071"
     d="m 31.58139,14.71735 c -0.0781,0 -0.14064,0.0625 -0.1875,0.15625 l -0.53125,0.5 c -5.12502,0.65628 -9.78128,1.09378 -14,1.28125 l -0.25,0.5625 c 0.56249,1.00003 0.93747,2.31254 1.09375,3.96875 4.87499,-1.09372 8.71872,-1.78121 11.5625,-2.0625 -1.00002,4.31252 -2.09379,8.18753 -3.3125,11.625 -1.31252,0.0313 -2.81253,0.18752 -4.5,0.4375 -1.65626,0.21877 -3.37502,0.84377 -5.125,1.875 -1.71876,1.00002 -3.09377,2.31252 -4.15625,3.96875 -1.0625,1.62502 -1.50002,3.34376 -1.28125,5.125 0.21874,1.75001 0.74998,3.06251 1.59375,3.9375 0.84374,0.875 2.03122,1.4375 3.53125,1.6875 1.53124,0.25 3.06247,10e-6 4.59375,-0.71875 1.56249,-0.75 2.96872,-2.15624 4.25,-4.21875 1.31248,-2.06249 2.65621,-4.84374 4,-8.375 1.96873,0.18752 4.06246,0.59377 6.3125,1.25 2.24997,0.62502 4.18745,1.31252 5.78125,2.0625 -0.96878,2.37502 -2.28129,4.56251 -3.90625,6.53125 -1.62503,1.96875 -3.87504,3.78126 -6.78125,5.46875 l 0,0.4375 c 1.31248,1.1875 2.37496,2.4375 3.1875,3.75 3.46872,-2.96875 5.9687,-5.56249 7.5,-7.75 1.56247,-2.18749 2.8437,-4.34374 3.84375,-6.5 1.71871,0.96876 3.59369,2.06251 5.625,3.3125 1.12496,-1.93749 2.12494,-3.31249 3.03125,-4.15625 l 0,-0.34375 c -2.5938,-1.24998 -4.93755,-2.31248 -7.03125,-3.1875 0.68746,-2.40623 1.24995,-5.34373 1.6875,-8.84375 l 0.46875,-0.65625 c 0.40621,-0.34372 0.4062,-0.62497 0,-0.8125 l -4.4375,-0.9375 c -0.56253,-0.15622 -0.81255,3e-5 -0.71875,0.46875 0.12496,0.34377 0.0625,1.59378 -0.1875,3.75 -0.25004,2.12502 -0.56255,3.93752 -0.9375,5.4375 -1.34379,-0.46874 -3.0938,-0.96873 -5.25,-1.5 -2.15628,-0.56249 -4.46879,-0.96873 -6.9375,-1.25 1.28122,-3.49998 2.71871,-7.59372 4.3125,-12.28125 l 0.90625,-0.5625 c 0.78122,-0.37497 0.81246,-0.78122 0.125,-1.21875 -1.09378,-0.68747 -2.28129,-1.37496 -3.59375,-2.0625 -0.10938,-0.0937 -0.20313,-0.15625 -0.28125,-0.15625 z m -7,19.65625 c -1.15627,2.87501 -2.18753,5.03126 -3.125,6.46875 -0.93751,1.40626 -1.84378,2.28126 -2.71875,2.65625 -0.84376,0.34375 -1.65628,0.37501 -2.4375,0.0625 -0.75001,-0.34374 -1.15628,-1.06249 -1.21875,-2.15625 -0.0625,-1.09374 0.24997,-2.15624 0.9375,-3.1875 0.71874,-1.03124 1.81247,-1.87499 3.28125,-2.53125 1.46874,-0.68748 2.65622,-1.06248 3.5625,-1.125 0.90624,-0.0937 1.46872,-0.15623 1.71875,-0.1875 z"
     inkscape:connector-curvature="0"
     style="fill:none;stroke:#000000;stroke-opacity:1" />
  <!-- -U -->
  <!-- -E -->
  <!-- -O -->
  <!-- column headers -->
  <!-- row headers -->
</svg>
