<?xml version="1.0" encoding="UTF-8" standalone="no"?>
<svg
   xmlns:dc="http://purl.org/dc/elements/1.1/"
   xmlns:cc="http://creativecommons.org/ns#"
   xmlns:rdf="http://www.w3.org/1999/02/22-rdf-syntax-ns#"
   xmlns:svg="http://www.w3.org/2000/svg"
   xmlns="http://www.w3.org/2000/svg"
   xmlns:sodipodi="http://sodipodi.sourceforge.net/DTD/sodipodi-0.dtd"
   xmlns:inkscape="http://www.inkscape.org/namespaces/inkscape"
   version="1.0"
   width="65"
   height="80"
   id="svg2"
   sodipodi:version="0.32"
   inkscape:version="0.48.0 r9654"
   sodipodi:docname="mu.svg"
   inkscape:output_extension="org.inkscape.output.svg.inkscape"
   inkscape:export-filename="E:\trevorde\EllieSoft\Hiragana Tracer\Resources\www\Resources\Alphabet\mu.png"
   inkscape:export-xdpi="360"
   inkscape:export-ydpi="360">
  <metadata
     id="metadataHiragana">
    <rdf:RDF>
      <cc:Work
         rdf:about="">
        <dc:format>image/svg+xml</dc:format>
        <dc:type
           rdf:resource="http://purl.org/dc/dcmitype/StillImage" />
        <dc:title />
      </cc:Work>
    </rdf:RDF>
  </metadata>
  <sodipodi:namedview
     inkscape:window-height="752"
     inkscape:window-width="1280"
     inkscape:pageshadow="2"
     inkscape:pageopacity="0.0"
     guidetolerance="10.0"
     gridtolerance="10.0"
     objecttolerance="10.0"
     borderopacity="1.0"
     bordercolor="#666666"
     pagecolor="#ffffff"
     id="base"
     inkscape:zoom="7.0375"
     inkscape:cx="32.5"
     inkscape:cy="22.94849"
     inkscape:window-x="0"
     inkscape:window-y="175"
     inkscape:current-layer="svg2"
     showgrid="false"
     inkscape:window-maximized="0" />
  <!-- arrow ends -->
  <defs
     id="defsHiragana">
    <marker
       refX="0"
       refY="0"
       orient="auto"
       style="overflow:visible"
       id="Arrow2Mend">
      <path
         d="M 8.7185878,4.0337352 -2.2072895,0.01601326 8.7185884,-4.0017078 c -1.7454984,2.3720609 -1.7354408,5.6174519 -6e-7,8.035443 z"
         transform="scale(-0.6,-0.6)"
         class="arrow"
         id="path3344"
         style="font-size:12px;fill:#0000ff;fill-rule:evenodd;stroke:#0000ff;stroke-width:1pt;stroke-linejoin:round;marker-start:none"
         inkscape:connector-curvature="0" />
    </marker>
    <marker
       refX="0"
       refY="0"
       orient="auto"
       style="overflow:visible"
       id="Arrow2Send">
      <path
         d="M 8.7185878,4.0337352 -2.2072895,0.01601326 8.7185884,-4.0017078 c -1.7454984,2.3720609 -1.7354408,5.6174519 -6e-7,8.035443 z"
         transform="matrix(-0.3,0,0,-0.3,0.69,0)"
         class="arrow"
         id="path3338"
         style="font-size:12px;fill:#0000ff;fill-rule:evenodd;stroke:#0000ff;stroke-width:1pt;stroke-linejoin:round;marker-start:none"
         inkscape:connector-curvature="0" />
    </marker>
    <marker
       refX="0"
       refY="0"
       orient="auto"
       style="overflow:visible"
       id="Arrow1Send">
      <path
         d="M 0,0 5,-5 -12.5,0 5,5 0,0 z"
         transform="matrix(-0.2,0,0,-0.2,-1.2,0)"
         class="arrow"
         id="path3356"
         style="font-size:12px;fill:#0000ff;fill-rule:evenodd;stroke:#0000ff;stroke-width:1pt;stroke-linejoin:round;marker-start:none"
         inkscape:connector-curvature="0" />
    </marker>
    <marker
       refX="0"
       refY="0"
       orient="auto"
       style="overflow:visible"
       id="Arrow1Mend">
      <path
         d="M 0,0 5,-5 -12.5,0 5,5 0,0 z"
         transform="matrix(-0.4,0,0,-0.4,-4,0)"
         class="arrow"
         id="path3362"
         style="font-size:12px;fill:#0000ff;fill-rule:evenodd;stroke:#0000ff;stroke-width:1pt;stroke-linejoin:round;marker-start:none"
         inkscape:connector-curvature="0" />
    </marker>
    <marker
       refX="0"
       refY="0"
       orient="auto"
       style="overflow:visible"
       id="Arrow1Lend">
      <path
         d="M 0,0 5,-5 -12.5,0 5,5 0,0 z"
         transform="matrix(-0.8,0,0,-0.8,-10,0)"
         class="arrow"
         id="path3368"
         style="font-size:12px;fill:#0000ff;fill-rule:evenodd;stroke:#0000ff;stroke-width:1pt;stroke-linejoin:round;marker-start:none"
         inkscape:connector-curvature="0" />
    </marker>
  </defs>
  <style
     type="text/css"
     id="style3609">
		path.stroke /* arrow lines */
		{
			fill: none; fill-opacity: 0.75; fill-rule: evenodd;
			stroke: blue; stroke-width: 1px; stroke-linecap: butt; stroke-linejoin: miter; stroke-opacity:1;
			marker-end: url(#Arrow1Mend);
		}
		path.arrow /* heads */
		{
			font-size: 12px;
			fill-rule: evenodd;
			fill: blue;
			stroke: blue; stroke-width: 1pt;/*0.625*/ stroke-linejoin: round;
			marker-start: none;
		}
		text.number
		{
			font-size: 8px;
			fill: blue;
		}
		text.label
		{
			font-size: 22px;
		}
		text.cell
		{
			font-style: italic;
			text-transform: lowercase;
			fill: gray;
/*			display: none;*/
		}
/*		path.old
		{
			fill: gray;
		}
*/		path.rule
		{
			fill: none; fill-opacity: 0.75; fill-rule: evenodd;
			stroke: black; stroke-width: 1px; stroke-linecap: butt; stroke-linejoin: miter; stroke-opacity: 0.1;
		}
		path.rule[id*=&quot;V&quot;]
		{
			stroke-opacity: 0;
		}
		path#ruleH1, path#ruleV12
		{
			stroke-opacity: 0.8;
		}
		defs marker
		{
			overflow: visible;
		}
	</style>
  <!-- table rules -->
  <!-- glyphs -->
  <!-- -A -->
  <!-- -I -->
  <!-- -U -->
  <text
     style="font-size:10px;font-style:italic;text-transform:lowercase;fill:#808080"
     x="9.5605469"
     y="69.873047"
     id="cellMU"
     class="label cell">MU</text>
  <path
     id="path2067"
     d="m 23.83086,12.26434 c -0.43751,4e-5 -0.62503,0.25004 -0.53125,0.71875 0.24998,0.46879 0.37497,2.78129 0.34375,6.96875 -2.87501,0.0625 -6.15628,-0.0312 -9.84375,-0.28125 l -0.15625,0.4375 c 0.28124,1.21878 0.46873,2.53128 0.5625,3.96875 3.06249,-0.12497 6.18748,-0.24997 9.375,-0.40625 -0.0313,2.09377 -0.0938,4.03127 -0.1875,5.8125 -0.21877,-0.0625 -0.68753,-0.15622 -1.4375,-0.25 -0.75001,-0.0937 -1.71877,0.0625 -2.875,0.46875 -1.12501,0.40628 -2.12503,1.06252 -3.03125,1.96875 -0.90625,0.90626 -1.53127,2.15627 -1.875,3.71875 -0.3125,1.53126 -0.37502,3.00001 -0.15625,4.40625 0.21874,1.37501 0.74998,2.43751 1.5625,3.1875 0.81249,0.71876 1.74997,1.15626 2.8125,1.3125 1.06249,0.12501 2.06248,1e-5 3.03125,-0.34375 -0.31251,1.46876 -0.15628,2.87501 0.46875,4.21875 0.62498,1.34375 1.81247,2.46875 3.53125,3.34375 1.71873,0.875 4.09372,1.28125 7.15625,1.21875 3.09372,-0.0312 5.5937,-0.1875 7.46875,-0.4375 1.90622,-0.25001 3.62495,-0.78125 5.15625,-1.625 1.56246,-0.8125 2.56245,-1.75 3.03125,-2.8125 0.46871,-1.0625 0.49994,-2.46875 0.0625,-4.21875 -0.40629,-1.78124 -0.9063,-4.37498 -1.46875,-7.75 l -4.6875,0.90625 c 0.90621,2.93751 1.49995,5.03126 1.78125,6.3125 0.31246,1.28125 0.37495,2.18751 0.1875,2.71875 -0.15629,0.53126 -0.6563,1.03126 -1.53125,1.5 -0.84378,0.46876 -2.0938,0.81251 -3.75,1.03125 -1.65628,0.1875 -3.71879,0.28126 -6.15625,0.28125 -2.43752,1e-5 -4.06253,-0.15625 -4.875,-0.5 -0.81252,-0.34375 -1.37504,-0.93749 -1.71875,-1.75 -0.34376,-0.81249 -0.43753,-1.84374 -0.25,-3.09375 0.21873,-1.28125 0.62496,-3.06249 1.1875,-5.34375 0.59373,-2.28123 0.65621,-3.99998 0.1875,-5.1875 0.18748,-2.06248 0.34371,-5.18747 0.46875,-9.34375 3.99998,-0.24998 7.78121,-0.65622 11.375,-1.25 l -0.6875,-4.09375 c -4.00002,0.84379 -7.53129,1.40628 -10.59375,1.65625 0.0312,-1.71872 0.0625,-3.59371 0.0937,-5.59375 l 0.5,-0.78125 c 0.31248,-0.37496 0.24997,-0.62496 -0.1875,-0.71875 l -4.34375,-0.375 z m 20.75,10.375 -2.46875,3.46875 c 3.59372,1.93752 6.74994,4.56252 9.46875,7.875 1.21871,-1.59373 2.31244,-2.84373 3.3125,-3.71875 l 0,-0.28125 c -2.7188,-2.28123 -6.1563,-4.71873 -10.3125,-7.34375 z m -23.25,9.78125 c 0.16602,-0.006 0.35937,-0.0156 0.53125,0 0.71874,0.0625 1.15622,0.37502 1.34375,0.9375 -0.21877,3.40626 -0.75003,5.50002 -1.625,6.28125 -0.87501,0.78126 -1.71878,1.09376 -2.53125,0.90625 -0.81251,-0.18749 -1.28128,-0.65623 -1.40625,-1.375 -0.12501,-0.71874 -0.12503,-1.62498 0,-2.71875 0.12499,-1.09373 0.37498,-1.90623 0.78125,-2.46875 0.40624,-0.56248 0.90623,-0.96873 1.5,-1.21875 0.4453,-0.21092 0.9082,-0.32617 1.40625,-0.34375 z"
     inkscape:connector-curvature="0"
     style="fill:none;stroke:#000000;stroke-opacity:1" />
  <!-- -E -->
  <!-- -O -->
  <!-- column headers -->
  <!-- row headers -->
</svg>
