<?xml version="1.0" encoding="UTF-8" standalone="no"?>
<svg
   xmlns:dc="http://purl.org/dc/elements/1.1/"
   xmlns:cc="http://creativecommons.org/ns#"
   xmlns:rdf="http://www.w3.org/1999/02/22-rdf-syntax-ns#"
   xmlns:svg="http://www.w3.org/2000/svg"
   xmlns="http://www.w3.org/2000/svg"
   xmlns:sodipodi="http://sodipodi.sourceforge.net/DTD/sodipodi-0.dtd"
   xmlns:inkscape="http://www.inkscape.org/namespaces/inkscape"
   version="1.0"
   width="65"
   height="80"
   id="svg2"
   sodipodi:version="0.32"
   inkscape:version="0.48.0 r9654"
   sodipodi:docname="na.svg"
   inkscape:output_extension="org.inkscape.output.svg.inkscape"
   inkscape:export-filename="E:\trevorde\EllieSoft\Hiragana Tracer\Resources\www\Resources\Alphabet\na.png"
   inkscape:export-xdpi="360"
   inkscape:export-ydpi="360">
  <metadata
     id="metadataHiragana">
    <rdf:RDF>
      <cc:Work
         rdf:about="">
        <dc:format>image/svg+xml</dc:format>
        <dc:type
           rdf:resource="http://purl.org/dc/dcmitype/StillImage" />
        <dc:title />
      </cc:Work>
    </rdf:RDF>
  </metadata>
  <sodipodi:namedview
     inkscape:window-height="708"
     inkscape:window-width="1024"
     inkscape:pageshadow="2"
     inkscape:pageopacity="0.0"
     guidetolerance="10.0"
     gridtolerance="10.0"
     objecttolerance="10.0"
     borderopacity="1.0"
     bordercolor="#666666"
     pagecolor="#ffffff"
     id="base"
     inkscape:zoom="6.4875"
     inkscape:cx="32.5"
     inkscape:cy="39.254072"
     inkscape:window-x="25"
     inkscape:window-y="25"
     inkscape:current-layer="svg2"
     showgrid="false"
     inkscape:window-maximized="0" />
  <!-- arrow ends -->
  <defs
     id="defsHiragana">
    <marker
       refX="0"
       refY="0"
       orient="auto"
       style="overflow:visible"
       id="Arrow2Mend">
      <path
         d="M 8.7185878,4.0337352 -2.2072895,0.01601326 8.7185884,-4.0017078 c -1.7454984,2.3720609 -1.7354408,5.6174519 -6e-7,8.035443 z"
         transform="scale(-0.6,-0.6)"
         class="arrow"
         id="path3344"
         style="font-size:12px;fill:#0000ff;fill-rule:evenodd;stroke:#0000ff;stroke-width:1pt;stroke-linejoin:round;marker-start:none"
         inkscape:connector-curvature="0" />
    </marker>
    <marker
       refX="0"
       refY="0"
       orient="auto"
       style="overflow:visible"
       id="Arrow2Send">
      <path
         d="M 8.7185878,4.0337352 -2.2072895,0.01601326 8.7185884,-4.0017078 c -1.7454984,2.3720609 -1.7354408,5.6174519 -6e-7,8.035443 z"
         transform="matrix(-0.3,0,0,-0.3,0.69,0)"
         class="arrow"
         id="path3338"
         style="font-size:12px;fill:#0000ff;fill-rule:evenodd;stroke:#0000ff;stroke-width:1pt;stroke-linejoin:round;marker-start:none"
         inkscape:connector-curvature="0" />
    </marker>
    <marker
       refX="0"
       refY="0"
       orient="auto"
       style="overflow:visible"
       id="Arrow1Send">
      <path
         d="M 0,0 5,-5 -12.5,0 5,5 0,0 z"
         transform="matrix(-0.2,0,0,-0.2,-1.2,0)"
         class="arrow"
         id="path3356"
         style="font-size:12px;fill:#0000ff;fill-rule:evenodd;stroke:#0000ff;stroke-width:1pt;stroke-linejoin:round;marker-start:none"
         inkscape:connector-curvature="0" />
    </marker>
    <marker
       refX="0"
       refY="0"
       orient="auto"
       style="overflow:visible"
       id="Arrow1Mend">
      <path
         d="M 0,0 5,-5 -12.5,0 5,5 0,0 z"
         transform="matrix(-0.4,0,0,-0.4,-4,0)"
         class="arrow"
         id="path3362"
         style="font-size:12px;fill:#0000ff;fill-rule:evenodd;stroke:#0000ff;stroke-width:1pt;stroke-linejoin:round;marker-start:none"
         inkscape:connector-curvature="0" />
    </marker>
    <marker
       refX="0"
       refY="0"
       orient="auto"
       style="overflow:visible"
       id="Arrow1Lend">
      <path
         d="M 0,0 5,-5 -12.5,0 5,5 0,0 z"
         transform="matrix(-0.8,0,0,-0.8,-10,0)"
         class="arrow"
         id="path3368"
         style="font-size:12px;fill:#0000ff;fill-rule:evenodd;stroke:#0000ff;stroke-width:1pt;stroke-linejoin:round;marker-start:none"
         inkscape:connector-curvature="0" />
    </marker>
  </defs>
  <style
     type="text/css"
     id="style3609">
		path.stroke /* arrow lines */
		{
			fill: none; fill-opacity: 0.75; fill-rule: evenodd;
			stroke: blue; stroke-width: 1px; stroke-linecap: butt; stroke-linejoin: miter; stroke-opacity:1;
			marker-end: url(#Arrow1Mend);
		}
		path.arrow /* heads */
		{
			font-size: 12px;
			fill-rule: evenodd;
			fill: blue;
			stroke: blue; stroke-width: 1pt;/*0.625*/ stroke-linejoin: round;
			marker-start: none;
		}
		text.number
		{
			font-size: 8px;
			fill: blue;
		}
		text.label
		{
			font-size: 22px;
		}
		text.cell
		{
			font-style: italic;
			text-transform: lowercase;
			fill: gray;
/*			display: none;*/
		}
/*		path.old
		{
			fill: gray;
		}
*/		path.rule
		{
			fill: none; fill-opacity: 0.75; fill-rule: evenodd;
			stroke: black; stroke-width: 1px; stroke-linecap: butt; stroke-linejoin: miter; stroke-opacity: 0.1;
		}
		path.rule[id*=&quot;V&quot;]
		{
			stroke-opacity: 0;
		}
		path#ruleH1, path#ruleV12
		{
			stroke-opacity: 0.8;
		}
		defs marker
		{
			overflow: visible;
		}
	</style>
  <!-- table rules -->
  <!-- glyphs -->
  <!-- -A -->
  <text
     style="font-size:10px;font-style:italic;text-transform:lowercase;fill:#808080"
     x="9.5117188"
     y="70"
     id="cellNA"
     class="label cell">NA</text>
  <path
     id="path2129"
     d="m 25.93749,12.2051 c -0.31251,0.09379 -0.50003,0.31254 -0.53125,0.65625 0.31248,0.56253 0.21872,1.68754 -0.28125,3.375 -0.46877,1.68753 -0.87503,3.09379 -1.21875,4.21875 -3.03126,0.31253 -6.31252,0.46878 -9.84375,0.46875 0.37499,1.34377 0.62498,2.78128 0.71875,4.3125 2.68749,-0.24998 5.24998,-0.49997 7.71875,-0.78125 -0.81252,2.09377 -1.96877,4.65628 -3.46875,7.71875 -1.46876,3.03126 -3.37502,6.31251 -5.75,9.8125 l 0.0312,0.40625 c 1.18749,0.62501 2.49998,1.53126 3.90625,2.71875 2.62499,-4.81249 4.65622,-8.87498 6.09375,-12.1875 1.46874,-3.31248 2.71872,-6.34373 3.78125,-9.125 3.96872,-0.56247 7.12496,-1.12497 9.4375,-1.6875 l -1.3125,-3.84375 c -1.90627,0.62503 -4.15629,1.15628 -6.71875,1.59375 0.49998,-1.59372 1.06246,-3.40621 1.65625,-5.40625 l 0.6875,-0.75 c 0.40622,-0.37496 0.40621,-0.62496 0,-0.78125 L 25.93744,12.2051 z m 16.25,7.3125 -1.78125,3.65625 c 3.53121,1.37502 7.18745,3.40628 10.96875,6.09375 0.9687,-1.56247 1.81244,-2.90623 2.53125,-4.0625 -4.21879,-2.15622 -8.12505,-4.06247 -11.71875,-5.6875 z m -4.6875,9.0625 c -0.59378,2e-5 -0.81254,0.25002 -0.65625,0.75 0.21872,0.40627 0.37496,1.59377 0.46875,3.59375 0.0937,2.00001 0.1562,4.25001 0.15625,6.71875 -1.78127,-0.34374 -3.43754,-0.46874 -4.96875,-0.375 -1.50002,0.06251 -2.90629,0.37501 -4.21875,0.9375 -1.28127,0.53126 -2.28128,1.43751 -2.96875,2.71875 -0.68752,1.28126 -1.00003,2.5625 -0.9375,3.84375 0.0937,1.28125 0.59372,2.37501 1.5,3.312503 0.90623,0.9375 2.03121,1.5625 3.34375,1.875 1.34373,0.34375 2.56246,0.531251 3.65625,0.531251 1.12498,0 2.24996,-0.15625 3.375,-0.468751 1.12497,-0.28125 2.12495,-0.84375 3,-1.6875 0.87497,-0.812503 1.40621,-1.812493 1.625,-2.968753 0.24996,-1.1875 0.4062,-2.06249 0.46875,-2.65625 1.12496,0.46876 2.37495,1.09375 3.75,1.875 1.37496,0.78125 3.18744,1.875 5.40625,3.28125 0.71871,-1.59375 1.49994,-3 2.34375,-4.21875 -4.68754,-2.34374 -8.43755,-3.99999 -11.25,-4.9375 -0.0313,-3.31248 -0.0625,-6.74998 -0.0937,-10.3125 l 0.40625,-0.6875 c 0.28121,-0.37498 0.2187,-0.65622 -0.1875,-0.8125 l -4.21875,-0.3125 z m -3.90625,14 c 0.53906,-0.0078 1.01561,0.04688 1.4375,0.15625 0.84373,0.21876 1.62495,0.40626 2.34375,0.59375 -0.0313,0.71876 -0.12504,1.50001 -0.25,2.34375 -0.12503,0.84375 -0.4063,1.53125 -0.875,2.03125 -0.46877,0.5 -1.03129,0.81251 -1.6875,0.96875 -0.65627,0.125 -1.56254,0.1875 -2.71875,0.15625 -1.12502,-0.0625 -2.00004,-0.31249 -2.625,-0.71875 -0.59377,-0.40625 -0.84379,-1 -0.75,-1.8125 0.0937,-0.84375 0.34371,-1.59374 0.75,-2.21875 0.40623,-0.65624 1.24997,-1.09374 2.5625,-1.3125 0.65623,-0.125 1.27344,-0.17969 1.8125,-0.1875 z"
     inkscape:connector-curvature="0"
     style="fill:none;stroke:#000000;stroke-opacity:1" />
  <!-- -I -->
  <!-- -U -->
  <!-- -E -->
  <!-- -O -->
  <!-- column headers -->
  <!-- row headers -->
</svg>
