<?xml version="1.0" encoding="UTF-8" standalone="no"?>
<svg
   xmlns:dc="http://purl.org/dc/elements/1.1/"
   xmlns:cc="http://creativecommons.org/ns#"
   xmlns:rdf="http://www.w3.org/1999/02/22-rdf-syntax-ns#"
   xmlns:svg="http://www.w3.org/2000/svg"
   xmlns="http://www.w3.org/2000/svg"
   xmlns:sodipodi="http://sodipodi.sourceforge.net/DTD/sodipodi-0.dtd"
   xmlns:inkscape="http://www.inkscape.org/namespaces/inkscape"
   version="1.0"
   width="65"
   height="80"
   id="svg2"
   sodipodi:version="0.32"
   inkscape:version="0.48.0 r9654"
   sodipodi:docname="no.svg"
   inkscape:output_extension="org.inkscape.output.svg.inkscape"
   inkscape:export-filename="E:\trevorde\EllieSoft\Hiragana Tracer\Resources\www\Resources\Alphabet\no.png"
   inkscape:export-xdpi="360"
   inkscape:export-ydpi="360">
  <metadata
     id="metadataHiragana">
    <rdf:RDF>
      <cc:Work
         rdf:about="">
        <dc:format>image/svg+xml</dc:format>
        <dc:type
           rdf:resource="http://purl.org/dc/dcmitype/StillImage" />
        <dc:title />
      </cc:Work>
    </rdf:RDF>
  </metadata>
  <sodipodi:namedview
     inkscape:window-height="708"
     inkscape:window-width="1024"
     inkscape:pageshadow="2"
     inkscape:pageopacity="0.0"
     guidetolerance="10.0"
     gridtolerance="10.0"
     objecttolerance="10.0"
     borderopacity="1.0"
     bordercolor="#666666"
     pagecolor="#ffffff"
     id="base"
     inkscape:zoom="6.4875"
     inkscape:cx="32.5"
     inkscape:cy="21.50289"
     inkscape:window-x="125"
     inkscape:window-y="125"
     inkscape:current-layer="svg2"
     showgrid="false"
     inkscape:window-maximized="0" />
  <!-- arrow ends -->
  <defs
     id="defsHiragana">
    <marker
       refX="0"
       refY="0"
       orient="auto"
       style="overflow:visible"
       id="Arrow2Mend">
      <path
         d="M 8.7185878,4.0337352 -2.2072895,0.01601326 8.7185884,-4.0017078 c -1.7454984,2.3720609 -1.7354408,5.6174519 -6e-7,8.035443 z"
         transform="scale(-0.6,-0.6)"
         class="arrow"
         id="path3344"
         style="font-size:12px;fill:#0000ff;fill-rule:evenodd;stroke:#0000ff;stroke-width:1pt;stroke-linejoin:round;marker-start:none"
         inkscape:connector-curvature="0" />
    </marker>
    <marker
       refX="0"
       refY="0"
       orient="auto"
       style="overflow:visible"
       id="Arrow2Send">
      <path
         d="M 8.7185878,4.0337352 -2.2072895,0.01601326 8.7185884,-4.0017078 c -1.7454984,2.3720609 -1.7354408,5.6174519 -6e-7,8.035443 z"
         transform="matrix(-0.3,0,0,-0.3,0.69,0)"
         class="arrow"
         id="path3338"
         style="font-size:12px;fill:#0000ff;fill-rule:evenodd;stroke:#0000ff;stroke-width:1pt;stroke-linejoin:round;marker-start:none"
         inkscape:connector-curvature="0" />
    </marker>
    <marker
       refX="0"
       refY="0"
       orient="auto"
       style="overflow:visible"
       id="Arrow1Send">
      <path
         d="M 0,0 5,-5 -12.5,0 5,5 0,0 z"
         transform="matrix(-0.2,0,0,-0.2,-1.2,0)"
         class="arrow"
         id="path3356"
         style="font-size:12px;fill:#0000ff;fill-rule:evenodd;stroke:#0000ff;stroke-width:1pt;stroke-linejoin:round;marker-start:none"
         inkscape:connector-curvature="0" />
    </marker>
    <marker
       refX="0"
       refY="0"
       orient="auto"
       style="overflow:visible"
       id="Arrow1Mend">
      <path
         d="M 0,0 5,-5 -12.5,0 5,5 0,0 z"
         transform="matrix(-0.4,0,0,-0.4,-4,0)"
         class="arrow"
         id="path3362"
         style="font-size:12px;fill:#0000ff;fill-rule:evenodd;stroke:#0000ff;stroke-width:1pt;stroke-linejoin:round;marker-start:none"
         inkscape:connector-curvature="0" />
    </marker>
    <marker
       refX="0"
       refY="0"
       orient="auto"
       style="overflow:visible"
       id="Arrow1Lend">
      <path
         d="M 0,0 5,-5 -12.5,0 5,5 0,0 z"
         transform="matrix(-0.8,0,0,-0.8,-10,0)"
         class="arrow"
         id="path3368"
         style="font-size:12px;fill:#0000ff;fill-rule:evenodd;stroke:#0000ff;stroke-width:1pt;stroke-linejoin:round;marker-start:none"
         inkscape:connector-curvature="0" />
    </marker>
  </defs>
  <style
     type="text/css"
     id="style3609">
		path.stroke /* arrow lines */
		{
			fill: none; fill-opacity: 0.75; fill-rule: evenodd;
			stroke: blue; stroke-width: 1px; stroke-linecap: butt; stroke-linejoin: miter; stroke-opacity:1;
			marker-end: url(#Arrow1Mend);
		}
		path.arrow /* heads */
		{
			font-size: 12px;
			fill-rule: evenodd;
			fill: blue;
			stroke: blue; stroke-width: 1pt;/*0.625*/ stroke-linejoin: round;
			marker-start: none;
		}
		text.number
		{
			font-size: 8px;
			fill: blue;
		}
		text.label
		{
			font-size: 22px;
		}
		text.cell
		{
			font-style: italic;
			text-transform: lowercase;
			fill: gray;
/*			display: none;*/
		}
/*		path.old
		{
			fill: gray;
		}
*/		path.rule
		{
			fill: none; fill-opacity: 0.75; fill-rule: evenodd;
			stroke: black; stroke-width: 1px; stroke-linecap: butt; stroke-linejoin: miter; stroke-opacity: 0.1;
		}
		path.rule[id*=&quot;V&quot;]
		{
			stroke-opacity: 0;
		}
		path#ruleH1, path#ruleV12
		{
			stroke-opacity: 0.8;
		}
		defs marker
		{
			overflow: visible;
		}
	</style>
  <!-- table rules -->
  <!-- glyphs -->
  <!-- -A -->
  <!-- -I -->
  <!-- -U -->
  <!-- -E -->
  <!-- -O -->
  <text
     style="font-size:10px;font-style:italic;text-transform:lowercase;fill:#808080"
     x="9.5117188"
     y="69.87793"
     id="cellNO"
     class="label cell">NO</text>
  <path
     id="path2103"
     d="m 33.26911,11.57376 c -1.53127,3e-5 -3.28129,0.21878 -5.21875,0.65625 -1.90626,0.40628 -3.78128,1.18754 -5.625,2.375 -1.84376,1.18752 -3.50003,2.65628 -5,4.375 -1.46876,1.71877 -2.71877,3.93753 -3.71875,6.6875 -1.00001,2.75001 -1.34377,5.12502 -1.0625,7.125 0.28124,2 0.87497,3.81251 1.78125,5.4375 0.93749,1.59375 1.96872,2.75001 3.09375,3.46875 1.12499,0.68751 2.21872,0.96875 3.3125,0.8125 1.09373,-0.1875 2.40622,-0.84374 3.9375,-1.9375 1.56248,-1.09374 3.21871,-3.24999 4.96875,-6.5 1.74998,-3.28124 3.5312,-8.90623 5.3125,-16.875 l 0.65625,-0.65625 c 0.31247,-0.24997 0.2812,-0.46872 -0.0937,-0.65625 l -3.28125,-0.71875 c 1.68747,-0.0625 3.49996,0.15628 5.46875,0.625 1.96872,0.46878 3.7187,1.28128 5.25,2.46875 1.56247,1.18753 2.6562,2.75003 3.28125,4.6875 0.62496,1.90627 0.8437,3.90627 0.65625,6 -0.15628,2.06252 -0.68755,3.96876 -1.59375,5.6875 -0.90629,1.68751 -2.3438,3.06251 -4.3125,4.15625 -1.93754,1.0625 -4.75005,1.9375 -8.46875,2.59375 l 0,0.375 c 0.68747,1.25 1.18745,2.62501 1.5,4.15625 4.62497,-1.25001 8.0937,-2.62499 10.40625,-4.125 2.34371,-1.5 4.09369,-3.31249 5.25,-5.46875 1.1562,-2.15624 1.7812,-4.59374 1.9062,-7.3125 0.1563,-2.74998 -0.1875,-5.24998 -1.0312,-7.5 -0.81253,-2.24997 -2.28131,-4.21872 -4.40625,-5.875 -2.09378,-1.65621 -4.31255,-2.74996 -6.65625,-3.28125 -2.34378,-0.53122 -4.43755,-0.78122 -6.3125,-0.78125 z m -2.53125,3.75 0,0.125 c 0.21873,0.59378 -0.18754,2.93753 -1.1875,7.03125 -1.00002,4.06251 -2.18754,7.40627 -3.59375,10.03125 -1.37502,2.59376 -2.62503,4.18751 -3.71875,4.78125 -1.06251,0.59375 -1.87503,0.81251 -2.4375,0.65625 -0.56251,-0.15624 -1.21878,-0.84374 -1.96875,-2.0625 -0.71876,-1.21874 -1.09377,-2.56249 -1.125,-4.0625 -10e-6,-1.53124 0.40623,-3.34373 1.21875,-5.4375 0.81249,-2.12498 1.84372,-3.87498 3.0625,-5.25 1.24999,-1.40623 2.71871,-2.65622 4.40625,-3.75 1.68748,-1.09372 3.46871,-1.78122 5.34375,-2.0625 z"
     inkscape:connector-curvature="0"
     style="fill:none;stroke:#000000;stroke-opacity:1" />
  <!-- column headers -->
  <!-- row headers -->
</svg>
