<?xml version="1.0" encoding="UTF-8" standalone="no"?>
<svg
   xmlns:dc="http://purl.org/dc/elements/1.1/"
   xmlns:cc="http://creativecommons.org/ns#"
   xmlns:rdf="http://www.w3.org/1999/02/22-rdf-syntax-ns#"
   xmlns:svg="http://www.w3.org/2000/svg"
   xmlns="http://www.w3.org/2000/svg"
   xmlns:sodipodi="http://sodipodi.sourceforge.net/DTD/sodipodi-0.dtd"
   xmlns:inkscape="http://www.inkscape.org/namespaces/inkscape"
   version="1.0"
   width="65"
   height="80"
   id="svg2"
   sodipodi:version="0.32"
   inkscape:version="0.48.0 r9654"
   sodipodi:docname="ra.svg"
   inkscape:output_extension="org.inkscape.output.svg.inkscape"
   inkscape:export-filename="E:\trevorde\EllieSoft\Hiragana Tracer\Resources\www\Resources\Alphabet\ra.png"
   inkscape:export-xdpi="360"
   inkscape:export-ydpi="360">
  <metadata
     id="metadataHiragana">
    <rdf:RDF>
      <cc:Work
         rdf:about="">
        <dc:format>image/svg+xml</dc:format>
        <dc:type
           rdf:resource="http://purl.org/dc/dcmitype/StillImage" />
        <dc:title />
      </cc:Work>
    </rdf:RDF>
  </metadata>
  <sodipodi:namedview
     inkscape:window-height="708"
     inkscape:window-width="1024"
     inkscape:pageshadow="2"
     inkscape:pageopacity="0.0"
     guidetolerance="10.0"
     gridtolerance="10.0"
     objecttolerance="10.0"
     borderopacity="1.0"
     bordercolor="#666666"
     pagecolor="#ffffff"
     id="base"
     inkscape:zoom="6.4875"
     inkscape:cx="32.5"
     inkscape:cy="39.549093"
     inkscape:window-x="100"
     inkscape:window-y="100"
     inkscape:current-layer="svg2"
     showgrid="false"
     inkscape:window-maximized="0" />
  <!-- arrow ends -->
  <defs
     id="defsHiragana">
    <marker
       refX="0"
       refY="0"
       orient="auto"
       style="overflow:visible"
       id="Arrow2Mend">
      <path
         d="M 8.7185878,4.0337352 -2.2072895,0.01601326 8.7185884,-4.0017078 c -1.7454984,2.3720609 -1.7354408,5.6174519 -6e-7,8.035443 z"
         transform="scale(-0.6,-0.6)"
         class="arrow"
         id="path3344"
         style="font-size:12px;fill:#0000ff;fill-rule:evenodd;stroke:#0000ff;stroke-width:1pt;stroke-linejoin:round;marker-start:none"
         inkscape:connector-curvature="0" />
    </marker>
    <marker
       refX="0"
       refY="0"
       orient="auto"
       style="overflow:visible"
       id="Arrow2Send">
      <path
         d="M 8.7185878,4.0337352 -2.2072895,0.01601326 8.7185884,-4.0017078 c -1.7454984,2.3720609 -1.7354408,5.6174519 -6e-7,8.035443 z"
         transform="matrix(-0.3,0,0,-0.3,0.69,0)"
         class="arrow"
         id="path3338"
         style="font-size:12px;fill:#0000ff;fill-rule:evenodd;stroke:#0000ff;stroke-width:1pt;stroke-linejoin:round;marker-start:none"
         inkscape:connector-curvature="0" />
    </marker>
    <marker
       refX="0"
       refY="0"
       orient="auto"
       style="overflow:visible"
       id="Arrow1Send">
      <path
         d="M 0,0 5,-5 -12.5,0 5,5 0,0 z"
         transform="matrix(-0.2,0,0,-0.2,-1.2,0)"
         class="arrow"
         id="path3356"
         style="font-size:12px;fill:#0000ff;fill-rule:evenodd;stroke:#0000ff;stroke-width:1pt;stroke-linejoin:round;marker-start:none"
         inkscape:connector-curvature="0" />
    </marker>
    <marker
       refX="0"
       refY="0"
       orient="auto"
       style="overflow:visible"
       id="Arrow1Mend">
      <path
         d="M 0,0 5,-5 -12.5,0 5,5 0,0 z"
         transform="matrix(-0.4,0,0,-0.4,-4,0)"
         class="arrow"
         id="path3362"
         style="font-size:12px;fill:#0000ff;fill-rule:evenodd;stroke:#0000ff;stroke-width:1pt;stroke-linejoin:round;marker-start:none"
         inkscape:connector-curvature="0" />
    </marker>
    <marker
       refX="0"
       refY="0"
       orient="auto"
       style="overflow:visible"
       id="Arrow1Lend">
      <path
         d="M 0,0 5,-5 -12.5,0 5,5 0,0 z"
         transform="matrix(-0.8,0,0,-0.8,-10,0)"
         class="arrow"
         id="path3368"
         style="font-size:12px;fill:#0000ff;fill-rule:evenodd;stroke:#0000ff;stroke-width:1pt;stroke-linejoin:round;marker-start:none"
         inkscape:connector-curvature="0" />
    </marker>
  </defs>
  <style
     type="text/css"
     id="style3609">
		path.stroke /* arrow lines */
		{
			fill: none; fill-opacity: 0.75; fill-rule: evenodd;
			stroke: blue; stroke-width: 1px; stroke-linecap: butt; stroke-linejoin: miter; stroke-opacity:1;
			marker-end: url(#Arrow1Mend);
		}
		path.arrow /* heads */
		{
			font-size: 12px;
			fill-rule: evenodd;
			fill: blue;
			stroke: blue; stroke-width: 1pt;/*0.625*/ stroke-linejoin: round;
			marker-start: none;
		}
		text.number
		{
			font-size: 8px;
			fill: blue;
		}
		text.label
		{
			font-size: 22px;
		}
		text.cell
		{
			font-style: italic;
			text-transform: lowercase;
			fill: gray;
/*			display: none;*/
		}
/*		path.old
		{
			fill: gray;
		}
*/		path.rule
		{
			fill: none; fill-opacity: 0.75; fill-rule: evenodd;
			stroke: black; stroke-width: 1px; stroke-linecap: butt; stroke-linejoin: miter; stroke-opacity: 0.1;
		}
		path.rule[id*=&quot;V&quot;]
		{
			stroke-opacity: 0;
		}
		path#ruleH1, path#ruleV12
		{
			stroke-opacity: 0.8;
		}
		defs marker
		{
			overflow: visible;
		}
	</style>
  <!-- table rules -->
  <!-- glyphs -->
  <!-- -A -->
  <text
     style="font-size:10px;font-style:italic;text-transform:lowercase;fill:#808080"
     x="9.53125"
     y="70"
     id="cellRA"
     class="label cell">RA</text>
  <path
     id="path2043"
     d="m 28.60586,12.145994 -2.25,3.6875 c 4.21873,1.78128 9.12496,3.37503 14.6875,4.75 0.46872,-1.65622 0.87496,-2.96872 1.25,-3.9375 l -0.1875,-0.34375 c -5.40628,-0.90621 -9.90628,-2.28121 -13.5,-4.15625 z m -4.6875,10.5625 c -0.32227,-0.02929 -0.47658,0.20314 -0.5,0.71875 0.21874,0.62503 0.12497,1.84378 -0.25,3.625 -0.34376,1.75002 -0.65628,3.62502 -0.96875,5.625 -0.28126,2.00002 -0.59377,4.75001 -0.90625,8.25 l 4.5,1.03125 c 0.93748,-1.40624 2.21872,-2.78123 3.84375,-4.09375 1.65623,-1.34373 3.78121,-2.24998 6.375,-2.71875 2.62497,-0.49999 4.7812,-0.59373 6.4375,-0.3125 1.65622,0.25002 2.9062,0.90627 3.78125,2 0.90621,1.06251 1.24995,2.53126 1,4.375 -0.21878,1.84376 -1.18755,3.31251 -2.90625,4.4375 -1.68753,1.125 -3.68755,1.84376 -6,2.15625 -2.28127,0.31251 -5.56253,0.25001 -9.8125,-0.1875 l -0.1875,0.25 c 0.37498,1.1875 0.59371,2.562501 0.625,4.125001 5.74998,0.25 10.0937,-0.09375 13.03125,-1 2.96872,-0.90624 5.24995,-2.249991 6.84375,-4.031251 1.62496,-1.78125 2.56244,-3.65624 2.8125,-5.625 0.24996,-1.99999 -0.15631,-3.93748 -1.21875,-5.8125 -1.03129,-1.87499 -3.0313,-3.15623 -5.96875,-3.875 -2.90628,-0.74998 -5.96879,-0.78123 -9.1875,-0.0625 -3.21877,0.68751 -6.21879,2.18752 -9.03125,4.46875 0.0937,-1.09373 0.24997,-2.40623 0.46875,-3.90625 0.21874,-1.53124 0.62497,-3.90622 1.21875,-7.125 l 0.6875,-0.6875 c 0.21873,-0.24997 0.21871,-0.46872 -0.0312,-0.65625 l -4.28125,-0.84375 c -0.14063,-0.07031 -0.26758,-0.11524 -0.375,-0.125 z"
     inkscape:connector-curvature="0"
     style="fill:none;stroke:#000000;stroke-opacity:1" />
  <!-- -I -->
  <!-- -U -->
  <!-- -E -->
  <!-- -O -->
  <!-- column headers -->
  <!-- row headers -->
</svg>
