<?xml version="1.0" encoding="UTF-8" standalone="no"?>
<svg
   xmlns:dc="http://purl.org/dc/elements/1.1/"
   xmlns:cc="http://creativecommons.org/ns#"
   xmlns:rdf="http://www.w3.org/1999/02/22-rdf-syntax-ns#"
   xmlns:svg="http://www.w3.org/2000/svg"
   xmlns="http://www.w3.org/2000/svg"
   xmlns:sodipodi="http://sodipodi.sourceforge.net/DTD/sodipodi-0.dtd"
   xmlns:inkscape="http://www.inkscape.org/namespaces/inkscape"
   version="1.0"
   width="65"
   height="80"
   id="svg2"
   sodipodi:version="0.32"
   inkscape:version="0.48.0 r9654"
   sodipodi:docname="re.svg"
   inkscape:output_extension="org.inkscape.output.svg.inkscape"
   inkscape:export-filename="E:\trevorde\EllieSoft\Hiragana Tracer\Resources\www\Resources\Alphabet\re.png"
   inkscape:export-xdpi="360"
   inkscape:export-ydpi="360">
  <metadata
     id="metadataHiragana">
    <rdf:RDF>
      <cc:Work
         rdf:about="">
        <dc:format>image/svg+xml</dc:format>
        <dc:type
           rdf:resource="http://purl.org/dc/dcmitype/StillImage" />
        <dc:title />
      </cc:Work>
    </rdf:RDF>
  </metadata>
  <sodipodi:namedview
     inkscape:window-height="708"
     inkscape:window-width="1024"
     inkscape:pageshadow="2"
     inkscape:pageopacity="0.0"
     guidetolerance="10.0"
     gridtolerance="10.0"
     objecttolerance="10.0"
     borderopacity="1.0"
     bordercolor="#666666"
     pagecolor="#ffffff"
     id="base"
     inkscape:zoom="6.4875"
     inkscape:cx="32.5"
     inkscape:cy="40"
     inkscape:window-x="175"
     inkscape:window-y="175"
     inkscape:current-layer="svg2"
     showgrid="false"
     inkscape:window-maximized="0" />
  <!-- arrow ends -->
  <defs
     id="defsHiragana">
    <marker
       refX="0"
       refY="0"
       orient="auto"
       style="overflow:visible"
       id="Arrow2Mend">
      <path
         d="M 8.7185878,4.0337352 -2.2072895,0.01601326 8.7185884,-4.0017078 c -1.7454984,2.3720609 -1.7354408,5.6174519 -6e-7,8.035443 z"
         transform="scale(-0.6,-0.6)"
         class="arrow"
         id="path3344"
         style="font-size:12px;fill:#0000ff;fill-rule:evenodd;stroke:#0000ff;stroke-width:1pt;stroke-linejoin:round;marker-start:none"
         inkscape:connector-curvature="0" />
    </marker>
    <marker
       refX="0"
       refY="0"
       orient="auto"
       style="overflow:visible"
       id="Arrow2Send">
      <path
         d="M 8.7185878,4.0337352 -2.2072895,0.01601326 8.7185884,-4.0017078 c -1.7454984,2.3720609 -1.7354408,5.6174519 -6e-7,8.035443 z"
         transform="matrix(-0.3,0,0,-0.3,0.69,0)"
         class="arrow"
         id="path3338"
         style="font-size:12px;fill:#0000ff;fill-rule:evenodd;stroke:#0000ff;stroke-width:1pt;stroke-linejoin:round;marker-start:none"
         inkscape:connector-curvature="0" />
    </marker>
    <marker
       refX="0"
       refY="0"
       orient="auto"
       style="overflow:visible"
       id="Arrow1Send">
      <path
         d="M 0,0 5,-5 -12.5,0 5,5 0,0 z"
         transform="matrix(-0.2,0,0,-0.2,-1.2,0)"
         class="arrow"
         id="path3356"
         style="font-size:12px;fill:#0000ff;fill-rule:evenodd;stroke:#0000ff;stroke-width:1pt;stroke-linejoin:round;marker-start:none"
         inkscape:connector-curvature="0" />
    </marker>
    <marker
       refX="0"
       refY="0"
       orient="auto"
       style="overflow:visible"
       id="Arrow1Mend">
      <path
         d="M 0,0 5,-5 -12.5,0 5,5 0,0 z"
         transform="matrix(-0.4,0,0,-0.4,-4,0)"
         class="arrow"
         id="path3362"
         style="font-size:12px;fill:#0000ff;fill-rule:evenodd;stroke:#0000ff;stroke-width:1pt;stroke-linejoin:round;marker-start:none"
         inkscape:connector-curvature="0" />
    </marker>
    <marker
       refX="0"
       refY="0"
       orient="auto"
       style="overflow:visible"
       id="Arrow1Lend">
      <path
         d="M 0,0 5,-5 -12.5,0 5,5 0,0 z"
         transform="matrix(-0.8,0,0,-0.8,-10,0)"
         class="arrow"
         id="path3368"
         style="font-size:12px;fill:#0000ff;fill-rule:evenodd;stroke:#0000ff;stroke-width:1pt;stroke-linejoin:round;marker-start:none"
         inkscape:connector-curvature="0" />
    </marker>
  </defs>
  <style
     type="text/css"
     id="style3609">
		path.stroke /* arrow lines */
		{
			fill: none; fill-opacity: 0.75; fill-rule: evenodd;
			stroke: blue; stroke-width: 1px; stroke-linecap: butt; stroke-linejoin: miter; stroke-opacity:1;
			marker-end: url(#Arrow1Mend);
		}
		path.arrow /* heads */
		{
			font-size: 12px;
			fill-rule: evenodd;
			fill: blue;
			stroke: blue; stroke-width: 1pt;/*0.625*/ stroke-linejoin: round;
			marker-start: none;
		}
		text.number
		{
			font-size: 8px;
			fill: blue;
		}
		text.label
		{
			font-size: 22px;
		}
		text.cell
		{
			font-style: italic;
			text-transform: lowercase;
			fill: gray;
/*			display: none;*/
		}
/*		path.old
		{
			fill: gray;
		}
*/		path.rule
		{
			fill: none; fill-opacity: 0.75; fill-rule: evenodd;
			stroke: black; stroke-width: 1px; stroke-linecap: butt; stroke-linejoin: miter; stroke-opacity: 0.1;
		}
		path.rule[id*=&quot;V&quot;]
		{
			stroke-opacity: 0;
		}
		path#ruleH1, path#ruleV12
		{
			stroke-opacity: 0.8;
		}
		defs marker
		{
			overflow: visible;
		}
	</style>
  <!-- table rules -->
  <!-- glyphs -->
  <!-- -A -->
  <!-- -I -->
  <!-- -U -->
  <!-- -E -->
  <text
     style="font-size:10px;font-style:italic;text-transform:lowercase;fill:#808080"
     x="9.53125"
     y="70"
     id="cellRE"
     class="label cell">RE</text>
  <path
     id="path2031"
     d="m 57.25813,40.97972 c -1.2188,2.31251 -2.35942,4.17188 -3.42188,5.57813 -1.03129,1.40625 -2.40629,2.39063 -4.125,2.95313 -1.68754,0.56249 -3.15628,0.35937 -4.40625,-0.60938 -1.25003,-0.96875 -1.85941,-2.42187 -1.82812,-4.35938 0.0625,-1.93749 0.15621,-4.84374 0.28125,-8.71874 0.15621,-3.87499 0.26559,-6.62498 0.32812,-8.25 0.0937,-1.62498 -0.15628,-2.62498 -0.75,-3 -0.56253,-0.40623 -1.37503,-0.54685 -2.4375,-0.42188 -1.06253,0.0938 -2.7344,0.7969 -5.01562,2.10938 -2.28128,1.28127 -5.1719,3.75001 -8.67188,7.40624 0.0312,2.06252 0.0625,4.56252 0.0937,7.5 0.0625,2.93751 0.34373,6.46876 0.84375,10.59376 l -0.14062,0.42187 c -1.40627,0.0937 -3.01564,0.35937 -4.82813,0.79687 -0.0938,-4.21874 -0.15626,-8.99999 -0.1875,-14.34374 -1.90626,2.4375 -3.96876,5.25 -6.1875,8.4375 l -0.375,-0.0469 c -0.875,-1.15625 -2.01563,-2.3125 -3.42187,-3.46875 3.15624,-3.46874 5.89061,-6.45311 8.20312,-8.95313 0.65624,-1.24998 1.24999,-2.49998 1.78125,-3.75 -1e-5,-1.03123 -1e-5,-2.5156 0,-4.45312 -2.28126,0.62502 -4.56251,1.39065 -6.84375,2.29688 -0.40625,-1.43748 -0.96875,-2.78123 -1.6875,-4.03126 l 0.0937,-0.42187 c 3.18749,-0.40622 6.01562,-0.85935 8.48438,-1.35937 0.0312,-2.03123 0.0937,-4.09372 0.1875,-6.1875 0.0937,-2.09372 0.0156,-3.32809 -0.23438,-3.70313 -0.15626,-0.56246 -10e-6,-0.81246 0.46875,-0.75 l 4.64063,0.42187 c 0.43748,0.15629 0.43748,0.40629 0,0.75 l -0.51563,0.70313 c -0.15627,2.50003 -0.26564,4.90628 -0.32812,7.21875 1.06248,0.37503 2.18748,0.90628 3.375,1.59375 0.43748,0.34378 0.34373,0.70315 -0.28125,1.07813 l -1.45313,0.84374 c -0.53127,1.31253 -1.00002,2.43753 -1.40625,3.375 2.18748,-2.03122 4.56248,-3.82809 7.125,-5.39062 2.59372,-1.56247 4.56247,-2.43747 5.90625,-2.625 1.37497,-0.18747 2.96872,0.1094 4.78125,0.89062 1.81246,0.78128 2.74996,2.28128 2.8125,4.5 0.0937,2.18753 0.0468,5.2344 -0.14062,9.14063 -0.15629,3.87501 -0.23442,6.57813 -0.23438,8.10937 -4e-5,1.50001 0.42184,2.21876 1.26563,2.15626 0.84371,-0.0625 1.62496,-0.67187 2.34375,-1.82813 0.7187,-1.15624 1.3437,-2.60937 1.875,-4.35937 l 4.03125,2.15624"
     inkscape:connector-curvature="0"
     style="fill:none;stroke:#000000;stroke-opacity:1" />
  <!-- -O -->
  <!-- column headers -->
  <!-- row headers -->
</svg>
