<?xml version="1.0" encoding="UTF-8" standalone="no"?>
<svg
   xmlns:dc="http://purl.org/dc/elements/1.1/"
   xmlns:cc="http://creativecommons.org/ns#"
   xmlns:rdf="http://www.w3.org/1999/02/22-rdf-syntax-ns#"
   xmlns:svg="http://www.w3.org/2000/svg"
   xmlns="http://www.w3.org/2000/svg"
   xmlns:sodipodi="http://sodipodi.sourceforge.net/DTD/sodipodi-0.dtd"
   xmlns:inkscape="http://www.inkscape.org/namespaces/inkscape"
   version="1.0"
   width="65"
   height="80"
   id="svg2"
   sodipodi:version="0.32"
   inkscape:version="0.48.0 r9654"
   sodipodi:docname="se.svg"
   inkscape:output_extension="org.inkscape.output.svg.inkscape"
   inkscape:export-filename="E:\trevorde\EllieSoft\Hiragana Tracer\Resources\www\Resources\Alphabet\se.png"
   inkscape:export-xdpi="360"
   inkscape:export-ydpi="360">
  <metadata
     id="metadataHiragana">
    <rdf:RDF>
      <cc:Work
         rdf:about="">
        <dc:format>image/svg+xml</dc:format>
        <dc:type
           rdf:resource="http://purl.org/dc/dcmitype/StillImage" />
        <dc:title />
      </cc:Work>
    </rdf:RDF>
  </metadata>
  <sodipodi:namedview
     inkscape:window-height="708"
     inkscape:window-width="1024"
     inkscape:pageshadow="2"
     inkscape:pageopacity="0.0"
     guidetolerance="10.0"
     gridtolerance="10.0"
     objecttolerance="10.0"
     borderopacity="1.0"
     bordercolor="#666666"
     pagecolor="#ffffff"
     id="base"
     inkscape:zoom="6.4875"
     inkscape:cx="32.5"
     inkscape:cy="15.337187"
     inkscape:window-x="225"
     inkscape:window-y="225"
     inkscape:current-layer="svg2"
     showgrid="false"
     inkscape:window-maximized="0" />
  <!-- arrow ends -->
  <defs
     id="defsHiragana">
    <marker
       refX="0"
       refY="0"
       orient="auto"
       style="overflow:visible"
       id="Arrow2Mend">
      <path
         d="M 8.7185878,4.0337352 -2.2072895,0.01601326 8.7185884,-4.0017078 c -1.7454984,2.3720609 -1.7354408,5.6174519 -6e-7,8.035443 z"
         transform="scale(-0.6,-0.6)"
         class="arrow"
         id="path3344"
         style="font-size:12px;fill:#0000ff;fill-rule:evenodd;stroke:#0000ff;stroke-width:1pt;stroke-linejoin:round;marker-start:none"
         inkscape:connector-curvature="0" />
    </marker>
    <marker
       refX="0"
       refY="0"
       orient="auto"
       style="overflow:visible"
       id="Arrow2Send">
      <path
         d="M 8.7185878,4.0337352 -2.2072895,0.01601326 8.7185884,-4.0017078 c -1.7454984,2.3720609 -1.7354408,5.6174519 -6e-7,8.035443 z"
         transform="matrix(-0.3,0,0,-0.3,0.69,0)"
         class="arrow"
         id="path3338"
         style="font-size:12px;fill:#0000ff;fill-rule:evenodd;stroke:#0000ff;stroke-width:1pt;stroke-linejoin:round;marker-start:none"
         inkscape:connector-curvature="0" />
    </marker>
    <marker
       refX="0"
       refY="0"
       orient="auto"
       style="overflow:visible"
       id="Arrow1Send">
      <path
         d="M 0,0 5,-5 -12.5,0 5,5 0,0 z"
         transform="matrix(-0.2,0,0,-0.2,-1.2,0)"
         class="arrow"
         id="path3356"
         style="font-size:12px;fill:#0000ff;fill-rule:evenodd;stroke:#0000ff;stroke-width:1pt;stroke-linejoin:round;marker-start:none"
         inkscape:connector-curvature="0" />
    </marker>
    <marker
       refX="0"
       refY="0"
       orient="auto"
       style="overflow:visible"
       id="Arrow1Mend">
      <path
         d="M 0,0 5,-5 -12.5,0 5,5 0,0 z"
         transform="matrix(-0.4,0,0,-0.4,-4,0)"
         class="arrow"
         id="path3362"
         style="font-size:12px;fill:#0000ff;fill-rule:evenodd;stroke:#0000ff;stroke-width:1pt;stroke-linejoin:round;marker-start:none"
         inkscape:connector-curvature="0" />
    </marker>
    <marker
       refX="0"
       refY="0"
       orient="auto"
       style="overflow:visible"
       id="Arrow1Lend">
      <path
         d="M 0,0 5,-5 -12.5,0 5,5 0,0 z"
         transform="matrix(-0.8,0,0,-0.8,-10,0)"
         class="arrow"
         id="path3368"
         style="font-size:12px;fill:#0000ff;fill-rule:evenodd;stroke:#0000ff;stroke-width:1pt;stroke-linejoin:round;marker-start:none"
         inkscape:connector-curvature="0" />
    </marker>
  </defs>
  <style
     type="text/css"
     id="style3609">
		path.stroke /* arrow lines */
		{
			fill: none; fill-opacity: 0.75; fill-rule: evenodd;
			stroke: blue; stroke-width: 1px; stroke-linecap: butt; stroke-linejoin: miter; stroke-opacity:1;
			marker-end: url(#Arrow1Mend);
		}
		path.arrow /* heads */
		{
			font-size: 12px;
			fill-rule: evenodd;
			fill: blue;
			stroke: blue; stroke-width: 1pt;/*0.625*/ stroke-linejoin: round;
			marker-start: none;
		}
		text.number
		{
			font-size: 8px;
			fill: blue;
		}
		text.label
		{
			font-size: 22px;
		}
		text.cell
		{
			font-style: italic;
			text-transform: lowercase;
			fill: gray;
/*			display: none;*/
		}
/*		path.old
		{
			fill: gray;
		}
*/		path.rule
		{
			fill: none; fill-opacity: 0.75; fill-rule: evenodd;
			stroke: black; stroke-width: 1px; stroke-linecap: butt; stroke-linejoin: miter; stroke-opacity: 0.1;
		}
		path.rule[id*=&quot;V&quot;]
		{
			stroke-opacity: 0;
		}
		path#ruleH1, path#ruleV12
		{
			stroke-opacity: 0.8;
		}
		defs marker
		{
			overflow: visible;
		}
	</style>
  <!-- table rules -->
  <!-- glyphs -->
  <!-- -A -->
  <!-- -I -->
  <!-- -U -->
  <!-- -E -->
  <text
     style="font-size:10px;font-style:italic;text-transform:lowercase;fill:#808080"
     x="9.296875"
     y="69.87793"
     id="cellSE"
     class="label cell">SE</text>
  <path
     id="path2147"
     d="m 56.69914,22.65733 0.375,4.03126 -0.23437,0.23437 c -3.59379,0.28127 -7.17192,0.5469 -10.73438,0.79687 -0.0313,4.21877 -0.32816,6.98439 -0.89062,8.29688 -0.53129,1.28126 -1.48441,2.09376 -2.85938,2.4375 -1.34378,0.34376 -3.82815,0.20314 -7.45312,-0.42188 0.31247,-1.68748 0.48435,-3.03123 0.51562,-4.03124 l 0.28125,-0.23438 c 1.59373,0.53127 2.78123,0.84376 3.5625,0.9375 0.81247,0.0625 1.35935,10e-6 1.64063,-0.1875 0.31247,-0.18748 0.56247,-0.76561 0.75,-1.73438 0.18747,-0.99998 0.29684,-2.60935 0.32812,-4.82812 -1.68753,0.12502 -3.56252,0.25002 -5.625,0.375 -2.06252,0.12502 -4.39064,0.28127 -6.98437,0.46875 -0.0313,0.87502 -0.0625,2.34377 -0.0937,4.40625 -2e-5,2.06251 0.0469,4.04689 0.14062,5.95312 0.12498,1.90626 0.43748,3.29689 0.9375,4.17188 0.53123,0.84376 1.48436,1.35938 2.85938,1.54688 1.37497,0.1875 2.81247,0.28125 4.3125,0.28124 1.53122,-0.0312 3.51559,-0.0937 5.95312,-0.1875 2.46872,-0.0937 5.03122,-0.35937 7.6875,-0.79687 l 0.42188,0.28125 c -0.46879,1.5625 -0.82817,3.125 -1.07813,4.6875 -1.31254,0.0937 -2.48441,0.17188 -3.51562,0.23438 -1.03129,0.0312 -2.73441,0.0625 -5.10938,0.0937 -2.34378,0.0313 -4.84377,-0.0312 -7.5,-0.1875 -2.65627,-0.15624 -4.45314,-0.53124 -5.39062,-1.125 -0.90627,-0.59374 -1.75002,-1.56249 -2.53125,-2.90624 -0.75002,-1.34375 -1.18752,-3.125 -1.3125,-5.34376 -0.12502,-2.24998 -0.17189,-4.43748 -0.14063,-6.5625 0.0312,-2.15623 0.0469,-3.56248 0.0469,-4.21874 -3.09376,0.21877 -6.29689,0.45314 -9.60938,0.70312 -0.125,-1.40623 -0.3125,-2.84373 -0.5625,-4.3125 l 0,-0.28125 c 3.53125,2e-5 6.95312,-0.0469 10.26563,-0.14063 -2e-5,-1.43747 0.0312,-3.28122 0.0937,-5.53124 0.0625,-2.24997 -0.0781,-3.59372 -0.42188,-4.03126 0.0312,-0.49996 0.24999,-0.74996 0.65625,-0.75 l 4.73438,0.375 c 0.37498,0.15629 0.40623,0.42191 0.0937,0.79688 l -0.46875,0.79688 c -0.15627,3.06252 -0.28127,5.78127 -0.375,8.15624 2.37498,-0.0937 4.5781,-0.2031 6.60937,-0.32812 2.06248,-0.15622 4.04685,-0.31247 5.95313,-0.46875 -3e-5,-1.59372 -0.0157,-3.60935 -0.0469,-6.04687 -0.0313,-2.46872 -0.2344,-3.96872 -0.60937,-4.5 -0.0625,-0.40622 0.15622,-0.62497 0.65625,-0.65626 l 4.125,0.23438 c 0.40621,0.12504 0.48434,0.34379 0.23437,0.65625 l -0.42187,0.84375 c 0.0625,3.46878 0.0937,6.50003 0.0937,9.09375 3.49996,-0.31247 7.04683,-0.67185 10.64062,-1.07813"
     inkscape:connector-curvature="0"
     style="fill:none;stroke:#000000;stroke-opacity:1" />
  <!-- -O -->
  <!-- column headers -->
  <!-- row headers -->
</svg>
