<?xml version="1.0" encoding="UTF-8" standalone="no"?>
<svg
   xmlns:dc="http://purl.org/dc/elements/1.1/"
   xmlns:cc="http://creativecommons.org/ns#"
   xmlns:rdf="http://www.w3.org/1999/02/22-rdf-syntax-ns#"
   xmlns:svg="http://www.w3.org/2000/svg"
   xmlns="http://www.w3.org/2000/svg"
   xmlns:sodipodi="http://sodipodi.sourceforge.net/DTD/sodipodi-0.dtd"
   xmlns:inkscape="http://www.inkscape.org/namespaces/inkscape"
   version="1.0"
   width="65"
   height="80"
   id="svg2"
   sodipodi:version="0.32"
   inkscape:version="0.48.0 r9654"
   sodipodi:docname="su.svg"
   inkscape:output_extension="org.inkscape.output.svg.inkscape"
   inkscape:export-filename="E:\trevorde\EllieSoft\Hiragana Tracer\Resources\www\Resources\Alphabet\su.png"
   inkscape:export-xdpi="360"
   inkscape:export-ydpi="360">
  <metadata
     id="metadataHiragana">
    <rdf:RDF>
      <cc:Work
         rdf:about="">
        <dc:format>image/svg+xml</dc:format>
        <dc:type
           rdf:resource="http://purl.org/dc/dcmitype/StillImage" />
        <dc:title />
      </cc:Work>
    </rdf:RDF>
  </metadata>
  <sodipodi:namedview
     inkscape:window-height="752"
     inkscape:window-width="1280"
     inkscape:pageshadow="2"
     inkscape:pageopacity="0.0"
     guidetolerance="10.0"
     gridtolerance="10.0"
     objecttolerance="10.0"
     borderopacity="1.0"
     bordercolor="#666666"
     pagecolor="#ffffff"
     id="base"
     inkscape:zoom="7.0375"
     inkscape:cx="32.5"
     inkscape:cy="40"
     inkscape:window-x="0"
     inkscape:window-y="25"
     inkscape:current-layer="svg2"
     showgrid="false"
     inkscape:window-maximized="0" />
  <!-- arrow ends -->
  <defs
     id="defsHiragana">
    <marker
       refX="0"
       refY="0"
       orient="auto"
       style="overflow:visible"
       id="Arrow2Mend">
      <path
         d="M 8.7185878,4.0337352 -2.2072895,0.01601326 8.7185884,-4.0017078 c -1.7454984,2.3720609 -1.7354408,5.6174519 -6e-7,8.035443 z"
         transform="scale(-0.6,-0.6)"
         class="arrow"
         id="path3344"
         style="font-size:12px;fill:#0000ff;fill-rule:evenodd;stroke:#0000ff;stroke-width:1pt;stroke-linejoin:round;marker-start:none"
         inkscape:connector-curvature="0" />
    </marker>
    <marker
       refX="0"
       refY="0"
       orient="auto"
       style="overflow:visible"
       id="Arrow2Send">
      <path
         d="M 8.7185878,4.0337352 -2.2072895,0.01601326 8.7185884,-4.0017078 c -1.7454984,2.3720609 -1.7354408,5.6174519 -6e-7,8.035443 z"
         transform="matrix(-0.3,0,0,-0.3,0.69,0)"
         class="arrow"
         id="path3338"
         style="font-size:12px;fill:#0000ff;fill-rule:evenodd;stroke:#0000ff;stroke-width:1pt;stroke-linejoin:round;marker-start:none"
         inkscape:connector-curvature="0" />
    </marker>
    <marker
       refX="0"
       refY="0"
       orient="auto"
       style="overflow:visible"
       id="Arrow1Send">
      <path
         d="M 0,0 5,-5 -12.5,0 5,5 0,0 z"
         transform="matrix(-0.2,0,0,-0.2,-1.2,0)"
         class="arrow"
         id="path3356"
         style="font-size:12px;fill:#0000ff;fill-rule:evenodd;stroke:#0000ff;stroke-width:1pt;stroke-linejoin:round;marker-start:none"
         inkscape:connector-curvature="0" />
    </marker>
    <marker
       refX="0"
       refY="0"
       orient="auto"
       style="overflow:visible"
       id="Arrow1Mend">
      <path
         d="M 0,0 5,-5 -12.5,0 5,5 0,0 z"
         transform="matrix(-0.4,0,0,-0.4,-4,0)"
         class="arrow"
         id="path3362"
         style="font-size:12px;fill:#0000ff;fill-rule:evenodd;stroke:#0000ff;stroke-width:1pt;stroke-linejoin:round;marker-start:none"
         inkscape:connector-curvature="0" />
    </marker>
    <marker
       refX="0"
       refY="0"
       orient="auto"
       style="overflow:visible"
       id="Arrow1Lend">
      <path
         d="M 0,0 5,-5 -12.5,0 5,5 0,0 z"
         transform="matrix(-0.8,0,0,-0.8,-10,0)"
         class="arrow"
         id="path3368"
         style="font-size:12px;fill:#0000ff;fill-rule:evenodd;stroke:#0000ff;stroke-width:1pt;stroke-linejoin:round;marker-start:none"
         inkscape:connector-curvature="0" />
    </marker>
  </defs>
  <style
     type="text/css"
     id="style3609">
		path.stroke /* arrow lines */
		{
			fill: none; fill-opacity: 0.75; fill-rule: evenodd;
			stroke: blue; stroke-width: 1px; stroke-linecap: butt; stroke-linejoin: miter; stroke-opacity:1;
			marker-end: url(#Arrow1Mend);
		}
		path.arrow /* heads */
		{
			font-size: 12px;
			fill-rule: evenodd;
			fill: blue;
			stroke: blue; stroke-width: 1pt;/*0.625*/ stroke-linejoin: round;
			marker-start: none;
		}
		text.number
		{
			font-size: 8px;
			fill: blue;
		}
		text.label
		{
			font-size: 22px;
		}
		text.cell
		{
			font-style: italic;
			text-transform: lowercase;
			fill: gray;
/*			display: none;*/
		}
/*		path.old
		{
			fill: gray;
		}
*/		path.rule
		{
			fill: none; fill-opacity: 0.75; fill-rule: evenodd;
			stroke: black; stroke-width: 1px; stroke-linecap: butt; stroke-linejoin: miter; stroke-opacity: 0.1;
		}
		path.rule[id*=&quot;V&quot;]
		{
			stroke-opacity: 0;
		}
		path#ruleH1, path#ruleV12
		{
			stroke-opacity: 0.8;
		}
		defs marker
		{
			overflow: visible;
		}
	</style>
  <!-- table rules -->
  <!-- glyphs -->
  <!-- -A -->
  <!-- -I -->
  <!-- -U -->
  <text
     style="font-size:10px;font-style:italic;text-transform:lowercase;fill:#808080"
     x="9.296875"
     y="69.873047"
     id="cellSU"
     class="label cell">SU</text>
  <path
     id="path2151"
     d="m 34.85305,11.28925 c -0.56252,0.0938 -0.81254,0.37504 -0.75,0.8125 0.31248,0.46879 0.49996,1.06254 0.59375,1.78125 0.12497,0.68754 0.28121,2.46878 0.46875,5.34375 -6.75002,0.18753 -13.96878,0.12504 -21.6875,-0.15625 l 0,0.46875 c 0.3125,1.09377 0.49998,2.43753 0.59375,4 7.71873,-0.31247 14.78122,-0.56247 21.1875,-0.75 -0.0313,1.62503 -0.0938,3.43753 -0.1875,5.46875 -1.21878,-0.68747 -2.68754,-0.99998 -4.4375,-0.96875 -1.71877,0.0313 -3.15628,0.43752 -4.28125,1.25 -1.09377,0.81252 -1.90628,1.87501 -2.4375,3.1875 -0.50002,1.31251 -0.59378,2.75002 -0.28125,4.28125 0.34373,1.50001 1.09372,2.84377 2.21875,4.0625 1.12498,1.18751 2.28121,1.90625 3.46875,2.15625 1.18748,0.21875 2.24997,0.18751 3.21875,-0.0937 0.96872,-0.28124 1.71871,-0.56249 2.25,-0.875 -0.12503,0.62501 -0.40629,1.46876 -0.875,2.53125 -0.43752,1.06251 -1.31254,2.1875 -2.59375,3.375 -1.28127,1.1875 -3.25004,2.3125 -5.9375,3.375 l 0,0.3125 c 1.15624,1.37499 2.09372,2.74999 2.84375,4.125 2.84373,-1.87501 4.90621,-3.43751 6.15625,-4.6875 1.24998,-1.21875 2.28121,-2.74999 3.09375,-4.59375 0.84372,-1.84374 1.37495,-3.875 1.59375,-6.09375 0.21872,-2.21874 0.2812,-3.78124 0.1875,-4.71875 -0.0625,-0.96873 -0.2188,-1.78124 -0.46875,-2.40625 0.18747,-1.87499 0.31245,-3.56248 0.375,-5.0625 0.0937,-1.53123 0.12496,-3.09372 0.125,-4.71875 5.12496,-0.15622 10.21869,-0.34373 15.25,-0.53125 L 53.8843,18.13305 c -4.65629,0.40629 -9.5313,0.71879 -14.59375,0.9375 -0.0313,-1.74996 -0.0625,-3.71872 -0.125,-5.90625 l 0.375,-0.9375 c 0.34372,-0.43747 0.2812,-0.71871 -0.1875,-0.84375 l -4.5,-0.0937 z m -4.125,19.28125 c 0.42969,0.0234 0.87498,0.12501 1.34375,0.28125 0.96872,0.31252 1.62496,0.68752 1.9375,1.15625 0.31248,0.43752 0.53121,0.93752 0.65625,1.5 -0.25002,2.03127 -0.62504,3.37501 -1.09375,4.03125 -0.46878,0.62501 -1.09379,1.00001 -1.90625,1.125 -0.78127,0.12501 -1.62503,-0.0312 -2.5,-0.46875 -0.87502,-0.43748 -1.50003,-1.24999 -1.875,-2.46875 -0.34377,-1.21873 -0.25003,-2.31249 0.28125,-3.25 0.53123,-0.96874 1.18746,-1.56248 1.9375,-1.78125 0.39062,-0.10936 0.78906,-0.14844 1.21875,-0.125 z"
     inkscape:connector-curvature="0"
     style="fill:none;stroke:#000000;stroke-opacity:1" />
  <!-- -E -->
  <!-- -O -->
  <!-- column headers -->
  <!-- row headers -->
</svg>
