<?xml version="1.0" encoding="UTF-8" standalone="no"?>
<svg
   xmlns:dc="http://purl.org/dc/elements/1.1/"
   xmlns:cc="http://creativecommons.org/ns#"
   xmlns:rdf="http://www.w3.org/1999/02/22-rdf-syntax-ns#"
   xmlns:svg="http://www.w3.org/2000/svg"
   xmlns="http://www.w3.org/2000/svg"
   xmlns:sodipodi="http://sodipodi.sourceforge.net/DTD/sodipodi-0.dtd"
   xmlns:inkscape="http://www.inkscape.org/namespaces/inkscape"
   version="1.0"
   width="65"
   height="80"
   id="svg2"
   sodipodi:version="0.32"
   inkscape:version="0.48.0 r9654"
   sodipodi:docname="ta.svg"
   inkscape:output_extension="org.inkscape.output.svg.inkscape"
   inkscape:export-filename="E:\trevorde\EllieSoft\Hiragana Tracer\Resources\www\Resources\Alphabet\ta.png"
   inkscape:export-xdpi="360"
   inkscape:export-ydpi="360">
  <metadata
     id="metadataHiragana">
    <rdf:RDF>
      <cc:Work
         rdf:about="">
        <dc:format>image/svg+xml</dc:format>
        <dc:type
           rdf:resource="http://purl.org/dc/dcmitype/StillImage" />
        <dc:title />
      </cc:Work>
    </rdf:RDF>
  </metadata>
  <sodipodi:namedview
     inkscape:window-height="752"
     inkscape:window-width="1280"
     inkscape:pageshadow="2"
     inkscape:pageopacity="0.0"
     guidetolerance="10.0"
     gridtolerance="10.0"
     objecttolerance="10.0"
     borderopacity="1.0"
     bordercolor="#666666"
     pagecolor="#ffffff"
     id="base"
     inkscape:zoom="7.0375"
     inkscape:cx="32.5"
     inkscape:cy="11.580817"
     inkscape:window-x="0"
     inkscape:window-y="150"
     inkscape:current-layer="svg2"
     showgrid="false"
     inkscape:window-maximized="0" />
  <!-- arrow ends -->
  <defs
     id="defsHiragana">
    <marker
       refX="0"
       refY="0"
       orient="auto"
       style="overflow:visible"
       id="Arrow2Mend">
      <path
         d="M 8.7185878,4.0337352 -2.2072895,0.01601326 8.7185884,-4.0017078 c -1.7454984,2.3720609 -1.7354408,5.6174519 -6e-7,8.035443 z"
         transform="scale(-0.6,-0.6)"
         class="arrow"
         id="path3344"
         style="font-size:12px;fill:#0000ff;fill-rule:evenodd;stroke:#0000ff;stroke-width:1pt;stroke-linejoin:round;marker-start:none"
         inkscape:connector-curvature="0" />
    </marker>
    <marker
       refX="0"
       refY="0"
       orient="auto"
       style="overflow:visible"
       id="Arrow2Send">
      <path
         d="M 8.7185878,4.0337352 -2.2072895,0.01601326 8.7185884,-4.0017078 c -1.7454984,2.3720609 -1.7354408,5.6174519 -6e-7,8.035443 z"
         transform="matrix(-0.3,0,0,-0.3,0.69,0)"
         class="arrow"
         id="path3338"
         style="font-size:12px;fill:#0000ff;fill-rule:evenodd;stroke:#0000ff;stroke-width:1pt;stroke-linejoin:round;marker-start:none"
         inkscape:connector-curvature="0" />
    </marker>
    <marker
       refX="0"
       refY="0"
       orient="auto"
       style="overflow:visible"
       id="Arrow1Send">
      <path
         d="M 0,0 5,-5 -12.5,0 5,5 0,0 z"
         transform="matrix(-0.2,0,0,-0.2,-1.2,0)"
         class="arrow"
         id="path3356"
         style="font-size:12px;fill:#0000ff;fill-rule:evenodd;stroke:#0000ff;stroke-width:1pt;stroke-linejoin:round;marker-start:none"
         inkscape:connector-curvature="0" />
    </marker>
    <marker
       refX="0"
       refY="0"
       orient="auto"
       style="overflow:visible"
       id="Arrow1Mend">
      <path
         d="M 0,0 5,-5 -12.5,0 5,5 0,0 z"
         transform="matrix(-0.4,0,0,-0.4,-4,0)"
         class="arrow"
         id="path3362"
         style="font-size:12px;fill:#0000ff;fill-rule:evenodd;stroke:#0000ff;stroke-width:1pt;stroke-linejoin:round;marker-start:none"
         inkscape:connector-curvature="0" />
    </marker>
    <marker
       refX="0"
       refY="0"
       orient="auto"
       style="overflow:visible"
       id="Arrow1Lend">
      <path
         d="M 0,0 5,-5 -12.5,0 5,5 0,0 z"
         transform="matrix(-0.8,0,0,-0.8,-10,0)"
         class="arrow"
         id="path3368"
         style="font-size:12px;fill:#0000ff;fill-rule:evenodd;stroke:#0000ff;stroke-width:1pt;stroke-linejoin:round;marker-start:none"
         inkscape:connector-curvature="0" />
    </marker>
  </defs>
  <style
     type="text/css"
     id="style3609">
		path.stroke /* arrow lines */
		{
			fill: none; fill-opacity: 0.75; fill-rule: evenodd;
			stroke: blue; stroke-width: 1px; stroke-linecap: butt; stroke-linejoin: miter; stroke-opacity:1;
			marker-end: url(#Arrow1Mend);
		}
		path.arrow /* heads */
		{
			font-size: 12px;
			fill-rule: evenodd;
			fill: blue;
			stroke: blue; stroke-width: 1pt;/*0.625*/ stroke-linejoin: round;
			marker-start: none;
		}
		text.number
		{
			font-size: 8px;
			fill: blue;
		}
		text.label
		{
			font-size: 22px;
		}
		text.cell
		{
			font-style: italic;
			text-transform: lowercase;
			fill: gray;
/*			display: none;*/
		}
/*		path.old
		{
			fill: gray;
		}
*/		path.rule
		{
			fill: none; fill-opacity: 0.75; fill-rule: evenodd;
			stroke: black; stroke-width: 1px; stroke-linecap: butt; stroke-linejoin: miter; stroke-opacity: 0.1;
		}
		path.rule[id*=&quot;V&quot;]
		{
			stroke-opacity: 0;
		}
		path#ruleH1, path#ruleV12
		{
			stroke-opacity: 0.8;
		}
		defs marker
		{
			overflow: visible;
		}
	</style>
  <!-- table rules -->
  <!-- glyphs -->
  <!-- -A -->
  <text
     style="font-size:10px;font-style:italic;text-transform:lowercase;fill:#808080"
     x="8.7548828"
     y="70"
     id="cellTA"
     class="label cell">TA</text>
  <path
     id="path2143"
     d="m 26.38668,12.587044 c -0.43752,0.09379 -0.65628,0.31254 -0.6875,0.65625 0.31249,0.56253 0.24997,1.78128 -0.1875,3.625 -0.40626,1.81253 -0.71878,3.18753 -0.9375,4.125 -2.84376,0.18753 -5.90627,0.25003 -9.15625,0.1875 l -0.21875,0.3125 c 0.40625,1.46877 0.65623,2.90628 0.75,4.28125 2.62499,-0.21873 5.12498,-0.46872 7.53125,-0.71875 -0.31252,1.12502 -0.84378,3.03127 -1.59375,5.6875 -0.71876,2.62502 -1.62502,5.46876 -2.71875,8.53125 -1.09376,3.03126 -2.65627,6.37501 -4.6875,10.0625 l 0.0625,0.625 c 1.46875,0.6875 2.90623,1.46875 4.34375,2.375003 1.99999,-4.781243 3.49997,-8.749993 4.5,-11.937503 1.03123,-3.21874 1.96872,-6.24998 2.8125,-9.09375 0.84373,-2.84373 1.49996,-5.12497 1.9375,-6.8125 4.90623,-0.62498 8.7187,-1.18747 11.4375,-1.6875 l 0.0312,-0.28125 -1.21875,-3.9375 c -2.71878,0.81254 -5.78129,1.43753 -9.21875,1.875 0.43748,-1.74996 0.87496,-3.56247 1.3125,-5.46875 l 0.78125,-0.90625 c 0.28122,-0.34371 0.21871,-0.56246 -0.1875,-0.6875 l -4.6875,-0.8125 z m 21.40625,14.21875 c -1.53906,0.01563 -3.09378,0.06251 -4.625,0.125 -3.03128,0.09377 -5.5313,0.25003 -7.53125,0.46875 l 0.375,4.03125 c 1.84372,-0.34374 4.18746,-0.53123 7.0625,-0.5625 2.90621,-0.06249 5.87495,0.06252 8.90625,0.34375 0.0937,-1.46873 0.24994,-2.93747 0.4375,-4.375 -1.54689,-0.03123 -3.08594,-0.04688 -4.625,-0.03125 z m -13.4375,12.375 -4.03125,0.125 c 0.0625,1.78125 0.28122,3.34376 0.65625,4.6875 0.37498,1.34375 1.06246,2.5625 2.03125,3.625 0.96873,1.03125 2.53121,1.78125 4.71875,2.25 2.21872,0.4375 6.9687,0.5625 14.21875,0.40625 0.0937,-1.49999 0.37494,-2.90624 0.875,-4.21875 l -0.3125,-0.40625 c -6.62503,0.46875 -10.9063,0.53126 -12.84375,0.21875 -1.93753,-0.3125 -3.25004,-0.8125 -3.9375,-1.53125 -0.68752,-0.71874 -1.15629,-2.43749 -1.375,-5.15625 z"
     inkscape:connector-curvature="0"
     style="fill:none;stroke:#000000;stroke-opacity:1" />
  <!-- -I -->
  <!-- -U -->
  <!-- -E -->
  <!-- -O -->
  <!-- column headers -->
  <!-- row headers -->
</svg>
