<?xml version="1.0" encoding="UTF-8" standalone="no"?>
<svg
   xmlns:dc="http://purl.org/dc/elements/1.1/"
   xmlns:cc="http://creativecommons.org/ns#"
   xmlns:rdf="http://www.w3.org/1999/02/22-rdf-syntax-ns#"
   xmlns:svg="http://www.w3.org/2000/svg"
   xmlns="http://www.w3.org/2000/svg"
   xmlns:sodipodi="http://sodipodi.sourceforge.net/DTD/sodipodi-0.dtd"
   xmlns:inkscape="http://www.inkscape.org/namespaces/inkscape"
   version="1.0"
   width="65"
   height="80"
   id="svg2"
   sodipodi:version="0.32"
   inkscape:version="0.48.0 r9654"
   sodipodi:docname="yo.svg"
   inkscape:output_extension="org.inkscape.output.svg.inkscape"
   inkscape:export-filename="E:\trevorde\EllieSoft\Hiragana Tracer\Resources\www\Resources\Alphabet\yo.png"
   inkscape:export-xdpi="360"
   inkscape:export-ydpi="360">
  <metadata
     id="metadataHiragana">
    <rdf:RDF>
      <cc:Work
         rdf:about="">
        <dc:format>image/svg+xml</dc:format>
        <dc:type
           rdf:resource="http://purl.org/dc/dcmitype/StillImage" />
        <dc:title />
      </cc:Work>
    </rdf:RDF>
  </metadata>
  <sodipodi:namedview
     inkscape:window-height="708"
     inkscape:window-width="1024"
     inkscape:pageshadow="2"
     inkscape:pageopacity="0.0"
     guidetolerance="10.0"
     gridtolerance="10.0"
     objecttolerance="10.0"
     borderopacity="1.0"
     bordercolor="#666666"
     pagecolor="#ffffff"
     id="base"
     inkscape:zoom="6.4875"
     inkscape:cx="32.5"
     inkscape:cy="40"
     inkscape:window-x="200"
     inkscape:window-y="200"
     inkscape:current-layer="svg2"
     showgrid="false"
     inkscape:window-maximized="0" />
  <!-- arrow ends -->
  <defs
     id="defsHiragana">
    <marker
       refX="0"
       refY="0"
       orient="auto"
       style="overflow:visible"
       id="Arrow2Mend">
      <path
         d="M 8.7185878,4.0337352 -2.2072895,0.01601326 8.7185884,-4.0017078 c -1.7454984,2.3720609 -1.7354408,5.6174519 -6e-7,8.035443 z"
         transform="scale(-0.6,-0.6)"
         class="arrow"
         id="path3344"
         style="font-size:12px;fill:#0000ff;fill-rule:evenodd;stroke:#0000ff;stroke-width:1pt;stroke-linejoin:round;marker-start:none"
         inkscape:connector-curvature="0" />
    </marker>
    <marker
       refX="0"
       refY="0"
       orient="auto"
       style="overflow:visible"
       id="Arrow2Send">
      <path
         d="M 8.7185878,4.0337352 -2.2072895,0.01601326 8.7185884,-4.0017078 c -1.7454984,2.3720609 -1.7354408,5.6174519 -6e-7,8.035443 z"
         transform="matrix(-0.3,0,0,-0.3,0.69,0)"
         class="arrow"
         id="path3338"
         style="font-size:12px;fill:#0000ff;fill-rule:evenodd;stroke:#0000ff;stroke-width:1pt;stroke-linejoin:round;marker-start:none"
         inkscape:connector-curvature="0" />
    </marker>
    <marker
       refX="0"
       refY="0"
       orient="auto"
       style="overflow:visible"
       id="Arrow1Send">
      <path
         d="M 0,0 5,-5 -12.5,0 5,5 0,0 z"
         transform="matrix(-0.2,0,0,-0.2,-1.2,0)"
         class="arrow"
         id="path3356"
         style="font-size:12px;fill:#0000ff;fill-rule:evenodd;stroke:#0000ff;stroke-width:1pt;stroke-linejoin:round;marker-start:none"
         inkscape:connector-curvature="0" />
    </marker>
    <marker
       refX="0"
       refY="0"
       orient="auto"
       style="overflow:visible"
       id="Arrow1Mend">
      <path
         d="M 0,0 5,-5 -12.5,0 5,5 0,0 z"
         transform="matrix(-0.4,0,0,-0.4,-4,0)"
         class="arrow"
         id="path3362"
         style="font-size:12px;fill:#0000ff;fill-rule:evenodd;stroke:#0000ff;stroke-width:1pt;stroke-linejoin:round;marker-start:none"
         inkscape:connector-curvature="0" />
    </marker>
    <marker
       refX="0"
       refY="0"
       orient="auto"
       style="overflow:visible"
       id="Arrow1Lend">
      <path
         d="M 0,0 5,-5 -12.5,0 5,5 0,0 z"
         transform="matrix(-0.8,0,0,-0.8,-10,0)"
         class="arrow"
         id="path3368"
         style="font-size:12px;fill:#0000ff;fill-rule:evenodd;stroke:#0000ff;stroke-width:1pt;stroke-linejoin:round;marker-start:none"
         inkscape:connector-curvature="0" />
    </marker>
  </defs>
  <style
     type="text/css"
     id="style3609">
		path.stroke /* arrow lines */
		{
			fill: none; fill-opacity: 0.75; fill-rule: evenodd;
			stroke: blue; stroke-width: 1px; stroke-linecap: butt; stroke-linejoin: miter; stroke-opacity:1;
			marker-end: url(#Arrow1Mend);
		}
		path.arrow /* heads */
		{
			font-size: 12px;
			fill-rule: evenodd;
			fill: blue;
			stroke: blue; stroke-width: 1pt;/*0.625*/ stroke-linejoin: round;
			marker-start: none;
		}
		text.number
		{
			font-size: 8px;
			fill: blue;
		}
		text.label
		{
			font-size: 22px;
		}
		text.cell
		{
			font-style: italic;
			text-transform: lowercase;
			fill: gray;
/*			display: none;*/
		}
/*		path.old
		{
			fill: gray;
		}
*/		path.rule
		{
			fill: none; fill-opacity: 0.75; fill-rule: evenodd;
			stroke: black; stroke-width: 1px; stroke-linecap: butt; stroke-linejoin: miter; stroke-opacity: 0.1;
		}
		path.rule[id*=&quot;V&quot;]
		{
			stroke-opacity: 0;
		}
		path#ruleH1, path#ruleV12
		{
			stroke-opacity: 0.8;
		}
		defs marker
		{
			overflow: visible;
		}
	</style>
  <!-- table rules -->
  <!-- glyphs -->
  <!-- -A -->
  <!-- -I -->
  <!-- -U -->
  <!-- -E -->
  <!-- -O -->
  <text
     style="font-size:10px;font-style:italic;text-transform:lowercase;fill:#808080"
     x="8.8330078"
     y="69.87793"
     id="cellYO"
     class="label cell">YO</text>
  <path
     id="path2047"
     d="m 30.44329,9.22174 c -0.46877,0.0625 -0.62504,0.31254 -0.5,0.75 0.34373,0.43754 0.53122,2.21879 0.59375,5.375 0.0625,3.15627 0.15621,6.03127 0.28125,8.59375 0.15622,2.53127 0.28121,6.12502 0.34375,10.78125 -1.37502,-0.15624 -3.28128,-0.24998 -5.6875,-0.25 -2.37502,1e-5 -4.34378,0.40627 -5.9375,1.21875 -1.56251,0.78126 -2.65627,1.96876 -3.25,3.5625 -0.59376,1.59376 -0.75002,2.93751 -0.5,4.03125 0.24999,1.0625 0.78123,2.09375 1.625,3.0625 0.84374,1 2.15623,1.6875 3.9375,2.09375 1.81248,0.40625 3.28122,0.59375 4.40625,0.53125 1.12498,-0.0625 2.34371,-0.28125 3.625,-0.625 1.31248,-0.34376 2.43746,-1 3.40625,-1.96875 0.99997,-0.96874 1.62496,-2.03124 1.875,-3.1875 0.28122,-1.15624 0.46871,-2.40624 0.5625,-3.75 4.62497,1.56251 8.6562,3.71875 12.0625,6.4375 1.24996,-1.96875 2.2812,-3.37499 3.125,-4.1875 l 0,-0.5625 c -4.40629,-2.12499 -7.7813,-3.53124 -10.15625,-4.25 -2.37503,-0.71874 -4.03129,-1.18749 -4.9375,-1.40625 -0.0625,-4.84373 -0.12504,-8.62498 -0.21875,-11.34375 5.62497,-0.46873 10.18745,-1.06247 13.71875,-1.75 l -1.25,-3.96875 c -3.71878,0.96878 -7.93754,1.59378 -12.625,1.875 -0.0625,-2.43747 -0.12504,-5.49996 -0.1875,-9.15625 l 0.625,-0.875 C 35.72451,9.87803 35.662,9.62803 35.22454,9.50299 L 30.44329,9.22174 z m -3.96875,28.625 c 1.65623,0 3.18746,0.15626 4.59375,0.46875 -0.0625,1.50001 -0.25004,2.75001 -0.53125,3.71875 -0.28127,0.96875 -0.78128,1.6875 -1.5,2.15625 -0.71877,0.46875 -1.59379,0.78125 -2.65625,0.9375 -1.06251,0.15625 -2.40628,0.0313 -4.03125,-0.34375 -1.59376,-0.375 -2.43753,-1.34374 -2.53125,-2.90625 -0.0625,-1.59374 0.59373,-2.65624 2,-3.21875 1.43748,-0.56249 2.99997,-0.84374 4.65625,-0.8125 z"
     inkscape:connector-curvature="0"
     style="fill:none;stroke:#000000;stroke-opacity:1" />
  <!-- column headers -->
  <!-- row headers -->
</svg>
