<?xml version="1.0" encoding="UTF-8" standalone="no"?>
<!-- Created with Inkscape (http://www.inkscape.org/) -->

<svg
   xmlns:dc="http://purl.org/dc/elements/1.1/"
   xmlns:cc="http://creativecommons.org/ns#"
   xmlns:rdf="http://www.w3.org/1999/02/22-rdf-syntax-ns#"
   xmlns:svg="http://www.w3.org/2000/svg"
   xmlns="http://www.w3.org/2000/svg"
   xmlns:sodipodi="http://sodipodi.sourceforge.net/DTD/sodipodi-0.dtd"
   xmlns:inkscape="http://www.inkscape.org/namespaces/inkscape"
   width="63"
   height="150"
   id="svg4005"
   version="1.1"
   inkscape:version="0.47 r22583"
   sodipodi:docname="Lower_K.svg">
  <defs
     id="defs4007">
    <inkscape:perspective
       sodipodi:type="inkscape:persp3d"
       inkscape:vp_x="0 : 526.18109 : 1"
       inkscape:vp_y="0 : 1000 : 0"
       inkscape:vp_z="744.09448 : 526.18109 : 1"
       inkscape:persp3d-origin="372.04724 : 350.78739 : 1"
       id="perspective4013" />
  </defs>
  <sodipodi:namedview
     id="base"
     pagecolor="#ffffff"
     bordercolor="#666666"
     borderopacity="1.0"
     inkscape:pageopacity="0.0"
     inkscape:pageshadow="2"
     inkscape:zoom="2.22"
     inkscape:cx="37.5"
     inkscape:cy="75"
     inkscape:document-units="mm"
     inkscape:current-layer="flowRoot4015"
     showgrid="false"
     units="mm"
     borderlayer="true"
     inkscape:window-width="1200"
     inkscape:window-height="581"
     inkscape:window-x="108"
     inkscape:window-y="128"
     inkscape:window-maximized="0"
     showguides="true"
     inkscape:guide-bbox="true" />
  <metadata
     id="metadata4010">
    <rdf:RDF>
      <cc:Work
         rdf:about="">
        <dc:format>image/svg+xml</dc:format>
        <dc:type
           rdf:resource="http://purl.org/dc/dcmitype/StillImage" />
        <dc:title />
      </cc:Work>
    </rdf:RDF>
  </metadata>
  <g
     inkscape:label="Layer 1"
     inkscape:groupmode="layer"
     id="layer1"
     transform="translate(-795.21624,-329.85747)">
    <g
       transform="translate(4.6357211,285.08907)"
       style="font-size:144px;font-style:normal;font-variant:normal;font-weight:normal;font-stretch:normal;text-align:start;line-height:125%;writing-mode:lr-tb;text-anchor:start;fill:none;stroke:#000000;stroke-opacity:1;font-family:Chalkboard;-inkscape-font-specification:Chalkboard"
       id="flowRoot4015">
      <path
         d="m 804.12803,146.11734 c -0.1061,2.3337 -0.7956,4.13702 -2.06851,5.40994 -1.27295,1.16685 -2.70499,1.75028 -4.29613,1.75028 -1.4851,0.10608 -2.91714,-0.37127 -4.29613,-1.43204 -1.27294,-1.16685 -2.06852,-2.91713 -2.38674,-5.25083 l 0,-90.696134 c 0.4243,-2.01537 1.21988,-3.55349 2.38674,-4.61436 1.27291,-1.06067 2.54584,-1.59106 3.81878,-1.59116 1.37899,-0.10598 2.70496,0.31833 3.9779,1.27293 1.27291,0.95479 2.2276,2.43988 2.86409,4.45525 l 0,46.620984 c 2.75799,-1.59111 5.19776,-3.2353 7.31934,-4.932602 2.22759,-1.697172 4.40217,-3.553522 6.52376,-5.569052 2.1215,-2.0154 4.24305,-4.18999 6.36464,-6.52375 2.22757,-2.43971 4.61431,-5.09164 7.16022,-7.9558 1.80326,-1.48501 3.55353,-2.17451 5.25083,-2.06851 1.80325,0.10615 3.2353,0.68958 4.29613,1.75027 1.06071,1.06085 1.64414,2.49289 1.75027,4.29614 0.10602,1.6973 -0.58348,3.44758 -2.0685,5.25083 -4.031,4.66746 -7.7437,8.75143 -11.13813,12.251924 -3.39452,3.39452 -7.00114,6.47076 -10.81988,9.22873 5.4099,6.04644 10.5016,11.77462 15.27513,17.18453 4.8795,5.30389 10.02425,10.97902 15.43426,17.02541 1.37893,1.9094 1.90932,3.76575 1.59116,5.56906 -0.21223,1.69724 -0.90173,3.07625 -2.06851,4.13702 -1.06084,0.9547 -2.49288,1.379 -4.29613,1.27293 -1.6973,0 -3.39454,-0.84862 -5.09172,-2.54586 -5.62215,-6.25855 -10.92601,-12.19888 -15.9116,-17.82099 -4.98567,-5.62208 -10.28953,-11.50936 -15.9116,-17.66188 -0.63649,0.31827 -1.27295,0.6365 -1.90939,0.9547 -0.53041,0.31826 -1.11384,0.63649 -1.75028,0.95469 l 0,29.27735 0,0"
         style="fill:none;stroke:#000000;stroke-opacity:1"
         id="path4065" />
    </g>
  </g>
</svg>
