<?xml version="1.0" encoding="UTF-8" standalone="no"?>
<!-- Created with Inkscape (http://www.inkscape.org/) -->

<svg
   xmlns:dc="http://purl.org/dc/elements/1.1/"
   xmlns:cc="http://creativecommons.org/ns#"
   xmlns:rdf="http://www.w3.org/1999/02/22-rdf-syntax-ns#"
   xmlns:svg="http://www.w3.org/2000/svg"
   xmlns="http://www.w3.org/2000/svg"
   xmlns:sodipodi="http://sodipodi.sourceforge.net/DTD/sodipodi-0.dtd"
   xmlns:inkscape="http://www.inkscape.org/namespaces/inkscape"
   width="55"
   height="150"
   id="svg4005"
   version="1.1"
   inkscape:version="0.47 r22583"
   sodipodi:docname="Lower_S.svg">
  <defs
     id="defs4007">
    <inkscape:perspective
       sodipodi:type="inkscape:persp3d"
       inkscape:vp_x="0 : 526.18109 : 1"
       inkscape:vp_y="0 : 1000 : 0"
       inkscape:vp_z="744.09448 : 526.18109 : 1"
       inkscape:persp3d-origin="372.04724 : 350.78739 : 1"
       id="perspective4013" />
  </defs>
  <sodipodi:namedview
     id="base"
     pagecolor="#ffffff"
     bordercolor="#666666"
     borderopacity="1.0"
     inkscape:pageopacity="0.0"
     inkscape:pageshadow="2"
     inkscape:zoom="2.22"
     inkscape:cx="37.5"
     inkscape:cy="75"
     inkscape:document-units="mm"
     inkscape:current-layer="flowRoot4015"
     showgrid="false"
     units="mm"
     borderlayer="true"
     inkscape:window-width="1200"
     inkscape:window-height="581"
     inkscape:window-x="108"
     inkscape:window-y="128"
     inkscape:window-maximized="0"
     showguides="true"
     inkscape:guide-bbox="true" />
  <metadata
     id="metadata4010">
    <rdf:RDF>
      <cc:Work
         rdf:about="">
        <dc:format>image/svg+xml</dc:format>
        <dc:type
           rdf:resource="http://purl.org/dc/dcmitype/StillImage" />
        <dc:title />
      </cc:Work>
    </rdf:RDF>
  </metadata>
  <g
     inkscape:label="Layer 1"
     inkscape:groupmode="layer"
     id="layer1"
     transform="translate(-795.21624,-329.85747)">
    <g
       transform="translate(4.6357211,285.08907)"
       style="font-size:144px;font-style:normal;font-variant:normal;font-weight:normal;font-stretch:normal;text-align:start;line-height:125%;writing-mode:lr-tb;text-anchor:start;fill:none;stroke:#000000;stroke-opacity:1;font-family:Chalkboard;-inkscape-font-specification:Chalkboard"
       id="flowRoot4015">
      <path
         d="m 792.15458,138.49423 c -0.9547,-1.90938 -1.273,-3.60662 -0.9547,-5.09172 0.3182,-1.59114 0.9547,-2.81103 1.9094,-3.65966 1.0607,-0.95468 2.3867,-1.43203 3.9779,-1.43205 1.5911,2e-5 3.2353,0.58345 4.9325,1.75028 2.4398,3.07626 5.3039,5.463 8.5923,7.16022 3.3945,1.69725 7.0011,2.70498 10.8199,3.0232 l 3.3414,-0.95469 c 0.8486,-0.63646 1.432,-1.06076 1.7503,-1.27293 0.3182,-0.21214 0.5304,-0.37126 0.6365,-0.47735 0.2121,-0.21214 0.4242,-0.47733 0.6364,-0.79558 0.3182,-0.31822 0.7956,-0.90164 1.4321,-1.75028 0.2121,-0.42429 0.3712,-0.8486 0.4773,-1.27292 0.1061,-0.4243 0.2652,-0.90164 0.4774,-1.43205 -10e-5,-0.53037 -10e-5,-1.00771 0,-1.43204 0.106,-0.42429 0.1591,-0.90164 0.1591,-1.43205 l -0.9547,-2.86409 c -0.3183,-0.42428 -0.6895,-0.84859 -1.1138,-1.27292 -0.3183,-0.42429 -0.6365,-0.8486 -0.9547,-1.27293 -2.652,-1.69721 -5.3039,-2.9171 -7.9558,-3.65967 -2.652,-0.74251 -5.2509,-1.48505 -7.7967,-2.22762 -2.4398,-0.84859 -4.8796,-1.90936 -7.3193,-3.18232 -2.3337,-1.2729 -4.5614,-3.3414 -6.6829,-6.20553 -2.0155,-2.54581 -3.1293,-5.46294 -3.3414,-8.75138 -0.1061,-3.394422 0.4243,-6.629782 1.5911,-9.706082 1.2729,-3.07618 3.0763,-5.78115 5.41,-8.11492 2.4397,-2.439699 5.1977,-3.977819 8.274,-4.614359 4.4552,-1.0607 8.9635,-1.16678 13.5249,-0.31823 4.6673,0.84869 9.0165,2.33377 13.0475,4.455249 1.9093,1.37907 3.0231,2.97023 3.3414,4.77348 0.3182,1.6973 0.053,3.18238 -0.7956,4.45525 -0.7426,1.27298 -1.9624,2.17464 -3.6596,2.70497 -1.5912,0.53044 -3.4476,0.26525 -5.5691,-0.79558 -2.5459,-1.37895 -5.2509,-2.28061 -8.1149,-2.70497 -2.7581,-0.42425 -5.5691,-0.42425 -8.4332,0 -0.3182,0.21221 -0.6895,0.37133 -1.1138,0.47734 -0.3182,0.10614 -0.6365,0.26526 -0.9547,0.47735 -1.1668,1.27299 -2.0155,2.54591 -2.5458,3.81879 -0.5304,1.1669 -0.7426,2.65198 -0.6365,4.455252 0.1061,0.42435 0.3713,1.06082 0.7956,1.90939 0.3182,0.42436 0.6364,0.79563 0.9547,1.11381 0.3182,0.31828 0.6364,0.68955 0.9547,1.11381 2.5458,1.37905 5.3038,2.49286 8.274,3.34144 3.0762,0.74258 6.0464,1.64424 8.9105,2.70497 2.8641,0.95474 5.516,2.2807 7.9558,3.9779 2.4397,1.5912 4.3491,3.97793 5.7282,7.16022 2.5458,6.04643 2.9171,11.61549 1.1138,16.70718 -1.6973,5.09172 -5.1978,9.38785 -10.5017,12.8884 -1.379,0.84862 -2.9171,1.53812 -4.6143,2.06851 -1.6973,0.63646 -3.2885,0.95469 -4.7735,0.9547 -5.7282,-1e-5 -11.3503,-1.27293 -16.8663,-3.81879 -5.516,-2.65193 -9.9713,-6.31159 -13.3657,-10.979"
         style="fill:none;stroke:#000000;stroke-opacity:1"
         id="path4081" />
    </g>
  </g>
</svg>
