<?xml version="1.0" encoding="UTF-8" standalone="no"?>
<!-- Created with Inkscape (http://www.inkscape.org/) -->

<svg
   xmlns:dc="http://purl.org/dc/elements/1.1/"
   xmlns:cc="http://creativecommons.org/ns#"
   xmlns:rdf="http://www.w3.org/1999/02/22-rdf-syntax-ns#"
   xmlns:svg="http://www.w3.org/2000/svg"
   xmlns="http://www.w3.org/2000/svg"
   xmlns:sodipodi="http://sodipodi.sourceforge.net/DTD/sodipodi-0.dtd"
   xmlns:inkscape="http://www.inkscape.org/namespaces/inkscape"
   width="65"
   height="150"
   id="svg4005"
   version="1.1"
   inkscape:version="0.47 r22583"
   sodipodi:docname="Lower_O.svg">
  <defs
     id="defs4007">
    <inkscape:perspective
       sodipodi:type="inkscape:persp3d"
       inkscape:vp_x="0 : 526.18109 : 1"
       inkscape:vp_y="0 : 1000 : 0"
       inkscape:vp_z="744.09448 : 526.18109 : 1"
       inkscape:persp3d-origin="372.04724 : 350.78739 : 1"
       id="perspective4013" />
  </defs>
  <sodipodi:namedview
     id="base"
     pagecolor="#ffffff"
     bordercolor="#666666"
     borderopacity="1.0"
     inkscape:pageopacity="0.0"
     inkscape:pageshadow="2"
     inkscape:zoom="2.22"
     inkscape:cx="37.5"
     inkscape:cy="75"
     inkscape:document-units="mm"
     inkscape:current-layer="flowRoot4015"
     showgrid="false"
     units="mm"
     borderlayer="true"
     inkscape:window-width="1200"
     inkscape:window-height="581"
     inkscape:window-x="108"
     inkscape:window-y="128"
     inkscape:window-maximized="0"
     showguides="true"
     inkscape:guide-bbox="true" />
  <metadata
     id="metadata4010">
    <rdf:RDF>
      <cc:Work
         rdf:about="">
        <dc:format>image/svg+xml</dc:format>
        <dc:type
           rdf:resource="http://purl.org/dc/dcmitype/StillImage" />
        <dc:title />
      </cc:Work>
    </rdf:RDF>
  </metadata>
  <g
     inkscape:label="Layer 1"
     inkscape:groupmode="layer"
     id="layer1"
     transform="translate(-795.21624,-329.85747)">
    <g
       transform="translate(4.6357211,285.08907)"
       style="font-size:144px;font-style:normal;font-variant:normal;font-weight:normal;font-stretch:normal;text-align:start;line-height:125%;writing-mode:lr-tb;text-anchor:start;fill:none;stroke:#000000;stroke-opacity:1;font-family:Chalkboard;-inkscape-font-specification:Chalkboard"
       id="flowRoot4015">
      <path
         d="m 791.97267,117.00033 c 0.28997,-3.57766 0.86314,-7.11825 1.7195,-10.62177 0.83011,-3.60621 2.04734,-6.982943 3.65168,-10.130218 1.60435,-3.147151 3.60896,-6.013461 6.01381,-8.598934 2.50763,-2.611595 5.45492,-4.788202 8.84188,-6.529814 5.61938,-2.85946 10.92765,-3.723459 15.92483,-2.591999 5.09988,1.105356 9.52437,3.423378 13.27348,6.954087 3.74901,3.530847 6.73071,7.914663 8.9451,13.151474 2.29079,5.107884 3.3986,10.299114 3.32341,15.573674 0.008,6.45769 -1.27073,12.80632 -3.83646,19.0459 -2.56583,6.23962 -6.52709,11.30307 -11.88379,15.19033 -3.97277,2.87664 -8.08027,4.58337 -12.32252,5.12018 -4.11328,0.61331 -8.09007,0.26112 -11.93043,-1.05658 -3.7376,-1.34398 -7.18345,-3.47417 -10.33753,-6.39061 -3.15411,-2.91643 -5.70699,-6.47921 -7.65867,-10.68836 -1.22307,-2.64353 -2.12469,-5.3145 -2.70486,-8.01292 -0.4774,-2.72462 -0.80063,-5.48867 -0.96971,-8.29215 l -0.0497,-2.12229 m 12.93074,0.47245 c 0.1405,2.26336 0.34439,4.34624 0.61165,6.24867 0.34377,1.77346 0.95875,3.75127 1.84495,5.93347 1.01752,2.69611 2.53464,4.9908 4.55136,6.88406 1.99042,1.79053 4.17097,3.03976 6.54167,3.74768 2.34439,0.60519 4.74988,0.59258 7.21648,-0.0379 2.54305,-0.75943 4.90225,-2.2383 7.07762,-4.4366 2.86616,-2.92226 4.85534,-6.27732 5.96753,-10.06518 1.21489,-3.81406 1.85029,-7.75376 1.90618,-11.8191 0.0341,-3.2933 -0.65224,-6.62146 -2.05914,-9.98448 -1.30422,-3.38919 -3.11996,-6.209722 -5.44725,-8.461628 -2.32735,-2.251777 -5.02293,-3.588351 -8.08672,-4.009723 -3.09013,-0.52401 -6.33948,0.470697 -9.74808,2.984114 -3.66443,2.797897 -6.23199,6.246037 -7.7027,10.344427 -1.47073,4.09849 -2.36191,8.32253 -2.67355,12.67214"
         style="fill:none;stroke:#000000;stroke-opacity:1"
         id="path4073" />
    </g>
  </g>
</svg>
