<?xml version="1.0" encoding="UTF-8" standalone="no"?>
<!-- Created with Inkscape (http://www.inkscape.org/) -->

<svg
   xmlns:dc="http://purl.org/dc/elements/1.1/"
   xmlns:cc="http://creativecommons.org/ns#"
   xmlns:rdf="http://www.w3.org/1999/02/22-rdf-syntax-ns#"
   xmlns:svg="http://www.w3.org/2000/svg"
   xmlns="http://www.w3.org/2000/svg"
   xmlns:sodipodi="http://sodipodi.sourceforge.net/DTD/sodipodi-0.dtd"
   xmlns:inkscape="http://www.inkscape.org/namespaces/inkscape"
   width="63"
   height="150"
   id="svg4005"
   version="1.1"
   inkscape:version="0.47 r22583"
   sodipodi:docname="Lower_P.svg">
  <defs
     id="defs4007">
    <inkscape:perspective
       sodipodi:type="inkscape:persp3d"
       inkscape:vp_x="0 : 526.18109 : 1"
       inkscape:vp_y="0 : 1000 : 0"
       inkscape:vp_z="744.09448 : 526.18109 : 1"
       inkscape:persp3d-origin="372.04724 : 350.78739 : 1"
       id="perspective4013" />
  </defs>
  <sodipodi:namedview
     id="base"
     pagecolor="#ffffff"
     bordercolor="#666666"
     borderopacity="1.0"
     inkscape:pageopacity="0.0"
     inkscape:pageshadow="2"
     inkscape:zoom="2.22"
     inkscape:cx="37.5"
     inkscape:cy="75"
     inkscape:document-units="mm"
     inkscape:current-layer="flowRoot4015"
     showgrid="false"
     units="mm"
     borderlayer="true"
     inkscape:window-width="1200"
     inkscape:window-height="581"
     inkscape:window-x="108"
     inkscape:window-y="128"
     inkscape:window-maximized="0"
     showguides="true"
     inkscape:guide-bbox="true" />
  <metadata
     id="metadata4010">
    <rdf:RDF>
      <cc:Work
         rdf:about="">
        <dc:format>image/svg+xml</dc:format>
        <dc:type
           rdf:resource="http://purl.org/dc/dcmitype/StillImage" />
        <dc:title />
      </cc:Work>
    </rdf:RDF>
  </metadata>
  <g
     inkscape:label="Layer 1"
     inkscape:groupmode="layer"
     id="layer1"
     transform="translate(-795.21624,-329.85747)">
    <g
       transform="translate(4.6357211,285.08907)"
       style="font-size:144px;font-style:normal;font-variant:normal;font-weight:normal;font-stretch:normal;text-align:start;line-height:125%;writing-mode:lr-tb;text-anchor:start;fill:none;stroke:#000000;stroke-opacity:1;font-family:Chalkboard;-inkscape-font-specification:Chalkboard"
       id="flowRoot4015">
      <path
         d="m 791.08052,88.524749 c 0.53038,-2.12148 1.379,-3.71264 2.54586,-4.77348 1.16684,-1.0607 2.4928,-1.59109 3.9779,-1.59116 1.37899,7e-5 2.65191,0.47742 3.81878,1.43205 1.27291,0.95476 2.17457,2.43984 2.70498,4.45525 l 0,1.43204 c 2.43975,-2.12148 5.19776,-3.6596 8.27403,-4.61437 3.18229,-1.0607 6.25853,-1.59109 9.22873,-1.59116 4.13697,7e-5 7.95575,0.90173 11.45635,2.70498 3.60658,1.80338 6.73586,4.24315 9.38785,7.31933 2.65187,3.076297 4.72037,6.682931 6.20552,10.819891 1.48502,4.03099 2.22756,8.38015 2.22763,13.04752 -7e-5,5.09174 -0.84869,9.75914 -2.54586,14.00221 -1.59122,4.24311 -3.97796,7.90277 -7.16022,10.979 -3.18238,3.07625 -7.16027,5.51603 -11.9337,7.31934 -4.66745,1.69724 -10.13043,2.54586 -16.38895,2.54586 -1.48511,0 -2.9702,-0.053 -4.45525,-0.15912 -1.37903,-0.10608 -2.81107,-0.26519 -4.29613,-0.47735 l 0,33.57348 c -0.1061,2.43975 -0.84864,4.24306 -2.22763,5.40995 -1.27294,1.27289 -2.70499,1.90935 -4.29613,1.90939 -1.4851,-4e-5 -2.8641,-0.58346 -4.13702,-1.75028 -1.27294,-1.06081 -2.06851,-2.75804 -2.38674,-5.09171 l 0,-96.901661 0,0 m 14.63868,17.980111 c -0.21218,0.31828 -0.47737,0.63651 -0.79558,0.9547 -0.31826,0.2122 -0.58345,0.42435 -0.79558,0.63646 l 0,30.07293 c 1.48506,0.31825 2.9171,0.58344 4.29613,0.79558 1.48505,0.21217 2.97014,0.31825 4.45525,0.31823 3.60659,2e-5 6.94803,-0.47733 10.02431,-1.43204 3.0762,-0.95468 5.72813,-2.33368 7.9558,-4.13702 2.33365,-1.80329 4.13696,-4.03091 5.40994,-6.68287 1.27288,-2.6519 1.90934,-5.67511 1.9094,-9.06961 -6e-5,-2.54582 -0.42437,-5.09168 -1.27293,-7.63757 -0.7426,-2.65189 -1.85641,-5.03863 -3.34144,-7.16022 -1.37906,-2.1215 -3.02325,-3.81873 -4.9326,-5.09172 -1.90943,-1.378944 -4.03098,-2.068454 -6.36464,-2.068504 -1.80335,5e-5 -3.50059,0.31828 -5.09171,0.95469 -1.59119,0.63652 -3.07627,1.485144 -4.45525,2.545864 -1.37903,0.95475 -2.65196,2.06856 -3.81878,3.34144 -1.16688,1.16689 -2.22765,2.38678 -3.18232,3.65966"
         style="fill:none;stroke:#000000;stroke-width:1;stroke-opacity:1"
         id="path4075" />
    </g>
  </g>
</svg>
