<?xml version="1.0" encoding="UTF-8" standalone="no"?>
<!-- Created with Inkscape (http://www.inkscape.org/) -->

<svg
   xmlns:dc="http://purl.org/dc/elements/1.1/"
   xmlns:cc="http://creativecommons.org/ns#"
   xmlns:rdf="http://www.w3.org/1999/02/22-rdf-syntax-ns#"
   xmlns:svg="http://www.w3.org/2000/svg"
   xmlns="http://www.w3.org/2000/svg"
   xmlns:sodipodi="http://sodipodi.sourceforge.net/DTD/sodipodi-0.dtd"
   xmlns:inkscape="http://www.inkscape.org/namespaces/inkscape"
   width="65"
   height="150"
   id="svg4005"
   version="1.1"
   inkscape:version="0.47 r22583"
   sodipodi:docname="Lower_A.svg">
  <defs
     id="defs4007">
    <inkscape:perspective
       sodipodi:type="inkscape:persp3d"
       inkscape:vp_x="0 : 526.18109 : 1"
       inkscape:vp_y="0 : 1000 : 0"
       inkscape:vp_z="744.09448 : 526.18109 : 1"
       inkscape:persp3d-origin="372.04724 : 350.78739 : 1"
       id="perspective4013" />
  </defs>
  <sodipodi:namedview
     id="base"
     pagecolor="#ffffff"
     bordercolor="#666666"
     borderopacity="1.0"
     inkscape:pageopacity="0.0"
     inkscape:pageshadow="2"
     inkscape:zoom="3.1733333"
     inkscape:cx="32.5"
     inkscape:cy="75"
     inkscape:document-units="mm"
     inkscape:current-layer="flowRoot4015"
     showgrid="false"
     units="mm"
     borderlayer="true"
     inkscape:window-width="1204"
     inkscape:window-height="724"
     inkscape:window-x="65"
     inkscape:window-y="0"
     inkscape:window-maximized="0"
     showguides="true"
     inkscape:guide-bbox="true" />
  <metadata
     id="metadata4010">
    <rdf:RDF>
      <cc:Work
         rdf:about="">
        <dc:format>image/svg+xml</dc:format>
        <dc:type
           rdf:resource="http://purl.org/dc/dcmitype/StillImage" />
        <dc:title />
      </cc:Work>
    </rdf:RDF>
  </metadata>
  <g
     inkscape:label="Layer 1"
     inkscape:groupmode="layer"
     id="layer1"
     transform="translate(-795.21624,-329.85747)">
    <g
       transform="translate(4.6357211,285.08907)"
       style="font-size:144px;font-style:normal;font-variant:normal;font-weight:normal;font-stretch:normal;text-align:start;line-height:125%;writing-mode:lr-tb;text-anchor:start;fill:none;stroke:#000000;stroke-opacity:1;font-family:Chalkboard;-inkscape-font-specification:Chalkboard"
       id="flowRoot4015">
      <path
         d="m 854.85069,144.16937 c -8e-5,0.10608 -0.0531,0.15912 -0.15912,0.15911 0.63639,1.48509 0.79551,2.8641 0.47735,4.13702 -0.31831,1.27293 -0.95477,2.28066 -1.90939,3.0232 -0.84869,0.84862 -2.01554,1.37901 -3.50056,1.59116 -1.37907,0.21216 -2.91719,-0.10607 -4.61436,-0.95469 -0.95476,-0.9547 -1.85641,-1.96243 -2.70497,-3.02321 -0.84868,-1.16684 -1.59122,-2.33369 -2.22763,-3.50055 -2.1216,1.80332 -4.40226,3.50056 -6.84199,5.09171 -2.43982,1.48509 -4.8796,2.28067 -7.31933,2.38674 -4.24314,0.21216 -8.43319,0.2652 -12.57017,0.15912 -4.13704,-0.10608 -8.0619,-1.48508 -11.77458,-4.13702 -3.07626,-2.22762 -5.463,-4.87955 -7.16023,-7.9558 -1.59117,-3.07623 -2.65194,-6.31158 -3.18232,-9.70607 -0.42431,-3.50053 -0.37127,-7.05412 0.15912,-10.66078 0.53038,-3.60659 1.43203,-7.0541 2.70497,-10.34254 0.53038,-1.48504 1.21988,-2.91708 2.06851,-4.29613 0.84861,-1.37896 1.69722,-2.811 2.54586,-4.29613 1.16683,-2.1215 2.4928,-4.083926 3.9779,-5.887296 1.48506,-1.90934 3.18229,-3.55353 5.09171,-4.9326 1.37898,-0.95463 2.70494,-1.90933 3.9779,-2.86409 1.37898,-0.95463 2.75798,-1.85628 4.13702,-2.70497 0.95466,-0.6364 2.3867,-1.27286 4.29613,-1.909386 2.01543,-0.74247 4.13697,-1.3259 6.36464,-1.75028 2.33366,-0.53031 2.38604,-0.127027 4.61371,-0.127097 2.33365,7e-5 3.90321,2.526059 5.49442,3.162459 3.8788,1.726877 -0.75763,-4.697677 5.35524,-4.313105 4.37459,0.493517 -0.58017,-0.866956 6.1309,1.367147 -6e-5,7.21331 -1.28052,20.277498 -1.38653,27.596778 -0.10615,7.31938 0.3712,14.58567 1.43204,21.7989 0.10601,0.95471 0.47728,2.12156 1.11381,3.50055 0.74248,1.27295 1.48502,2.54587 2.22763,3.81879 0.84855,1.27294 1.59109,2.43979 2.22762,3.50055 0.63639,1.06078 0.95462,1.75028 0.9547,2.06851 m -20.20774,-10.97901 c 0.2121,-0.10606 0.37122,-0.21213 0.47735,-0.31823 0.10602,-0.10606 0.26514,-0.21214 0.47735,-0.31823 -1.37906,-6.36462 -2.06856,-12.94141 -2.06851,-19.73039 0.10603,-6.89498 0.2121,-13.20658 0.31823,-18.934806 -0.95474,6e-5 -2.01552,0.10614 -3.18232,0.31823 -1.1669,0.21221 -2.33375,0.53045 -3.50055,0.9547 -1.06082,0.31829 -2.06855,0.63652 -3.02321,0.9547 -0.84865,0.31829 -1.48512,0.58348 -1.90939,0.79558 -3.18235,1.485126 -5.88732,3.447556 -8.11492,5.887286 -2.22765,2.33375 -4.084,4.98568 -5.56906,7.9558 -1.37903,2.86413 -2.4398,5.94037 -3.18232,9.22873 -0.74256,3.18235 -1.11383,6.41771 -1.11381,9.70608 0.21213,0.84864 0.47733,1.69726 0.79558,2.54586 0.31821,0.84863 0.5834,1.69725 0.79558,2.54585 0.53037,0.5304 1.06075,1.11383 1.59116,1.75028 0.63644,0.63648 1.2729,1.2199 1.90939,1.75027 0.95467,0.42433 1.90937,0.7956 2.86409,1.11382 0.95467,0.31824 1.90936,0.63647 2.86409,0.95469 1.80328,1e-5 3.55356,0.053 5.25083,0.15912 1.6972,0.10609 3.39443,-0.10607 5.09171,-0.63647 1.59112,-1.06076 3.12924,-2.12153 4.61437,-3.18232 1.59111,-1.06075 3.12923,-2.2276 4.61436,-3.50055"
         style="fill:none;stroke:#000000;stroke-opacity:1"
         id="path4045"
         sodipodi:nodetypes="ccscccccccscccscscccccccscccscccsccscccscccccccscccscsccc" />
    </g>
  </g>
</svg>
