<?xml version="1.0" encoding="UTF-8" standalone="no"?>
<!-- Created with Inkscape (http://www.inkscape.org/) -->

<svg
   xmlns:dc="http://purl.org/dc/elements/1.1/"
   xmlns:cc="http://creativecommons.org/ns#"
   xmlns:rdf="http://www.w3.org/1999/02/22-rdf-syntax-ns#"
   xmlns:svg="http://www.w3.org/2000/svg"
   xmlns="http://www.w3.org/2000/svg"
   xmlns:sodipodi="http://sodipodi.sourceforge.net/DTD/sodipodi-0.dtd"
   xmlns:inkscape="http://www.inkscape.org/namespaces/inkscape"
   width="20"
   height="150"
   id="svg4005"
   version="1.1"
   inkscape:version="0.47 r22583"
   sodipodi:docname="Lower_L.svg">
  <defs
     id="defs4007">
    <inkscape:perspective
       sodipodi:type="inkscape:persp3d"
       inkscape:vp_x="0 : 526.18109 : 1"
       inkscape:vp_y="0 : 1000 : 0"
       inkscape:vp_z="744.09448 : 526.18109 : 1"
       inkscape:persp3d-origin="372.04724 : 350.78739 : 1"
       id="perspective4013" />
  </defs>
  <sodipodi:namedview
     id="base"
     pagecolor="#ffffff"
     bordercolor="#666666"
     borderopacity="1.0"
     inkscape:pageopacity="0.0"
     inkscape:pageshadow="2"
     inkscape:zoom="2.22"
     inkscape:cx="37.5"
     inkscape:cy="75"
     inkscape:document-units="mm"
     inkscape:current-layer="flowRoot4015"
     showgrid="false"
     units="mm"
     borderlayer="true"
     inkscape:window-width="1200"
     inkscape:window-height="581"
     inkscape:window-x="108"
     inkscape:window-y="128"
     inkscape:window-maximized="0"
     showguides="true"
     inkscape:guide-bbox="true" />
  <metadata
     id="metadata4010">
    <rdf:RDF>
      <cc:Work
         rdf:about="">
        <dc:format>image/svg+xml</dc:format>
        <dc:type
           rdf:resource="http://purl.org/dc/dcmitype/StillImage" />
        <dc:title />
      </cc:Work>
    </rdf:RDF>
  </metadata>
  <g
     inkscape:label="Layer 1"
     inkscape:groupmode="layer"
     id="layer1"
     transform="translate(-795.21624,-329.85747)">
    <g
       transform="translate(4.6357211,285.08907)"
       style="font-size:144px;font-style:normal;font-variant:normal;font-weight:normal;font-stretch:normal;text-align:start;line-height:125%;writing-mode:lr-tb;text-anchor:start;fill:none;stroke:#000000;stroke-opacity:1;font-family:Chalkboard;-inkscape-font-specification:Chalkboard"
       id="flowRoot4015">
      <path
         d="m 806.35566,141.09313 c 1.90936,1.37901 3.02317,2.97017 3.34143,4.77348 0.31821,1.69724 0.053,3.18232 -0.79558,4.45525 -0.74257,1.27292 -1.96245,2.17458 -3.65966,2.70497 -1.59119,0.53038 -3.44754,0.26519 -5.56907,-0.79558 -0.95471,-0.63647 -1.90941,-1.27293 -2.86408,-1.90939 -0.95472,-0.63647 -1.96245,-1.27293 -3.02321,-1.9094 -0.95471,-0.84861 -1.59117,-1.64419 -1.90939,-2.38674 -0.31824,-0.74253 -0.58344,-1.80331 -0.79558,-3.18232 l 0,-88.309384 c 0.4243,-2.01537 1.21988,-3.55349 2.38674,-4.61436 1.27291,-1.06068 2.54584,-1.59106 3.81878,-1.59116 1.37899,-0.10598 2.70496,0.31833 3.97791,1.27292 1.2729,0.9548 2.2276,2.43988 2.86408,4.45525 l 0,85.604414 c 0.31821,0.21217 0.63644,0.47736 0.9547,0.79558 0.42428,0.21217 0.84859,0.42432 1.27293,0.63647"
         style="fill:none;stroke:#000000;stroke-width:1;stroke-opacity:1"
         id="path4067" />
    </g>
  </g>
</svg>
