<?xml version="1.0" encoding="UTF-8" standalone="no"?>
<!-- Created with Inkscape (http://www.inkscape.org/) -->
<svg
   xmlns:svg="http://www.w3.org/2000/svg"
   xmlns="http://www.w3.org/2000/svg"
   version="1.0"
   width="480.638"
   height="355.117"
   viewBox="0 0 480.638 355.117"
   id="Layer_1"
   xml:space="preserve"><defs
   id="defs182" />
<metadata>
<rdf:RDF
      xmlns="http://web.resource.org/cc/"
      xmlns:dc="http://purl.org/dc/elements/1.1/"
      xmlns:rdf="http://www.w3.org/1999/02/22-rdf-syntax-ns#">
      <Work rdf:about="">
         <dc:title>Cartoon Cat Face</dc:title>
         <dc:description>Cartoon Cat Face</dc:description>
         <dc:subject>
          <rdf:Bag>
            <rdf:li>animal</rdf:li>
		<rdf:li>cat</rdf:li>
		<rdf:li>cartoon</rdf:li>
          </rdf:Bag>
         </dc:subject>
         <dc:publisher><Agent rdf:about="http://www.openclipart.org/"><dc:title>Open Clip Art Project</dc:title></Agent></dc:publisher>
         <dc:creator><Agent rdf:about=""><dc:title>worldlabel.com - SVG by Gerald G.</dc:title></Agent></dc:creator>
         <dc:rights><Agent rdf:about="http://web.resource.org/cc/PublicDomain"><dc:title>Public Domain</dc:title></Agent></dc:rights>
         <dc:date>2006/10/02</dc:date>
         <dc:format>image/svg+xml</dc:format>
         <dc:type>http://purl.org/dc/dcmitype/StillImage</dc:type>
         <license rdf:resource="http://web.resource.org/cc/PublicDomain" />
      </Work>
      <License rdf:about="http://web.resource.org/cc/PublicDomain">
         <permits rdf:resource="http://web.resource.org/cc/Reproduction" />
         <permits rdf:resource="http://web.resource.org/cc/Distribution" />
         <permits rdf:resource="http://web.resource.org/cc/DerivativeWorks" />
      </License>
   </rdf:RDF>
</metadata>


<g
   id="g5">
	<path
   d="M 288.545,80.247 C 289.719,74.992 293.724,68.664 301.046,61.062 C 308.317,53.332 320.919,42.515 331.863,34.708 C 342.757,26.851 355.87,19.835 366.074,14.656 C 376.228,9.529 384.877,6.008 392.121,3.788 C 399.137,1.415 403.882,-1.315 408.423,0.702 C 412.862,2.64 415.975,6.799 419.036,15.626 C 422.098,24.504 425.006,40.092 426.765,53.434 C 428.399,66.726 429.24,82.644 429.189,94.583 C 429.087,106.472 428.195,116.498 426.409,124.074 C 424.547,131.473 423.143,136.013 418.449,139.075 C 413.678,142.06 406.995,143.081 398.091,142.137 L 398.091,142.137 C 387.734,124.101 373.728,110.35 355.386,99.89 C 336.916,89.457 315.027,83.104 288.545,80.247 L 288.545,80.247 z "
   style="fill-rule:evenodd"
   id="path7" />
	<path
   d="M 293.214,77.542 C 295.23,74.022 297.73,70.501 300.918,66.7 C 304.056,62.847 307.679,59.072 311.99,54.99 L 311.99,54.99 C 313.546,55.245 316.021,55.781 319.796,56.598 C 323.522,57.414 328.165,58.511 334.109,59.889 L 334.109,59.889 C 330.462,61.521 327.017,64.124 323.88,67.798 C 320.64,71.471 317.859,75.987 315.154,81.727 L 315.154,81.727 C 309.159,80.758 304.465,79.891 300.765,79.227 C 297.041,78.486 294.618,77.925 293.214,77.542 L 293.214,77.542 z "
   style="fill:#ffc080;fill-rule:evenodd"
   id="path9" />
	<path
   d="M 340.079,31.902 C 334.16,36.495 329.084,40.423 324.746,43.892 C 320.41,47.336 316.915,50.143 314.16,52.413 L 314.16,52.413 C 317.043,52.719 320.358,53.204 324.211,53.969 C 328.063,54.709 332.35,55.627 337.171,56.826 L 337.171,56.826 C 338.268,55.984 339.391,55.118 340.818,54.122 C 342.196,53.076 343.675,52.107 345.36,50.934 L 345.36,50.934 C 343.88,46.801 342.757,43.281 341.89,40.092 C 340.997,36.852 340.36,34.224 340.079,31.902 L 340.079,31.902 z "
   style="fill:#a16121;fill-rule:evenodd"
   id="path11" />
	<path
   d="M 350.564,25.958 C 348.447,27.004 346.763,27.973 345.411,28.764 C 344.033,29.555 343.014,30.269 342.349,30.805 L 342.349,30.805 C 342.757,33.05 343.37,35.576 344.288,38.484 C 345.155,41.341 346.328,44.53 347.706,48.051 L 347.706,48.051 C 350.691,46.24 353.394,44.658 355.921,43.204 C 358.345,41.75 360.028,40.704 362.63,39.479 C 365.233,38.204 368.167,36.826 371.534,35.448 L 371.534,35.448 C 369.085,33.764 366.125,32.132 362.656,30.55 C 359.136,28.968 355.105,27.438 350.564,25.958 L 350.564,25.958 z "
   style="fill:#ffc080;fill-rule:evenodd"
   id="path13" />
	<path
   d="M 354.569,23.662 C 358.064,21.162 362.248,18.815 367.504,16.34 C 372.657,13.815 380.77,10.88 385.541,9.018 C 390.234,7.182 392.888,6.238 395.847,5.396 C 398.832,4.452 401.204,3.865 403.271,3.534 L 403.271,3.534 C 399.904,6.672 396.918,9.835 393.934,13.024 C 390.923,16.213 387.888,19.274 385.618,22.489 C 383.373,25.601 381.868,29.81 380.515,31.673 C 379.163,33.357 379.01,33.433 377.301,32.999 C 375.412,32.54 372.301,30.346 369.749,29.274 C 367.146,28.101 364.697,27.259 362.121,26.34 C 359.544,25.397 357.121,24.504 354.569,23.662 L 354.569,23.662 z "
   style="fill:#a16121;fill-rule:evenodd"
   id="path15" />
	<path
   d="M 406.51,4.248 C 402.837,7.412 399.698,10.396 396.816,13.304 C 393.882,16.187 391.459,18.534 389.443,21.519 C 387.377,24.503 385.821,27.488 384.673,30.881 L 384.673,30.881 C 387.734,29.937 390.208,29.478 392.198,29.503 C 394.111,29.452 395.054,29.912 396.407,30.983 C 397.785,32.08 399.06,34.096 400.234,36.136 C 401.331,38.177 402.223,40.396 403.014,43.075 L 403.014,43.075 C 404.289,39.554 405.667,36.646 407.147,34.145 C 408.55,31.671 409.954,29.833 411.739,28.15 C 413.5,26.339 415.464,24.911 417.734,23.584 L 417.734,23.584 C 416.382,17.384 414.775,12.792 412.913,9.527 C 411,6.289 408.934,4.528 406.51,4.248 L 406.51,4.248 z "
   style="fill:#ffc080;fill-rule:evenodd"
   id="path17" />
	<path
   d="M 418.399,26.239 C 415.363,28.534 412.787,31.315 410.363,34.862 C 407.965,38.383 405.822,42.387 404.036,47.158 L 404.036,47.158 C 404.444,49.658 404.904,51.852 405.312,54.224 C 405.719,56.52 406.102,58.689 406.459,60.831 L 406.459,60.831 C 410.413,62.949 413.857,64.99 416.894,66.852 C 419.878,68.766 422.429,70.373 424.547,72.056 L 424.547,72.056 C 424.112,63.892 423.628,56.953 423.093,51.035 C 422.582,45.065 421.945,40.856 421.28,36.723 C 420.491,32.515 419.496,29.147 418.399,26.239 L 418.399,26.239 z "
   style="fill:#a16121;fill-rule:evenodd"
   id="path19" />
	<path
   d="M 424.751,74.813 L 425.414,88.666 L 425.414,88.666 C 422.965,90.12 420.439,91.625 417.633,93.182 C 414.827,94.763 411.867,96.294 408.654,97.978 L 408.654,97.978 C 408.985,90.86 408.985,84.763 408.756,79.1 C 408.476,73.436 407.965,68.691 407.123,64.482 L 407.123,64.482 C 410.873,66.344 414.113,68.104 417.124,69.865 C 420.083,71.624 422.532,73.18 424.751,74.813 L 424.751,74.813 z "
   style="fill:#ffc080;fill-rule:evenodd"
   id="path21" />
	<path
   d="M 425.848,91.369 C 425.669,95.834 425.465,100.145 425.134,104.788 C 424.751,109.354 424.267,114.992 423.781,118.641 C 423.297,122.136 422.811,123.489 422.046,125.937 C 421.153,128.335 419.98,130.759 418.525,133.208 L 418.525,133.208 L 405.183,119.738 L 405.183,119.738 C 406.204,116.243 407.02,113.13 407.631,110.196 C 408.193,107.237 408.55,104.634 408.702,102.288 L 408.702,102.288 C 411.05,101.063 413.576,99.558 416.484,97.772 C 419.369,95.885 422.455,93.844 425.848,91.369 L 425.848,91.369 z "
   style="fill:#a16121;fill-rule:evenodd"
   id="path23" />
	<path
   d="M 403.168,121.779 C 402.556,122.927 401.229,123.948 399.086,124.841 C 396.917,125.708 393.958,126.448 390.208,127.061 L 390.208,127.061 C 392.198,129.127 393.958,131.245 395.388,133.414 C 396.79,135.582 397.964,137.726 398.806,139.944 L 398.806,139.944 C 401.229,140.71 403.73,140.76 406.714,139.996 C 409.673,139.18 412.709,137.648 416.23,135.302 L 416.23,135.302 C 411.842,130.99 408.602,127.827 406.409,125.531 C 404.214,123.258 403.168,122.008 403.168,121.779 L 403.168,121.779 z "
   style="fill:#ffc080;fill-rule:evenodd"
   id="path25" />
	<path
   d="M 387.632,123.896 C 391.994,123.258 395.285,122.008 397.887,120.044 C 400.388,118.054 401.433,117.008 402.785,112.187 C 404.06,107.186 405.26,98.691 405.592,90.833 C 405.821,82.874 405.643,73.69 404.469,65.143 C 403.194,56.571 400.872,45.143 398.398,39.913 C 395.873,34.658 393.806,34.275 389.75,33.943 C 385.617,33.611 380.412,35.066 373.933,37.897 C 367.377,40.653 358.09,45.832 350.897,50.577 C 343.575,55.297 335.207,62.159 330.819,66.062 C 326.508,69.838 326.941,70.807 325.028,73.384 C 323.038,75.96 321.1,78.487 319.11,81.241 L 319.11,81.241 C 327.376,83.639 334.952,86.318 342.249,89.175 C 349.52,91.956 355.999,94.532 362.377,98.385 C 368.704,102.262 375.566,108.029 379.903,112.339 C 384.112,116.625 386.688,120.376 387.632,123.896 L 387.632,123.896 z "
   style="fill:#a16121;fill-rule:evenodd"
   id="path27" />
	<path
   d="M 341.048,29.734 C 340.078,27.999 338.828,25.754 337.501,23.968 C 336.2,22.106 334.542,19.35 333.42,18.662 C 332.194,17.922 330.894,18.789 330.691,19.58 C 330.462,20.269 330.843,20.32 332.324,23.075 C 333.803,25.83 337.885,34.173 339.645,36.112 C 341.329,37.923 342.4,35.295 342.656,34.224 C 342.783,33.102 341.916,31.443 341.048,29.734 L 341.048,29.734 z "
   style="fill-rule:evenodd"
   id="path29" />
	<path
   d="M 332.732,31.775 C 331.226,30.448 329.211,28.867 327.375,27.616 C 325.436,26.239 323.062,24.402 321.736,24.07 C 320.384,23.738 319.364,25.065 319.465,25.881 C 319.49,26.57 319.821,26.519 322.221,28.586 C 324.644,30.652 331.277,37.056 333.65,38.254 C 335.87,39.249 335.895,36.57 335.793,35.423 C 335.588,34.301 334.109,33.05 332.732,31.775 L 332.732,31.775 z "
   style="fill-rule:evenodd"
   id="path31" />
	<path
   d="M 415.668,10.855 C 417.326,9.783 419.087,8.967 421.639,7.921 C 424.215,6.747 429.19,5.6 431.052,4.478 C 432.838,3.253 434.114,1.339 432.327,1.186 C 430.363,0.956 423.806,1.977 419.852,3.558 C 415.745,5.166 410.158,8.584 408.601,10.473 C 407.071,12.207 409.851,14.146 411.025,14.223 C 412.225,14.198 413.806,11.927 415.668,10.855 L 415.668,10.855 z "
   style="fill-rule:evenodd"
   id="path33" />
	<path
   d="M 417.914,20.294 C 419.42,19.376 420.899,18.61 423.144,17.717 C 425.44,16.748 429.777,15.651 431.435,14.707 C 433.042,13.61 434.063,11.952 432.533,11.799 C 430.747,11.671 425.135,12.462 421.588,13.89 C 417.966,15.293 413.067,18.304 411.715,19.962 C 410.338,21.544 412.813,23.1 413.833,23.253 C 414.878,23.331 416.307,21.162 417.914,20.294 L 417.914,20.294 z "
   style="fill-rule:evenodd"
   id="path35" />
	<path
   d="M 172.188,82.797 C 169.79,77.95 164.254,72.899 155.376,67.235 C 146.371,61.597 131.548,54.045 119.073,49.198 C 106.496,44.3 92.108,40.627 81.01,38.075 C 69.887,35.499 60.55,34.325 53.1,33.866 C 45.651,33.305 40.395,31.8 36.543,34.861 C 32.614,37.82 30.65,42.616 29.859,51.903 C 29.017,61.266 29.961,77.133 31.594,90.45 C 33.124,103.767 36.262,119.381 39.247,130.988 C 42.232,142.468 45.497,152.035 49.145,158.897 C 52.64,165.607 55.14,169.74 60.498,171.5 C 65.855,173.261 72.591,172.598 81.009,169.511 L 81.009,169.511 C 86.621,149.51 96.801,132.749 112.133,118.131 C 127.465,103.513 147.187,92.033 172.188,82.797 L 172.188,82.797 z "
   style="fill-rule:evenodd"
   id="path37" />
	<path
   d="M 166.984,81.318 C 164.102,78.409 160.862,75.527 156.856,72.67 C 152.825,69.762 148.438,66.879 143.284,64.022 L 143.284,64.022 C 141.829,64.609 139.534,65.757 136.115,67.466 C 132.645,69.15 128.436,71.343 123.002,74.15 L 123.002,74.15 C 126.931,74.864 130.885,76.523 134.865,79.329 C 138.794,82.11 142.748,85.834 146.728,90.707 L 146.728,90.707 C 152.315,88.258 156.601,86.345 160.071,84.763 C 163.464,83.18 165.734,82.032 166.984,81.318 L 166.984,81.318 z "
   style="fill:#ffc080;fill-rule:evenodd"
   id="path39" />
	<path
   d="M 110.425,48.459 C 117.262,51.47 123.155,54.072 128.207,56.368 C 133.232,58.613 137.314,60.501 140.554,62.032 L 140.554,62.032 C 137.799,63.002 134.738,64.353 131.166,65.987 C 127.543,67.619 123.691,69.634 119.303,71.931 L 119.303,71.931 C 118.079,71.344 116.65,70.834 115.119,70.196 C 113.487,69.559 111.854,68.895 109.915,68.206 L 109.915,68.206 C 110.298,63.843 110.579,60.195 110.655,56.853 C 110.706,53.51 110.629,50.781 110.425,48.459 L 110.425,48.459 z "
   style="fill:#a16121;fill-rule:evenodd"
   id="path41" />
	<path
   d="M 98.792,45.245 C 101.063,45.73 102.925,46.291 104.481,46.724 C 106.011,47.158 107.134,47.566 107.95,47.949 L 107.95,47.949 C 108.077,50.22 108.077,52.822 107.95,55.858 C 107.746,58.868 107.414,62.21 106.955,65.986 L 106.955,65.986 C 103.588,64.914 100.577,64.047 97.822,63.281 C 94.939,62.44 93.281,61.903 90.398,61.291 C 87.464,60.627 84.377,60.118 80.755,59.556 L 80.755,59.556 C 82.668,57.311 85.143,55.04 88.178,52.642 C 91.215,50.194 94.659,47.821 98.792,45.245 L 98.792,45.245 z "
   style="fill:#ffc080;fill-rule:evenodd"
   id="path43" />
	<path
   d="M 94.354,43.995 C 90.374,42.464 85.629,41.112 80.016,40.041 C 74.276,38.893 65.857,37.923 60.755,37.336 C 55.652,36.749 52.948,36.418 49.887,36.341 C 46.775,36.163 44.249,36.163 42.208,36.341 L 42.208,36.341 C 46.187,38.586 49.887,40.857 53.586,43.255 C 57.234,45.602 60.959,47.898 63.969,50.424 C 66.877,52.924 69.301,56.623 71.137,58.077 C 72.872,59.454 72.872,59.327 74.581,58.587 C 76.24,57.745 78.74,54.785 81.01,53.153 C 83.178,51.469 85.398,49.939 87.669,48.459 C 89.889,46.954 92.083,45.397 94.354,43.995 L 94.354,43.995 z "
   style="fill:#a16121;fill-rule:evenodd"
   id="path45" />
	<path
   d="M 39.249,37.821 C 43.561,39.989 47.362,42.132 50.856,44.25 C 54.326,46.291 57.285,48.051 60.015,50.424 C 62.693,52.771 64.964,55.373 66.928,58.332 L 66.928,58.332 C 63.714,58.179 61.162,58.308 59.275,58.817 C 57.362,59.276 56.546,59.837 55.55,61.292 C 54.479,62.695 53.662,64.94 53.101,67.236 C 52.515,69.507 52.183,71.879 52.106,74.634 L 52.106,74.634 C 49.963,71.572 47.973,69.021 45.932,66.98 C 43.814,64.863 42.156,63.562 39.988,62.286 C 37.82,61.011 35.549,59.991 33.074,59.327 L 33.074,59.327 C 32.845,52.923 33.253,48.179 34.299,44.505 C 35.371,40.882 36.927,38.688 39.249,37.821 L 39.249,37.821 z "
   style="fill:#ffc080;fill-rule:evenodd"
   id="path47" />
	<path
   d="M 33.075,62.031 C 36.468,63.511 39.759,65.654 42.948,68.46 C 46.137,71.292 49.122,74.685 52.107,78.843 L 52.107,78.843 C 52.209,81.343 52.464,83.639 52.591,86.012 C 52.796,88.283 52.872,90.502 53.101,92.67 L 53.101,92.67 C 49.733,95.757 46.978,98.461 44.453,101.089 C 41.953,103.64 39.886,105.91 38.253,108.003 L 38.253,108.003 C 36.671,99.916 35.472,93.155 34.554,87.236 C 33.661,81.292 33.049,77.133 32.82,72.899 C 32.59,68.689 32.641,65.067 33.075,62.031 L 33.075,62.031 z "
   style="fill:#a16121;fill-rule:evenodd"
   id="path49" />
	<path
   d="M 38.764,110.708 L 41.468,124.306 L 41.468,124.306 C 44.173,125.071 46.953,125.99 50.116,126.781 C 53.203,127.546 56.469,128.465 60.015,129.255 L 60.015,129.255 C 57.973,122.444 56.443,116.474 55.321,110.964 C 54.173,105.453 53.509,100.631 53.331,96.397 L 53.331,96.397 C 50.091,99.152 47.387,101.602 44.937,104.05 C 42.438,106.472 40.473,108.589 38.764,110.708 L 38.764,110.708 z "
   style="fill:#ffc080;fill-rule:evenodd"
   id="path51" />
	<path
   d="M 41.723,127.035 C 42.948,131.295 44.198,135.505 45.678,139.867 C 47.157,144.229 48.918,149.587 50.372,152.98 C 51.698,156.245 52.362,157.444 53.841,159.638 C 55.244,161.806 57.005,163.771 59.02,165.812 L 59.02,165.812 L 68.664,149.51 L 68.664,149.51 C 66.776,146.346 65.246,143.566 63.97,140.862 C 62.618,138.107 61.725,135.734 60.985,133.438 L 60.985,133.438 C 58.358,132.8 55.577,132.085 52.337,130.989 C 49.096,129.917 45.626,128.565 41.723,127.035 L 41.723,127.035 z "
   style="fill:#a16121;fill-rule:evenodd"
   id="path53" />
	<path
   d="M 71.138,150.99 C 71.954,151.985 73.485,152.648 75.832,152.98 C 78.128,153.311 81.138,153.311 84.965,152.98 L 84.965,152.98 C 83.486,155.505 82.363,157.904 81.496,160.377 C 80.603,162.826 80.067,165.148 79.787,167.546 L 79.787,167.546 C 77.644,168.873 75.119,169.562 72.108,169.511 C 69.072,169.434 65.653,168.695 61.75,167.291 L 61.75,167.291 C 64.964,162.01 67.312,158.184 68.893,155.428 C 70.475,152.699 71.189,151.219 71.138,150.99 L 71.138,150.99 z "
   style="fill:#ffc080;fill-rule:evenodd"
   id="path55" />
	<path
   d="M 86.7,149.255 C 82.286,149.714 78.792,149.306 75.832,148.03 C 72.898,146.779 71.52,145.913 69.148,141.6 C 66.699,137.034 63.408,129.252 61.239,121.6 C 58.968,113.997 56.979,104.941 56.06,96.394 C 55.09,87.771 54.683,76.138 55.805,70.449 C 56.826,64.734 58.866,63.867 62.719,62.54 C 66.571,61.188 72.005,61.417 79.021,62.54 C 86.011,63.586 96.241,66.392 104.481,69.198 C 112.619,71.954 122.517,76.674 127.696,79.326 C 132.747,81.928 132.594,82.999 135.12,85.015 C 137.62,87.03 140.171,88.994 142.773,91.188 L 142.773,91.188 C 135.273,95.551 128.665,99.964 122.262,104.531 C 115.859,109.021 110.093,113.052 104.965,118.384 C 99.735,123.69 94.455,130.961 91.393,136.165 C 88.333,141.346 86.802,145.607 86.7,149.255 L 86.7,149.255 z "
   style="fill:#a16121;fill-rule:evenodd"
   id="path57" />
	<path
   d="M 124.508,53.893 C 125.452,52.184 126.779,49.964 128.207,48.204 C 129.559,46.316 131.192,43.74 132.416,43.026 C 133.564,42.337 134.891,43.153 135.121,43.995 C 135.299,44.683 134.916,44.761 133.386,47.464 C 131.779,50.194 127.493,58.383 125.733,60.322 C 123.973,62.057 122.953,59.429 122.774,58.331 C 122.569,57.185 123.538,55.577 124.508,53.893 L 124.508,53.893 z "
   style="fill-rule:evenodd"
   id="path59" />
	<path
   d="M 132.773,56.164 C 134.227,54.863 136.268,53.281 138.207,52.108 C 140.044,50.858 142.621,48.944 143.973,48.715 C 145.299,48.46 146.192,49.812 146.167,50.603 C 146.014,51.343 145.758,51.164 143.335,53.23 C 140.886,55.245 133.947,61.496 131.676,62.618 C 129.405,63.613 129.303,60.806 129.584,59.709 C 129.789,58.587 131.243,57.439 132.773,56.164 L 132.773,56.164 z "
   style="fill-rule:evenodd"
   id="path61" />
	<path
   d="M 34.197,92.059 C 32.692,92.747 31.493,93.589 29.707,94.891 C 27.87,96.217 24.885,99.024 23.405,99.866 C 21.823,100.631 19.987,100.555 20.65,99.33 C 21.39,97.851 24.656,93.947 27.487,91.855 C 30.268,89.788 34.911,87.313 36.875,87.084 C 38.635,86.752 38.891,89.431 38.431,90.298 C 37.896,91.089 35.703,91.216 34.197,92.059 L 34.197,92.059 z "
   style="fill-rule:evenodd"
   id="path63" />
	<path
   d="M 39.657,97.543 C 38.381,98.156 37.208,98.844 35.728,100.018 C 34.069,101.115 31.544,103.717 30.217,104.38 C 28.891,105.043 27.13,105.018 27.794,103.921 C 28.432,102.722 31.315,99.125 33.789,97.365 C 36.187,95.579 40.345,93.334 42.029,93.181 C 43.662,92.925 43.687,95.247 43.381,96.013 C 42.846,96.701 41.009,96.854 39.657,97.543 L 39.657,97.543 z "
   style="fill-rule:evenodd"
   id="path65" />
	<path
   d="M 53.561,158.49 C 52.081,159.715 49.938,161.297 48.102,162.547 C 46.163,163.746 43.688,165.634 42.362,165.94 C 40.959,166.196 40.091,164.793 40.168,164.078 C 40.219,163.287 40.576,163.415 43,161.425 C 45.398,159.359 52.261,153.083 54.633,152.037 C 56.852,150.966 56.929,153.798 56.725,154.92 C 56.469,156.015 54.989,157.138 53.561,158.49 L 53.561,158.49 z "
   style="fill-rule:evenodd"
   id="path67" />
	<path
   d="M 224.028,69.149 C 213.798,70.552 206.476,71.751 198.516,72.338 C 190.454,72.822 185.276,71.777 176.194,72.338 C 167.01,72.848 155.07,71.879 144.305,75.527 C 133.488,79.175 120.426,87.492 112.109,93.895 C 103.843,100.171 100.476,103.921 94.838,113.13 C 89.047,122.34 83.23,135.555 78.077,148.642 C 72.873,161.654 67.668,176.093 64.25,190.583 C 60.806,204.972 57.719,219.615 57.846,234.514 C 57.999,249.335 59.708,264.822 65.244,278.904 C 70.754,292.884 76.418,307.222 90.909,317.885 C 105.451,328.497 130.962,336.891 151.6,342.07 C 172.112,347.046 189.127,347.734 213.261,347.989 C 237.37,348.168 269.003,348.296 295.178,343.55 C 321.25,338.653 349.568,330.463 368.701,319.365 C 387.631,308.115 398.754,292.527 408.652,277.425 C 418.448,262.271 423.193,246.225 427.403,229.566 C 431.509,212.805 435.387,195.61 433.321,178.262 C 431.101,160.813 424.519,141.934 414.57,126.449 C 404.467,110.938 390.819,97.06 373.624,86.472 C 356.251,75.886 331.098,67.671 311.937,63.793 C 292.728,59.992 274.41,62.849 259.639,63.793 C 244.845,64.709 234.283,67.644 224.028,69.149 L 224.028,69.149 z "
   style="fill-rule:evenodd"
   id="path69" />
	<path
   d="M 102.236,108.539 C 101.011,109.61 100.016,110.937 98.97,112.621 C 97.924,114.254 96.98,116.218 96.138,118.515 L 96.138,118.515 C 98.076,122.162 101.036,126.142 105.296,130.735 C 109.556,135.352 119.174,142.01 121.369,145.787 C 123.333,149.358 120.935,150.558 117.516,152.521 C 113.995,154.41 107.669,155.838 100.806,157.394 C 93.943,158.924 85.932,160.456 76.57,161.884 L 76.57,161.884 C 76.008,162.879 75.371,164.435 74.555,166.756 C 73.713,169.053 72.794,171.935 71.697,175.507 L 71.697,175.507 C 75.141,178.695 78.943,181.528 83.101,184.282 C 87.31,186.987 91.826,189.462 96.545,191.604 C 101.163,193.619 109.122,194.487 110.78,196.68 C 112.311,198.824 111.444,200.558 106.112,204.64 C 100.602,208.747 86.29,216.171 78.815,220.916 C 71.417,225.585 65.856,229.258 61.927,232.319 L 61.927,232.319 C 61.544,233.187 61.34,234.233 61.315,235.559 C 61.29,236.809 61.392,238.339 61.723,240.049 L 61.723,240.049 C 67.565,242.855 73.611,244.921 80.449,246.35 C 87.209,247.703 95.424,247.625 102.032,248.391 C 108.588,249.08 117.211,248.85 119.328,250.84 C 121.242,252.805 116.267,256.351 113.843,260.202 C 111.445,263.952 109.838,266.173 104.888,273.647 C 99.761,281.172 92.821,291.428 83.586,305.001 L 83.586,305.001 C 84.479,306.403 85.372,307.654 86.571,309.057 C 87.694,310.384 88.918,311.66 90.346,312.986 L 90.346,312.986 C 99.301,311.864 107.515,309.976 115.679,307.221 C 123.766,304.363 132.746,299.617 138.486,296.633 C 144.048,293.622 146.522,289.413 149.252,289.719 C 151.905,290.026 152.365,292.679 154.763,298.47 C 157.136,304.21 160.707,316.864 163.513,324.135 C 166.294,331.328 168.768,336.992 171.243,341.431 L 171.243,341.431 C 173.054,342.018 175.401,342.529 178.182,342.86 C 181.014,343.192 184.177,343.396 187.953,343.472 L 187.953,343.472 C 192.468,339.697 196.474,335.078 200.173,329.415 C 203.847,323.7 207.24,313.547 209.944,309.669 C 212.623,305.791 213.541,305.588 216.041,306.199 C 218.389,306.735 219.664,309.21 224.383,313.138 C 229.104,317.092 237.522,324.491 244.129,329.618 C 250.635,334.618 256.91,339.031 263.263,343.062 L 263.263,343.062 C 265.1,343.062 267.983,342.858 272.013,342.45 C 276.094,342.016 280.992,341.303 287.295,340.409 L 287.295,340.409 C 289.08,333.98 290.533,327.628 291.555,321.072 C 292.524,314.438 292.219,305.561 293.391,301.326 C 294.514,297.065 295.204,295.918 298.495,295.815 C 301.709,295.712 305.077,298.136 313.138,300.712 C 321.251,303.238 338.064,308.238 346.942,310.892 C 355.743,313.444 361.891,315.204 365.667,316.173 L 365.667,316.173 C 366.05,315.917 366.738,315.382 368.116,314.566 C 369.417,313.699 371.152,312.576 373.423,311.096 L 373.423,311.096 C 371.331,305.713 369.009,298.927 366.075,290.636 C 363.167,282.192 357.681,267.931 356.1,261.323 C 354.442,254.792 354.646,252.776 356.304,251.552 C 357.861,250.225 360.947,251.985 365.87,253.593 C 370.819,255.149 378.091,258.644 385.616,260.914 C 392.988,263.082 401.101,265.047 410.055,266.807 L 410.055,266.807 C 411.917,264.256 413.372,261.476 414.52,258.261 C 415.643,254.995 416.357,251.603 416.765,247.674 L 416.765,247.674 C 408.397,241.041 400.795,234.663 393.575,228.132 C 386.279,221.525 376.177,213.08 373.804,208.795 C 371.482,204.508 375.589,203.845 379.722,202.875 C 383.855,201.932 392.095,203.411 398.243,203.079 C 404.289,202.569 410.616,201.395 415.948,200.452 C 421.229,199.508 425.745,198.717 429.801,197.799 L 429.801,197.799 C 430.745,193.538 431.051,189.355 430.617,184.942 C 430.133,180.528 429.01,176.115 427.147,171.497 L 427.147,171.497 C 417.937,170.35 410.335,168.921 404.136,167.211 C 397.885,165.426 391.865,164.176 390.105,161.114 C 388.344,158.002 390.615,155.043 393.574,148.69 C 396.483,142.236 401.023,133.714 407.401,122.822 L 407.401,122.822 C 406.635,121.112 405.82,119.786 404.953,118.561 C 404.059,117.336 403.116,116.417 402.121,115.704 L 402.121,115.704 C 400.591,118.663 395.998,120.755 388.064,122.082 C 379.977,123.307 361.302,124.403 354.669,123.511 C 348.062,122.592 348.954,120.807 348.775,116.776 C 348.596,112.618 352.091,105.041 353.444,99.071 C 354.694,93.05 355.612,87.182 356.301,81.162 L 356.301,81.162 C 355.561,80.422 354.643,79.835 353.444,79.121 C 352.194,78.381 350.868,77.794 349.183,77.079 L 349.183,77.079 C 340.433,81.544 332.525,85.753 325.152,89.707 C 317.676,93.636 310.534,98.815 305.202,100.703 C 299.87,102.488 296.196,103.407 293.595,100.703 C 290.967,97.922 291.783,90.32 289.743,84.4 C 287.726,78.38 284.921,72.181 281.426,65.216 L 281.426,65.216 L 274.053,66.083 L 274.053,66.083 C 270.685,70.19 267.624,74.298 264.486,78.711 C 261.323,83.023 258.109,87.666 255.532,92.155 C 252.929,96.62 251.094,103.253 249.027,105.37 C 246.832,107.436 245.379,107.59 242.699,104.349 C 239.894,100.93 236.373,90.623 232.929,85.623 C 229.536,80.623 224.995,75.878 222.546,74.831 C 220.046,73.708 220.325,74.78 218.081,79.321 C 215.734,83.862 211.728,96.414 208.922,101.924 C 206.039,107.383 203.616,111.134 201.371,111.899 C 199.126,112.537 198.973,110.267 195.682,106.185 C 192.264,102.078 186.268,92.459 181.421,87.459 C 176.574,82.408 171.727,78.606 166.777,76.056 L 166.777,76.056 C 162.925,75.673 158.92,75.878 154.557,76.669 C 150.195,77.434 145.577,78.76 140.704,80.751 L 140.704,80.751 C 141.036,86.44 141.852,91.976 143.153,97.844 C 144.429,103.66 148.689,111.492 148.256,115.344 C 147.618,119.069 144.863,120.701 140.092,120.242 C 135.194,119.68 125.194,114.144 119.938,112.308 C 114.785,110.419 112.003,109.859 109.146,109.245 C 106.19,108.589 103.92,108.386 102.236,108.539 L 102.236,108.539 z "
   style="fill:#ffc080;fill-rule:evenodd"
   id="path71" />
	<path
   d="M 194.256,128.386 C 194.409,126.371 197.318,123.08 199.154,120.861 C 201.016,118.59 202.394,116.779 205.251,115.146 C 207.981,113.412 213.415,111.039 215.635,110.886 C 217.802,110.733 219.41,112.901 218.288,114.151 C 217.013,115.299 211.298,116.09 208.517,118.004 C 205.762,119.917 203.517,122.979 201.782,125.53 C 200.022,128.004 199.129,132.086 197.929,132.673 C 196.578,133.055 194.077,130.376 194.256,128.386 L 194.256,128.386 z "
   style="fill-rule:evenodd"
   id="path73" />
	<path
   d="M 282.294,132.954 C 282.065,130.683 279.157,127.111 277.398,124.687 C 275.459,122.162 274.081,120.274 271.3,118.437 C 268.519,116.6 263.06,113.921 260.916,113.743 C 258.671,113.616 257.063,115.887 258.264,117.315 C 259.488,118.565 265.177,119.483 268.035,121.549 C 270.791,123.615 272.933,127.136 274.769,129.84 C 276.454,132.493 277.373,137.06 278.622,137.647 C 279.897,138.055 282.398,135.147 282.294,132.954 L 282.294,132.954 z "
   style="fill-rule:evenodd"
   id="path75" />
	<path
   d="M 188.975,137.137 C 188.975,138.718 190.505,139.994 192.419,139.994 C 194.333,139.994 195.889,138.718 195.889,137.137 C 195.889,135.58 194.333,134.305 192.419,134.305 C 190.505,134.305 188.975,135.581 188.975,137.137 L 188.975,137.137 z "
   style="fill-rule:evenodd"
   id="path77" />
	<path
   d="M 276.3,143.26 C 276.3,144.816 277.857,146.091 279.77,146.091 C 281.683,146.091 283.213,144.816 283.213,143.26 C 283.213,141.678 281.683,140.402 279.77,140.402 C 277.857,140.402 276.3,141.678 276.3,143.26 L 276.3,143.26 z "
   style="fill-rule:evenodd"
   id="path79" />
	<path
   d="M 240.89,138.745 C 240.89,144.587 246.477,149.307 253.39,149.307 C 260.304,149.307 265.917,144.587 265.917,138.745 C 265.917,132.902 260.304,128.183 253.39,128.183 C 246.477,128.183 240.89,132.902 240.89,138.745 L 240.89,138.745 z "
   style="fill-rule:evenodd"
   id="path81" />
	<path
   d="M 248.825,135.096 C 248.825,136.678 250.355,137.953 252.268,137.953 C 254.181,137.953 255.738,136.678 255.738,135.096 C 255.738,133.539 254.181,132.264 252.268,132.264 C 250.355,132.264 248.825,133.54 248.825,135.096 L 248.825,135.096 z "
   style="fill:#ffffff;fill-rule:evenodd"
   id="path83" />
	<path
   d="M 206.884,132.443 C 206.884,138.285 212.446,143.005 219.308,143.005 C 226.17,143.005 231.706,138.285 231.706,132.443 C 231.706,126.601 226.17,121.881 219.308,121.881 C 212.446,121.881 206.884,126.601 206.884,132.443 L 206.884,132.443 z "
   style="fill-rule:evenodd"
   id="path85" />
	<path
   d="M 215.15,128.794 C 215.15,130.376 216.655,131.651 218.517,131.651 C 220.354,131.651 221.859,130.376 221.859,128.794 C 221.859,127.213 220.354,125.937 218.517,125.937 C 216.655,125.937 215.15,127.213 215.15,128.794 L 215.15,128.794 z "
   style="fill:#ffffff;fill-rule:evenodd"
   id="path87" />
	<path
   d="M 100.247,110.708 C 99.583,108.31 99.124,105.324 98.767,102.544 C 98.359,99.789 97.696,95.962 98.155,94.406 C 98.614,92.773 100.578,92.467 101.395,93.003 C 102.109,93.487 101.879,93.743 102.772,97.519 C 103.614,101.32 106.777,112.163 106.751,115.376 C 106.598,118.387 103.562,116.882 102.465,116.091 C 101.395,115.274 100.782,112.953 100.247,110.708 L 100.247,110.708 z "
   style="fill-rule:evenodd"
   id="path89" />
	<path
   d="M 93.869,116.472 C 92.67,114.329 91.624,111.421 90.629,108.845 C 89.66,106.242 88.129,102.696 88.206,101.064 C 88.231,99.405 90.17,98.615 91.063,98.972 C 91.854,99.252 91.675,99.635 93.384,103.079 C 95.118,106.497 100.527,116.524 101.241,119.585 C 101.802,122.569 98.46,121.753 97.21,121.269 C 95.96,120.657 94.94,118.565 93.869,116.472 L 93.869,116.472 z "
   style="fill-rule:evenodd"
   id="path91" />
	<path
   d="M 138.335,81.573 C 135.121,82.823 131.753,84.558 127.85,86.981 C 123.871,89.405 118.921,92.67 115.171,95.808 C 111.421,98.869 108.359,101.982 105.707,105.247 L 105.707,105.247 C 110.324,106.497 115.044,107.951 120.146,109.712 C 125.248,111.396 131.958,114.483 135.937,115.63 C 139.79,116.702 141.856,116.983 143.412,116.37 C 144.917,115.707 145.402,115.044 144.968,112.008 C 144.458,108.793 141.728,102.314 140.605,98.079 C 139.355,93.792 138.564,89.737 138.131,86.981 C 137.723,84.175 137.825,82.44 138.335,81.573 L 138.335,81.573 z "
   style="fill:#a16121;fill-rule:evenodd"
   id="path93" />
	<path
   d="M 94.174,119.994 C 96.164,124.024 98.18,127.29 100.424,130.173 C 102.567,132.954 104.812,134.586 107.363,136.831 C 109.889,138.949 113.869,141.321 115.578,143.261 C 117.185,145.174 118.231,146.832 117.236,148.337 C 116.088,149.69 112.67,150.735 109.251,151.883 C 105.832,152.981 102.235,154.052 96.98,155.199 C 91.597,156.322 85.219,157.572 77.464,158.847 L 77.464,158.847 C 79.913,151.602 82.541,144.917 85.347,138.387 C 88.128,131.831 91.037,125.835 94.174,119.994 L 94.174,119.994 z "
   style="fill:#a16121;fill-rule:evenodd"
   id="path95" />
	<path
   d="M 70.934,178.796 C 72.924,180.862 75.348,182.879 78.205,185.047 C 81.088,187.088 84.43,189.588 87.95,191.476 C 91.42,193.313 95.68,195.099 98.767,196.247 C 101.726,197.242 104.839,197.345 105.833,198.135 C 106.777,198.951 107.44,199.105 104.583,201.35 C 101.573,203.595 93.255,208.366 88.485,211.325 C 83.664,214.157 80.526,215.458 76.112,218.367 C 71.698,221.223 67.03,224.515 62.106,228.342 L 62.106,228.342 C 61.366,222.73 61.774,215.969 63.229,207.678 C 64.709,199.333 67.209,189.869 70.934,178.796 L 70.934,178.796 z "
   style="fill:#a16121;fill-rule:evenodd"
   id="path97" />
	<path
   d="M 61.469,243.544 C 63.612,244.846 66.699,246.02 70.832,247.269 C 74.914,248.392 81.113,249.999 86.088,250.713 C 91.088,251.275 95.808,251.148 100.527,251.326 C 105.247,251.555 111.777,251.173 114.023,252.04 C 116.14,252.806 115.018,253.111 113.309,256.096 C 111.523,259.081 106.752,265.127 103.538,269.822 C 100.247,274.44 97.746,278.419 94.073,283.929 C 90.374,289.491 86.292,295.563 81.623,302.732 L 81.623,302.732 C 78.332,298.216 75.322,293.165 72.49,287.272 C 69.633,281.328 66.469,274.847 64.684,267.526 C 62.821,260.204 61.75,252.245 61.469,243.544 L 61.469,243.544 z "
   style="fill:#a16121;fill-rule:evenodd"
   id="path99" />
	<path
   d="M 93.971,315.742 C 97.338,315.538 101.267,314.952 106.038,313.778 C 110.706,312.579 117.186,310.844 122.135,308.88 C 127.085,306.788 131.779,304.084 135.631,301.942 C 139.458,299.773 142.468,297.708 144.764,296.431 C 146.882,295.079 147.443,294.186 148.616,294.237 C 149.688,294.212 150.53,293.957 151.627,296.635 C 152.698,299.314 153.872,305.947 155.147,310.334 C 156.372,314.646 157.75,319.034 158.897,322.605 C 159.892,326.1 160.3,328.421 161.602,331.534 C 162.928,334.545 164.586,337.657 166.78,340.871 L 166.78,340.871 C 157.622,339.341 149.407,337.453 141.652,335.488 C 133.871,333.422 128.539,331.994 120.554,328.728 C 112.517,325.385 103.818,321.125 93.971,315.742 L 93.971,315.742 z "
   style="fill:#a16121;fill-rule:evenodd"
   id="path101" />
	<path
   d="M 192.75,343.984 C 195.403,341.764 197.929,338.856 200.531,335.157 C 203.031,331.407 206.016,325.896 208.108,321.866 C 210.098,317.681 211.195,312.604 212.879,310.768 C 214.486,308.906 215.634,309.237 218.185,311.074 C 220.737,312.86 224.461,318.319 228.263,321.661 C 232.064,324.977 236.833,328.218 240.611,330.999 C 244.232,333.703 247.422,335.692 250.177,337.759 C 252.88,339.749 255.024,341.484 256.707,342.963 L 256.707,342.963 C 252.753,343.116 247.728,343.423 241.247,343.678 C 234.614,343.857 226.298,344.597 218.083,344.621 C 209.92,344.698 201.603,344.417 192.75,343.984 L 192.75,343.984 z "
   style="fill:#a16121;fill-rule:evenodd"
   id="path103" />
	<path
   d="M 291.812,339.825 C 293.648,334.519 294.796,328.906 295.562,322.707 C 296.25,316.432 294.746,306.636 295.969,302.859 C 297.067,299.134 298.852,299.951 302.5,300.487 C 306.147,300.971 311.276,303.65 317.884,305.768 C 324.517,307.783 334.313,310.436 341.762,312.63 C 349.084,314.773 355.564,316.609 361.508,318.446 L 361.508,318.446 C 354.646,322.221 347.706,325.512 340.308,328.421 C 332.833,331.278 325.511,333.702 317.373,335.692 C 309.21,337.581 300.817,338.958 291.812,339.825 L 291.812,339.825 z "
   style="fill:#a16121;fill-rule:evenodd"
   id="path105" />
	<path
   d="M 408.143,269.924 C 406.179,269.745 403.219,269.184 398.984,268.036 C 394.75,266.81 388.269,264.923 382.887,263.163 C 377.402,261.377 370.361,259.081 366.483,257.652 C 362.58,256.147 360.82,254.258 359.621,254.437 C 358.396,254.463 358.192,255.024 359.11,258.494 C 359.927,262.015 362.58,269.03 364.723,275.408 C 366.84,281.786 369.723,290.689 371.789,296.404 C 373.702,302.016 375.386,306.098 376.56,308.956 L 376.56,308.956 C 381.433,304.67 385.795,300.613 389.749,296.506 C 393.703,292.322 396.969,289.031 400.132,284.568 C 403.219,280.103 405.796,275.255 408.143,269.924 L 408.143,269.924 z "
   style="fill:#a16121;fill-rule:evenodd"
   id="path107" />
	<path
   d="M 429.215,201.298 C 426.103,202.114 422.149,202.905 416.97,203.67 C 411.714,204.436 403.907,205.431 398.372,205.864 C 392.784,206.195 387.453,205.839 384.034,205.967 C 380.59,206.043 378.447,205.559 378.013,206.578 C 377.477,207.548 378.548,208.926 381.534,212.089 C 384.518,215.252 389.825,219.845 396.076,225.278 C 402.275,230.686 409.724,236.86 418.628,244.182 L 418.628,244.182 C 421.663,235.942 423.96,228.39 425.796,221.221 C 427.532,214.003 428.706,207.498 429.215,201.298 L 429.215,201.298 z "
   style="fill:#a16121;fill-rule:evenodd"
   id="path109" />
	<path
   d="M 410.209,124.739 C 407.224,129.535 404.622,134.28 402.198,139.076 C 399.698,143.847 397.198,149.842 395.769,153.311 C 394.264,156.704 392.758,157.827 393.703,159.434 C 394.673,160.964 397.53,161.347 401.586,162.546 C 405.565,163.668 413.296,165.608 417.582,166.399 C 421.766,167.164 424.878,167.47 426.817,167.214 L 426.817,167.214 C 425.159,159 422.914,151.652 420.183,144.484 C 417.378,137.316 414.087,130.835 410.209,124.739 L 410.209,124.739 z "
   style="fill:#a16121;fill-rule:evenodd"
   id="path111" />
	<path
   d="M 360.36,82.568 C 359.493,87.236 358.626,91.701 357.554,96.166 C 356.431,100.682 354.926,105.503 354.033,109.151 C 353.114,112.697 351.532,115.325 352.247,117.34 C 352.91,119.278 354.033,120.299 358.268,120.783 C 362.478,121.115 372.198,120.145 377.504,119.738 C 382.708,119.355 385.999,119.329 389.749,118.283 C 393.448,117.11 396.841,115.375 399.826,112.977 L 399.826,112.977 C 394.57,107.185 388.779,101.853 382.172,96.777 C 375.54,91.65 368.372,86.981 360.36,82.568 L 360.36,82.568 z "
   style="fill:#a16121;fill-rule:evenodd"
   id="path113" />
	<path
   d="M 285.077,64.685 C 287.245,67.21 288.903,69.915 290.256,73.001 C 291.48,76.037 292.016,79.226 292.858,82.976 C 293.598,86.701 293.929,92.288 295.129,95.018 C 296.329,97.671 297.17,98.921 299.925,98.768 C 302.578,98.513 306.279,96.09 311.125,93.564 C 315.972,90.961 322.911,86.191 328.778,83.282 C 334.595,80.272 340.105,77.874 345.717,75.807 L 345.717,75.807 C 333.268,71.853 323.216,69.047 314.977,67.286 C 306.762,65.551 301.788,65.551 296.813,65.22 C 291.734,64.761 287.984,64.583 285.077,64.685 L 285.077,64.685 z "
   style="fill:#a16121;fill-rule:evenodd"
   id="path115" />
	<path
   d="M 270.126,66.445 C 268.927,66.011 264.666,66.292 257.14,67.287 C 249.513,68.205 239.079,69.864 225.15,72.16 L 225.15,72.16 C 229.257,75.731 232.472,79.124 234.896,82.441 C 237.319,85.655 237.702,88.615 239.488,92.008 C 241.197,95.426 243.187,101.779 244.871,103.004 C 246.428,104.177 246.759,102.672 248.927,99.075 C 251.045,95.401 255.101,85.579 257.653,81.319 C 260.128,76.982 261.709,75.987 263.878,73.513 C 265.994,70.986 267.984,68.664 270.126,66.445 L 270.126,66.445 z "
   style="fill:#a16121;fill-rule:evenodd"
   id="path117" />
	<path
   d="M 172.801,75.706 C 175.454,75.655 178.465,75.655 181.934,75.706 C 185.454,75.706 189.332,76.165 193.465,76.012 C 197.496,75.808 201.552,75.196 205.838,74.762 C 209.997,74.303 214.18,73.818 218.492,73.308 L 218.492,73.308 C 216.221,77.313 214.104,81.65 211.757,86.6 C 209.435,91.6 206.425,98.998 204.69,102.697 C 202.853,106.218 202.7,107.851 201.272,107.8 C 199.869,107.672 198.925,105.606 196.272,102.187 C 193.44,98.615 188.746,91.6 184.843,87.135 C 180.888,82.696 176.908,78.92 172.801,75.706 L 172.801,75.706 z "
   style="fill:#a16121;fill-rule:evenodd"
   id="path119" />
	<path
   d="M 62.515,198.492 C 59.76,196.962 56.469,194.845 53.637,192.829 C 50.728,190.763 46.621,188.211 45.55,186.553 C 44.402,184.844 46.035,183.237 47.208,183.109 C 48.356,182.93 48.331,183.39 52.642,185.865 C 56.953,188.365 69.786,195.05 72.745,197.753 C 75.525,200.33 71.24,201.249 69.53,201.401 C 67.745,201.528 65.143,199.87 62.515,198.492 L 62.515,198.492 z "
   style="fill-rule:evenodd"
   id="path121" />
	<path
   d="M 65.449,188.568 C 63.561,187.445 61.163,186.017 59.224,184.589 C 57.132,183.109 54.326,181.349 53.56,180.201 C 52.871,179.053 53.789,177.828 54.733,177.803 C 55.499,177.675 55.524,178.058 58.534,179.741 C 61.519,181.425 70.576,186.196 72.616,188.058 C 74.504,189.818 71.595,190.507 70.371,190.609 C 69.071,190.634 67.337,189.588 65.449,188.568 L 65.449,188.568 z "
   style="fill-rule:evenodd"
   id="path123" />
	<path
   d="M 141.498,337.708 C 139.457,340.004 136.651,342.759 134.074,345.183 C 131.447,347.479 128.079,351.051 126.242,351.765 C 124.379,352.429 123.078,350.567 123.231,349.418 C 123.334,348.219 123.69,348.321 127.058,344.698 C 130.324,340.999 139.788,329.774 142.952,327.554 C 146.039,325.36 146.039,329.748 145.809,331.483 C 145.478,333.116 143.488,335.386 141.498,337.708 L 141.498,337.708 z "
   style="fill-rule:evenodd"
   id="path125" />
	<path
   d="M 132.416,332.733 C 130.962,334.366 128.998,336.254 127.212,337.989 C 125.324,339.647 123.003,341.994 121.727,342.581 C 120.4,343.065 119.533,341.739 119.609,340.948 C 119.609,340.132 120.017,340.106 122.313,337.632 C 124.635,334.979 131.166,327.197 133.436,325.616 C 135.554,324.11 135.604,327.095 135.451,328.371 C 135.197,329.57 133.794,331.024 132.416,332.733 L 132.416,332.733 z "
   style="fill-rule:evenodd"
   id="path127" />
	<path
   d="M 269.82,337.631 C 270.662,339.876 271.453,342.886 272.193,345.667 C 272.831,348.32 273.927,352.096 273.8,353.651 C 273.519,355.182 271.81,355.361 271.019,354.877 C 270.228,354.264 270.433,354.034 269.182,350.361 C 267.78,346.585 263.646,335.794 263.264,332.732 C 262.881,329.722 265.968,331.354 267.116,332.222 C 268.111,333.013 268.978,335.309 269.82,337.631 L 269.82,337.631 z "
   style="fill-rule:evenodd"
   id="path129" />
	<path
   d="M 260.253,338.421 C 260.737,340.487 261.095,343.243 261.427,345.718 C 261.656,348.167 262.243,351.433 261.911,352.862 C 261.579,354.163 259.87,354.112 259.335,353.602 C 258.696,352.989 258.901,352.836 258.264,349.494 C 257.549,346.076 255.024,336.127 255.1,333.422 C 255.152,330.769 257.6,332.479 258.519,333.422 C 259.361,334.238 259.744,336.331 260.253,338.421 L 260.253,338.421 z "
   style="fill-rule:evenodd"
   id="path131" />
	<path
   d="M 393.832,293.292 C 395.617,294.235 397.097,295.257 399.367,296.94 C 401.561,298.624 405.235,302.22 407.148,303.292 C 409.037,304.236 411.383,304.338 410.643,302.706 C 409.801,300.894 405.515,295.843 402.224,293.164 C 398.78,290.46 392.862,287.398 390.566,287.016 C 388.269,286.685 387.963,289.848 388.576,290.995 C 389.137,291.965 391.944,292.272 393.832,293.292 L 393.832,293.292 z "
   style="fill-rule:evenodd"
   id="path133" />
	<path
   d="M 386.841,300.027 C 388.423,300.895 389.724,301.737 391.713,303.242 C 393.703,304.747 396.765,307.885 398.526,308.804 C 400.184,309.62 402.224,309.747 401.587,308.293 C 400.772,306.788 397.199,302.196 394.215,299.926 C 391.256,297.578 385.975,294.823 383.985,294.518 C 381.995,294.186 381.638,297.069 382.225,298.039 C 382.683,298.879 385.208,299.186 386.841,300.027 L 386.841,300.027 z "
   style="fill-rule:evenodd"
   id="path135" />
	<path
   d="M 419.801,141.321 C 422.174,140.581 425.134,139.867 427.991,139.383 C 430.746,138.821 434.419,137.903 436.053,138.209 C 437.455,138.464 437.737,140.301 437.098,141.066 C 436.46,141.78 436.205,141.525 432.506,142.647 C 428.577,143.693 417.71,147.367 414.571,147.571 C 411.51,147.674 413.346,144.74 414.265,143.693 C 415.108,142.571 417.481,142.009 419.801,141.321 L 419.801,141.321 z "
   style="fill-rule:evenodd"
   id="path137" />
	<path
   d="M 420.083,150.887 C 422.099,150.504 425.007,150.249 427.431,150.122 C 429.88,149.893 433.222,149.637 434.599,150.045 C 435.85,150.402 435.747,152.061 435.186,152.648 C 434.548,153.21 434.37,152.928 431.002,153.49 C 427.456,153.975 417.557,155.914 414.802,155.761 C 412.098,155.481 414.063,153.158 414.981,152.342 C 415.873,151.526 417.939,151.168 420.083,150.887 L 420.083,150.887 z "
   style="fill-rule:evenodd"
   id="path139" />
	<path
   d="M 161.27,215.075 C 151.907,213.493 128.998,213.136 111.446,210.866 C 93.843,208.39 70.628,203.262 56.851,200.992 C 43.101,198.645 34.784,197.395 29.554,197.345 C 24.375,197.294 24.707,199.692 25.625,200.712 C 26.467,201.605 27.666,201.707 34.63,202.983 C 41.62,204.208 53.661,206.018 67.004,208.315 C 80.27,210.663 99.582,214.693 113.715,216.759 C 127.772,218.672 141.956,219.539 150.86,220.152 C 159.636,220.688 164.534,221.275 166.345,220.433 C 168.056,219.513 170.403,216.681 161.27,215.075 L 161.27,215.075 z "
   style="fill-rule:evenodd"
   id="path141" />
	<path
   d="M 36.314,251.658 C 47.055,250.28 58.254,248.724 71.775,246.301 C 85.271,243.698 103.231,239.489 116.803,236.735 C 130.324,233.903 144.177,231.199 152.264,230 C 160.147,228.826 162.8,229.031 164.356,229.72 C 165.81,230.382 168.744,232.016 161.55,233.929 C 154.126,235.791 135.299,238.138 121.319,240.97 C 107.364,243.675 93.461,247.654 78.817,250.257 C 64.123,252.884 46.188,254.822 34.07,256.455 C 21.927,258.037 12.59,259.39 6.773,259.542 C 1.16,259.542 -0.141,257.553 0.012,256.736 C 0.216,255.842 1.569,255.282 7.615,254.465 C 13.839,253.597 25.421,252.958 36.314,251.658 L 36.314,251.658 z "
   style="fill-rule:evenodd"
   id="path143" />
	<path
   d="M 43.917,306.813 C 53.867,301.762 76.214,290.078 89.506,283.47 C 102.695,276.786 111.471,272.654 122.722,267.143 C 133.896,261.581 149.152,253.189 156.193,250.536 C 163.055,247.933 165.326,249.693 164.076,251.378 C 162.775,252.934 158.642,255.025 148.616,260.103 C 138.335,265.154 118.436,273.956 103.589,281.482 C 88.665,288.93 74.149,297.121 60.245,304.57 C 46.29,311.942 29.708,321.305 20.83,325.386 C 12.105,329.264 8.942,328.729 7.615,328.193 C 6.365,327.53 9.171,324.52 12.972,322.019 C 16.926,319.443 25.116,315.845 30.422,313.293 C 35.601,310.742 33.967,311.763 43.917,306.813 L 43.917,306.813 z "
   style="fill-rule:evenodd"
   id="path145" />
	<path
   d="M 324.925,194.971 C 333.726,191.552 356.227,187.063 373.039,181.4 C 389.851,175.711 409.623,167.47 424.776,161.398 C 439.802,155.251 455.44,147.265 462.634,144.918 C 469.676,142.597 467.737,146.347 467.15,147.495 C 466.384,148.465 467.252,147.598 458.731,151.398 C 450.032,155.301 430.847,164.358 416.229,170.505 C 401.535,176.628 385.462,182.929 371.942,187.623 C 358.421,192.164 344.67,195.711 336.098,197.981 C 327.551,200.252 322.832,201.578 320.969,201.169 C 319.109,200.583 316.201,198.289 324.925,194.971 L 324.925,194.971 z "
   style="fill-rule:evenodd"
   id="path147" />
	<path
   d="M 444.012,207.982 C 433.093,208.748 421.945,209.666 408.219,209.947 C 394.418,210.151 375.948,209.64 362.172,209.692 C 348.344,209.692 334.159,209.794 326.099,210.279 C 318.062,210.686 315.536,211.477 314.185,212.447 C 312.73,213.468 310.358,215.509 317.782,216.018 C 325.257,216.35 344.416,214.844 358.626,214.743 C 372.759,214.591 387.225,215.636 402.123,215.227 C 417.021,214.717 434.905,213.161 447.201,212.217 C 459.319,211.298 468.861,210.763 474.55,209.717 C 480.112,208.543 480.852,206.374 480.596,205.584 C 480.29,204.741 478.708,204.487 472.688,204.92 C 466.488,205.355 454.83,207.064 444.012,207.982 L 444.012,207.982 z "
   style="fill-rule:evenodd"
   id="path149" />
	<path
   d="M 434.012,249.259 C 423.169,246.376 398.882,239.566 384.571,235.815 C 370.157,231.989 357.784,228.978 348.727,226.682 C 339.748,224.385 335.079,222.448 330.869,222.141 C 326.557,221.784 321.787,223.187 323.344,224.59 C 324.926,225.891 332.375,227.829 340.283,229.922 C 348.218,231.937 357.376,233.34 370.412,236.784 C 383.423,240.254 402.352,246.019 417.557,250.432 C 432.661,254.769 450.85,260.56 460.417,262.677 C 469.856,264.743 472.662,263.443 473.938,262.702 C 475.009,261.809 471.693,259.437 467.432,257.754 C 463.12,255.968 454.141,254.284 448.554,252.805 C 442.966,251.3 444.65,252.118 434.012,249.259 L 434.012,249.259 z "
   style="fill-rule:evenodd"
   id="path151" />
	<path
   d="M 239.666,76.037 C 241.248,74.684 242.651,71.573 245.941,68.664 C 249.181,65.705 256.351,61.164 259.182,58.689 C 261.81,56.163 262.294,54.76 262.32,53.791 C 262.32,52.719 261.146,52.132 259.59,52.821 C 257.984,53.509 255.381,56.035 253.06,58.025 C 250.663,59.913 248.34,62.005 245.815,64.301 C 243.239,66.546 239.769,69.275 238.162,71.393 C 236.556,73.434 236.096,75.577 236.402,76.444 C 236.707,77.185 237.957,77.313 239.666,76.037 L 239.666,76.037 z "
   style="fill-rule:evenodd"
   id="path153" />
	<path
   d="M 233.697,73.817 C 234.64,72.312 235.304,69.531 237.345,66.444 C 239.437,63.28 244.385,58.128 246.197,55.5 C 247.931,52.821 247.83,51.622 247.754,50.806 C 247.498,49.938 246.452,49.632 245.305,50.576 C 244.131,51.494 242.498,54.097 240.993,56.214 C 239.437,58.306 237.957,60.398 236.349,62.872 C 234.716,65.245 232.344,68.179 231.502,70.296 C 230.635,72.234 230.635,74.199 231.094,74.812 C 231.477,75.374 232.574,75.17 233.697,73.817 L 233.697,73.817 z "
   style="fill-rule:evenodd"
   id="path155" />
	<path
   d="M 205.685,79.71 C 204.435,78.69 203.006,74.557 201.297,72.337 C 199.639,70.143 197.649,67.923 195.429,66.469 C 192.954,64.912 189.026,64.122 187.393,63.203 C 185.811,62.132 185.888,61.265 186.143,60.601 C 186.296,59.861 186.985,59.045 188.618,59.249 C 190.276,59.402 193.006,59.835 195.838,61.825 C 198.567,63.789 202.802,68.356 204.996,71.111 C 207.164,73.841 208.313,76.417 208.542,77.948 C 208.619,79.404 206.884,80.553 205.685,79.71 L 205.685,79.71 z "
   style="fill-rule:evenodd"
   id="path157" />
	<path
   d="M 213.466,75.628 C 212.241,74.226 210.098,69.251 208.822,65.807 C 207.547,62.286 205.965,57.26 205.939,55.143 C 205.837,53.077 207.648,52.618 208.414,53.383 C 209.103,54.021 209.409,56.521 210.328,59.097 C 211.17,61.572 212.649,66.062 213.593,68.536 C 214.461,70.934 215.635,72.465 215.635,73.715 C 215.583,74.863 214.563,76.879 213.466,75.628 L 213.466,75.628 z "
   style="fill-rule:evenodd"
   id="path159" />
	<path
   d="M 223.289,72.338 C 222.701,72.006 222.268,70.323 222.473,68.256 C 222.676,66.113 223.416,62.235 224.385,59.658 C 225.279,57.055 226.86,54.989 227.651,52.566 C 228.315,50.015 227.958,47.081 228.749,44.76 C 229.54,42.438 231.453,39.352 232.423,38.637 C 233.316,37.872 234.412,38.866 234.335,40.142 C 234.233,41.341 232.499,43.638 231.887,45.857 C 231.173,48.025 231.224,50.449 230.382,53.23 C 229.463,55.985 227.626,59.633 226.835,62.107 C 225.993,64.403 225.815,66.113 225.61,67.44 C 225.432,68.69 225.891,69.404 225.61,70.169 C 225.201,70.986 223.773,72.593 223.289,72.338 L 223.289,72.338 z "
   style="fill-rule:evenodd"
   id="path161" />
	<path
   d="M 241.069,219.794 C 235.533,220.406 230.61,220.456 226.017,219.845 C 221.4,219.207 218.313,218.34 213.797,216.171 C 209.205,213.874 204.613,209.436 198.949,206.604 C 193.158,203.773 184.74,201.298 179.79,199.079 C 174.84,196.732 172.034,195.481 169.611,192.778 C 167.111,189.946 165.427,186.068 165.147,182.802 C 164.764,179.511 165.019,175.889 167.979,173.414 C 171.041,170.888 176.627,168.438 183.056,167.929 C 189.383,167.445 197.929,168.617 205.66,170.174 C 213.313,171.704 222.293,175.71 228.671,176.679 C 234.922,177.419 236.095,177.139 243.11,175.047 C 250.126,172.903 261.81,165.989 270.203,164.051 C 278.495,162.062 287.297,162.674 292.577,163.439 C 297.781,164.128 300.409,165.301 301.353,168.542 C 302.144,171.833 300.689,178.16 297.679,182.803 C 294.566,187.344 286.76,192.038 283.213,195.814 C 279.667,199.539 279.106,201.708 276.503,204.973 C 273.825,208.111 272.448,212.32 267.345,214.744 C 262.167,217.091 255.075,218.57 245.763,219.182 L 245.763,219.182 C 245.89,226.811 246.503,233.903 247.804,240.765 C 249.003,247.627 250.304,253.878 253.288,259.899 C 256.272,265.842 261.427,271.66 265.509,275.971 C 269.437,280.078 272.652,282.909 277.321,284.747 C 282.092,286.507 288.572,287.374 293.597,286.762 C 298.495,286.048 301.888,284.083 306.633,280.868 C 311.302,277.603 318.419,269.516 321.506,267.424 C 324.466,265.307 325.052,266.762 324.542,268.241 C 323.929,269.669 321.403,272.705 318.241,275.766 C 315.001,278.725 311.02,283.369 305.612,285.945 C 300.05,288.369 292.116,290.946 285.662,290.639 C 279.208,290.256 272.55,287.527 267.345,283.929 C 262.064,280.179 257.753,273.445 254.513,268.852 C 251.222,264.26 249.156,260.281 248.007,256.632 L 248.007,256.632 C 247.166,263.393 245.558,269.439 242.905,275.358 C 240.176,281.174 236.553,287.654 232.318,291.456 C 228.083,295.103 223.006,297.068 217.674,297.757 C 212.24,298.472 205.811,297.069 200.148,295.716 C 194.459,294.211 188.413,291.814 183.668,289.211 C 178.745,286.532 173.591,282.298 171.448,280.053 C 169.382,277.731 170.427,276.175 171.244,275.971 C 171.984,275.792 173.515,277.374 175.938,279.033 C 178.233,280.639 181.55,283.395 185.3,285.538 C 188.948,287.579 193.03,289.977 198.132,291.457 C 203.26,292.886 210.837,294.493 215.837,294.314 C 220.709,294.085 224.154,292.757 227.649,290.232 C 231.119,287.655 233.747,284.772 236.604,279.237 C 239.384,273.548 243.006,263.394 244.333,257.042 C 245.531,250.715 244.741,246.608 244.333,241.582 C 243.848,236.506 242.675,230.307 242.088,226.709 C 241.503,223.059 241.197,220.79 241.069,219.794 L 241.069,219.794 z "
   style="fill-rule:evenodd"
   id="path163" />
	<path
   d="M 173.082,179.256 C 173.082,179.996 173.796,180.582 174.715,180.582 C 175.608,180.582 176.347,179.996 176.347,179.256 C 176.347,178.516 175.607,177.903 174.715,177.903 C 173.796,177.904 173.082,178.516 173.082,179.256 L 173.082,179.256 z "
   style="fill:#ffffff;fill-rule:evenodd"
   id="path165" />
	<path
   d="M 176.143,176.399 C 176.143,177.139 176.857,177.752 177.775,177.752 C 178.668,177.752 179.382,177.14 179.382,176.399 C 179.382,175.658 178.668,175.047 177.775,175.047 C 176.857,175.047 176.143,175.659 176.143,176.399 L 176.143,176.399 z "
   style="fill:#ffffff;fill-rule:evenodd"
   id="path167" />
	<path
   d="M 208.108,177.828 C 208.108,178.568 208.822,179.155 209.715,179.155 C 210.633,179.155 211.348,178.568 211.348,177.828 C 211.348,177.088 210.634,176.476 209.715,176.476 C 208.823,176.476 208.108,177.087 208.108,177.828 L 208.108,177.828 z "
   style="fill:#ffffff;fill-rule:evenodd"
   id="path169" />
	<path
   d="M 212.981,180.073 C 212.981,180.813 213.721,181.4 214.613,181.4 C 215.506,181.4 216.246,180.813 216.246,180.073 C 216.246,179.334 215.506,178.72 214.613,178.72 C 213.721,178.72 212.981,179.333 212.981,180.073 L 212.981,180.073 z "
   style="fill:#ffffff;fill-rule:evenodd"
   id="path171" />
	<path
   d="M 285.867,182.701 C 285.867,183.44 286.607,184.053 287.5,184.053 C 288.393,184.053 289.133,183.441 289.133,182.701 C 289.133,181.961 288.393,181.374 287.5,181.374 C 286.607,181.374 285.867,181.96 285.867,182.701 L 285.867,182.701 z "
   style="fill:#ffffff;fill-rule:evenodd"
   id="path173" />
	<path
   d="M 263.876,208.569 C 263.876,209.309 264.616,209.896 265.509,209.896 C 266.402,209.896 267.142,209.309 267.142,208.569 C 267.142,207.83 266.402,207.217 265.509,207.217 C 264.616,207.217 263.876,207.83 263.876,208.569 L 263.876,208.569 z "
   style="fill:#ffffff;fill-rule:evenodd"
   id="path175" />
	<path
   d="M 197.929,172.624 C 196.399,172.317 194.919,172.216 193.491,172.216 C 191.986,172.165 190.481,172.165 188.873,172.318 C 187.164,172.471 184.893,172.675 183.541,173.033 C 182.087,173.339 181.041,173.671 180.607,174.13 C 180.148,174.487 180.607,175.329 181.015,175.559 C 181.347,175.738 181.525,175.738 182.826,175.559 C 184.127,175.33 186.831,174.564 188.872,174.436 C 190.836,174.233 192.749,174.334 194.612,174.539 C 196.321,174.718 197.801,175.126 199.433,175.56 C 200.964,175.943 203.132,176.835 204.153,176.862 C 205.148,176.81 205.785,175.918 205.582,175.458 C 205.301,174.897 204.026,174.285 202.75,173.826 C 201.476,173.287 199.409,172.853 197.929,172.624 L 197.929,172.624 z "
   style="fill:#ffffff;fill-rule:evenodd"
   id="path177" />
	<path
   d="M 273.494,195.864 C 274.388,194.64 274.361,194.206 275.203,193.467 C 276.019,192.574 277.321,191.503 278.418,190.839 C 279.361,190.125 280.179,190.048 281.147,189.334 C 282.041,188.467 283.112,186.605 283.955,186.119 C 284.77,185.635 285.74,185.736 285.867,186.426 C 285.892,187.14 284.796,189.028 284.056,190.125 C 283.163,191.043 281.963,191.553 280.943,192.242 C 279.872,192.905 278.724,193.415 277.908,194.258 C 277.066,195.074 276.785,195.661 275.892,197.089 C 274.897,198.467 273.392,200.865 272.269,202.319 C 271.019,203.594 269.948,204.895 269.157,205.125 C 268.391,205.253 267.728,204.488 267.855,203.723 C 267.831,202.983 268.494,202.166 269.463,200.891 C 270.408,199.512 272.474,197.115 273.494,195.864 L 273.494,195.864 z "
   style="fill:#ffffff;fill-rule:evenodd"
   id="path179" />
</g>
</svg>