<?xml version="1.0" encoding="UTF-8" standalone="no"?>
<!-- Created with Inkscape (http://www.inkscape.org/) -->

<svg
   xmlns:dc="http://purl.org/dc/elements/1.1/"
   xmlns:cc="http://creativecommons.org/ns#"
   xmlns:rdf="http://www.w3.org/1999/02/22-rdf-syntax-ns#"
   xmlns:svg="http://www.w3.org/2000/svg"
   xmlns="http://www.w3.org/2000/svg"
   xmlns:sodipodi="http://sodipodi.sourceforge.net/DTD/sodipodi-0.dtd"
   xmlns:inkscape="http://www.inkscape.org/namespaces/inkscape"
   width="90"
   height="120"
   id="svg4607"
   version="1.1"
   inkscape:version="0.48.0 r9654"
   sodipodi:docname="Upper_O.svg">
  <defs
     id="defs4609">
    <inkscape:perspective
       sodipodi:type="inkscape:persp3d"
       inkscape:vp_x="0 : 526.18109 : 1"
       inkscape:vp_y="0 : 1000 : 0"
       inkscape:vp_z="744.09448 : 526.18109 : 1"
       inkscape:persp3d-origin="372.04724 : 350.78739 : 1"
       id="perspective4615" />
  </defs>
  <sodipodi:namedview
     id="base"
     pagecolor="#ffffff"
     bordercolor="#666666"
     borderopacity="1.0"
     inkscape:pageopacity="0.0"
     inkscape:pageshadow="2"
     inkscape:zoom="3.2"
     inkscape:cx="75"
     inkscape:cy="60"
     inkscape:document-units="px"
     inkscape:current-layer="flowRoot4617"
     showgrid="false"
     inkscape:window-width="1097"
     inkscape:window-height="632"
     inkscape:window-x="81"
     inkscape:window-y="61"
     inkscape:window-maximized="0" />
  <metadata
     id="metadata4612">
    <rdf:RDF>
      <cc:Work
         rdf:about="">
        <dc:format>image/svg+xml</dc:format>
        <dc:type
           rdf:resource="http://purl.org/dc/dcmitype/StillImage" />
        <dc:title />
      </cc:Work>
    </rdf:RDF>
  </metadata>
  <g
     inkscape:label="Layer 1"
     inkscape:groupmode="layer"
     id="layer1"
     transform="translate(-167.97316,-897.77561)">
    <g
       transform="translate(0,308.2677)"
       style="font-size:144px;font-style:normal;font-variant:normal;font-weight:normal;font-stretch:normal;text-align:start;line-height:125%;writing-mode:lr-tb;text-anchor:start;fill:none;stroke:#000000;stroke-opacity:1;font-family:Chalkboard;-inkscape-font-specification:Chalkboard"
       id="flowRoot4617">
      <path
         d="m 243.558,646.05405 c -0.25088,-2.1305 -0.55281,-4.24713 -0.90579,-6.34989 -0.27877,-2.23285 -0.71095,-4.42392 -1.29656,-6.57325 -0.72522,-2.6609 -1.72018,-5.30332 -2.98486,-7.92727 -1.26476,-2.62381 -2.88312,-4.93142 -4.85509,-6.92286 -3.55321,-3.7593 -7.90215,-6.20238 -13.04673,-7.32926 -5.14473,-1.12667 -10.17339,-1.02069 -15.08588,0.31792 -5.83374,1.58983 -10.59312,4.70091 -14.27824,9.33324 -2.27999,2.93026 -4.12749,6.23733 -5.54231,9.92116 -1.3126,3.65614 -2.26235,7.4332 -2.84922,11.33122 -0.48458,3.87026 -0.63428,7.75914 -0.44899,11.66663 0.25978,3.77735 0.83586,7.30353 1.72833,10.57854 1.1156,4.09384 2.70111,7.89468 4.75651,11.40252 2.12979,3.37768 4.71099,6.19253 7.7435,8.44459 3.10699,2.12187 6.63741,3.5786 10.59124,4.37021 3.95385,0.79162 8.28473,0.54596 12.99265,-0.737 1.94449,-0.52989 3.81936,-1.31567 5.62449,-2.35732 1.90742,-1.06951 3.55441,-2.28795 4.94098,-3.65532 2.52174,-2.44631 4.58761,-5.15322 6.19783,-8.12077 1.7124,-2.99538 3.06211,-6.11182 4.04893,-9.34929 0.98683,-3.23742 1.67596,-6.55865 2.06746,-9.96374 0.36354,-3.50734 0.53627,-6.90775 0.5184,-10.20129 l 0.0833,2.12123 m 12.6998,-1.81162 c 0.055,3.83315 -0.2436,7.98249 -0.89576,12.44805 -0.54987,4.43774 -1.51366,8.76837 -2.89138,12.99188 -1.27554,4.1957 -3.04403,8.19589 -5.30546,12.00055 -2.15926,3.77685 -4.82075,6.92093 -7.98438,9.43223 -1.47025,1.06032 -2.76365,1.96251 -3.8802,2.70657 -1.08877,0.84642 -2.20532,1.59047 -3.34977,2.23219 -1.14454,0.64173 -2.4053,1.26016 -3.78227,1.85529 -1.24682,0.6696 -2.72626,1.29265 -4.43822,1.86912 -0.20473,0.0558 -0.4606,0.12552 -0.76751,0.20916 -0.27922,0.18602 -0.57237,0.32088 -0.87928,0.40453 -2.66106,0.72515 -5.49867,1.00368 -8.51301,0.8356 -2.98645,-0.0657 -5.8194,-0.17329 -8.49875,-0.3227 -4.61454,-0.39168 -8.74511,-1.62989 -12.39164,-3.71466 -3.64662,-2.08473 -6.87911,-4.66713 -9.69749,-7.7472 -2.74389,-3.21029 -5.08295,-6.75079 -7.01737,-10.6215 -1.83197,-3.89856 -3.3058,-7.89474 -4.42141,-11.98858 -0.41834,-1.53514 -0.77161,-3.03308 -1.05962,-4.49389 -0.31607,-1.563 -0.56697,-3.08883 -0.75271,-4.5775 -0.38072,-3.41445 -0.47308,-7.18241 -0.27681,-11.30394 0.29857,-4.14927 0.93202,-8.27992 1.90044,-12.392 0.94048,-4.21424 2.22057,-8.19128 3.84017,-11.93109 1.72193,-3.76751 3.76467,-6.96286 6.12833,-9.5861 2.94063,-3.32999 6.30445,-6.11573 10.09145,-8.35722 3.75916,-2.34365 7.73677,-4.08726 11.93293,-5.23085 6.95945,-1.89641 13.95583,-2.04386 20.98906,-0.44232 7.03308,1.60177 13.26111,5.2919 18.684,11.07044 2.63226,2.80102 4.80864,5.94608 6.52923,9.43517 1.69244,3.38695 3.04077,6.92258 4.04489,10.60693 0.64139,2.35402 1.19444,4.78702 1.65924,7.299 0.43665,2.4098 0.77112,4.8474 1.0033,7.31284"
         id="path5164"
         style="fill:#0000ff" />
    </g>
  </g>
</svg>
