<?xml version="1.0" encoding="UTF-8" standalone="no"?>
<!-- Created with Inkscape (http://www.inkscape.org/) -->

<svg
   xmlns:dc="http://purl.org/dc/elements/1.1/"
   xmlns:cc="http://creativecommons.org/ns#"
   xmlns:rdf="http://www.w3.org/1999/02/22-rdf-syntax-ns#"
   xmlns:svg="http://www.w3.org/2000/svg"
   xmlns="http://www.w3.org/2000/svg"
   xmlns:sodipodi="http://sodipodi.sourceforge.net/DTD/sodipodi-0.dtd"
   xmlns:inkscape="http://www.inkscape.org/namespaces/inkscape"
   width="67"
   height="120"
   id="svg4607"
   version="1.1"
   inkscape:version="0.48.0 r9654"
   sodipodi:docname="Upper_E.svg">
  <defs
     id="defs4609">
    <inkscape:perspective
       sodipodi:type="inkscape:persp3d"
       inkscape:vp_x="0 : 526.18109 : 1"
       inkscape:vp_y="0 : 1000 : 0"
       inkscape:vp_z="744.09448 : 526.18109 : 1"
       inkscape:persp3d-origin="372.04724 : 350.78739 : 1"
       id="perspective4615" />
  </defs>
  <sodipodi:namedview
     id="base"
     pagecolor="#ffffff"
     bordercolor="#666666"
     borderopacity="1.0"
     inkscape:pageopacity="0.0"
     inkscape:pageshadow="2"
     inkscape:zoom="3.2"
     inkscape:cx="75"
     inkscape:cy="60"
     inkscape:document-units="px"
     inkscape:current-layer="flowRoot4617"
     showgrid="false"
     inkscape:window-width="1097"
     inkscape:window-height="632"
     inkscape:window-x="81"
     inkscape:window-y="61"
     inkscape:window-maximized="0" />
  <metadata
     id="metadata4612">
    <rdf:RDF>
      <cc:Work
         rdf:about="">
        <dc:format>image/svg+xml</dc:format>
        <dc:type
           rdf:resource="http://purl.org/dc/dcmitype/StillImage" />
        <dc:title />
      </cc:Work>
    </rdf:RDF>
  </metadata>
  <g
     inkscape:label="Layer 1"
     inkscape:groupmode="layer"
     id="layer1"
     transform="translate(-167.97316,-897.77561)">
    <g
       transform="translate(0,308.2677)"
       style="font-size:144px;font-style:normal;font-variant:normal;font-weight:normal;font-stretch:normal;text-align:start;line-height:125%;writing-mode:lr-tb;text-anchor:start;fill:none;stroke:#000000;stroke-opacity:1;font-family:Chalkboard;-inkscape-font-specification:Chalkboard"
       id="flowRoot4617">
      <path
         d="m 224.80024,684.7383 c 2.0154,-0.10606 3.6596,0.31825 4.93259,1.27293 1.37894,0.84863 2.22756,1.96244 2.54586,3.34143 0.42424,1.27294 0.31816,2.65195 -0.31823,4.13702 -0.53046,1.37901 -1.69731,2.5989 -3.50055,3.65967 -3.81885,1.06078 -7.90283,1.90939 -12.25194,2.54586 -4.34922,0.63646 -8.75143,1.06077 -13.20663,1.27292 -4.45528,0.10608 -8.85749,0 -13.20663,-0.31823 -4.34919,-0.31823 -8.48621,-0.95469 -12.41105,-1.90939 -1.69725,-0.84862 -2.91714,-1.85635 -3.65967,-3.0232 -0.74255,-1.27293 -1.06078,-2.49281 -0.95469,-3.65967 l 0,-0.15912 0,-69.85193 c -1.37902,-0.42423 -2.43979,-1.16677 -3.18232,-2.22763 -0.74255,-1.06069 -1.11382,-2.22754 -1.11382,-3.50055 0,-1.27284 0.42431,-2.49273 1.27293,-3.65967 0.84861,-1.27284 2.17458,-2.22753 3.9779,-2.86409 4.137,-1.27283 8.32705,-2.12145 12.57017,-2.54585 4.34914,-0.53029 8.69831,-0.84853 13.04751,-0.9547 4.34913,-0.21206 8.6983,-0.31814 13.04752,-0.31823 4.34911,9e-5 8.64524,-0.10598 12.88839,-0.31823 2.33364,-0.10598 4.13695,0.4244 5.40995,1.59116 1.37893,1.16694 2.17451,2.49291 2.38674,3.9779 0.21208,1.48517 -0.21223,2.97025 -1.27293,4.45525 -0.95476,1.37909 -2.59896,2.33378 -4.93259,2.86409 -6.3647,0.31831 -13.15365,0.42439 -20.36686,0.31823 -7.10722,-0.106 -14.00224,0.37135 -20.68508,1.43204 l 0,28.00442 c 5.51599,0.21221 11.03201,0.21221 16.54807,0 5.62205,-0.31818 11.24414,-0.74249 16.8663,-1.27293 2.33364,-0.10602 4.13695,0.42437 5.40994,1.59116 1.37894,1.16691 2.17452,2.49287 2.38674,3.9779 0.21209,1.48513 -0.21222,2.97021 -1.27293,4.45525 -0.95476,1.37905 -2.59895,2.33375 -4.93259,2.86409 -5.83431,0.53043 -11.7216,0.95474 -17.66188,1.27293 -5.83429,0.31827 -11.6155,0.37131 -17.34365,0.15911 l 0,25.7768 c 6.36461,0.95471 12.9414,1.2199 19.73039,0.79558 6.89497,-0.53037 13.31265,-1.59114 19.25304,-3.18232"
         id="path5144"
         style="fill:#0000ff" />
    </g>
  </g>
</svg>
