<?xml version="1.0" encoding="UTF-8" standalone="no"?>
<!-- Created with Inkscape (http://www.inkscape.org/) -->

<svg
   xmlns:dc="http://purl.org/dc/elements/1.1/"
   xmlns:cc="http://creativecommons.org/ns#"
   xmlns:rdf="http://www.w3.org/1999/02/22-rdf-syntax-ns#"
   xmlns:svg="http://www.w3.org/2000/svg"
   xmlns="http://www.w3.org/2000/svg"
   xmlns:sodipodi="http://sodipodi.sourceforge.net/DTD/sodipodi-0.dtd"
   xmlns:inkscape="http://www.inkscape.org/namespaces/inkscape"
   width="85"
   height="120"
   id="svg4607"
   version="1.1"
   inkscape:version="0.48.0 r9654"
   sodipodi:docname="Upper_G.svg">
  <defs
     id="defs4609">
    <inkscape:perspective
       sodipodi:type="inkscape:persp3d"
       inkscape:vp_x="0 : 526.18109 : 1"
       inkscape:vp_y="0 : 1000 : 0"
       inkscape:vp_z="744.09448 : 526.18109 : 1"
       inkscape:persp3d-origin="372.04724 : 350.78739 : 1"
       id="perspective4615" />
  </defs>
  <sodipodi:namedview
     id="base"
     pagecolor="#ffffff"
     bordercolor="#666666"
     borderopacity="1.0"
     inkscape:pageopacity="0.0"
     inkscape:pageshadow="2"
     inkscape:zoom="3.2"
     inkscape:cx="75"
     inkscape:cy="60"
     inkscape:document-units="px"
     inkscape:current-layer="flowRoot4617"
     showgrid="false"
     inkscape:window-width="1097"
     inkscape:window-height="632"
     inkscape:window-x="81"
     inkscape:window-y="61"
     inkscape:window-maximized="0" />
  <metadata
     id="metadata4612">
    <rdf:RDF>
      <cc:Work
         rdf:about="">
        <dc:format>image/svg+xml</dc:format>
        <dc:type
           rdf:resource="http://purl.org/dc/dcmitype/StillImage" />
        <dc:title />
      </cc:Work>
    </rdf:RDF>
  </metadata>
  <g
     inkscape:label="Layer 1"
     inkscape:groupmode="layer"
     id="layer1"
     transform="translate(-167.97316,-897.77561)">
    <g
       transform="translate(0,308.2677)"
       style="font-size:144px;font-style:normal;font-variant:normal;font-weight:normal;font-stretch:normal;text-align:start;line-height:125%;writing-mode:lr-tb;text-anchor:start;fill:none;stroke:#000000;stroke-opacity:1;font-family:Chalkboard;-inkscape-font-specification:Chalkboard"
       id="flowRoot4617">
      <path
         d="m 246.91736,644.3626 c 2.01538,0.53044 3.50046,1.4321 4.45524,2.70498 0.95461,1.1669 1.43196,2.43982 1.43205,3.81878 -9e-5,1.27297 -0.4244,2.49286 -1.27293,3.65967 -0.84871,1.06081 -2.06859,1.90943 -3.65967,2.54585 l 0,23.86741 c -8e-5,2.33371 -0.79566,4.29614 -2.38674,5.88729 -1.48516,1.59117 -2.91721,3.07625 -4.29613,4.45525 -3.39455,3.39448 -7.42549,5.83425 -12.09282,7.31934 -4.56139,1.59115 -9.22879,2.38673 -14.00221,2.38674 -7.74369,-1e-5 -14.53263,-1.59117 -20.36685,-4.77348 -5.83428,-3.2884 -10.71383,-7.37237 -14.63867,-12.25194 -3.8188,-4.98561 -6.73593,-10.39555 -8.75138,-16.22983 -1.9094,-5.83422 -2.8641,-11.40328 -2.86409,-16.70718 -1e-5,-3.0762 0.37126,-6.41763 1.11381,-10.02431 0.74253,-3.60657 1.85634,-7.16016 3.34144,-10.66078 1.59114,-3.50048 3.55357,-6.78887 5.88729,-9.86519 2.33368,-3.07616 5.09169,-5.62202 8.27403,-7.63757 5.72815,-3.71262 11.5624,-6.73582 17.50276,-9.06961 6.04636,-2.43968 12.19884,-3.65957 18.45746,-3.65967 1.80326,1e-4 3.97784,0.21225 6.52376,0.63646 2.54579,0.31833 4.98556,0.90176 7.31934,1.75028 2.4397,0.74264 4.5082,1.80341 6.20552,3.18232 1.69716,1.3791 2.54577,3.07633 2.54586,5.09171 -9e-5,1.69733 -0.58351,3.12937 -1.75028,4.29614 -1.16693,1.16693 -2.65201,1.75035 -4.45525,1.75027 -0.95477,8e-5 -2.06858,-0.21207 -3.34143,-0.63646 -1.273,-0.42423 -2.65201,-0.84854 -4.13702,-1.27293 -1.37907,-0.5303 -2.86416,-1.00765 -4.45525,-1.43204 -1.48515,-0.42423 -2.97023,-0.63638 -4.45525,-0.63647 -1.06083,9e-5 -2.06856,0.0531 -3.0232,0.15912 -0.95475,0.10616 -1.90945,0.31831 -2.86409,0.63646 -4.13707,1.27301 -8.32712,2.81113 -12.57017,4.61437 -4.24313,1.69731 -8.11495,3.97797 -11.61547,6.84198 -3.3945,2.86416 -6.15251,6.41775 -8.27403,10.66078 -2.12157,4.13707 -3.18234,9.33486 -3.18232,15.59337 -2e-5,5.09175 0.90164,9.91827 2.70497,14.47956 1.80329,4.45527 4.19003,8.32709 7.16022,11.61547 2.97014,3.28841 6.41765,5.8873 10.34255,7.79668 3.92481,1.9094 8.00879,2.8641 12.25193,2.86409 3.71265,10e-6 7.37232,-0.74253 10.979,-2.22763 3.60657,-1.48506 6.89496,-3.71269 9.8652,-6.68287 l 0,-21.63978 c -4.03101,0.10612 -8.06194,0.15916 -12.09282,0.15912 -3.92492,4e-5 -7.90281,4e-5 -11.9337,0 -2.33375,-0.31819 -4.08402,-1.11377 -5.25083,-2.38674 -1.06082,-1.27289 -1.5912,-2.65189 -1.59116,-4.13702 -4e-5,-1.48503 0.58338,-2.91708 1.75028,-4.29613 1.27288,-1.48503 3.12923,-2.22757 5.56906,-2.22763 1.06072,6e-5 3.28834,6e-5 6.68287,0 3.50049,-0.10602 7.2132,-0.15906 11.13812,-0.15911 3.92479,5e-5 7.58446,5e-5 10.97901,0 3.50047,-0.10603 5.78113,-0.15906 6.84199,-0.15912"
         id="path5148"
         style="fill:#000000" />
    </g>
  </g>
</svg>
