<?xml version="1.0" encoding="UTF-8" standalone="no"?>
<!-- Created with Inkscape (http://www.inkscape.org/) -->

<svg
   xmlns:dc="http://purl.org/dc/elements/1.1/"
   xmlns:cc="http://creativecommons.org/ns#"
   xmlns:rdf="http://www.w3.org/1999/02/22-rdf-syntax-ns#"
   xmlns:svg="http://www.w3.org/2000/svg"
   xmlns="http://www.w3.org/2000/svg"
   xmlns:sodipodi="http://sodipodi.sourceforge.net/DTD/sodipodi-0.dtd"
   xmlns:inkscape="http://www.inkscape.org/namespaces/inkscape"
   width="85"
   height="120"
   id="svg4607"
   version="1.1"
   inkscape:version="0.48.0 r9654"
   sodipodi:docname="Upper_X.svg">
  <defs
     id="defs4609">
    <inkscape:perspective
       sodipodi:type="inkscape:persp3d"
       inkscape:vp_x="0 : 526.18109 : 1"
       inkscape:vp_y="0 : 1000 : 0"
       inkscape:vp_z="744.09448 : 526.18109 : 1"
       inkscape:persp3d-origin="372.04724 : 350.78739 : 1"
       id="perspective4615" />
  </defs>
  <sodipodi:namedview
     id="base"
     pagecolor="#ffffff"
     bordercolor="#666666"
     borderopacity="1.0"
     inkscape:pageopacity="0.0"
     inkscape:pageshadow="2"
     inkscape:zoom="3.2"
     inkscape:cx="75"
     inkscape:cy="60"
     inkscape:document-units="px"
     inkscape:current-layer="flowRoot4617"
     showgrid="false"
     inkscape:window-width="1097"
     inkscape:window-height="632"
     inkscape:window-x="81"
     inkscape:window-y="61"
     inkscape:window-maximized="0" />
  <metadata
     id="metadata4612">
    <rdf:RDF>
      <cc:Work
         rdf:about="">
        <dc:format>image/svg+xml</dc:format>
        <dc:type
           rdf:resource="http://purl.org/dc/dcmitype/StillImage" />
        <dc:title />
      </cc:Work>
    </rdf:RDF>
  </metadata>
  <g
     inkscape:label="Layer 1"
     inkscape:groupmode="layer"
     id="layer1"
     transform="translate(-167.97316,-897.77561)">
    <g
       transform="translate(0,308.2677)"
       style="font-size:144px;font-style:normal;font-variant:normal;font-weight:normal;font-stretch:normal;text-align:start;line-height:125%;writing-mode:lr-tb;text-anchor:start;fill:none;stroke:#000000;stroke-opacity:1;font-family:Chalkboard;-inkscape-font-specification:Chalkboard"
       id="flowRoot4617">
      <path
         d="m 239.43896,602.83332 c 1.6971,-1.37891 3.4474,-2.06841 5.2508,-2.06851 1.6971,10e-5 3.1292,0.58353 4.2961,1.75028 1.1668,1.16695 1.7502,2.65203 1.7503,4.45525 -1e-4,0.95479 -0.2653,2.12163 -0.7956,3.50055 -4.4553,7.31942 -9.1227,14.10836 -14.0022,20.36685 -4.7735,6.25863 -9.8652,12.72934 -15.2751,19.41216 5.3038,6.57683 10.5546,13.31274 15.7525,20.20773 5.3037,6.78897 9.9181,13.89615 13.8431,21.32155 0.3181,0.9547 0.4772,1.9094 0.4773,2.86409 -1e-4,1.90939 -0.5835,3.44751 -1.7503,4.61436 -1.1669,1.16685 -2.599,1.75027 -4.2961,1.75028 -2.0156,-1e-5 -3.8719,-0.84862 -5.5691,-2.54586 -3.6067,-6.78894 -7.7967,-13.31269 -12.5701,-19.57127 -4.6675,-6.25854 -9.441,-12.41102 -14.3205,-18.45746 -5.41,6.57683 -10.926,13.04754 -16.548,19.41216 -5.5161,6.36465 -11.0321,12.78232 -16.5481,19.25303 -1.5912,0.9547 -3.1293,1.43205 -4.6144,1.43205 -1.8033,0 -3.2884,-0.53039 -4.4552,-1.59116 -1.0608,-1.16685 -1.5912,-2.65193 -1.5912,-4.45525 0,-1.48508 0.4774,-3.0232 1.4321,-4.61437 5.7281,-6.68285 11.4033,-13.25964 17.0254,-19.73038 5.7281,-6.57676 11.4033,-13.25963 17.0254,-20.04862 -5.0918,-6.68282 -10.2895,-13.04745 -15.5934,-19.09392 -5.1978,-6.15241 -10.979,-11.98666 -17.3436,-17.50277 -0.9547,-0.84853 -1.6442,-1.75018 -2.0685,-2.70497 -0.3183,-1.06068 -0.4774,-2.01538 -0.4774,-2.86409 0,-1.69714 0.5304,-3.12918 1.5912,-4.29613 1.1668,-1.16675 2.6519,-1.75018 4.4552,-1.75028 1.8033,1e-4 3.4475,0.58353 4.9326,1.75028 6.2586,5.51611 12.0398,11.29732 17.3437,17.34365 5.3038,5.9404 10.5016,12.19896 15.5933,18.77569 4.8795,-6.15242 9.6,-12.14579 14.1614,-17.98011 4.5612,-5.83417 8.8573,-12.14577 12.8884,-18.93481"
         id="path5182"
         style="fill:#000000" />
    </g>
  </g>
</svg>
