<?xml version="1.0" encoding="UTF-8" standalone="no"?>
<!-- Created with Inkscape (http://www.inkscape.org/) -->

<svg
   xmlns:dc="http://purl.org/dc/elements/1.1/"
   xmlns:cc="http://creativecommons.org/ns#"
   xmlns:rdf="http://www.w3.org/1999/02/22-rdf-syntax-ns#"
   xmlns:svg="http://www.w3.org/2000/svg"
   xmlns="http://www.w3.org/2000/svg"
   xmlns:sodipodi="http://sodipodi.sourceforge.net/DTD/sodipodi-0.dtd"
   xmlns:inkscape="http://www.inkscape.org/namespaces/inkscape"
   width="50"
   height="120"
   id="svg4607"
   version="1.1"
   inkscape:version="0.48.0 r9654"
   sodipodi:docname="Upper_I.svg">
  <defs
     id="defs4609">
    <inkscape:perspective
       sodipodi:type="inkscape:persp3d"
       inkscape:vp_x="0 : 526.18109 : 1"
       inkscape:vp_y="0 : 1000 : 0"
       inkscape:vp_z="744.09448 : 526.18109 : 1"
       inkscape:persp3d-origin="372.04724 : 350.78739 : 1"
       id="perspective4615" />
  </defs>
  <sodipodi:namedview
     id="base"
     pagecolor="#ffffff"
     bordercolor="#666666"
     borderopacity="1.0"
     inkscape:pageopacity="0.0"
     inkscape:pageshadow="2"
     inkscape:zoom="3.2"
     inkscape:cx="75"
     inkscape:cy="60"
     inkscape:document-units="px"
     inkscape:current-layer="flowRoot4617"
     showgrid="false"
     inkscape:window-width="1097"
     inkscape:window-height="632"
     inkscape:window-x="81"
     inkscape:window-y="61"
     inkscape:window-maximized="0" />
  <metadata
     id="metadata4612">
    <rdf:RDF>
      <cc:Work
         rdf:about="">
        <dc:format>image/svg+xml</dc:format>
        <dc:type
           rdf:resource="http://purl.org/dc/dcmitype/StillImage" />
        <dc:title />
      </cc:Work>
    </rdf:RDF>
  </metadata>
  <g
     inkscape:label="Layer 1"
     inkscape:groupmode="layer"
     id="layer1"
     transform="translate(-167.97316,-897.77561)">
    <g
       transform="translate(0,308.2677)"
       style="font-size:144px;font-style:normal;font-variant:normal;font-weight:normal;font-stretch:normal;text-align:start;line-height:125%;writing-mode:lr-tb;text-anchor:start;fill:none;stroke:#000000;stroke-opacity:1;font-family:Chalkboard;-inkscape-font-specification:Chalkboard"
       id="flowRoot4617">
      <path
         d="m 206.82012,687.80128 c 2.33365,-0.10606 4.13697,0.42433 5.40995,1.59116 1.37895,1.16687 2.17453,2.49283 2.38674,3.97791 0.2121,1.48508 -0.21221,2.97017 -1.27293,4.45524 -0.95475,1.37901 -2.59895,2.33371 -4.9326,2.86409 -5.51606,0.21216 -11.03208,0.31823 -16.54806,0.31823 -5.40998,-0.10607 -10.87295,-0.15911 -16.38895,-0.15911 -2.33372,-0.31823 -4.08399,-1.11381 -5.25083,-2.38674 -1.06079,-1.379 -1.59117,-2.81105 -1.59116,-4.29613 0.10607,-1.59116 0.74253,-3.0232 1.90939,-4.29614 1.27292,-1.27291 3.07623,-1.96241 5.40994,-2.06851 1.59115,2e-5 3.12927,2e-5 4.61437,0 1.59114,2e-5 3.1823,0.0531 4.77348,0.15912 l 0,-69.5337 -10.02431,0 c -2.33371,-0.31815 -4.08399,-1.11373 -5.25083,-2.38674 -1.06078,-1.37892 -1.59117,-2.81096 -1.59116,-4.29613 0.10607,-1.59107 0.74253,-3.02312 1.90939,-4.29614 1.27292,-1.27283 3.07623,-1.96233 5.40995,-2.06851 l 32.7779,0 c 2.01542,0.63656 3.5005,1.59126 4.45525,2.86409 0.95464,1.27302 1.37895,2.59899 1.27293,3.9779 -6e-5,1.27302 -0.53045,2.54595 -1.59116,3.81879 -1.06083,1.16693 -2.59895,1.96251 -4.61437,2.38674 l -9.70608,0 0,69.69282 c 1.37897,1e-5 2.75797,1e-5 4.13702,0 1.37896,-0.10607 2.811,-0.21214 4.29613,-0.31824"
         id="path5152"
         style="fill:#0000ff" />
    </g>
  </g>
</svg>
