<?xml version="1.0" encoding="UTF-8" standalone="no"?>
<!-- Created with Inkscape (http://www.inkscape.org/) -->

<svg
   xmlns:dc="http://purl.org/dc/elements/1.1/"
   xmlns:cc="http://creativecommons.org/ns#"
   xmlns:rdf="http://www.w3.org/1999/02/22-rdf-syntax-ns#"
   xmlns:svg="http://www.w3.org/2000/svg"
   xmlns="http://www.w3.org/2000/svg"
   xmlns:sodipodi="http://sodipodi.sourceforge.net/DTD/sodipodi-0.dtd"
   xmlns:inkscape="http://www.inkscape.org/namespaces/inkscape"
   width="70"
   height="120"
   id="svg4607"
   version="1.1"
   inkscape:version="0.48.0 r9654"
   sodipodi:docname="Upper_S.svg">
  <defs
     id="defs4609">
    <inkscape:perspective
       sodipodi:type="inkscape:persp3d"
       inkscape:vp_x="0 : 526.18109 : 1"
       inkscape:vp_y="0 : 1000 : 0"
       inkscape:vp_z="744.09448 : 526.18109 : 1"
       inkscape:persp3d-origin="372.04724 : 350.78739 : 1"
       id="perspective4615" />
  </defs>
  <sodipodi:namedview
     id="base"
     pagecolor="#ffffff"
     bordercolor="#666666"
     borderopacity="1.0"
     inkscape:pageopacity="0.0"
     inkscape:pageshadow="2"
     inkscape:zoom="3.2"
     inkscape:cx="75"
     inkscape:cy="60"
     inkscape:document-units="px"
     inkscape:current-layer="flowRoot4617"
     showgrid="false"
     inkscape:window-width="1097"
     inkscape:window-height="632"
     inkscape:window-x="81"
     inkscape:window-y="61"
     inkscape:window-maximized="0" />
  <metadata
     id="metadata4612">
    <rdf:RDF>
      <cc:Work
         rdf:about="">
        <dc:format>image/svg+xml</dc:format>
        <dc:type
           rdf:resource="http://purl.org/dc/dcmitype/StillImage" />
        <dc:title />
      </cc:Work>
    </rdf:RDF>
  </metadata>
  <g
     inkscape:label="Layer 1"
     inkscape:groupmode="layer"
     id="layer1"
     transform="translate(-167.97316,-897.77561)">
    <g
       transform="translate(0,308.2677)"
       style="font-size:144px;font-style:normal;font-variant:normal;font-weight:normal;font-stretch:normal;text-align:start;line-height:125%;writing-mode:lr-tb;text-anchor:start;fill:none;stroke:#000000;stroke-opacity:1;font-family:Chalkboard;-inkscape-font-specification:Chalkboard"
       id="flowRoot4617">
      <path
         d="m 169.42786,685.25543 c -0.6365,-1.48507 -0.9548,-2.86407 -0.9547,-4.13702 -1e-4,-1.80329 0.5303,-3.23534 1.5911,-4.29613 1.1669,-1.16683 2.5989,-1.75025 4.2962,-1.75028 1.6972,3e-5 3.3414,0.58345 4.9325,1.75028 1.8033,2.12156 3.8718,3.92488 6.2056,5.40994 2.4397,1.37902 4.9856,2.49283 7.6375,3.34144 2.758,0.74255 5.516,1.27294 8.2741,1.59116 2.864,0.31824 5.622,0.47736 8.274,0.47735 1.8033,-0.63645 3.0232,-1.00773 3.6597,-1.11381 0.7425,-0.21215 1.3259,-0.4243 1.7503,-0.63647 0.4242,-0.21214 0.9016,-0.53037 1.432,-0.95469 0.5303,-0.4243 1.5381,-1.16684 3.0232,-2.22763 0.5303,-0.74252 1.0077,-1.43203 1.432,-2.06851 0.4243,-0.63644 0.9016,-1.32594 1.4321,-2.0685 l 1.432,-4.29614 c 0,-0.74251 0,-1.43202 0,-2.06851 0,-0.74251 -0.053,-1.53809 -0.1591,-2.38674 -0.2122,-0.74251 -0.4774,-1.43201 -0.7956,-2.0685 -0.3183,-0.74251 -0.6365,-1.48506 -0.9547,-2.22763 -0.6365,-0.74251 -1.2729,-1.43201 -1.9094,-2.06851 -0.5304,-0.63643 -1.1138,-1.32593 -1.7502,-2.0685 -0.9548,-0.53036 -1.9095,-1.11378 -2.8641,-1.75028 -0.9548,-0.63643 -2.0155,-1.11377 -3.1823,-1.43205 -4.3493,-1.48504 -8.3802,-2.49277 -12.0929,-3.0232 -3.6066,-0.63642 -7.0541,-1.37896 -10.3425,-2.22762 -3.1823,-0.95465 -6.2055,-2.3867 -9.0696,-4.29614 -2.8641,-1.90934 -5.6752,-4.98558 -8.4332,-9.22873 -0.5304,-0.84856 -0.8486,-1.48502 -0.9547,-1.90939 -0.106,-0.42425 -0.2121,-1.16679 -0.3182,-2.22762 -0.1061,-0.84856 -0.2122,-1.64414 -0.3182,-2.38674 0,-0.84856 0,-1.64414 0,-2.38674 0,-1.90933 0.1591,-3.60656 0.4773,-5.09172 0.4243,-1.48501 1.0078,-2.91705 1.7503,-4.29613 0.7425,-1.37893 1.6972,-2.75793 2.8641,-4.13701 1.1668,-1.48501 2.5458,-3.07616 4.137,-4.77349 1.8033,-1.9093 3.8718,-3.44742 6.2055,-4.61436 2.3337,-1.27284 4.7735,-2.22753 7.3194,-2.86409 2.5458,-0.74245 5.1447,-1.21979 7.7967,-1.43204 2.7579,-0.31814 5.4099,-0.47726 7.9558,-0.47735 0.8485,9e-5 1.5911,9e-5 2.2276,0 0.7425,9e-5 1.485,0.0531 2.2276,0.15912 2.4397,0.21224 4.7204,0.79567 6.842,1.75027 2.2276,0.95479 4.5082,1.75037 6.842,2.38674 2.4397,1.69733 3.6596,3.76583 3.6597,6.20553 -1e-4,1.59124 -0.6366,3.02328 -1.9094,4.29613 -1.167,1.16693 -2.8642,1.75035 -5.0917,1.75028 -0.2123,7e-5 -0.4775,7e-5 -0.7956,0 -0.2122,-0.106 -0.4244,-0.15904 -0.6365,-0.15912 -3.3945,-1.06069 -6.4177,-1.85627 -9.0696,-2.38674 -2.5459,-0.63638 -5.0387,-0.95462 -7.4785,-0.9547 -2.5459,8e-5 -5.1448,0.42439 -7.7966,1.27293 -2.652,0.8487 -5.7283,2.28074 -9.2288,4.29613 -0.6365,0.8487 -1.2729,1.64428 -1.9094,2.38674 -0.6365,0.63654 -1.2729,1.32604 -1.9094,2.06851 -0.3182,0.63654 -0.6364,1.273 -0.9547,1.90939 -0.2121,0.63654 -0.4243,1.273 -0.6364,1.9094 0,0.63653 0,1.27299 0,1.90939 0.106,0.63653 0.2121,1.21995 0.3182,1.75028 0.4243,0.53045 0.7956,1.06083 1.1138,1.59116 0.3182,0.53044 0.6895,1.06083 1.1138,1.59116 l 6.6829,3.81878 c 3.1823,0.7426 6.1525,1.37906 8.9105,1.90939 2.758,0.53044 5.4099,1.16691 7.9558,1.90939 2.5458,0.63652 5.0386,1.4321 7.4785,2.38675 2.5458,0.95474 5.2507,2.22767 8.1149,3.81878 1.485,0.84866 2.7579,1.96248 3.8188,3.34144 1.0607,1.27297 2.0684,2.49285 3.0232,3.65966 1.6971,2.01551 2.917,4.29617 3.6596,6.84199 0.8486,2.54589 1.2729,5.19782 1.273,7.9558 -10e-5,3.81881 -0.7427,7.53151 -2.2277,11.13813 -1.4851,3.60664 -3.6067,6.5768 -6.3646,8.91049 -0.9548,0.84863 -1.9625,1.64421 -3.0232,2.38674 -0.9548,0.63647 -1.9095,1.27293 -2.8641,1.9094 -2.2277,1.48508 -4.7205,2.59889 -7.4784,3.34143 -2.7581,0.74254 -5.6752,1.11381 -8.7514,1.11381 -3.5006,0 -7.0542,-0.42431 -10.6608,-1.27292 -3.5006,-0.74255 -6.8951,-1.80332 -10.1834,-3.18232 -3.2884,-1.48508 -6.3117,-3.18232 -9.0696,-5.09172 -2.7581,-1.90938 -5.0918,-3.97789 -7.0011,-6.20552"
         id="path5172"
         style="fill:#000000" />
    </g>
  </g>
</svg>
