<?xml version="1.0" encoding="UTF-8" standalone="no"?>
<!-- Created with Inkscape (http://www.inkscape.org/) -->

<svg
   xmlns:dc="http://purl.org/dc/elements/1.1/"
   xmlns:cc="http://creativecommons.org/ns#"
   xmlns:rdf="http://www.w3.org/1999/02/22-rdf-syntax-ns#"
   xmlns:svg="http://www.w3.org/2000/svg"
   xmlns="http://www.w3.org/2000/svg"
   xmlns:sodipodi="http://sodipodi.sourceforge.net/DTD/sodipodi-0.dtd"
   xmlns:inkscape="http://www.inkscape.org/namespaces/inkscape"
   width="80"
   height="120"
   id="svg4607"
   version="1.1"
   inkscape:version="0.48.0 r9654"
   sodipodi:docname="Upper_R.svg">
  <defs
     id="defs4609">
    <inkscape:perspective
       sodipodi:type="inkscape:persp3d"
       inkscape:vp_x="0 : 526.18109 : 1"
       inkscape:vp_y="0 : 1000 : 0"
       inkscape:vp_z="744.09448 : 526.18109 : 1"
       inkscape:persp3d-origin="372.04724 : 350.78739 : 1"
       id="perspective4615" />
  </defs>
  <sodipodi:namedview
     id="base"
     pagecolor="#ffffff"
     bordercolor="#666666"
     borderopacity="1.0"
     inkscape:pageopacity="0.0"
     inkscape:pageshadow="2"
     inkscape:zoom="3.2"
     inkscape:cx="75"
     inkscape:cy="60"
     inkscape:document-units="px"
     inkscape:current-layer="flowRoot4617"
     showgrid="false"
     inkscape:window-width="1097"
     inkscape:window-height="632"
     inkscape:window-x="81"
     inkscape:window-y="61"
     inkscape:window-maximized="0" />
  <metadata
     id="metadata4612">
    <rdf:RDF>
      <cc:Work
         rdf:about="">
        <dc:format>image/svg+xml</dc:format>
        <dc:type
           rdf:resource="http://purl.org/dc/dcmitype/StillImage" />
        <dc:title />
      </cc:Work>
    </rdf:RDF>
  </metadata>
  <g
     inkscape:label="Layer 1"
     inkscape:groupmode="layer"
     id="layer1"
     transform="translate(-167.97316,-897.77561)">
    <g
       transform="translate(0,308.2677)"
       style="font-size:144px;font-style:normal;font-variant:normal;font-weight:normal;font-stretch:normal;text-align:start;line-height:125%;writing-mode:lr-tb;text-anchor:start;fill:none;stroke:#000000;stroke-opacity:1;font-family:Chalkboard;-inkscape-font-specification:Chalkboard"
       id="flowRoot4617">
      <path
         d="m 187.08976,693.21122 c -0.1061,2.43978 -0.8487,4.2431 -2.2277,5.40995 -1.2729,1.27292 -2.705,1.90939 -4.2961,1.90939 -1.4851,0 -2.8641,-0.58343 -4.137,-1.75028 -1.273,-1.06077 -2.0685,-2.75801 -2.3868,-5.09171 l 0,-75.89834 c -1.6972,-0.21208 -3.0762,-0.84854 -4.137,-1.9094 -0.9547,-1.16676 -1.432,-2.54577 -1.432,-4.13701 0,-0.95461 0.2121,-1.96234 0.6364,-3.02321 0.5304,-1.06068 1.326,-2.01537 2.3868,-2.86408 4.5613,-2.864 9.653,-5.14466 15.2751,-6.84199 5.6221,-1.80322 11.2972,-2.70487 17.0254,-2.70498 4.6674,1.1e-4 9.1226,0.63657 13.3658,1.9094 4.3491,1.27302 8.327,3.34153 11.9337,6.20552 4.243,3.39457 7.3192,7.10727 9.2287,11.13812 1.9093,4.03102 2.864,8.16803 2.8641,12.41105 -10e-5,3.39454 -0.5835,6.73598 -1.7503,10.02431 -1.0608,3.28846 -2.5989,6.41773 -4.6143,9.38785 -2.0156,2.86413 -4.4554,5.51606 -7.3194,7.9558 -2.758,2.33374 -5.8873,4.29617 -9.3878,5.88729 4.0309,4.56136 8.38,9.38787 13.0475,14.47956 4.6673,5.09173 9.0165,9.8652 13.0475,14.32044 1.1668,1.48509 1.7502,3.12929 1.7503,4.9326 -1e-4,1.80331 -0.5835,3.23536 -1.7503,4.29613 -1.1669,1.16685 -2.599,1.75027 -4.2961,1.75028 -0.8487,-1e-5 -1.8034,-0.21216 -2.8641,-0.63647 -0.9548,-0.31823 -1.8564,-0.9547 -2.705,-1.90939 -0.6365,-0.74254 -1.7503,-1.96243 -3.3414,-3.65967 -1.5912,-1.80331 -3.3946,-3.76574 -5.41,-5.88729 -2.0155,-2.22761 -4.137,-4.56131 -6.3646,-7.00111 -2.2277,-2.54583 -4.3492,-4.87953 -6.3647,-7.0011 -1.9094,-2.2276 -3.6597,-4.19003 -5.2508,-5.88729 -1.5912,-1.69721 -2.705,-2.9171 -3.3414,-3.65967 -2.8641,0.53042 -5.7282,0.90169 -8.5923,1.11381 -2.8641,0.21219 -5.7282,0.3713 -8.5922,0.47735 l 0,26.25414 0,0 m 33.5734,-78.92155 c -2.5459,-1.80322 -5.3569,-3.07615 -8.4331,-3.81878 -2.9702,-0.74245 -6.0465,-1.11372 -9.2287,-1.11381 -2.7581,9e-5 -5.4631,0.26528 -8.115,0.79558 -2.6519,0.53047 -5.2508,1.27301 -7.7966,2.22762 l 0,41.52928 c 4.0309,-0.21211 8.0618,-0.53034 12.0928,-0.95469 4.0309,-0.42427 8.0088,-1.37896 11.9337,-2.86409 2.3336,-0.84857 4.5082,-2.06846 6.5237,-3.65967 2.1215,-1.59111 3.9779,-3.39442 5.5691,-5.40994 1.5911,-2.01541 2.811,-4.13696 3.6597,-6.36464 0.9546,-2.33364 1.4319,-4.6143 1.432,-6.84199 -1e-4,-2.43971 -0.5835,-4.82645 -1.7503,-7.16022 -1.1669,-2.33363 -3.1293,-4.45517 -5.8873,-6.36465"
         id="path5170"
         style="fill:#000000" />
    </g>
  </g>
</svg>
