<?xml version="1.0" encoding="UTF-8" standalone="no"?>
<svg
   xmlns:dc="http://purl.org/dc/elements/1.1/"
   xmlns:cc="http://creativecommons.org/ns#"
   xmlns:rdf="http://www.w3.org/1999/02/22-rdf-syntax-ns#"
   xmlns:svg="http://www.w3.org/2000/svg"
   xmlns="http://www.w3.org/2000/svg"
   xmlns:sodipodi="http://sodipodi.sourceforge.net/DTD/sodipodi-0.dtd"
   xmlns:inkscape="http://www.inkscape.org/namespaces/inkscape"
   version="1.0"
   width="65"
   height="55"
   id="svg2"
   sodipodi:version="0.32"
   inkscape:version="0.48.0 r9654"
   sodipodi:docname="fu.svg"
   inkscape:output_extension="org.inkscape.output.svg.inkscape"
   inkscape:export-filename="E:\trevorde\EllieSoft\Hiragana Tracer\Resources\www\Resources\Formation\fu.png"
   inkscape:export-xdpi="360"
   inkscape:export-ydpi="360">
  <metadata
     id="metadataHiragana">
    <rdf:RDF>
      <cc:Work
         rdf:about="">
        <dc:format>image/svg+xml</dc:format>
        <dc:type
           rdf:resource="http://purl.org/dc/dcmitype/StillImage" />
        <dc:title></dc:title>
      </cc:Work>
    </rdf:RDF>
  </metadata>
  <sodipodi:namedview
     inkscape:window-height="752"
     inkscape:window-width="1280"
     inkscape:pageshadow="2"
     inkscape:pageopacity="0.0"
     guidetolerance="10.0"
     gridtolerance="10.0"
     objecttolerance="10.0"
     borderopacity="1.0"
     bordercolor="#666666"
     pagecolor="#ffffff"
     id="base"
     inkscape:zoom="10.236364"
     inkscape:cx="32.5"
     inkscape:cy="27.5"
     inkscape:window-x="0"
     inkscape:window-y="225"
     inkscape:current-layer="svg2"
     showgrid="false"
     inkscape:window-maximized="0" />
  <!-- arrow ends -->
  <defs
     id="defsHiragana">
    <marker
       refX="0"
       refY="0"
       orient="auto"
       style="overflow:visible"
       id="Arrow2Mend">
      <path
         d="M 8.7185878,4.0337352 -2.2072895,0.01601326 8.7185884,-4.0017078 c -1.7454984,2.3720609 -1.7354408,5.6174519 -6e-7,8.035443 z"
         transform="scale(-0.6,-0.6)"
         class="arrow"
         id="path3344"
         style="font-size:12px;fill:#0000ff;fill-rule:evenodd;stroke:#0000ff;stroke-width:1pt;stroke-linejoin:round;marker-start:none"
         inkscape:connector-curvature="0" />
    </marker>
    <marker
       refX="0"
       refY="0"
       orient="auto"
       style="overflow:visible"
       id="Arrow2Send">
      <path
         d="M 8.7185878,4.0337352 -2.2072895,0.01601326 8.7185884,-4.0017078 c -1.7454984,2.3720609 -1.7354408,5.6174519 -6e-7,8.035443 z"
         transform="matrix(-0.3,0,0,-0.3,0.69,0)"
         class="arrow"
         id="path3338"
         style="font-size:12px;fill:#0000ff;fill-rule:evenodd;stroke:#0000ff;stroke-width:1pt;stroke-linejoin:round;marker-start:none"
         inkscape:connector-curvature="0" />
    </marker>
    <marker
       refX="0"
       refY="0"
       orient="auto"
       style="overflow:visible"
       id="Arrow1Send">
      <path
         d="M 0,0 5,-5 -12.5,0 5,5 0,0 z"
         transform="matrix(-0.2,0,0,-0.2,-1.2,0)"
         class="arrow"
         id="path3356"
         style="font-size:12px;fill:#0000ff;fill-rule:evenodd;stroke:#0000ff;stroke-width:1pt;stroke-linejoin:round;marker-start:none"
         inkscape:connector-curvature="0" />
    </marker>
    <marker
       refX="0"
       refY="0"
       orient="auto"
       style="overflow:visible"
       id="Arrow1Mend">
      <path
         d="M 0,0 5,-5 -12.5,0 5,5 0,0 z"
         transform="matrix(-0.4,0,0,-0.4,-4,0)"
         class="arrow"
         id="path3362"
         style="font-size:12px;fill:#0000ff;fill-rule:evenodd;stroke:#0000ff;stroke-width:1pt;stroke-linejoin:round;marker-start:none"
         inkscape:connector-curvature="0" />
    </marker>
    <marker
       refX="0"
       refY="0"
       orient="auto"
       style="overflow:visible"
       id="Arrow1Lend">
      <path
         d="M 0,0 5,-5 -12.5,0 5,5 0,0 z"
         transform="matrix(-0.8,0,0,-0.8,-10,0)"
         class="arrow"
         id="path3368"
         style="font-size:12px;fill:#0000ff;fill-rule:evenodd;stroke:#0000ff;stroke-width:1pt;stroke-linejoin:round;marker-start:none"
         inkscape:connector-curvature="0" />
    </marker>
  </defs>
  <style
     type="text/css"
     id="style3609">
		path.stroke /* arrow lines */
		{
			fill: none; fill-opacity: 0.75; fill-rule: evenodd;
			stroke: blue; stroke-width: 1px; stroke-linecap: butt; stroke-linejoin: miter; stroke-opacity:1;
			marker-end: url(#Arrow1Mend);
		}
		path.arrow /* heads */
		{
			font-size: 12px;
			fill-rule: evenodd;
			fill: blue;
			stroke: blue; stroke-width: 1pt;/*0.625*/ stroke-linejoin: round;
			marker-start: none;
		}
		text.number
		{
			font-size: 8px;
			fill: blue;
		}
		text.label
		{
			font-size: 22px;
		}
		text.cell
		{
			font-style: italic;
			text-transform: lowercase;
			fill: gray;
/*			display: none;*/
		}
/*		path.old
		{
			fill: gray;
		}
*/		path.rule
		{
			fill: none; fill-opacity: 0.75; fill-rule: evenodd;
			stroke: black; stroke-width: 1px; stroke-linecap: butt; stroke-linejoin: miter; stroke-opacity: 0.1;
		}
		path.rule[id*=&quot;V&quot;]
		{
			stroke-opacity: 0;
		}
		path#ruleH1, path#ruleV12
		{
			stroke-opacity: 0.8;
		}
		defs marker
		{
			overflow: visible;
		}
	</style>
  <!-- table rules -->
  <!-- glyphs -->
  <!-- -A -->
  <!-- -I -->
  <!-- -U -->
  <g
     id="gHU"
     transform="translate(-338.20862,-207.29951)">
    <path
       d="m 363.19242,220.08249 -2.15625,3.75 c 4.34373,2.31253 9.21871,4.18753 14.625,5.65625 0.53122,-1.68747 1.0937,-3.12497 1.6875,-4.34375 -5.40628,-1.03122 -10.12504,-2.71872 -14.15625,-5.0625 z m 0.0312,11.25 c -0.40627,0.0313 -0.56253,0.21878 -0.46875,0.5625 0.12498,0.43752 0.0625,1.31253 -0.1875,2.65625 -0.21877,1.31253 -0.28128,2.62502 -0.1875,3.9375 0.0937,1.31252 1.06246,2.56252 2.875,3.71875 1.81248,1.15626 3.53121,2.28126 5.1875,3.375 1.65622,1.09376 2.71871,2.43751 3.1875,4.03125 0.49997,1.56251 0.40621,2.84375 -0.28125,3.84375 -0.68753,1 -1.68754,1.59375 -3,1.78125 -1.28128,0.15625 -2.50004,0 -3.6875,-0.46875 -1.15627,-0.5 -2.31253,-1.53125 -3.4375,-3.09375 -1.06252,1.03125 -2.18753,1.93751 -3.40625,2.75 l -0.0625,0.375 c 1.43748,1.43751 2.87496,2.5625 4.28125,3.34375 1.40623,0.8125 3.06246,1.21875 4.96875,1.25 1.90623,0.0625 3.59371,-0.28125 5.09375,-1.03125 1.53122,-0.75 2.7187,-1.84375 3.5625,-3.3125 0.87496,-1.46875 1.0937,-3.37499 0.625,-5.71875 -0.43753,-2.37499 -1.68755,-4.28124 -3.71875,-5.71875 -2.03128,-1.46874 -3.81254,-2.62498 -5.375,-3.4375 -1.56252,-0.84373 -2.37504,-1.78123 -2.40625,-2.8125 -3e-5,-1.03122 0.15621,-2.31247 0.4375,-3.84375 l 0.59375,-0.6875 c 0.37497,-0.37498 0.34371,-0.65623 -0.0937,-0.84375 l -4.5,-0.65625 z m 17.625,8.5625 -2.71875,3.28125 c 3.53121,2.68752 6.81244,6.34376 9.8125,10.96875 1.84371,-1.75 3.12494,-2.84374 3.875,-3.3125 l -0.0312,-0.4375 c -3.31254,-3.71874 -6.9688,-7.21873 -10.9375,-10.5 z m -21.375,3.15625 c -3.62501,3.18751 -7.34378,6.56251 -11.1875,10.15625 1.59375,1.28125 2.71873,2.4375 3.40625,3.4375 3.90624,-4.40625 7.59372,-7.93749 11.0625,-10.5625 l -3.28125,-3.03125 z"
       id="path2091"
       inkscape:connector-curvature="0" />
    <path
       d="m 363.05996,216.74746 14.01491,4.57329"
       class="stroke"
       id="path56351"
       inkscape:connector-curvature="0"
       style="fill:none;stroke:#0000ff;stroke-width:1px;stroke-linecap:butt;stroke-linejoin:miter;stroke-opacity:1;marker-end:url(#Arrow1Mend)" />
    <text
       x="365.85901"
       y="216.02885"
       class="number"
       id="text3884"
       style="font-size:8px;fill:#0000ff">1</text>
    <path
       d="m 370.95257,230.24603 c 0,0 -1.73342,3.98318 -0.29505,5.90101 1.43837,1.91783 3.63281,3.09804 5.67973,4.64706"
       class="stroke"
       id="path57242"
       inkscape:connector-curvature="0"
       style="fill:none;stroke:#0000ff;stroke-width:1px;stroke-linecap:butt;stroke-linejoin:miter;stroke-opacity:1;marker-end:url(#Arrow1Mend)" />
    <text
       x="374.4155"
       y="236.80661"
       class="number"
       id="text3887"
       style="font-size:8px;fill:#0000ff">2</text>
    <path
       d="m 355.09359,242.34312 -8.77776,7.22874"
       class="stroke"
       id="path58135"
       inkscape:connector-curvature="0"
       style="fill:none;stroke:#0000ff;stroke-width:1px;stroke-linecap:butt;stroke-linejoin:miter;stroke-opacity:1;marker-end:url(#Arrow1Mend)" />
    <text
       x="348.70212"
       y="241.15862"
       class="number"
       id="text3890"
       style="font-size:8px;fill:#0000ff">3</text>
    <path
       d="m 384.30362,237.40102 10.84311,10.25301"
       class="stroke"
       id="path59028"
       inkscape:connector-curvature="0"
       style="fill:none;stroke:#0000ff;stroke-width:1px;stroke-linecap:butt;stroke-linejoin:miter;stroke-opacity:1;marker-end:url(#Arrow1Mend)" />
    <text
       x="387.69278"
       y="239.24078"
       class="number"
       id="text3893"
       style="font-size:8px;fill:#0000ff">4</text>
  </g>
  <!-- -E -->
  <!-- -O -->
  <!-- column headers -->
  <!-- row headers -->
</svg>
