<?xml version="1.0" encoding="UTF-8" standalone="no"?>
<svg
   xmlns:dc="http://purl.org/dc/elements/1.1/"
   xmlns:cc="http://creativecommons.org/ns#"
   xmlns:rdf="http://www.w3.org/1999/02/22-rdf-syntax-ns#"
   xmlns:svg="http://www.w3.org/2000/svg"
   xmlns="http://www.w3.org/2000/svg"
   xmlns:sodipodi="http://sodipodi.sourceforge.net/DTD/sodipodi-0.dtd"
   xmlns:inkscape="http://www.inkscape.org/namespaces/inkscape"
   version="1.0"
   width="65"
   height="55"
   id="svg2"
   sodipodi:version="0.32"
   inkscape:version="0.48.0 r9654"
   sodipodi:docname="ha.svg"
   inkscape:output_extension="org.inkscape.output.svg.inkscape"
   inkscape:export-filename="E:\trevorde\EllieSoft\Hiragana Tracer\Resources\www\Resources\Formation\ha.png"
   inkscape:export-xdpi="360"
   inkscape:export-ydpi="360">
  <metadata
     id="metadataHiragana">
    <rdf:RDF>
      <cc:Work
         rdf:about="">
        <dc:format>image/svg+xml</dc:format>
        <dc:type
           rdf:resource="http://purl.org/dc/dcmitype/StillImage" />
        <dc:title></dc:title>
      </cc:Work>
    </rdf:RDF>
  </metadata>
  <sodipodi:namedview
     inkscape:window-height="708"
     inkscape:window-width="1024"
     inkscape:pageshadow="2"
     inkscape:pageopacity="0.0"
     guidetolerance="10.0"
     gridtolerance="10.0"
     objecttolerance="10.0"
     borderopacity="1.0"
     bordercolor="#666666"
     pagecolor="#ffffff"
     id="base"
     inkscape:zoom="9.4363636"
     inkscape:cx="32.5"
     inkscape:cy="27.5"
     inkscape:window-x="25"
     inkscape:window-y="25"
     inkscape:current-layer="svg2"
     showgrid="false"
     inkscape:window-maximized="0" />
  <!-- arrow ends -->
  <defs
     id="defsHiragana">
    <marker
       refX="0"
       refY="0"
       orient="auto"
       style="overflow:visible"
       id="Arrow2Mend">
      <path
         d="M 8.7185878,4.0337352 -2.2072895,0.01601326 8.7185884,-4.0017078 c -1.7454984,2.3720609 -1.7354408,5.6174519 -6e-7,8.035443 z"
         transform="scale(-0.6,-0.6)"
         class="arrow"
         id="path3344"
         style="font-size:12px;fill:#0000ff;fill-rule:evenodd;stroke:#0000ff;stroke-width:1pt;stroke-linejoin:round;marker-start:none"
         inkscape:connector-curvature="0" />
    </marker>
    <marker
       refX="0"
       refY="0"
       orient="auto"
       style="overflow:visible"
       id="Arrow2Send">
      <path
         d="M 8.7185878,4.0337352 -2.2072895,0.01601326 8.7185884,-4.0017078 c -1.7454984,2.3720609 -1.7354408,5.6174519 -6e-7,8.035443 z"
         transform="matrix(-0.3,0,0,-0.3,0.69,0)"
         class="arrow"
         id="path3338"
         style="font-size:12px;fill:#0000ff;fill-rule:evenodd;stroke:#0000ff;stroke-width:1pt;stroke-linejoin:round;marker-start:none"
         inkscape:connector-curvature="0" />
    </marker>
    <marker
       refX="0"
       refY="0"
       orient="auto"
       style="overflow:visible"
       id="Arrow1Send">
      <path
         d="M 0,0 5,-5 -12.5,0 5,5 0,0 z"
         transform="matrix(-0.2,0,0,-0.2,-1.2,0)"
         class="arrow"
         id="path3356"
         style="font-size:12px;fill:#0000ff;fill-rule:evenodd;stroke:#0000ff;stroke-width:1pt;stroke-linejoin:round;marker-start:none"
         inkscape:connector-curvature="0" />
    </marker>
    <marker
       refX="0"
       refY="0"
       orient="auto"
       style="overflow:visible"
       id="Arrow1Mend">
      <path
         d="M 0,0 5,-5 -12.5,0 5,5 0,0 z"
         transform="matrix(-0.4,0,0,-0.4,-4,0)"
         class="arrow"
         id="path3362"
         style="font-size:12px;fill:#0000ff;fill-rule:evenodd;stroke:#0000ff;stroke-width:1pt;stroke-linejoin:round;marker-start:none"
         inkscape:connector-curvature="0" />
    </marker>
    <marker
       refX="0"
       refY="0"
       orient="auto"
       style="overflow:visible"
       id="Arrow1Lend">
      <path
         d="M 0,0 5,-5 -12.5,0 5,5 0,0 z"
         transform="matrix(-0.8,0,0,-0.8,-10,0)"
         class="arrow"
         id="path3368"
         style="font-size:12px;fill:#0000ff;fill-rule:evenodd;stroke:#0000ff;stroke-width:1pt;stroke-linejoin:round;marker-start:none"
         inkscape:connector-curvature="0" />
    </marker>
  </defs>
  <style
     type="text/css"
     id="style3609">
		path.stroke /* arrow lines */
		{
			fill: none; fill-opacity: 0.75; fill-rule: evenodd;
			stroke: blue; stroke-width: 1px; stroke-linecap: butt; stroke-linejoin: miter; stroke-opacity:1;
			marker-end: url(#Arrow1Mend);
		}
		path.arrow /* heads */
		{
			font-size: 12px;
			fill-rule: evenodd;
			fill: blue;
			stroke: blue; stroke-width: 1pt;/*0.625*/ stroke-linejoin: round;
			marker-start: none;
		}
		text.number
		{
			font-size: 8px;
			fill: blue;
		}
		text.label
		{
			font-size: 22px;
		}
		text.cell
		{
			font-style: italic;
			text-transform: lowercase;
			fill: gray;
/*			display: none;*/
		}
/*		path.old
		{
			fill: gray;
		}
*/		path.rule
		{
			fill: none; fill-opacity: 0.75; fill-rule: evenodd;
			stroke: black; stroke-width: 1px; stroke-linecap: butt; stroke-linejoin: miter; stroke-opacity: 0.1;
		}
		path.rule[id*=&quot;V&quot;]
		{
			stroke-opacity: 0;
		}
		path#ruleH1, path#ruleV12
		{
			stroke-opacity: 0.8;
		}
		defs marker
		{
			overflow: visible;
		}
	</style>
  <!-- table rules -->
  <!-- glyphs -->
  <!-- -A -->
  <g
     id="gHA"
     transform="translate(-335.69239,-47.473172)">
    <path
       d="m 375.50191,60.506345 c -0.40628,0.06254 -0.56254,0.31254 -0.4375,0.75 0.28122,0.43754 0.43746,1.56254 0.46875,3.40625 0.0625,1.84379 0.12496,3.25003 0.1875,4.21875 -4.09378,0.18752 -8.50004,0.12503 -13.21875,-0.1875 l -0.21875,0.34375 c 0.18748,1.21878 0.31247,2.56253 0.40625,4.0625 4.65622,-0.12497 9.06245,-0.28122 13.1875,-0.46875 -3e-5,0.37502 0.0312,1.28128 0.0937,2.71875 0.0937,1.43753 0.12495,3.43752 0.125,5.96875 0.0312,2.53126 0.0625,4.15627 0.0625,4.90625 -2.03128,-0.43748 -3.81255,-0.59374 -5.34375,-0.5 -1.53127,0.09376 -3.00004,0.50002 -4.40625,1.25 -1.37502,0.71876 -2.28128,1.78126 -2.6875,3.15625 -0.37502,1.37501 -0.40629,2.5625 -0.125,3.5625 0.31248,0.96875 0.78121,1.78125 1.40625,2.437505 0.62498,0.65625 1.59371,1.21875 2.90625,1.6875 1.34373,0.5 2.56246,0.75 3.65625,0.78125 1.09372,0.03125 2.2187,-0.0625 3.375,-0.3125 1.18747,-0.25 2.2187,-0.75 3.125,-1.46875 0.93746,-0.71875 1.5312,-1.624995 1.78125,-2.718755 0.24996,-1.12499 0.43745,-1.99999 0.53125,-2.625 2.18746,1.06251 4.71869,2.59375 7.59375,4.562505 0.74996,-1.812505 1.53119,-3.281245 2.375,-4.375005 l 0,-0.375 c -3.81255,-1.71874 -7.06256,-2.99999 -9.78125,-3.875 -3e-5,-0.93749 -0.0625,-2.71873 -0.15625,-5.3125 -0.0938,-2.62498 -0.1563,-4.71873 -0.21875,-6.3125 -0.0313,-1.62498 -0.0625,-2.74998 -0.0937,-3.375 3.43746,-0.15623 6.21869,-0.34372 8.375,-0.53125 l -0.59375,-4.03125 c -2.37504,0.28128 -5.00006,0.53128 -7.875,0.75 -0.0625,-1.87496 -0.12505,-3.99996 -0.1875,-6.375 l 0.46875,-0.75 c 0.34372,-0.34371 0.31245,-0.59371 -0.0937,-0.78125 l -4.6875,-0.1875 z m -24.90625,1.25 c -0.53126,0.03128 -0.65627,0.25004 -0.40625,0.65625 0.28125,0.31254 0.28123,2.15628 0,5.5 -0.25,3.34378 -0.46877,7.56252 -0.65625,12.65625 -0.15625,5.09376 -0.0938,8.78126 0.1875,11.09375 0.3125,2.28126 0.93748,4.12501 1.875,5.531255 0.93749,1.43749 2.06247,2.0625 3.375,1.875 1.31249,-0.15626 3.09372,-1.5625 5.34375,-4.250005 -1.03126,-1.09375 -2.06253,-2.34375 -3.09375,-3.75 l -0.25,0.03125 c -0.90627,1.84376 -1.53128,2.6875 -1.90625,2.5 -0.37501,-0.1875 -0.71878,-1.03125 -1.03125,-2.53125 -0.31251,-1.49999 -0.40628,-4.93748 -0.28125,-10.28125 0.15624,-5.34372 0.56247,-10.93747 1.21875,-16.8125 l 0.65625,-0.75 c 0.37499,-0.37497 0.31248,-0.65621 -0.15625,-0.8125 l -4.875,-0.65625 z m 20.75,27.28125 c 0.14526,-0.01221 0.2998,-0.0059 0.46875,0 1.01366,0.03516 2.44528,0.32032 4.25,0.8125 -0.0313,0.93751 -0.12505,1.87501 -0.28125,2.8125 -0.12503,0.90625 -0.56255,1.53125 -1.3125,1.875 -0.75003,0.3125 -1.53129,0.5 -2.3125,0.5625 -0.78128,0.0625 -1.71879,-0.0625 -2.84375,-0.375 -1.09377,-0.3125 -1.71879,-1.03125 -1.875,-2.15625 -0.12502,-1.12499 0.15621,-1.93749 0.875,-2.4375 0.74997,-0.53124 1.62496,-0.87499 2.625,-1.03125 0.125,-0.01953 0.26099,-0.05029 0.40625,-0.0625 z"
       id="path2099"
       inkscape:connector-curvature="0" />
    <path
       d="m 347.1679,64.06997 c -2.19444,7.579791 -1.71498,15.51063 -0.95892,23.828047"
       class="stroke"
       id="path12358"
       inkscape:connector-curvature="0"
       style="fill:none;stroke:#0000ff;stroke-width:1px;stroke-linecap:butt;stroke-linejoin:miter;stroke-opacity:1;marker-end:url(#Arrow1Mend)" />
    <text
       x="344.53799"
       y="62.647556"
       class="number"
       id="text3689"
       style="font-size:8px;fill:#0000ff">1</text>
    <path
       d="m 360.98601,65.951279 c 0,0 6.88862,-0.01103 11.60314,-0.188562"
       class="stroke"
       id="path12364"
       inkscape:connector-curvature="0"
       style="fill:none;stroke:#0000ff;stroke-width:1px;stroke-linecap:butt;stroke-linejoin:miter;stroke-opacity:1;marker-end:url(#Arrow1Mend)" />
    <text
       x="363.04385"
       y="62.479084"
       class="number"
       id="text3692"
       style="font-size:8px;fill:#0000ff">2</text>
    <path
       d="m 382.81326,53.321044 c 0,0 0.61879,6.996431 0.98131,11.90852"
       class="stroke"
       id="path12370"
       inkscape:connector-curvature="0"
       style="fill:none;stroke:#0000ff;stroke-width:1px;stroke-linecap:butt;stroke-linejoin:miter;stroke-opacity:1;marker-end:url(#Arrow1Mend)" />
    <text
       x="385.49484"
       y="56.782543"
       class="number"
       id="text3695"
       style="font-size:8px;fill:#0000ff">3</text>
    <path
       d="m 362.40082,96.44104 c -4.5313,-14.552559 6.45273,-12.849876 10.21392,-12.971004"
       class="stroke"
       id="path12431"
       inkscape:connector-curvature="0"
       style="fill:none;stroke:#0000ff;stroke-width:1px;stroke-linecap:butt;stroke-linejoin:miter;stroke-opacity:1;marker-end:url(#Arrow1Mend)" />
    <path
       d="m 383.88361,84.289042 7.92803,3.859699"
       class="stroke"
       id="path13318"
       inkscape:connector-curvature="0"
       style="fill:none;stroke:#0000ff;stroke-width:1px;stroke-linecap:butt;stroke-linejoin:miter;stroke-opacity:1;marker-end:url(#Arrow1Mend)" />
  </g>
  <!-- -I -->
  <!-- -U -->
  <!-- -E -->
  <!-- -O -->
  <!-- column headers -->
  <!-- row headers -->
</svg>
