<?xml version="1.0" encoding="UTF-8" standalone="no"?>
<svg
   xmlns:dc="http://purl.org/dc/elements/1.1/"
   xmlns:cc="http://creativecommons.org/ns#"
   xmlns:rdf="http://www.w3.org/1999/02/22-rdf-syntax-ns#"
   xmlns:svg="http://www.w3.org/2000/svg"
   xmlns="http://www.w3.org/2000/svg"
   xmlns:sodipodi="http://sodipodi.sourceforge.net/DTD/sodipodi-0.dtd"
   xmlns:inkscape="http://www.inkscape.org/namespaces/inkscape"
   version="1.0"
   width="65"
   height="55"
   id="svg2"
   sodipodi:version="0.32"
   inkscape:version="0.48.0 r9654"
   sodipodi:docname="ho.svg"
   inkscape:output_extension="org.inkscape.output.svg.inkscape"
   inkscape:export-filename="E:\trevorde\EllieSoft\Hiragana Tracer\Resources\www\Resources\Formation\ho.png"
   inkscape:export-xdpi="360"
   inkscape:export-ydpi="360">
  <metadata
     id="metadataHiragana">
    <rdf:RDF>
      <cc:Work
         rdf:about="">
        <dc:format>image/svg+xml</dc:format>
        <dc:type
           rdf:resource="http://purl.org/dc/dcmitype/StillImage" />
        <dc:title></dc:title>
      </cc:Work>
    </rdf:RDF>
  </metadata>
  <sodipodi:namedview
     inkscape:window-height="708"
     inkscape:window-width="1024"
     inkscape:pageshadow="2"
     inkscape:pageopacity="0.0"
     guidetolerance="10.0"
     gridtolerance="10.0"
     objecttolerance="10.0"
     borderopacity="1.0"
     bordercolor="#666666"
     pagecolor="#ffffff"
     id="base"
     inkscape:zoom="9.4363636"
     inkscape:cx="32.5"
     inkscape:cy="27.5"
     inkscape:window-x="100"
     inkscape:window-y="100"
     inkscape:current-layer="svg2"
     showgrid="false"
     inkscape:window-maximized="0" />
  <!-- arrow ends -->
  <defs
     id="defsHiragana">
    <marker
       refX="0"
       refY="0"
       orient="auto"
       style="overflow:visible"
       id="Arrow2Mend">
      <path
         d="M 8.7185878,4.0337352 -2.2072895,0.01601326 8.7185884,-4.0017078 c -1.7454984,2.3720609 -1.7354408,5.6174519 -6e-7,8.035443 z"
         transform="scale(-0.6,-0.6)"
         class="arrow"
         id="path3344"
         style="font-size:12px;fill:#0000ff;fill-rule:evenodd;stroke:#0000ff;stroke-width:1pt;stroke-linejoin:round;marker-start:none"
         inkscape:connector-curvature="0" />
    </marker>
    <marker
       refX="0"
       refY="0"
       orient="auto"
       style="overflow:visible"
       id="Arrow2Send">
      <path
         d="M 8.7185878,4.0337352 -2.2072895,0.01601326 8.7185884,-4.0017078 c -1.7454984,2.3720609 -1.7354408,5.6174519 -6e-7,8.035443 z"
         transform="matrix(-0.3,0,0,-0.3,0.69,0)"
         class="arrow"
         id="path3338"
         style="font-size:12px;fill:#0000ff;fill-rule:evenodd;stroke:#0000ff;stroke-width:1pt;stroke-linejoin:round;marker-start:none"
         inkscape:connector-curvature="0" />
    </marker>
    <marker
       refX="0"
       refY="0"
       orient="auto"
       style="overflow:visible"
       id="Arrow1Send">
      <path
         d="M 0,0 5,-5 -12.5,0 5,5 0,0 z"
         transform="matrix(-0.2,0,0,-0.2,-1.2,0)"
         class="arrow"
         id="path3356"
         style="font-size:12px;fill:#0000ff;fill-rule:evenodd;stroke:#0000ff;stroke-width:1pt;stroke-linejoin:round;marker-start:none"
         inkscape:connector-curvature="0" />
    </marker>
    <marker
       refX="0"
       refY="0"
       orient="auto"
       style="overflow:visible"
       id="Arrow1Mend">
      <path
         d="M 0,0 5,-5 -12.5,0 5,5 0,0 z"
         transform="matrix(-0.4,0,0,-0.4,-4,0)"
         class="arrow"
         id="path3362"
         style="font-size:12px;fill:#0000ff;fill-rule:evenodd;stroke:#0000ff;stroke-width:1pt;stroke-linejoin:round;marker-start:none"
         inkscape:connector-curvature="0" />
    </marker>
    <marker
       refX="0"
       refY="0"
       orient="auto"
       style="overflow:visible"
       id="Arrow1Lend">
      <path
         d="M 0,0 5,-5 -12.5,0 5,5 0,0 z"
         transform="matrix(-0.8,0,0,-0.8,-10,0)"
         class="arrow"
         id="path3368"
         style="font-size:12px;fill:#0000ff;fill-rule:evenodd;stroke:#0000ff;stroke-width:1pt;stroke-linejoin:round;marker-start:none"
         inkscape:connector-curvature="0" />
    </marker>
  </defs>
  <style
     type="text/css"
     id="style3609">
		path.stroke /* arrow lines */
		{
			fill: none; fill-opacity: 0.75; fill-rule: evenodd;
			stroke: blue; stroke-width: 1px; stroke-linecap: butt; stroke-linejoin: miter; stroke-opacity:1;
			marker-end: url(#Arrow1Mend);
		}
		path.arrow /* heads */
		{
			font-size: 12px;
			fill-rule: evenodd;
			fill: blue;
			stroke: blue; stroke-width: 1pt;/*0.625*/ stroke-linejoin: round;
			marker-start: none;
		}
		text.number
		{
			font-size: 8px;
			fill: blue;
		}
		text.label
		{
			font-size: 22px;
		}
		text.cell
		{
			font-style: italic;
			text-transform: lowercase;
			fill: gray;
/*			display: none;*/
		}
/*		path.old
		{
			fill: gray;
		}
*/		path.rule
		{
			fill: none; fill-opacity: 0.75; fill-rule: evenodd;
			stroke: black; stroke-width: 1px; stroke-linecap: butt; stroke-linejoin: miter; stroke-opacity: 0.1;
		}
		path.rule[id*=&quot;V&quot;]
		{
			stroke-opacity: 0;
		}
		path#ruleH1, path#ruleV12
		{
			stroke-opacity: 0.8;
		}
		defs marker
		{
			overflow: visible;
		}
	</style>
  <!-- table rules -->
  <!-- glyphs -->
  <!-- -A -->
  <!-- -I -->
  <!-- -U -->
  <!-- -E -->
  <!-- -O -->
  <g
     id="gHO"
     transform="translate(-337.33639,-370.74429)">
    <path
       d="m 388.52521,381.45364 c -4.56254,0.59379 -8.4688,0.96878 -11.71875,1.125 -3.21878,0.15628 -6.90629,0.12504 -11.0625,-0.0625 l -0.25,0.34375 c 0.24998,1.40628 0.40622,2.71879 0.46875,3.96875 4.12498,-0.12496 7.99996,-0.24997 11.625,-0.40625 -0.21878,0.0938 -0.2813,0.31253 -0.1875,0.65625 0.28122,0.43753 0.4687,1.46878 0.53125,3.125 0.0937,1.62503 0.1562,2.81253 0.1875,3.5625 -4.03128,0.21878 -8.37504,0.25002 -13,0.0625 l -0.21875,0.3125 c 0.31248,1.31253 0.43746,2.68753 0.375,4.125 4.62498,-0.15623 8.96871,-0.34373 13.0625,-0.5625 0.0312,0.43752 0.0937,1.40627 0.1875,2.875 0.12497,1.43752 0.18745,3.28127 0.15625,5.5625 -2.09378,-0.43748 -3.9063,-0.59374 -5.4375,-0.5 -1.53127,0.0938 -3.00004,0.50002 -4.40625,1.25 -1.37502,0.71876 -2.28128,1.78126 -2.6875,3.15625 -0.37501,1.37501 -0.40629,2.5625 -0.125,3.5625 0.31248,0.96875 0.78121,1.78125 1.40625,2.4375 0.62498,0.65625 1.59371,1.21875 2.90625,1.6875 1.34373,0.5 2.56245,0.75 3.65625,0.78125 1.09372,0.0312 2.2187,-0.0625 3.375,-0.3125 1.18747,-0.25 2.2187,-0.75 3.09375,-1.46875 0.90622,-0.71875 1.49994,-1.625 1.78125,-2.75 0.28121,-1.15625 0.46869,-2.03124 0.5625,-2.59375 2.18746,1.06251 4.71871,2.59375 7.5938,4.5625 0.7499,-1.8125 1.5312,-3.28124 2.375,-4.375 l 0,-0.375 c -3.78144,-1.71874 -7.03135,-2.99999 -9.75005,-3.875 -0.0938,-2.53124 -0.18755,-4.65623 -0.28125,-6.34375 -0.0625,-1.68749 -0.12505,-2.87498 -0.1875,-3.5625 3.31246,-0.21874 6.21869,-0.46873 8.6875,-0.78125 l -0.4375,-4.1875 c -2.53128,0.43753 -5.3438,0.78128 -8.4375,1.03125 -0.0625,-1.65623 -0.12506,-3.49997 -0.21875,-5.53125 l 0.375,-0.78125 c 0.21871,-0.34372 0.18744,-0.56247 -0.0937,-0.65625 l -3.9375,-0.15625 c 3.65621,-0.18747 7.15619,-0.46871 10.5,-0.84375 l -0.46875,-4.0625 z m -35.5,0.21875 c -0.53125,0.0313 -0.65628,0.25004 -0.40625,0.65625 0.28124,0.31254 0.28122,2.15628 0,5.5 -0.25001,3.34378 -0.46878,7.56252 -0.65625,12.65625 -0.15625,5.09376 -0.0938,8.78126 0.1875,11.09375 0.31249,2.28126 0.93747,4.12501 1.875,5.53125 0.93749,1.43749 2.06247,2.0625 3.375,1.875 1.31249,-0.15626 3.09372,-1.5625 5.34375,-4.25 -1.03126,-1.09375 -2.06253,-2.34375 -3.09375,-3.75 l -0.25,0.0312 c -0.90626,1.84376 -1.53128,2.6875 -1.90625,2.5 -0.37501,-0.1875 -0.71878,-1.03125 -1.03125,-2.53125 -0.31251,-1.49999 -0.40628,-4.93748 -0.28125,-10.28125 0.15624,-5.34372 0.56247,-10.93747 1.21875,-16.8125 l 0.65625,-0.75 c 0.37499,-0.37497 0.31247,-0.65621 -0.15625,-0.8125 l -4.875,-0.65625 z m 21.25,27.28125 c 1.01952,0.0234 2.42184,0.29688 4.25,0.8125 -0.0313,0.81251 -0.12505,1.71876 -0.28125,2.71875 -0.12504,0.96875 -0.56255,1.625 -1.34375,1.96875 -0.75003,0.3125 -1.53129,0.5 -2.3125,0.5625 -0.78127,0.0625 -1.7188,-0.0625 -2.84375,-0.375 -1.09377,-0.3125 -1.71879,-1.03125 -1.875,-2.15625 -0.12502,-1.12499 0.15621,-1.93749 0.875,-2.4375 0.74997,-0.53124 1.62496,-0.87499 2.625,-1.03125 0.24999,-0.0469 0.56641,-0.0703 0.90625,-0.0625 z"
       id="path2081"
       inkscape:connector-curvature="0" />
    <path
       d="m 348.08319,383.01653 c -1.04092,4.89232 -1.04092,14.57286 -0.83274,19.56927"
       class="stroke"
       id="path40946"
       inkscape:connector-curvature="0"
       style="fill:none;stroke:#0000ff;stroke-width:1px;stroke-linecap:butt;stroke-linejoin:miter;stroke-opacity:1;marker-end:url(#Arrow1Mend)" />
    <text
       x="341.341"
       y="390.97632"
       class="number"
       id="text4075"
       style="font-size:8px;fill:#0000ff">1</text>
    <path
       d="m 365.15191,379.51733 19.11973,-0.14721"
       class="stroke"
       id="path41867"
       inkscape:connector-curvature="0"
       style="fill:none;stroke:#0000ff;stroke-width:1px;stroke-linecap:butt;stroke-linejoin:miter;stroke-opacity:1;marker-end:url(#Arrow1Mend)" />
    <text
       x="359.37915"
       y="382.68036"
       class="number"
       id="text4078"
       style="font-size:8px;fill:#0000ff">2</text>
    <path
       d="m 364.90367,390.71345 10.7462,0.1472"
       class="stroke"
       id="path41873"
       inkscape:connector-curvature="0"
       style="fill:none;stroke:#0000ff;stroke-width:1px;stroke-linecap:butt;stroke-linejoin:miter;stroke-opacity:1;marker-end:url(#Arrow1Mend)" />
    <text
       x="358.681"
       y="393.53369"
       class="number"
       id="text4081"
       style="font-size:8px;fill:#0000ff">3</text>
    <path
       d="m 393.77951,386.0352 0.52046,15.3015"
       class="stroke"
       id="path41879"
       inkscape:connector-curvature="0"
       style="fill:none;stroke:#0000ff;stroke-width:1px;stroke-linecap:butt;stroke-linejoin:miter;stroke-opacity:1;marker-end:url(#Arrow1Mend)" />
    <text
       x="391.57404"
       y="385.41452"
       class="number"
       id="text4084"
       style="font-size:8px;fill:#0000ff">4</text>
    <path
       d="m 369.70075,419.24573 c -2.88418,-0.98332 -4.95357,-2.80252 -6.23722,-5.99421 -1.36059,-3.38299 1.73699,-6.72055 3.29738,-9.15702"
       class="stroke"
       id="path42800"
       inkscape:connector-curvature="0"
       style="fill:none;stroke:#0000ff;stroke-width:1px;stroke-linecap:butt;stroke-linejoin:miter;stroke-opacity:1;marker-end:url(#Arrow1Mend)" />
    <path
       d="m 387.42652,405.97168 8.83249,3.09137"
       class="stroke"
       id="path43717"
       inkscape:connector-curvature="0"
       style="fill:none;stroke:#0000ff;stroke-width:1px;stroke-linecap:butt;stroke-linejoin:miter;stroke-opacity:1;marker-end:url(#Arrow1Mend)" />
  </g>
  <!-- column headers -->
  <!-- row headers -->
</svg>
