<?xml version="1.0" encoding="UTF-8" standalone="no"?>
<svg
   xmlns:dc="http://purl.org/dc/elements/1.1/"
   xmlns:cc="http://creativecommons.org/ns#"
   xmlns:rdf="http://www.w3.org/1999/02/22-rdf-syntax-ns#"
   xmlns:svg="http://www.w3.org/2000/svg"
   xmlns="http://www.w3.org/2000/svg"
   xmlns:sodipodi="http://sodipodi.sourceforge.net/DTD/sodipodi-0.dtd"
   xmlns:inkscape="http://www.inkscape.org/namespaces/inkscape"
   version="1.0"
   width="65"
   height="55"
   id="svg2"
   sodipodi:version="0.32"
   inkscape:version="0.48.0 r9654"
   sodipodi:docname="ma.svg"
   inkscape:output_extension="org.inkscape.output.svg.inkscape"
   inkscape:export-filename="E:\trevorde\EllieSoft\Hiragana Tracer\Resources\www\Resources\Formation\ma.png"
   inkscape:export-xdpi="360"
   inkscape:export-ydpi="360">
  <metadata
     id="metadataHiragana">
    <rdf:RDF>
      <cc:Work
         rdf:about="">
        <dc:format>image/svg+xml</dc:format>
        <dc:type
           rdf:resource="http://purl.org/dc/dcmitype/StillImage" />
        <dc:title />
      </cc:Work>
    </rdf:RDF>
  </metadata>
  <sodipodi:namedview
     inkscape:window-height="708"
     inkscape:window-width="1024"
     inkscape:pageshadow="2"
     inkscape:pageopacity="0.0"
     guidetolerance="10.0"
     gridtolerance="10.0"
     objecttolerance="10.0"
     borderopacity="1.0"
     bordercolor="#666666"
     pagecolor="#ffffff"
     id="base"
     inkscape:zoom="9.4363636"
     inkscape:cx="32.5"
     inkscape:cy="27.5"
     inkscape:window-x="170"
     inkscape:window-y="14"
     inkscape:current-layer="svg2"
     showgrid="false"
     inkscape:window-maximized="0" />
  <!-- arrow ends -->
  <defs
     id="defsHiragana">
    <marker
       refX="0"
       refY="0"
       orient="auto"
       style="overflow:visible"
       id="Arrow2Mend">
      <path
         d="M 8.7185878,4.0337352 -2.2072895,0.01601326 8.7185884,-4.0017078 c -1.7454984,2.3720609 -1.7354408,5.6174519 -6e-7,8.035443 z"
         transform="scale(-0.6,-0.6)"
         class="arrow"
         id="path3344"
         style="font-size:12px;fill:#0000ff;fill-rule:evenodd;stroke:#0000ff;stroke-width:1pt;stroke-linejoin:round;marker-start:none"
         inkscape:connector-curvature="0" />
    </marker>
    <marker
       refX="0"
       refY="0"
       orient="auto"
       style="overflow:visible"
       id="Arrow2Send">
      <path
         d="M 8.7185878,4.0337352 -2.2072895,0.01601326 8.7185884,-4.0017078 c -1.7454984,2.3720609 -1.7354408,5.6174519 -6e-7,8.035443 z"
         transform="matrix(-0.3,0,0,-0.3,0.69,0)"
         class="arrow"
         id="path3338"
         style="font-size:12px;fill:#0000ff;fill-rule:evenodd;stroke:#0000ff;stroke-width:1pt;stroke-linejoin:round;marker-start:none"
         inkscape:connector-curvature="0" />
    </marker>
    <marker
       refX="0"
       refY="0"
       orient="auto"
       style="overflow:visible"
       id="Arrow1Send">
      <path
         d="M 0,0 5,-5 -12.5,0 5,5 0,0 z"
         transform="matrix(-0.2,0,0,-0.2,-1.2,0)"
         class="arrow"
         id="path3356"
         style="font-size:12px;fill:#0000ff;fill-rule:evenodd;stroke:#0000ff;stroke-width:1pt;stroke-linejoin:round;marker-start:none"
         inkscape:connector-curvature="0" />
    </marker>
    <marker
       refX="0"
       refY="0"
       orient="auto"
       style="overflow:visible"
       id="Arrow1Mend">
      <path
         d="M 0,0 5,-5 -12.5,0 5,5 0,0 z"
         transform="matrix(-0.4,0,0,-0.4,-4,0)"
         class="arrow"
         id="path3362"
         style="font-size:12px;fill:#0000ff;fill-rule:evenodd;stroke:#0000ff;stroke-width:1pt;stroke-linejoin:round;marker-start:none"
         inkscape:connector-curvature="0" />
    </marker>
    <marker
       refX="0"
       refY="0"
       orient="auto"
       style="overflow:visible"
       id="Arrow1Lend">
      <path
         d="M 0,0 5,-5 -12.5,0 5,5 0,0 z"
         transform="matrix(-0.8,0,0,-0.8,-10,0)"
         class="arrow"
         id="path3368"
         style="font-size:12px;fill:#0000ff;fill-rule:evenodd;stroke:#0000ff;stroke-width:1pt;stroke-linejoin:round;marker-start:none"
         inkscape:connector-curvature="0" />
    </marker>
  </defs>
  <style
     type="text/css"
     id="style3609">
		path.stroke /* arrow lines */
		{
			fill: none; fill-opacity: 0.75; fill-rule: evenodd;
			stroke: blue; stroke-width: 1px; stroke-linecap: butt; stroke-linejoin: miter; stroke-opacity:1;
			marker-end: url(#Arrow1Mend);
		}
		path.arrow /* heads */
		{
			font-size: 12px;
			fill-rule: evenodd;
			fill: blue;
			stroke: blue; stroke-width: 1pt;/*0.625*/ stroke-linejoin: round;
			marker-start: none;
		}
		text.number
		{
			font-size: 8px;
			fill: blue;
		}
		text.label
		{
			font-size: 22px;
		}
		text.cell
		{
			font-style: italic;
			text-transform: lowercase;
			fill: gray;
/*			display: none;*/
		}
/*		path.old
		{
			fill: gray;
		}
*/		path.rule
		{
			fill: none; fill-opacity: 0.75; fill-rule: evenodd;
			stroke: black; stroke-width: 1px; stroke-linecap: butt; stroke-linejoin: miter; stroke-opacity: 0.1;
		}
		path.rule[id*=&quot;V&quot;]
		{
			stroke-opacity: 0;
		}
		path#ruleH1, path#ruleV12
		{
			stroke-opacity: 0.8;
		}
		defs marker
		{
			overflow: visible;
		}
	</style>
  <!-- table rules -->
  <!-- glyphs -->
  <!-- -A -->
  <g
     id="gMA"
     transform="translate(-271.57942,-48.337755)">
    <path
       d="m 303.98459,56.420002 c -0.46878,0.06254 -0.62504,0.31254 -0.5,0.75 0.34373,0.43754 0.62496,2.81253 0.84375,7.125 -5.46877,0.28128 -10.68753,0.31253 -15.625,0.09375 l -0.21875,0.3125 c 0.49999,1.53128 0.71872,2.93753 0.65625,4.1875 4.99999,-0.34372 10.12496,-0.65622 15.375,-0.9375 0.0625,1.62502 0.0937,2.90628 0.0937,3.875 0.0312,0.93753 0.0312,1.78128 0.0312,2.53125 -3.93752,0.12501 -6.50003,0.12502 -7.71875,0 -1.18751,-0.15623 -2.34378,-0.56248 -3.46875,-1.25 l -2.21875,3.375 c 1.62499,0.93752 3.21872,1.46877 4.78125,1.625 1.59373,0.12501 4.49996,0.12502 8.6875,-0.03125 0.0312,1.28127 0.0625,3.06252 0.0937,5.375 -2.43752,-0.43748 -4.62504,-0.53124 -6.5625,-0.3125 -1.90626,0.21876 -3.56253,0.81251 -4.9375,1.78125 -1.34376,0.96876 -2.21878,2.15626 -2.65625,3.59375 -0.43751,1.40626 -0.50003,2.62501 -0.1875,3.65625 0.34374,1 0.96872,1.90625 1.875,2.6875 0.93749,0.78125 2.06247,1.375 3.375,1.78125 1.34374,0.4375 2.62497,0.65625 3.875,0.65625 1.24998,0 2.53121,-0.15625 3.8125,-0.4375 1.28123,-0.28126 2.43746,-0.90625 3.46875,-1.875 1.03123,-0.96875 1.62496,-2 1.8125,-3.125 0.18747,-1.125 0.31245,-2.31249 0.34375,-3.53125 3.28122,1.25001 6.81245,3.21875 10.59375,5.875 0.81246,-1.71875 1.6562,-3.12499 2.5625,-4.1875 l 0,-0.5625 c -4.81254,-2.21874 -9.18754,-3.87499 -13.125,-4.96875 -0.0625,-2.90624 -0.0938,-5.09374 -0.125,-6.59375 4.65622,-0.24998 8.06245,-0.46873 10.21875,-0.65625 l -0.375,-4.03125 c -2.62503,0.43752 -5.93755,0.75003 -9.9375,0.96875 -3e-5,-0.53123 -0.0313,-1.21872 -0.0625,-2.0625 -3e-5,-0.87498 -0.0313,-2.34372 -0.0937,-4.40625 5.43746,-0.28122 9.6562,-0.56247 12.65625,-0.84375 l -0.65625,-4.125 c -3.40629,0.53128 -7.4063,0.96878 -12.03125,1.28125 -0.0313,-1.65622 -0.0938,-3.49997 -0.15625,-5.53125 l 0.65625,-1.09375 c 0.21872,-0.40621 0.12496,-0.65621 -0.28125,-0.78125 l -4.875,-0.1875 z m -3.8125,29.84375 c 1.20117,0.03516 2.71091,0.32032 4.5625,0.8125 -0.0313,1.43751 -0.12504,2.62501 -0.28125,3.59375 -0.15628,0.9375 -0.59379,1.65625 -1.34375,2.125 -0.75002,0.4375 -1.56253,0.71875 -2.40625,0.84375 -0.84377,0.09375 -1.96879,1e-5 -3.40625,-0.25 -1.40626,-0.28124 -2.31253,-1.06249 -2.6875,-2.34375 -0.37502,-1.3125 -0.0313,-2.37499 1,-3.21875 1.03124,-0.87499 2.18747,-1.37499 3.46875,-1.5 0.32812,-0.03906 0.69336,-0.07422 1.09375,-0.0625 z"
       id="path2075"
       inkscape:connector-curvature="0" />
    <path
       d="m 284.9776,61.287415 c 0,0 11.53567,-0.01103 16.25019,-0.188563"
       class="stroke"
       id="path10558"
       inkscape:connector-curvature="0"
       style="fill:none;stroke:#0000ff;stroke-width:1px;stroke-linecap:butt;stroke-linejoin:miter;stroke-opacity:1;marker-end:url(#Arrow1Mend)" />
    <text
       x="279.37015"
       y="64.09156"
       class="number"
       id="text3675"
       style="font-size:8px;fill:#0000ff">1</text>
    <path
       d="m 284.9776,71.287415 c 0,0 12.56835,-0.158551 17.28287,-0.336088"
       class="stroke"
       id="path10564"
       inkscape:connector-curvature="0"
       style="fill:none;stroke:#0000ff;stroke-width:1px;stroke-linecap:butt;stroke-linejoin:miter;stroke-opacity:1;marker-end:url(#Arrow1Mend)" />
    <text
       x="279.35571"
       y="73.069183"
       class="number"
       id="text3678"
       style="font-size:8px;fill:#0000ff">2</text>
    <path
       d="m 312.42863,50.558831 c 0,0 -0.29447,6.990287 -0.37849,9.837921"
       class="stroke"
       id="path10570"
       inkscape:connector-curvature="0"
       style="fill:none;stroke:#0000ff;stroke-width:1px;stroke-linecap:butt;stroke-linejoin:miter;stroke-opacity:1;marker-end:url(#Arrow1Mend)" />
    <text
       x="316.3884"
       y="58.561241"
       class="number"
       id="text3681"
       style="font-size:8px;fill:#0000ff">3</text>
    <path
       d="M 293.54578,101.11668 C 280.7428,97.383889 285.37955,88.166453 286.59149,83.825125"
       class="stroke"
       id="path10576"
       inkscape:connector-curvature="0"
       style="fill:none;stroke:#0000ff;stroke-width:1px;stroke-linecap:butt;stroke-linejoin:miter;stroke-opacity:1;marker-end:url(#Arrow1Mend)" />
    <path
       d="m 316.70397,83.591553 c 0.6259,0.208633 10.32731,3.8597 10.32731,3.8597"
       class="stroke"
       id="path11463"
       inkscape:connector-curvature="0"
       style="fill:none;stroke:#0000ff;stroke-width:1px;stroke-linecap:butt;stroke-linejoin:miter;stroke-opacity:1;marker-end:url(#Arrow1Mend)" />
  </g>
  <!-- -I -->
  <!-- -U -->
  <!-- -E -->
  <!-- -O -->
  <!-- column headers -->
  <!-- row headers -->
</svg>
