<?xml version="1.0" encoding="UTF-8" standalone="no"?>
<svg
   xmlns:dc="http://purl.org/dc/elements/1.1/"
   xmlns:cc="http://creativecommons.org/ns#"
   xmlns:rdf="http://www.w3.org/1999/02/22-rdf-syntax-ns#"
   xmlns:svg="http://www.w3.org/2000/svg"
   xmlns="http://www.w3.org/2000/svg"
   xmlns:sodipodi="http://sodipodi.sourceforge.net/DTD/sodipodi-0.dtd"
   xmlns:inkscape="http://www.inkscape.org/namespaces/inkscape"
   version="1.0"
   width="65"
   height="55"
   id="svg2"
   sodipodi:version="0.32"
   inkscape:version="0.48.0 r9654"
   sodipodi:docname="mo.svg"
   inkscape:output_extension="org.inkscape.output.svg.inkscape"
   inkscape:export-filename="E:\trevorde\EllieSoft\Hiragana Tracer\Resources\www\Resources\Formation\mo.png"
   inkscape:export-xdpi="360"
   inkscape:export-ydpi="360">
  <metadata
     id="metadataHiragana">
    <rdf:RDF>
      <cc:Work
         rdf:about="">
        <dc:format>image/svg+xml</dc:format>
        <dc:type
           rdf:resource="http://purl.org/dc/dcmitype/StillImage" />
        <dc:title></dc:title>
      </cc:Work>
    </rdf:RDF>
  </metadata>
  <sodipodi:namedview
     inkscape:window-height="708"
     inkscape:window-width="1024"
     inkscape:pageshadow="2"
     inkscape:pageopacity="0.0"
     guidetolerance="10.0"
     gridtolerance="10.0"
     objecttolerance="10.0"
     borderopacity="1.0"
     bordercolor="#666666"
     pagecolor="#ffffff"
     id="base"
     inkscape:zoom="9.4363636"
     inkscape:cx="32.5"
     inkscape:cy="27.5"
     inkscape:window-x="150"
     inkscape:window-y="150"
     inkscape:current-layer="svg2"
     showgrid="false"
     inkscape:window-maximized="0" />
  <!-- arrow ends -->
  <defs
     id="defsHiragana">
    <marker
       refX="0"
       refY="0"
       orient="auto"
       style="overflow:visible"
       id="Arrow2Mend">
      <path
         d="M 8.7185878,4.0337352 -2.2072895,0.01601326 8.7185884,-4.0017078 c -1.7454984,2.3720609 -1.7354408,5.6174519 -6e-7,8.035443 z"
         transform="scale(-0.6,-0.6)"
         class="arrow"
         id="path3344"
         style="font-size:12px;fill:#0000ff;fill-rule:evenodd;stroke:#0000ff;stroke-width:1pt;stroke-linejoin:round;marker-start:none"
         inkscape:connector-curvature="0" />
    </marker>
    <marker
       refX="0"
       refY="0"
       orient="auto"
       style="overflow:visible"
       id="Arrow2Send">
      <path
         d="M 8.7185878,4.0337352 -2.2072895,0.01601326 8.7185884,-4.0017078 c -1.7454984,2.3720609 -1.7354408,5.6174519 -6e-7,8.035443 z"
         transform="matrix(-0.3,0,0,-0.3,0.69,0)"
         class="arrow"
         id="path3338"
         style="font-size:12px;fill:#0000ff;fill-rule:evenodd;stroke:#0000ff;stroke-width:1pt;stroke-linejoin:round;marker-start:none"
         inkscape:connector-curvature="0" />
    </marker>
    <marker
       refX="0"
       refY="0"
       orient="auto"
       style="overflow:visible"
       id="Arrow1Send">
      <path
         d="M 0,0 5,-5 -12.5,0 5,5 0,0 z"
         transform="matrix(-0.2,0,0,-0.2,-1.2,0)"
         class="arrow"
         id="path3356"
         style="font-size:12px;fill:#0000ff;fill-rule:evenodd;stroke:#0000ff;stroke-width:1pt;stroke-linejoin:round;marker-start:none"
         inkscape:connector-curvature="0" />
    </marker>
    <marker
       refX="0"
       refY="0"
       orient="auto"
       style="overflow:visible"
       id="Arrow1Mend">
      <path
         d="M 0,0 5,-5 -12.5,0 5,5 0,0 z"
         transform="matrix(-0.4,0,0,-0.4,-4,0)"
         class="arrow"
         id="path3362"
         style="font-size:12px;fill:#0000ff;fill-rule:evenodd;stroke:#0000ff;stroke-width:1pt;stroke-linejoin:round;marker-start:none"
         inkscape:connector-curvature="0" />
    </marker>
    <marker
       refX="0"
       refY="0"
       orient="auto"
       style="overflow:visible"
       id="Arrow1Lend">
      <path
         d="M 0,0 5,-5 -12.5,0 5,5 0,0 z"
         transform="matrix(-0.8,0,0,-0.8,-10,0)"
         class="arrow"
         id="path3368"
         style="font-size:12px;fill:#0000ff;fill-rule:evenodd;stroke:#0000ff;stroke-width:1pt;stroke-linejoin:round;marker-start:none"
         inkscape:connector-curvature="0" />
    </marker>
  </defs>
  <style
     type="text/css"
     id="style3609">
		path.stroke /* arrow lines */
		{
			fill: none; fill-opacity: 0.75; fill-rule: evenodd;
			stroke: blue; stroke-width: 1px; stroke-linecap: butt; stroke-linejoin: miter; stroke-opacity:1;
			marker-end: url(#Arrow1Mend);
		}
		path.arrow /* heads */
		{
			font-size: 12px;
			fill-rule: evenodd;
			fill: blue;
			stroke: blue; stroke-width: 1pt;/*0.625*/ stroke-linejoin: round;
			marker-start: none;
		}
		text.number
		{
			font-size: 8px;
			fill: blue;
		}
		text.label
		{
			font-size: 22px;
		}
		text.cell
		{
			font-style: italic;
			text-transform: lowercase;
			fill: gray;
/*			display: none;*/
		}
/*		path.old
		{
			fill: gray;
		}
*/		path.rule
		{
			fill: none; fill-opacity: 0.75; fill-rule: evenodd;
			stroke: black; stroke-width: 1px; stroke-linecap: butt; stroke-linejoin: miter; stroke-opacity: 0.1;
		}
		path.rule[id*=&quot;V&quot;]
		{
			stroke-opacity: 0;
		}
		path#ruleH1, path#ruleV12
		{
			stroke-opacity: 0.8;
		}
		defs marker
		{
			overflow: visible;
		}
	</style>
  <!-- table rules -->
  <!-- glyphs -->
  <!-- -A -->
  <!-- -I -->
  <!-- -U -->
  <!-- -E -->
  <!-- -O -->
  <g
     id="gMO"
     transform="translate(-267.96994,-369.38995)">
    <path
       d="m 310.72709,386.8258 0.89062,3.84375 c -2.56252,0.37503 -5.93752,0.56253 -10.125,0.5625 -0.28126,1.53127 -0.51564,2.89065 -0.70312,4.07812 -0.18752,1.15628 -0.34377,2.15627 -0.46875,3 0.46873,0.0313 1.62498,0.0781 3.46875,0.14063 1.84373,0.0313 4.59372,-0.20311 8.25,-0.70313 l 0.84375,4.03126 c -3.87503,0.43751 -6.87502,0.60938 -9,0.51562 -2.12502,-0.12499 -3.48439,-0.20311 -4.07813,-0.23438 -0.18751,1.43752 -0.35939,2.98439 -0.51562,4.64063 -0.15627,1.62501 -0.0156,3.04688 0.42188,4.26563 0.43748,1.21875 1.3281,2.15625 2.67187,2.8125 1.34373,0.625 3.06248,0.98437 5.15625,1.07812 2.09372,0.0937 3.99997,-0.21875 5.71875,-0.9375 1.74997,-0.75 2.90622,-2.34375 3.46875,-4.78125 0.56246,-2.46874 0.34371,-5.24999 -0.65625,-8.34375 1.43746,-0.18748 2.96871,-0.54686 4.59375,-1.07812 0.96871,3.81251 1.14058,7.28125 0.51562,10.40624 -0.62503,3.09376 -2.35941,5.40626 -5.20312,6.9375 -2.84378,1.5625 -5.84378,2.20313 -9,1.92188 -3.15627,-0.25 -5.68752,-0.96875 -7.59375,-2.15625 -1.87502,-1.15625 -3.14064,-2.67187 -3.79687,-4.54687 -0.65627,-1.90625 -0.87502,-3.71875 -0.65626,-5.4375 0.21874,-1.71874 0.45312,-3.42187 0.70313,-5.10938 -0.68751,-0.0937 -1.56251,-0.23436 -2.625,-0.42188 -1.06251,-0.18748 -2.62501,-0.79685 -4.6875,-1.82812 l 1.875,-3.46875 c 1.99999,1.00002 3.39061,1.57814 4.17187,1.73437 0.81249,0.12502 1.42187,0.21877 1.82813,0.28126 0.0937,-0.74999 0.23436,-1.73436 0.42187,-2.95313 0.18749,-1.21873 0.39061,-2.5156 0.60938,-3.89063 -2.21876,-0.0625 -4.64064,-0.14059 -7.26562,-0.23437 0.0625,-1.15622 -0.0469,-2.46872 -0.32813,-3.9375 l 0.28125,-0.28125 c 2.90624,0.34378 5.56249,0.57815 7.96875,0.70312 0.18748,-1.03121 0.46873,-2.46871 0.84375,-4.3125 0.37498,-1.87496 0.39061,-3.03121 0.0469,-3.46874 0.0312,-0.49997 0.24998,-0.74997 0.65624,-0.75 l 4.59376,0.75 c 0.40622,0.21878 0.43747,0.48441 0.0937,0.79687 l -0.75,0.75 c -0.43752,2.15628 -0.84377,4.25003 -1.21874,6.28125 2.96872,-0.0625 5.82809,-0.28122 8.57812,-0.65625"
       id="path2055"
       inkscape:connector-curvature="0" />
    <path
       d="m 284.62907,383.34474 11.31284,0.37325"
       class="stroke"
       id="path38183"
       inkscape:connector-curvature="0"
       style="fill:none;stroke:#0000ff;stroke-width:1px;stroke-linecap:butt;stroke-linejoin:miter;stroke-opacity:1;marker-end:url(#Arrow1Mend)" />
    <text
       x="278.85629"
       y="386.50778"
       class="number"
       id="text4063"
       style="font-size:8px;fill:#0000ff">2</text>
    <path
       d="m 283.96446,393.70813 10.7462,0.1472"
       class="stroke"
       id="path39104"
       inkscape:connector-curvature="0"
       style="fill:none;stroke:#0000ff;stroke-width:1px;stroke-linecap:butt;stroke-linejoin:miter;stroke-opacity:1;marker-end:url(#Arrow1Mend)" />
    <text
       x="278.78268"
       y="395.48746"
       class="number"
       id="text4066"
       style="font-size:8px;fill:#0000ff">3</text>
    <path
       d="m 308.98985,375.2335 -2.06092,9.56853"
       class="stroke"
       id="path40025"
       inkscape:connector-curvature="0"
       style="fill:none;stroke:#0000ff;stroke-width:1px;stroke-linecap:butt;stroke-linejoin:miter;stroke-opacity:1;marker-end:url(#Arrow1Mend)" />
    <text
       x="311.09488"
       y="380.76663"
       class="number"
       id="text4069"
       style="font-size:8px;fill:#0000ff">1</text>
  </g>
  <!-- column headers -->
  <!-- row headers -->
</svg>
