<?xml version="1.0" encoding="UTF-8" standalone="no"?>
<svg
   xmlns:dc="http://purl.org/dc/elements/1.1/"
   xmlns:cc="http://creativecommons.org/ns#"
   xmlns:rdf="http://www.w3.org/1999/02/22-rdf-syntax-ns#"
   xmlns:svg="http://www.w3.org/2000/svg"
   xmlns="http://www.w3.org/2000/svg"
   xmlns:sodipodi="http://sodipodi.sourceforge.net/DTD/sodipodi-0.dtd"
   xmlns:inkscape="http://www.inkscape.org/namespaces/inkscape"
   version="1.0"
   width="65"
   height="55"
   id="svg2"
   sodipodi:version="0.32"
   inkscape:version="0.48.0 r9654"
   sodipodi:docname="n.svg"
   inkscape:output_extension="org.inkscape.output.svg.inkscape"
   inkscape:export-filename="E:\trevorde\EllieSoft\Hiragana Tracer\Resources\www\Resources\Formation\n.png"
   inkscape:export-xdpi="360"
   inkscape:export-ydpi="360">
  <metadata
     id="metadataHiragana">
    <rdf:RDF>
      <cc:Work
         rdf:about="">
        <dc:format>image/svg+xml</dc:format>
        <dc:type
           rdf:resource="http://purl.org/dc/dcmitype/StillImage" />
        <dc:title></dc:title>
      </cc:Work>
    </rdf:RDF>
  </metadata>
  <sodipodi:namedview
     inkscape:window-height="708"
     inkscape:window-width="1024"
     inkscape:pageshadow="2"
     inkscape:pageopacity="0.0"
     guidetolerance="10.0"
     gridtolerance="10.0"
     objecttolerance="10.0"
     borderopacity="1.0"
     bordercolor="#666666"
     pagecolor="#ffffff"
     id="base"
     inkscape:zoom="9.4363636"
     inkscape:cx="32.5"
     inkscape:cy="27.5"
     inkscape:window-x="225"
     inkscape:window-y="225"
     inkscape:current-layer="svg2"
     showgrid="false"
     inkscape:window-maximized="0" />
  <!-- arrow ends -->
  <defs
     id="defsHiragana">
    <marker
       refX="0"
       refY="0"
       orient="auto"
       style="overflow:visible"
       id="Arrow2Mend">
      <path
         d="M 8.7185878,4.0337352 -2.2072895,0.01601326 8.7185884,-4.0017078 c -1.7454984,2.3720609 -1.7354408,5.6174519 -6e-7,8.035443 z"
         transform="scale(-0.6,-0.6)"
         class="arrow"
         id="path3344"
         style="font-size:12px;fill:#0000ff;fill-rule:evenodd;stroke:#0000ff;stroke-width:1pt;stroke-linejoin:round;marker-start:none"
         inkscape:connector-curvature="0" />
    </marker>
    <marker
       refX="0"
       refY="0"
       orient="auto"
       style="overflow:visible"
       id="Arrow2Send">
      <path
         d="M 8.7185878,4.0337352 -2.2072895,0.01601326 8.7185884,-4.0017078 c -1.7454984,2.3720609 -1.7354408,5.6174519 -6e-7,8.035443 z"
         transform="matrix(-0.3,0,0,-0.3,0.69,0)"
         class="arrow"
         id="path3338"
         style="font-size:12px;fill:#0000ff;fill-rule:evenodd;stroke:#0000ff;stroke-width:1pt;stroke-linejoin:round;marker-start:none"
         inkscape:connector-curvature="0" />
    </marker>
    <marker
       refX="0"
       refY="0"
       orient="auto"
       style="overflow:visible"
       id="Arrow1Send">
      <path
         d="M 0,0 5,-5 -12.5,0 5,5 0,0 z"
         transform="matrix(-0.2,0,0,-0.2,-1.2,0)"
         class="arrow"
         id="path3356"
         style="font-size:12px;fill:#0000ff;fill-rule:evenodd;stroke:#0000ff;stroke-width:1pt;stroke-linejoin:round;marker-start:none"
         inkscape:connector-curvature="0" />
    </marker>
    <marker
       refX="0"
       refY="0"
       orient="auto"
       style="overflow:visible"
       id="Arrow1Mend">
      <path
         d="M 0,0 5,-5 -12.5,0 5,5 0,0 z"
         transform="matrix(-0.4,0,0,-0.4,-4,0)"
         class="arrow"
         id="path3362"
         style="font-size:12px;fill:#0000ff;fill-rule:evenodd;stroke:#0000ff;stroke-width:1pt;stroke-linejoin:round;marker-start:none"
         inkscape:connector-curvature="0" />
    </marker>
    <marker
       refX="0"
       refY="0"
       orient="auto"
       style="overflow:visible"
       id="Arrow1Lend">
      <path
         d="M 0,0 5,-5 -12.5,0 5,5 0,0 z"
         transform="matrix(-0.8,0,0,-0.8,-10,0)"
         class="arrow"
         id="path3368"
         style="font-size:12px;fill:#0000ff;fill-rule:evenodd;stroke:#0000ff;stroke-width:1pt;stroke-linejoin:round;marker-start:none"
         inkscape:connector-curvature="0" />
    </marker>
  </defs>
  <style
     type="text/css"
     id="style3609">
		path.stroke /* arrow lines */
		{
			fill: none; fill-opacity: 0.75; fill-rule: evenodd;
			stroke: blue; stroke-width: 1px; stroke-linecap: butt; stroke-linejoin: miter; stroke-opacity:1;
			marker-end: url(#Arrow1Mend);
		}
		path.arrow /* heads */
		{
			font-size: 12px;
			fill-rule: evenodd;
			fill: blue;
			stroke: blue; stroke-width: 1pt;/*0.625*/ stroke-linejoin: round;
			marker-start: none;
		}
		text.number
		{
			font-size: 8px;
			fill: blue;
		}
		text.label
		{
			font-size: 22px;
		}
		text.cell
		{
			font-style: italic;
			text-transform: lowercase;
			fill: gray;
/*			display: none;*/
		}
/*		path.old
		{
			fill: gray;
		}
*/		path.rule
		{
			fill: none; fill-opacity: 0.75; fill-rule: evenodd;
			stroke: black; stroke-width: 1px; stroke-linecap: butt; stroke-linejoin: miter; stroke-opacity: 0.1;
		}
		path.rule[id*=&quot;V&quot;]
		{
			stroke-opacity: 0;
		}
		path#ruleH1, path#ruleV12
		{
			stroke-opacity: 0.8;
		}
		defs marker
		{
			overflow: visible;
		}
	</style>
  <!-- table rules -->
  <!-- glyphs -->
  <g
     id="gN"
     transform="translate(-15.217949,-50.664825)">
    <path
       d="m 45.894968,57.056819 c 1.84373,0.87504 3.48435,1.46879 4.92188,1.78125 0.34372,0.28128 0.29684,0.56253 -0.14063,0.84375 l -0.9375,0.60938 c -3.46877,6.87502 -6.34377,12.57814 -8.625,17.10937 2.43748,-1.65623 4.24998,-2.57811 5.4375,-2.76563 1.18748,-0.18748 2.21873,-0.15623 3.09375,0.09376 0.90623,0.25001 1.6406,0.79689 2.20313,1.64062 0.56247,0.81252 0.96872,2.51564 1.21875,5.10938 0.24997,2.5625 0.56247,4.71875 0.9375,6.46874 0.37497,1.75001 1.29684,2.656262 2.76562,2.718762 1.46872,0.03125 2.82809,-0.75 4.07813,-2.343762 1.28121,-1.62499 2.35933,-3.78124 3.23437,-6.46874 0.87496,-2.71874 1.29684,-4.31249 1.26563,-4.78126 l 0.51562,0 c 1.40621,1.21877 2.82808,2.23439 4.26563,3.04688 -0.37505,0.78126 -1.0313,2.23439 -1.96875,4.35938 -0.93755,2.125 -2.31255,4.39062 -4.125,6.796872 -1.78129,2.375 -3.95316,3.625 -6.51563,3.75 -2.53128,0.125 -4.34378,-0.3125 -5.4375,-1.3125 -1.06253,-1.03125 -1.78127,-2.57812 -2.15625,-4.640632 -0.34377,-2.06249 -0.6094,-4.17186 -0.79687,-6.32812 -0.15628,-2.18749 -0.53128,-3.57811 -1.125,-4.17188 -0.59378,-0.59373 -1.40628,-0.67185 -2.4375,-0.23437 -1.03127,0.40627 -2.2969,1.14064 -3.79688,2.20313 -1.50001,1.03126 -2.79689,2.07813 -3.89062,3.14062 -0.78127,1.50001 -1.87502,3.56251 -3.28125,6.1875 -1.40626,2.625002 -2.46876,4.609372 -3.1875,5.953122 -1.37501,-1.28125 -2.76563,-2.17187 -4.17188,-2.67187 l 0,-0.5625 c 5.03124,-7.593742 9.31249,-15.218732 12.84375,-22.875002 3.56248,-7.68747 5.21873,-11.71871 4.96875,-12.09375 -0.09377,-0.56246 0.18748,-0.74996 0.84375,-0.5625"
       id="flowRoot1947"
       inkscape:connector-curvature="0" />
    <path
       d="M 39.22289,60.504948 26.079049,82.202717"
       class="stroke"
       id="path2309"
       inkscape:connector-curvature="0"
       style="fill:none;stroke:#0000ff;stroke-width:1px;stroke-linecap:butt;stroke-linejoin:miter;stroke-opacity:1;marker-end:url(#Arrow1Mend)" />
    <path
       d="m 21.63142,90.27176 c 0,0 -0.295179,6.954906 4.427561,8.220006 5.890812,1.578004 11.582579,-2.469004 17.051091,-5.976572"
       class="stroke"
       id="path3382"
       inkscape:connector-curvature="0"
       style="fill:none;stroke:#0000ff;stroke-width:1px;stroke-linecap:butt;stroke-linejoin:miter;stroke-opacity:1;marker-end:url(#Arrow1Mend)" />
    <path
       d="m 64.68988,97.576606 c 4.868338,-1.696541 7.929489,-10.732471 8.999048,-13.424809"
       class="stroke"
       id="path4269"
       inkscape:connector-curvature="0"
       style="fill:none;stroke:#0000ff;stroke-width:1px;stroke-linecap:butt;stroke-linejoin:miter;stroke-opacity:1;marker-end:url(#Arrow1Mend)" />
    <text
       x="25.525475"
       y="65.344055"
       class="number"
       id="text3636"
       style="font-size:8px;fill:#0000ff">1</text>
  </g>
  <!-- -A -->
  <!-- -I -->
  <!-- -U -->
  <!-- -E -->
  <!-- -O -->
  <!-- column headers -->
  <!-- row headers -->
</svg>
