<?xml version="1.0" encoding="UTF-8" standalone="no"?>
<svg
   xmlns:dc="http://purl.org/dc/elements/1.1/"
   xmlns:cc="http://creativecommons.org/ns#"
   xmlns:rdf="http://www.w3.org/1999/02/22-rdf-syntax-ns#"
   xmlns:svg="http://www.w3.org/2000/svg"
   xmlns="http://www.w3.org/2000/svg"
   xmlns:sodipodi="http://sodipodi.sourceforge.net/DTD/sodipodi-0.dtd"
   xmlns:inkscape="http://www.inkscape.org/namespaces/inkscape"
   version="1.0"
   width="65"
   height="55"
   id="svg2"
   sodipodi:version="0.32"
   inkscape:version="0.48.0 r9654"
   sodipodi:docname="ni.svg"
   inkscape:output_extension="org.inkscape.output.svg.inkscape"
   inkscape:export-filename="E:\trevorde\EllieSoft\Hiragana Tracer\Resources\www\Resources\Formation\ni.png"
   inkscape:export-xdpi="360"
   inkscape:export-ydpi="360">
  <metadata
     id="metadataHiragana">
    <rdf:RDF>
      <cc:Work
         rdf:about="">
        <dc:format>image/svg+xml</dc:format>
        <dc:type
           rdf:resource="http://purl.org/dc/dcmitype/StillImage" />
        <dc:title></dc:title>
      </cc:Work>
    </rdf:RDF>
  </metadata>
  <sodipodi:namedview
     inkscape:window-height="752"
     inkscape:window-width="1280"
     inkscape:pageshadow="2"
     inkscape:pageopacity="0.0"
     guidetolerance="10.0"
     gridtolerance="10.0"
     objecttolerance="10.0"
     borderopacity="1.0"
     bordercolor="#666666"
     pagecolor="#ffffff"
     id="base"
     inkscape:zoom="10.236364"
     inkscape:cx="32.5"
     inkscape:cy="27.5"
     inkscape:window-x="0"
     inkscape:window-y="25"
     inkscape:current-layer="svg2"
     showgrid="false"
     inkscape:window-maximized="0" />
  <!-- arrow ends -->
  <defs
     id="defsHiragana">
    <marker
       refX="0"
       refY="0"
       orient="auto"
       style="overflow:visible"
       id="Arrow2Mend">
      <path
         d="M 8.7185878,4.0337352 -2.2072895,0.01601326 8.7185884,-4.0017078 c -1.7454984,2.3720609 -1.7354408,5.6174519 -6e-7,8.035443 z"
         transform="scale(-0.6,-0.6)"
         class="arrow"
         id="path3344"
         style="font-size:12px;fill:#0000ff;fill-rule:evenodd;stroke:#0000ff;stroke-width:1pt;stroke-linejoin:round;marker-start:none"
         inkscape:connector-curvature="0" />
    </marker>
    <marker
       refX="0"
       refY="0"
       orient="auto"
       style="overflow:visible"
       id="Arrow2Send">
      <path
         d="M 8.7185878,4.0337352 -2.2072895,0.01601326 8.7185884,-4.0017078 c -1.7454984,2.3720609 -1.7354408,5.6174519 -6e-7,8.035443 z"
         transform="matrix(-0.3,0,0,-0.3,0.69,0)"
         class="arrow"
         id="path3338"
         style="font-size:12px;fill:#0000ff;fill-rule:evenodd;stroke:#0000ff;stroke-width:1pt;stroke-linejoin:round;marker-start:none"
         inkscape:connector-curvature="0" />
    </marker>
    <marker
       refX="0"
       refY="0"
       orient="auto"
       style="overflow:visible"
       id="Arrow1Send">
      <path
         d="M 0,0 5,-5 -12.5,0 5,5 0,0 z"
         transform="matrix(-0.2,0,0,-0.2,-1.2,0)"
         class="arrow"
         id="path3356"
         style="font-size:12px;fill:#0000ff;fill-rule:evenodd;stroke:#0000ff;stroke-width:1pt;stroke-linejoin:round;marker-start:none"
         inkscape:connector-curvature="0" />
    </marker>
    <marker
       refX="0"
       refY="0"
       orient="auto"
       style="overflow:visible"
       id="Arrow1Mend">
      <path
         d="M 0,0 5,-5 -12.5,0 5,5 0,0 z"
         transform="matrix(-0.4,0,0,-0.4,-4,0)"
         class="arrow"
         id="path3362"
         style="font-size:12px;fill:#0000ff;fill-rule:evenodd;stroke:#0000ff;stroke-width:1pt;stroke-linejoin:round;marker-start:none"
         inkscape:connector-curvature="0" />
    </marker>
    <marker
       refX="0"
       refY="0"
       orient="auto"
       style="overflow:visible"
       id="Arrow1Lend">
      <path
         d="M 0,0 5,-5 -12.5,0 5,5 0,0 z"
         transform="matrix(-0.8,0,0,-0.8,-10,0)"
         class="arrow"
         id="path3368"
         style="font-size:12px;fill:#0000ff;fill-rule:evenodd;stroke:#0000ff;stroke-width:1pt;stroke-linejoin:round;marker-start:none"
         inkscape:connector-curvature="0" />
    </marker>
  </defs>
  <style
     type="text/css"
     id="style3609">
		path.stroke /* arrow lines */
		{
			fill: none; fill-opacity: 0.75; fill-rule: evenodd;
			stroke: blue; stroke-width: 1px; stroke-linecap: butt; stroke-linejoin: miter; stroke-opacity:1;
			marker-end: url(#Arrow1Mend);
		}
		path.arrow /* heads */
		{
			font-size: 12px;
			fill-rule: evenodd;
			fill: blue;
			stroke: blue; stroke-width: 1pt;/*0.625*/ stroke-linejoin: round;
			marker-start: none;
		}
		text.number
		{
			font-size: 8px;
			fill: blue;
		}
		text.label
		{
			font-size: 22px;
		}
		text.cell
		{
			font-style: italic;
			text-transform: lowercase;
			fill: gray;
/*			display: none;*/
		}
/*		path.old
		{
			fill: gray;
		}
*/		path.rule
		{
			fill: none; fill-opacity: 0.75; fill-rule: evenodd;
			stroke: black; stroke-width: 1px; stroke-linecap: butt; stroke-linejoin: miter; stroke-opacity: 0.1;
		}
		path.rule[id*=&quot;V&quot;]
		{
			stroke-opacity: 0;
		}
		path#ruleH1, path#ruleV12
		{
			stroke-opacity: 0.8;
		}
		defs marker
		{
			overflow: visible;
		}
	</style>
  <!-- table rules -->
  <!-- glyphs -->
  <!-- -A -->
  <!-- -I -->
  <g
     id="gNI"
     transform="translate(-399.25883,-130.3605)">
    <path
       d="m 419.24062,142.57981 c -0.53125,0.0313 -0.78127,0.25004 -0.75,0.65625 0.25,0.43754 0.21873,2.28128 -0.0625,5.5 -0.25001,3.21878 -0.43752,7.37503 -0.59375,12.5 -0.15625,5.12502 -0.0938,8.84376 0.21875,11.15625 0.34374,2.3125 0.99998,4.1875 1.96875,5.59375 0.96874,1.4375 2.12497,2.03125 3.4375,1.8125 1.31249,-0.1875 3.06247,-1.5625 5.25,-4.125 -1.09376,-1.09374 -2.18753,-2.375 -3.25,-3.875 l -0.1875,0 c -0.75002,1.84375 -1.31253,2.71875 -1.6875,2.625 -0.34376,-0.0937 -0.68753,-0.90624 -1.0625,-2.40625 -0.34376,-1.53125 -0.46877,-4.99999 -0.34375,-10.4375 0.12499,-5.43748 0.49998,-11.09372 1.125,-16.9375 l 0.5625,-0.75 c 0.40623,-0.40622 0.40622,-0.68747 0,-0.875 l -4.625,-0.4375 z m 33.5,3.625 c -3.37504,0.21878 -6.5938,0.40629 -9.65625,0.59375 -3.03128,0.18754 -6.34379,0.40628 -9.9375,0.625 l 0.25,4.0625 c 4.12498,-0.46872 7.5312,-0.74997 10.21875,-0.84375 2.71872,-0.0937 5.81244,-0.15622 9.28125,-0.1875 -0.15629,-1.56248 -0.2188,-2.96872 -0.15625,-4.25 z m -17.0625,18.65625 -4.34375,0.21875 c 0.24998,2.09376 0.68747,3.90626 1.34375,5.40625 0.65623,1.50001 1.53121,2.71876 2.625,3.6875 1.09372,0.96876 2.74996,1.68751 4.9375,2.15625 2.18747,0.46875 6.93745,0.625 14.28125,0.4375 0.0937,-1.5625 0.28119,-3.03125 0.5625,-4.40625 l -0.1875,-0.25 c -6.59379,0.50001 -10.8438,0.62501 -12.75,0.34375 -1.87503,-0.31249 -3.37504,-1.06249 -4.53125,-2.21875 -1.15627,-1.18749 -1.81254,-2.96874 -1.9375,-5.375 z"
       id="path2121"
       inkscape:connector-curvature="0" />
    <path
       d="m 414.79689,143.92055 c -2.06843,5.73559 -0.98947,16.78951 -0.76294,22.94237"
       class="stroke"
       id="path36556"
       inkscape:connector-curvature="0"
       style="fill:none;stroke:#0000ff;stroke-width:1px;stroke-linecap:butt;stroke-linejoin:miter;stroke-opacity:1;marker-end:url(#Arrow1Mend)" />
    <text
       x="407.55438"
       y="150.7653"
       class="number"
       id="text3802"
       style="font-size:8px;fill:#0000ff">1</text>
    <path
       d="m 436.18131,142.90918 11.50698,0.29505"
       class="stroke"
       id="path37453"
       inkscape:connector-curvature="0"
       style="fill:none;stroke:#0000ff;stroke-width:1px;stroke-linecap:butt;stroke-linejoin:miter;stroke-opacity:1;marker-end:url(#Arrow1Mend)" />
    <text
       x="441.00281"
       y="139.46028"
       class="number"
       id="text3805"
       style="font-size:8px;fill:#0000ff">2</text>
    <path
       d="m 431.38003,172.97046 c 2.21288,8.27986 13.27729,6.97057 18.29315,6.93369"
       class="stroke"
       id="path37459"
       inkscape:connector-curvature="0"
       style="fill:none;stroke:#0000ff;stroke-width:1px;stroke-linecap:butt;stroke-linejoin:miter;stroke-opacity:1;marker-end:url(#Arrow1Mend)" />
    <text
       x="426.68176"
       y="171.80188"
       class="number"
       id="text3808"
       style="font-size:8px;fill:#0000ff">3</text>
  </g>
  <!-- -U -->
  <!-- -E -->
  <!-- -O -->
  <!-- column headers -->
  <!-- row headers -->
</svg>
