<?xml version="1.0" encoding="UTF-8" standalone="no"?>
<svg
   xmlns:dc="http://purl.org/dc/elements/1.1/"
   xmlns:cc="http://creativecommons.org/ns#"
   xmlns:rdf="http://www.w3.org/1999/02/22-rdf-syntax-ns#"
   xmlns:svg="http://www.w3.org/2000/svg"
   xmlns="http://www.w3.org/2000/svg"
   xmlns:sodipodi="http://sodipodi.sourceforge.net/DTD/sodipodi-0.dtd"
   xmlns:inkscape="http://www.inkscape.org/namespaces/inkscape"
   version="1.0"
   width="65"
   height="55"
   id="svg2"
   sodipodi:version="0.32"
   inkscape:version="0.48.0 r9654"
   sodipodi:docname="ri.svg"
   inkscape:output_extension="org.inkscape.output.svg.inkscape"
   inkscape:export-filename="E:\trevorde\EllieSoft\Hiragana Tracer\Resources\www\Resources\Formation\ri.png"
   inkscape:export-xdpi="360"
   inkscape:export-ydpi="360">
  <metadata
     id="metadataHiragana">
    <rdf:RDF>
      <cc:Work
         rdf:about="">
        <dc:format>image/svg+xml</dc:format>
        <dc:type
           rdf:resource="http://purl.org/dc/dcmitype/StillImage" />
        <dc:title></dc:title>
      </cc:Work>
    </rdf:RDF>
  </metadata>
  <sodipodi:namedview
     inkscape:window-height="752"
     inkscape:window-width="1280"
     inkscape:pageshadow="2"
     inkscape:pageopacity="0.0"
     guidetolerance="10.0"
     gridtolerance="10.0"
     objecttolerance="10.0"
     borderopacity="1.0"
     bordercolor="#666666"
     pagecolor="#ffffff"
     id="base"
     inkscape:zoom="10.236364"
     inkscape:cx="32.5"
     inkscape:cy="27.5"
     inkscape:window-x="0"
     inkscape:window-y="200"
     inkscape:current-layer="svg2"
     showgrid="false"
     inkscape:window-maximized="0" />
  <!-- arrow ends -->
  <defs
     id="defsHiragana">
    <marker
       refX="0"
       refY="0"
       orient="auto"
       style="overflow:visible"
       id="Arrow2Mend">
      <path
         d="M 8.7185878,4.0337352 -2.2072895,0.01601326 8.7185884,-4.0017078 c -1.7454984,2.3720609 -1.7354408,5.6174519 -6e-7,8.035443 z"
         transform="scale(-0.6,-0.6)"
         class="arrow"
         id="path3344"
         style="font-size:12px;fill:#0000ff;fill-rule:evenodd;stroke:#0000ff;stroke-width:1pt;stroke-linejoin:round;marker-start:none"
         inkscape:connector-curvature="0" />
    </marker>
    <marker
       refX="0"
       refY="0"
       orient="auto"
       style="overflow:visible"
       id="Arrow2Send">
      <path
         d="M 8.7185878,4.0337352 -2.2072895,0.01601326 8.7185884,-4.0017078 c -1.7454984,2.3720609 -1.7354408,5.6174519 -6e-7,8.035443 z"
         transform="matrix(-0.3,0,0,-0.3,0.69,0)"
         class="arrow"
         id="path3338"
         style="font-size:12px;fill:#0000ff;fill-rule:evenodd;stroke:#0000ff;stroke-width:1pt;stroke-linejoin:round;marker-start:none"
         inkscape:connector-curvature="0" />
    </marker>
    <marker
       refX="0"
       refY="0"
       orient="auto"
       style="overflow:visible"
       id="Arrow1Send">
      <path
         d="M 0,0 5,-5 -12.5,0 5,5 0,0 z"
         transform="matrix(-0.2,0,0,-0.2,-1.2,0)"
         class="arrow"
         id="path3356"
         style="font-size:12px;fill:#0000ff;fill-rule:evenodd;stroke:#0000ff;stroke-width:1pt;stroke-linejoin:round;marker-start:none"
         inkscape:connector-curvature="0" />
    </marker>
    <marker
       refX="0"
       refY="0"
       orient="auto"
       style="overflow:visible"
       id="Arrow1Mend">
      <path
         d="M 0,0 5,-5 -12.5,0 5,5 0,0 z"
         transform="matrix(-0.4,0,0,-0.4,-4,0)"
         class="arrow"
         id="path3362"
         style="font-size:12px;fill:#0000ff;fill-rule:evenodd;stroke:#0000ff;stroke-width:1pt;stroke-linejoin:round;marker-start:none"
         inkscape:connector-curvature="0" />
    </marker>
    <marker
       refX="0"
       refY="0"
       orient="auto"
       style="overflow:visible"
       id="Arrow1Lend">
      <path
         d="M 0,0 5,-5 -12.5,0 5,5 0,0 z"
         transform="matrix(-0.8,0,0,-0.8,-10,0)"
         class="arrow"
         id="path3368"
         style="font-size:12px;fill:#0000ff;fill-rule:evenodd;stroke:#0000ff;stroke-width:1pt;stroke-linejoin:round;marker-start:none"
         inkscape:connector-curvature="0" />
    </marker>
  </defs>
  <style
     type="text/css"
     id="style3609">
		path.stroke /* arrow lines */
		{
			fill: none; fill-opacity: 0.75; fill-rule: evenodd;
			stroke: blue; stroke-width: 1px; stroke-linecap: butt; stroke-linejoin: miter; stroke-opacity:1;
			marker-end: url(#Arrow1Mend);
		}
		path.arrow /* heads */
		{
			font-size: 12px;
			fill-rule: evenodd;
			fill: blue;
			stroke: blue; stroke-width: 1pt;/*0.625*/ stroke-linejoin: round;
			marker-start: none;
		}
		text.number
		{
			font-size: 8px;
			fill: blue;
		}
		text.label
		{
			font-size: 22px;
		}
		text.cell
		{
			font-style: italic;
			text-transform: lowercase;
			fill: gray;
/*			display: none;*/
		}
/*		path.old
		{
			fill: gray;
		}
*/		path.rule
		{
			fill: none; fill-opacity: 0.75; fill-rule: evenodd;
			stroke: black; stroke-width: 1px; stroke-linecap: butt; stroke-linejoin: miter; stroke-opacity: 0.1;
		}
		path.rule[id*=&quot;V&quot;]
		{
			stroke-opacity: 0;
		}
		path#ruleH1, path#ruleV12
		{
			stroke-opacity: 0.8;
		}
		defs marker
		{
			overflow: visible;
		}
	</style>
  <!-- table rules -->
  <!-- glyphs -->
  <!-- -A -->
  <!-- -I -->
  <g
     id="gRI"
     transform="translate(-144.72383,-133.88729)">
    <path
       d="m 188.7527,140.37167 -4.65625,0.1875 c -0.56253,0.0938 -0.68754,0.37504 -0.375,0.875 0.34372,0.62504 0.62495,2.21879 0.8125,4.78125 0.18747,2.56252 0.3437,5.37503 0.46875,8.40625 0.12497,3.00002 0.0624,5.65627 -0.15625,7.96875 -0.18753,2.28126 -0.7188,4.46877 -1.625,6.59375 -0.87503,2.12501 -2.3438,3.90625 -4.40625,5.3125 -2.06252,1.375 -4.65628,2.5 -7.75,3.375 l -0.125,0.40625 c 1.28123,1.56249 2.15621,2.9375 2.625,4.125 3.09373,-1.46876 5.87496,-3.15625 8.375,-5.09375 2.49997,-1.96875 4.31245,-4.31249 5.40625,-7 1.12497,-2.71873 1.74995,-5.34374 1.90625,-7.90625 0.15621,-2.59373 0.18745,-5.40622 0.0937,-8.40625 -0.0938,-3.03122 -0.2813,-6.99996 -0.5625,-11.90625 l 0.28125,-0.96875 c 0.21871,-0.37496 0.12495,-0.62496 -0.3125,-0.75 z m -22.71875,1 c -0.29883,2e-5 -0.41408,0.17971 -0.34375,0.53125 0.0625,0.34378 -0.0313,1.28129 -0.28125,2.8125 -0.21876,1.53128 -0.46878,4.12503 -0.75,7.78125 -0.25001,3.65628 -0.12502,7.15627 0.40625,10.5 0.53123,3.31252 1.59372,4.93751 3.15625,4.84375 1.56249,-0.12499 2.78121,-0.74998 3.65625,-1.84375 0.87498,-1.09373 1.99997,-2.59373 3.40625,-4.5 l -3.28125,-2.9375 c -0.46877,1.18752 -0.96878,2.15627 -1.5,2.90625 -0.53127,0.75002 -0.90628,1.12502 -1.15625,1.125 -0.21876,-0.0312 -0.40628,-1.15623 -0.5625,-3.375 -0.12501,-2.24998 -0.0938,-4.78123 0.0937,-7.59375 0.21874,-2.81247 0.59372,-5.49997 1.125,-8.0625 l 0.65625,-0.71875 c 0.21873,-0.37497 0.15622,-0.59371 -0.15625,-0.6875 l -4.125,-0.71875 c -0.14063,-0.0391 -0.24414,-0.0625 -0.34375,-0.0625 z"
       id="path2039"
       inkscape:connector-curvature="0" />
    <path
       d="m 161.39277,143.42735 -0.88516,16.67037"
       class="stroke"
       id="path31200"
       inkscape:connector-curvature="0"
       style="fill:none;stroke:#0000ff;stroke-width:1px;stroke-linecap:butt;stroke-linejoin:miter;stroke-opacity:1;marker-end:url(#Arrow1Mend)" />
    <path
       d="m 192.65514,141.36199 1.1802,18.73573"
       class="stroke"
       id="path32087"
       inkscape:connector-curvature="0"
       style="fill:none;stroke:#0000ff;stroke-width:1px;stroke-linecap:butt;stroke-linejoin:miter;stroke-opacity:1;marker-end:url(#Arrow1Mend)" />
    <text
       x="154.48486"
       y="147.99849"
       class="number"
       id="text3777"
       style="font-size:8px;fill:#0000ff">1</text>
    <text
       x="194.79483"
       y="147.26086"
       class="number"
       id="text3779"
       style="font-size:8px;fill:#0000ff">2</text>
  </g>
  <!-- -U -->
  <!-- -E -->
  <!-- -O -->
  <!-- column headers -->
  <!-- row headers -->
</svg>
