<?xml version="1.0" encoding="UTF-8" standalone="no"?>
<svg
   xmlns:dc="http://purl.org/dc/elements/1.1/"
   xmlns:cc="http://creativecommons.org/ns#"
   xmlns:rdf="http://www.w3.org/1999/02/22-rdf-syntax-ns#"
   xmlns:svg="http://www.w3.org/2000/svg"
   xmlns="http://www.w3.org/2000/svg"
   xmlns:sodipodi="http://sodipodi.sourceforge.net/DTD/sodipodi-0.dtd"
   xmlns:inkscape="http://www.inkscape.org/namespaces/inkscape"
   version="1.0"
   width="65"
   height="55"
   id="svg2"
   sodipodi:version="0.32"
   inkscape:version="0.48.0 r9654"
   sodipodi:docname="ro.svg"
   inkscape:output_extension="org.inkscape.output.svg.inkscape"
   inkscape:export-filename="E:\trevorde\EllieSoft\Hiragana Tracer\Resources\www\Resources\Formation\ro.png"
   inkscape:export-xdpi="360"
   inkscape:export-ydpi="360">
  <metadata
     id="metadataHiragana">
    <rdf:RDF>
      <cc:Work
         rdf:about="">
        <dc:format>image/svg+xml</dc:format>
        <dc:type
           rdf:resource="http://purl.org/dc/dcmitype/StillImage" />
        <dc:title></dc:title>
      </cc:Work>
    </rdf:RDF>
  </metadata>
  <sodipodi:namedview
     inkscape:window-height="708"
     inkscape:window-width="1024"
     inkscape:pageshadow="2"
     inkscape:pageopacity="0.0"
     guidetolerance="10.0"
     gridtolerance="10.0"
     objecttolerance="10.0"
     borderopacity="1.0"
     bordercolor="#666666"
     pagecolor="#ffffff"
     id="base"
     inkscape:zoom="9.4363636"
     inkscape:cx="32.5"
     inkscape:cy="27.5"
     inkscape:window-x="170"
     inkscape:window-y="14"
     inkscape:current-layer="svg2"
     showgrid="false"
     inkscape:window-maximized="0" />
  <!-- arrow ends -->
  <defs
     id="defsHiragana">
    <marker
       refX="0"
       refY="0"
       orient="auto"
       style="overflow:visible"
       id="Arrow2Mend">
      <path
         d="M 8.7185878,4.0337352 -2.2072895,0.01601326 8.7185884,-4.0017078 c -1.7454984,2.3720609 -1.7354408,5.6174519 -6e-7,8.035443 z"
         transform="scale(-0.6,-0.6)"
         class="arrow"
         id="path3344"
         style="font-size:12px;fill:#0000ff;fill-rule:evenodd;stroke:#0000ff;stroke-width:1pt;stroke-linejoin:round;marker-start:none"
         inkscape:connector-curvature="0" />
    </marker>
    <marker
       refX="0"
       refY="0"
       orient="auto"
       style="overflow:visible"
       id="Arrow2Send">
      <path
         d="M 8.7185878,4.0337352 -2.2072895,0.01601326 8.7185884,-4.0017078 c -1.7454984,2.3720609 -1.7354408,5.6174519 -6e-7,8.035443 z"
         transform="matrix(-0.3,0,0,-0.3,0.69,0)"
         class="arrow"
         id="path3338"
         style="font-size:12px;fill:#0000ff;fill-rule:evenodd;stroke:#0000ff;stroke-width:1pt;stroke-linejoin:round;marker-start:none"
         inkscape:connector-curvature="0" />
    </marker>
    <marker
       refX="0"
       refY="0"
       orient="auto"
       style="overflow:visible"
       id="Arrow1Send">
      <path
         d="M 0,0 5,-5 -12.5,0 5,5 0,0 z"
         transform="matrix(-0.2,0,0,-0.2,-1.2,0)"
         class="arrow"
         id="path3356"
         style="font-size:12px;fill:#0000ff;fill-rule:evenodd;stroke:#0000ff;stroke-width:1pt;stroke-linejoin:round;marker-start:none"
         inkscape:connector-curvature="0" />
    </marker>
    <marker
       refX="0"
       refY="0"
       orient="auto"
       style="overflow:visible"
       id="Arrow1Mend">
      <path
         d="M 0,0 5,-5 -12.5,0 5,5 0,0 z"
         transform="matrix(-0.4,0,0,-0.4,-4,0)"
         class="arrow"
         id="path3362"
         style="font-size:12px;fill:#0000ff;fill-rule:evenodd;stroke:#0000ff;stroke-width:1pt;stroke-linejoin:round;marker-start:none"
         inkscape:connector-curvature="0" />
    </marker>
    <marker
       refX="0"
       refY="0"
       orient="auto"
       style="overflow:visible"
       id="Arrow1Lend">
      <path
         d="M 0,0 5,-5 -12.5,0 5,5 0,0 z"
         transform="matrix(-0.8,0,0,-0.8,-10,0)"
         class="arrow"
         id="path3368"
         style="font-size:12px;fill:#0000ff;fill-rule:evenodd;stroke:#0000ff;stroke-width:1pt;stroke-linejoin:round;marker-start:none"
         inkscape:connector-curvature="0" />
    </marker>
  </defs>
  <style
     type="text/css"
     id="style3609">
		path.stroke /* arrow lines */
		{
			fill: none; fill-opacity: 0.75; fill-rule: evenodd;
			stroke: blue; stroke-width: 1px; stroke-linecap: butt; stroke-linejoin: miter; stroke-opacity:1;
			marker-end: url(#Arrow1Mend);
		}
		path.arrow /* heads */
		{
			font-size: 12px;
			fill-rule: evenodd;
			fill: blue;
			stroke: blue; stroke-width: 1pt;/*0.625*/ stroke-linejoin: round;
			marker-start: none;
		}
		text.number
		{
			font-size: 8px;
			fill: blue;
		}
		text.label
		{
			font-size: 22px;
		}
		text.cell
		{
			font-style: italic;
			text-transform: lowercase;
			fill: gray;
/*			display: none;*/
		}
/*		path.old
		{
			fill: gray;
		}
*/		path.rule
		{
			fill: none; fill-opacity: 0.75; fill-rule: evenodd;
			stroke: black; stroke-width: 1px; stroke-linecap: butt; stroke-linejoin: miter; stroke-opacity: 0.1;
		}
		path.rule[id*=&quot;V&quot;]
		{
			stroke-opacity: 0;
		}
		path#ruleH1, path#ruleV12
		{
			stroke-opacity: 0.8;
		}
		defs marker
		{
			overflow: visible;
		}
	</style>
  <!-- table rules -->
  <!-- glyphs -->
  <!-- -A -->
  <!-- -I -->
  <!-- -U -->
  <!-- -E -->
  <!-- -O -->
  <g
     id="gRO"
     transform="translate(-145.70778,-367.85965)">
    <path
       d="m 182.30253,381.04335 0.23437,-0.42187 c 0.21872,-0.18746 0.43747,-0.18746 0.65625,0 1.03122,0.62504 2.21872,1.37503 3.5625,2.25 0.56247,0.43753 0.51559,0.84378 -0.14062,1.21875 l -0.98438,0.375 c -4.56253,5.12503 -8.2969,9.31252 -11.20312,12.5625 1.53122,-0.68748 3.3906,-1.21873 5.57812,-1.59375 2.21872,-0.37498 4.78122,0.0469 7.6875,1.26563 2.93746,1.18751 4.89059,2.85939 5.85938,5.01562 0.9687,2.15626 1.26558,4.45314 0.89062,6.89062 -0.34379,2.43751 -1.31254,4.53126 -2.90625,6.28126 -1.56254,1.71875 -4.00003,2.90624 -7.3125,3.5625 -3.31253,0.68749 -7.46877,0.89062 -12.46875,0.60937 -0.15627,-1.5625 -0.51564,-2.96875 -1.07812,-4.21875 l 0,-0.1875 c 4.31247,0.46875 7.73435,0.59375 10.26562,0.375 2.53122,-0.25 4.60934,-0.875 6.23438,-1.875 1.62496,-1 2.57808,-2.54687 2.85937,-4.64062 0.31246,-2.09374 0.12496,-3.89062 -0.5625,-5.39063 -0.68754,-1.53123 -1.95316,-2.70311 -3.79687,-3.51563 -1.84379,-0.84373 -3.89066,-1.12498 -6.14063,-0.84374 -2.25002,0.28126 -4.31252,0.96876 -6.1875,2.0625 -1.84377,1.06251 -3.75002,2.37501 -5.71875,3.9375 -2.09376,2.375 -3.68751,4.20313 -4.78125,5.48437 -1.09376,-1.62499 -2.21876,-2.68749 -3.375,-3.1875 l 0,-0.5625 c 7.43749,-6.90623 14.17186,-14.12498 20.20313,-21.65625 -4.68753,0.62503 -9.37502,1.31253 -14.0625,2.0625 -0.15627,-1.43747 -0.48439,-2.76559 -0.98438,-3.98438 l 0.23438,-0.5625 c 1.93748,0.0625 4.3906,-0.0156 7.35937,-0.23437 2.96873,-0.21871 6.3281,-0.57809 10.07813,-1.07813"
       id="path2029"
       inkscape:connector-curvature="0" />
    <path
       d="m 164.88151,379.26923 17.69561,-1.45729"
       class="stroke"
       id="path32659"
       inkscape:connector-curvature="0"
       style="fill:none;stroke:#0000ff;stroke-width:1px;stroke-linecap:butt;stroke-linejoin:miter;stroke-opacity:1;marker-end:url(#Arrow1Mend)" />
    <text
       x="163.93146"
       y="377.36987"
       class="number"
       id="text4044"
       style="font-size:8px;fill:#0000ff">1</text>
    <path
       d="m 159.08858,401.09992 c 0,0 -3.52879,8.65215 -1.2343,10.87644 3.23117,3.13232 9.57834,-1.57086 13.84675,-4.80085"
       class="stroke"
       id="path33580"
       inkscape:connector-curvature="0"
       style="fill:none;stroke:#0000ff;stroke-width:1px;stroke-linecap:butt;stroke-linejoin:miter;stroke-opacity:1;marker-end:url(#Arrow1Mend)" />
    <path
       d="m 194.02723,398.10985 c 0,0 3.77333,3.64322 4.26776,7.7028 0.49444,4.05958 -2.01193,8.24175 -2.87885,10.30203"
       class="stroke"
       id="path33582"
       inkscape:connector-curvature="0"
       style="fill:none;stroke:#0000ff;stroke-width:1px;stroke-linecap:butt;stroke-linejoin:miter;stroke-opacity:1;marker-end:url(#Arrow1Mend)" />
  </g>
  <!-- column headers -->
  <!-- row headers -->
</svg>
