<?xml version="1.0" encoding="UTF-8" standalone="no"?>
<svg
   xmlns:dc="http://purl.org/dc/elements/1.1/"
   xmlns:cc="http://creativecommons.org/ns#"
   xmlns:rdf="http://www.w3.org/1999/02/22-rdf-syntax-ns#"
   xmlns:svg="http://www.w3.org/2000/svg"
   xmlns="http://www.w3.org/2000/svg"
   xmlns:sodipodi="http://sodipodi.sourceforge.net/DTD/sodipodi-0.dtd"
   xmlns:inkscape="http://www.inkscape.org/namespaces/inkscape"
   version="1.0"
   width="65"
   height="55"
   id="svg2"
   sodipodi:version="0.32"
   inkscape:version="0.48.0 r9654"
   sodipodi:docname="ru.svg"
   inkscape:output_extension="org.inkscape.output.svg.inkscape"
   inkscape:export-filename="E:\trevorde\EllieSoft\Hiragana Tracer\Resources\www\Resources\Formation\ru.png"
   inkscape:export-xdpi="360"
   inkscape:export-ydpi="360">
  <metadata
     id="metadataHiragana">
    <rdf:RDF>
      <cc:Work
         rdf:about="">
        <dc:format>image/svg+xml</dc:format>
        <dc:type
           rdf:resource="http://purl.org/dc/dcmitype/StillImage" />
        <dc:title></dc:title>
      </cc:Work>
    </rdf:RDF>
  </metadata>
  <sodipodi:namedview
     inkscape:window-height="752"
     inkscape:window-width="1280"
     inkscape:pageshadow="2"
     inkscape:pageopacity="0.0"
     guidetolerance="10.0"
     gridtolerance="10.0"
     objecttolerance="10.0"
     borderopacity="1.0"
     bordercolor="#666666"
     pagecolor="#ffffff"
     id="base"
     inkscape:zoom="10.236364"
     inkscape:cx="32.5"
     inkscape:cy="27.5"
     inkscape:window-x="0"
     inkscape:window-y="150"
     inkscape:current-layer="svg2"
     showgrid="false"
     inkscape:window-maximized="0" />
  <!-- arrow ends -->
  <defs
     id="defsHiragana">
    <marker
       refX="0"
       refY="0"
       orient="auto"
       style="overflow:visible"
       id="Arrow2Mend">
      <path
         d="M 8.7185878,4.0337352 -2.2072895,0.01601326 8.7185884,-4.0017078 c -1.7454984,2.3720609 -1.7354408,5.6174519 -6e-7,8.035443 z"
         transform="scale(-0.6,-0.6)"
         class="arrow"
         id="path3344"
         style="font-size:12px;fill:#0000ff;fill-rule:evenodd;stroke:#0000ff;stroke-width:1pt;stroke-linejoin:round;marker-start:none"
         inkscape:connector-curvature="0" />
    </marker>
    <marker
       refX="0"
       refY="0"
       orient="auto"
       style="overflow:visible"
       id="Arrow2Send">
      <path
         d="M 8.7185878,4.0337352 -2.2072895,0.01601326 8.7185884,-4.0017078 c -1.7454984,2.3720609 -1.7354408,5.6174519 -6e-7,8.035443 z"
         transform="matrix(-0.3,0,0,-0.3,0.69,0)"
         class="arrow"
         id="path3338"
         style="font-size:12px;fill:#0000ff;fill-rule:evenodd;stroke:#0000ff;stroke-width:1pt;stroke-linejoin:round;marker-start:none"
         inkscape:connector-curvature="0" />
    </marker>
    <marker
       refX="0"
       refY="0"
       orient="auto"
       style="overflow:visible"
       id="Arrow1Send">
      <path
         d="M 0,0 5,-5 -12.5,0 5,5 0,0 z"
         transform="matrix(-0.2,0,0,-0.2,-1.2,0)"
         class="arrow"
         id="path3356"
         style="font-size:12px;fill:#0000ff;fill-rule:evenodd;stroke:#0000ff;stroke-width:1pt;stroke-linejoin:round;marker-start:none"
         inkscape:connector-curvature="0" />
    </marker>
    <marker
       refX="0"
       refY="0"
       orient="auto"
       style="overflow:visible"
       id="Arrow1Mend">
      <path
         d="M 0,0 5,-5 -12.5,0 5,5 0,0 z"
         transform="matrix(-0.4,0,0,-0.4,-4,0)"
         class="arrow"
         id="path3362"
         style="font-size:12px;fill:#0000ff;fill-rule:evenodd;stroke:#0000ff;stroke-width:1pt;stroke-linejoin:round;marker-start:none"
         inkscape:connector-curvature="0" />
    </marker>
    <marker
       refX="0"
       refY="0"
       orient="auto"
       style="overflow:visible"
       id="Arrow1Lend">
      <path
         d="M 0,0 5,-5 -12.5,0 5,5 0,0 z"
         transform="matrix(-0.8,0,0,-0.8,-10,0)"
         class="arrow"
         id="path3368"
         style="font-size:12px;fill:#0000ff;fill-rule:evenodd;stroke:#0000ff;stroke-width:1pt;stroke-linejoin:round;marker-start:none"
         inkscape:connector-curvature="0" />
    </marker>
  </defs>
  <style
     type="text/css"
     id="style3609">
		path.stroke /* arrow lines */
		{
			fill: none; fill-opacity: 0.75; fill-rule: evenodd;
			stroke: blue; stroke-width: 1px; stroke-linecap: butt; stroke-linejoin: miter; stroke-opacity:1;
			marker-end: url(#Arrow1Mend);
		}
		path.arrow /* heads */
		{
			font-size: 12px;
			fill-rule: evenodd;
			fill: blue;
			stroke: blue; stroke-width: 1pt;/*0.625*/ stroke-linejoin: round;
			marker-start: none;
		}
		text.number
		{
			font-size: 8px;
			fill: blue;
		}
		text.label
		{
			font-size: 22px;
		}
		text.cell
		{
			font-style: italic;
			text-transform: lowercase;
			fill: gray;
/*			display: none;*/
		}
/*		path.old
		{
			fill: gray;
		}
*/		path.rule
		{
			fill: none; fill-opacity: 0.75; fill-rule: evenodd;
			stroke: black; stroke-width: 1px; stroke-linecap: butt; stroke-linejoin: miter; stroke-opacity: 0.1;
		}
		path.rule[id*=&quot;V&quot;]
		{
			stroke-opacity: 0;
		}
		path#ruleH1, path#ruleV12
		{
			stroke-opacity: 0.8;
		}
		defs marker
		{
			overflow: visible;
		}
	</style>
  <!-- table rules -->
  <!-- glyphs -->
  <!-- -A -->
  <!-- -I -->
  <!-- -U -->
  <g
     id="gRU"
     transform="translate(-145.8808,-206.6351)">
    <path
       d="m 183.29339,219.32995 c -0.10937,0 -0.20315,0.0625 -0.3125,0.15625 l -0.25,0.40625 c -3.75003,0.50004 -7.09379,0.87504 -10.0625,1.09375 -2.96876,0.21878 -5.43753,0.28129 -7.375,0.21875 l -0.21875,0.5625 c 0.49999,1.21879 0.81247,2.56253 0.96875,4 4.68748,-0.74997 9.37497,-1.43747 14.0625,-2.0625 -6.03127,7.53127 -12.75003,14.75002 -20.1875,21.65625 l 0,0.5625 c 1.15624,0.50001 2.28122,1.56251 3.375,3.1875 1.09374,-1.28124 2.68747,-3.12499 4.78125,-5.5 1.96874,-1.56249 3.87496,-2.87498 5.71875,-3.9375 1.87498,-1.09374 3.93746,-1.78123 6.1875,-2.0625 2.24997,-0.28124 4.28121,2e-5 6.125,0.84375 1.84371,0.81252 3.12495,2.03127 3.8125,3.625 0.68747,1.56251 0.90619,3.03126 0.65625,4.40625 -0.21878,1.37501 -0.81255,2.59376 -1.78125,3.65625 -0.93753,1.0625 -1.9688,1.90625 -3.09375,2.53125 -1.03128,-1.90625 -2.12504,-3.34374 -3.25,-4.3125 -1.09378,-0.96874 -2.56254,-1.78124 -4.40625,-2.40625 -1.84378,-0.62498 -3.50003,-0.62499 -4.96875,-0.0312 -1.43752,0.56251 -2.59378,1.68751 -3.46875,3.40625 -0.84377,1.71876 -0.87503,3.40625 -0.0937,5.03125 0.78123,1.625 2.18747,2.71875 4.21875,3.3125 2.03122,0.59374 4.40621,0.71875 7.09375,0.34375 2.68747,-0.34375 5.12495,-1.15625 7.34375,-2.40625 2.24996,-1.28125 3.87495,-2.6875 4.875,-4.25 1.03121,-1.56249 1.68744,-3.21874 1.9375,-4.96875 0.24996,-1.74999 -0.0938,-3.68749 -1.03125,-5.8125 -0.93754,-2.15623 -2.87506,-3.84373 -5.8125,-5.03125 -2.90628,-1.21873 -5.4688,-1.62498 -7.6875,-1.25 -2.18752,0.37502 -4.06254,0.90627 -5.59375,1.59375 2.90622,-3.24998 6.6562,-7.43747 11.21875,-12.5625 l 0.96875,-0.375 c 0.65621,-0.37497 0.7187,-0.78122 0.15625,-1.21875 -1.34378,-0.87497 -2.5313,-1.62496 -3.5625,-2.25 -0.10939,-0.0937 -0.23438,-0.15625 -0.34375,-0.15625 z m -7.6875,29.75 c 0.18506,0.009 0.35937,0.0234 0.5625,0.0625 1.65622,0.31251 2.78121,0.87501 3.375,1.65625 0.62497,0.75 1.2812,1.90625 1.9375,3.46875 -0.65628,0.125 -1.59379,0.25 -2.78125,0.375 -1.18753,0.0937 -2.53129,-0.0625 -4.0625,-0.46875 -1.53127,-0.4375 -2.06254,-1.46874 -1.59375,-3.0625 0.41014,-1.42188 1.26707,-2.09277 2.5625,-2.03125 z"
       id="path2035"
       inkscape:connector-curvature="0" />
    <path
       d="m 165.97654,217.91284 17.11294,-1.1802"
       class="stroke"
       id="path42847"
       inkscape:connector-curvature="0"
       style="fill:none;stroke:#0000ff;stroke-width:1px;stroke-linecap:butt;stroke-linejoin:miter;stroke-opacity:1;marker-end:url(#Arrow1Mend)" />
    <text
       x="165.55107"
       y="215.87212"
       class="number"
       id="text3852"
       style="font-size:8px;fill:#0000ff">1</text>
    <path
       d="m 159.48157,241.6738 c 0,0 -5.16365,9.85788 -2.71222,11.68342 2.45143,1.82553 7.9132,-1.95823 11.04269,-3.79118"
       class="stroke"
       id="path43738"
       inkscape:connector-curvature="0"
       style="fill:none;stroke:#0000ff;stroke-width:1px;stroke-linecap:butt;stroke-linejoin:miter;stroke-opacity:1;marker-end:url(#Arrow1Mend)" />
    <path
       d="m 191.73317,233.66983 c 3.15001,2.18432 7.39381,4.06679 8.42738,9.0502 1.03356,4.98342 -2.76787,9.27614 -4.24684,11.49888"
       class="stroke"
       id="path45530"
       inkscape:connector-curvature="0"
       style="fill:none;stroke:#0000ff;stroke-width:1px;stroke-linecap:butt;stroke-linejoin:miter;stroke-opacity:1;marker-end:url(#Arrow1Mend)" />
  </g>
  <!-- -E -->
  <!-- -O -->
  <!-- column headers -->
  <!-- row headers -->
</svg>
