<?xml version="1.0" encoding="UTF-8" standalone="no"?>
<svg
   xmlns:dc="http://purl.org/dc/elements/1.1/"
   xmlns:cc="http://creativecommons.org/ns#"
   xmlns:rdf="http://www.w3.org/1999/02/22-rdf-syntax-ns#"
   xmlns:svg="http://www.w3.org/2000/svg"
   xmlns="http://www.w3.org/2000/svg"
   xmlns:sodipodi="http://sodipodi.sourceforge.net/DTD/sodipodi-0.dtd"
   xmlns:inkscape="http://www.inkscape.org/namespaces/inkscape"
   version="1.0"
   width="65"
   height="55"
   id="svg2"
   sodipodi:version="0.32"
   inkscape:version="0.48.0 r9654"
   sodipodi:docname="to.svg"
   inkscape:output_extension="org.inkscape.output.svg.inkscape"
   inkscape:export-filename="E:\trevorde\EllieSoft\Hiragana Tracer\Resources\www\Resources\Formation\to.png"
   inkscape:export-xdpi="360"
   inkscape:export-ydpi="360">
  <metadata
     id="metadataHiragana">
    <rdf:RDF>
      <cc:Work
         rdf:about="">
        <dc:format>image/svg+xml</dc:format>
        <dc:type
           rdf:resource="http://purl.org/dc/dcmitype/StillImage" />
        <dc:title></dc:title>
      </cc:Work>
    </rdf:RDF>
  </metadata>
  <sodipodi:namedview
     inkscape:window-height="708"
     inkscape:window-width="1024"
     inkscape:pageshadow="2"
     inkscape:pageopacity="0.0"
     guidetolerance="10.0"
     gridtolerance="10.0"
     objecttolerance="10.0"
     borderopacity="1.0"
     bordercolor="#666666"
     pagecolor="#ffffff"
     id="base"
     inkscape:zoom="9.4363636"
     inkscape:cx="32.5"
     inkscape:cy="27.5"
     inkscape:window-x="125"
     inkscape:window-y="125"
     inkscape:current-layer="svg2"
     showgrid="false"
     inkscape:window-maximized="0" />
  <!-- arrow ends -->
  <defs
     id="defsHiragana">
    <marker
       refX="0"
       refY="0"
       orient="auto"
       style="overflow:visible"
       id="Arrow2Mend">
      <path
         d="M 8.7185878,4.0337352 -2.2072895,0.01601326 8.7185884,-4.0017078 c -1.7454984,2.3720609 -1.7354408,5.6174519 -6e-7,8.035443 z"
         transform="scale(-0.6,-0.6)"
         class="arrow"
         id="path3344"
         style="font-size:12px;fill:#0000ff;fill-rule:evenodd;stroke:#0000ff;stroke-width:1pt;stroke-linejoin:round;marker-start:none"
         inkscape:connector-curvature="0" />
    </marker>
    <marker
       refX="0"
       refY="0"
       orient="auto"
       style="overflow:visible"
       id="Arrow2Send">
      <path
         d="M 8.7185878,4.0337352 -2.2072895,0.01601326 8.7185884,-4.0017078 c -1.7454984,2.3720609 -1.7354408,5.6174519 -6e-7,8.035443 z"
         transform="matrix(-0.3,0,0,-0.3,0.69,0)"
         class="arrow"
         id="path3338"
         style="font-size:12px;fill:#0000ff;fill-rule:evenodd;stroke:#0000ff;stroke-width:1pt;stroke-linejoin:round;marker-start:none"
         inkscape:connector-curvature="0" />
    </marker>
    <marker
       refX="0"
       refY="0"
       orient="auto"
       style="overflow:visible"
       id="Arrow1Send">
      <path
         d="M 0,0 5,-5 -12.5,0 5,5 0,0 z"
         transform="matrix(-0.2,0,0,-0.2,-1.2,0)"
         class="arrow"
         id="path3356"
         style="font-size:12px;fill:#0000ff;fill-rule:evenodd;stroke:#0000ff;stroke-width:1pt;stroke-linejoin:round;marker-start:none"
         inkscape:connector-curvature="0" />
    </marker>
    <marker
       refX="0"
       refY="0"
       orient="auto"
       style="overflow:visible"
       id="Arrow1Mend">
      <path
         d="M 0,0 5,-5 -12.5,0 5,5 0,0 z"
         transform="matrix(-0.4,0,0,-0.4,-4,0)"
         class="arrow"
         id="path3362"
         style="font-size:12px;fill:#0000ff;fill-rule:evenodd;stroke:#0000ff;stroke-width:1pt;stroke-linejoin:round;marker-start:none"
         inkscape:connector-curvature="0" />
    </marker>
    <marker
       refX="0"
       refY="0"
       orient="auto"
       style="overflow:visible"
       id="Arrow1Lend">
      <path
         d="M 0,0 5,-5 -12.5,0 5,5 0,0 z"
         transform="matrix(-0.8,0,0,-0.8,-10,0)"
         class="arrow"
         id="path3368"
         style="font-size:12px;fill:#0000ff;fill-rule:evenodd;stroke:#0000ff;stroke-width:1pt;stroke-linejoin:round;marker-start:none"
         inkscape:connector-curvature="0" />
    </marker>
  </defs>
  <style
     type="text/css"
     id="style3609">
		path.stroke /* arrow lines */
		{
			fill: none; fill-opacity: 0.75; fill-rule: evenodd;
			stroke: blue; stroke-width: 1px; stroke-linecap: butt; stroke-linejoin: miter; stroke-opacity:1;
			marker-end: url(#Arrow1Mend);
		}
		path.arrow /* heads */
		{
			font-size: 12px;
			fill-rule: evenodd;
			fill: blue;
			stroke: blue; stroke-width: 1pt;/*0.625*/ stroke-linejoin: round;
			marker-start: none;
		}
		text.number
		{
			font-size: 8px;
			fill: blue;
		}
		text.label
		{
			font-size: 22px;
		}
		text.cell
		{
			font-style: italic;
			text-transform: lowercase;
			fill: gray;
/*			display: none;*/
		}
/*		path.old
		{
			fill: gray;
		}
*/		path.rule
		{
			fill: none; fill-opacity: 0.75; fill-rule: evenodd;
			stroke: black; stroke-width: 1px; stroke-linecap: butt; stroke-linejoin: miter; stroke-opacity: 0.1;
		}
		path.rule[id*=&quot;V&quot;]
		{
			stroke-opacity: 0;
		}
		path#ruleH1, path#ruleV12
		{
			stroke-opacity: 0.8;
		}
		defs marker
		{
			overflow: visible;
		}
	</style>
  <!-- table rules -->
  <!-- glyphs -->
  <!-- -A -->
  <!-- -I -->
  <!-- -U -->
  <!-- -E -->
  <!-- -O -->
  <g
     id="gTO"
     transform="translate(-465.23683,-369.69513)">
    <path
       d="m 507.29514,391.32191 0.32813,-0.65624 c 0.24996,-0.53123 0.54684,-0.59373 0.89062,-0.1875 l 3.14062,3.70312 c 0.0937,0.50002 -0.10941,0.75002 -0.60937,0.75 -0.59379,2e-5 -2.14066,0.37502 -4.64063,1.125 -2.46878,0.75002 -5.40627,1.89065 -8.8125,3.42188 -3.37502,1.50001 -5.70314,2.79689 -6.98437,3.89062 -1.25002,1.06251 -2.20314,2.21876 -2.85937,3.46875 -0.62502,1.21876 -0.78127,2.46876 -0.46876,3.75 0.34374,1.25001 0.87499,2.10938 1.59376,2.57813 0.74998,0.4375 1.8906,0.79687 3.42187,1.07812 1.53123,0.25 3.71873,0.34375 6.5625,0.28125 2.87497,-0.0625 6.79684,-0.35937 11.76563,-0.89063 l 0.14062,0.28126 c -0.25004,1.21875 -0.45316,2.82812 -0.60938,4.82812 -5.00003,0 -9.0469,0 -12.14062,0 -3.06252,0 -5.76564,-0.23438 -8.10938,-0.70312 -2.34376,-0.46875 -4.01563,-1.29688 -5.01562,-2.48438 -1.00001,-1.1875 -1.65626,-2.60937 -1.96875,-4.26562 -0.28126,-1.6875 -0.0781,-3.32812 0.60937,-4.92188 0.71874,-1.62499 1.73437,-3.07811 3.04688,-4.35938 1.31249,-1.31248 2.96873,-2.5156 4.96875,-3.60937 -1.06252,-3.78123 -1.71877,-7.29685 -1.96875,-10.54687 -0.25002,-3.24997 -0.60939,-5.01559 -1.07812,-5.29688 -2e-5,-0.49996 0.2656,-0.74996 0.79687,-0.75 l 4.45313,-0.14062 c 0.40622,0.15628 0.48435,0.40628 0.23437,0.75 l -0.375,0.9375 c 0.18748,5.93752 0.79685,10.29689 1.82813,13.07812 3.15622,-1.49998 7.10934,-3.2031 11.85937,-5.10938"
       id="path2131"
       inkscape:connector-curvature="0" />
    <path
       d="m 496.72636,376.14647 3.53913,13.94831"
       class="stroke"
       id="path47399"
       inkscape:connector-curvature="0"
       style="fill:none;stroke:#0000ff;stroke-width:1px;stroke-linecap:butt;stroke-linejoin:miter;stroke-opacity:1;marker-end:url(#Arrow1Mend)" />
    <text
       x="499.99606"
       y="381.91833"
       class="number"
       id="text4100"
       style="font-size:8px;fill:#0000ff">1</text>
    <path
       d="m 511.69543,398.63959 -12.6599,5.00508"
       class="stroke"
       id="path48320"
       inkscape:connector-curvature="0"
       style="fill:none;stroke:#0000ff;stroke-width:1px;stroke-linecap:butt;stroke-linejoin:miter;stroke-opacity:1;marker-end:url(#Arrow1Mend)" />
    <text
       x="508.38693"
       y="407.09094"
       class="number"
       id="text4103"
       style="font-size:8px;fill:#0000ff">2</text>
  </g>
  <!-- column headers -->
  <!-- row headers -->
</svg>
