<?xml version="1.0" encoding="UTF-8" standalone="no"?>
<svg
   xmlns:dc="http://purl.org/dc/elements/1.1/"
   xmlns:cc="http://creativecommons.org/ns#"
   xmlns:rdf="http://www.w3.org/1999/02/22-rdf-syntax-ns#"
   xmlns:svg="http://www.w3.org/2000/svg"
   xmlns="http://www.w3.org/2000/svg"
   xmlns:sodipodi="http://sodipodi.sourceforge.net/DTD/sodipodi-0.dtd"
   xmlns:inkscape="http://www.inkscape.org/namespaces/inkscape"
   version="1.0"
   width="65"
   height="55"
   id="svg2"
   sodipodi:version="0.32"
   inkscape:version="0.48.0 r9654"
   sodipodi:docname="we.svg"
   inkscape:output_extension="org.inkscape.output.svg.inkscape"
   inkscape:export-filename="E:\trevorde\EllieSoft\Hiragana Tracer\Resources\www\Resources\Formation\we.png"
   inkscape:export-xdpi="360"
   inkscape:export-ydpi="360">
  <metadata
     id="metadataHiragana">
    <rdf:RDF>
      <cc:Work
         rdf:about="">
        <dc:format>image/svg+xml</dc:format>
        <dc:type
           rdf:resource="http://purl.org/dc/dcmitype/StillImage" />
        <dc:title></dc:title>
      </cc:Work>
    </rdf:RDF>
  </metadata>
  <sodipodi:namedview
     inkscape:window-height="708"
     inkscape:window-width="1024"
     inkscape:pageshadow="2"
     inkscape:pageopacity="0.0"
     guidetolerance="10.0"
     gridtolerance="10.0"
     objecttolerance="10.0"
     borderopacity="1.0"
     bordercolor="#666666"
     pagecolor="#ffffff"
     id="base"
     inkscape:zoom="9.4363636"
     inkscape:cx="32.5"
     inkscape:cy="27.5"
     inkscape:window-x="75"
     inkscape:window-y="75"
     inkscape:current-layer="svg2"
     showgrid="false"
     inkscape:window-maximized="0" />
  <!-- arrow ends -->
  <defs
     id="defsHiragana">
    <marker
       refX="0"
       refY="0"
       orient="auto"
       style="overflow:visible"
       id="Arrow2Mend">
      <path
         d="M 8.7185878,4.0337352 -2.2072895,0.01601326 8.7185884,-4.0017078 c -1.7454984,2.3720609 -1.7354408,5.6174519 -6e-7,8.035443 z"
         transform="scale(-0.6,-0.6)"
         class="arrow"
         id="path3344"
         style="font-size:12px;fill:#0000ff;fill-rule:evenodd;stroke:#0000ff;stroke-width:1pt;stroke-linejoin:round;marker-start:none"
         inkscape:connector-curvature="0" />
    </marker>
    <marker
       refX="0"
       refY="0"
       orient="auto"
       style="overflow:visible"
       id="Arrow2Send">
      <path
         d="M 8.7185878,4.0337352 -2.2072895,0.01601326 8.7185884,-4.0017078 c -1.7454984,2.3720609 -1.7354408,5.6174519 -6e-7,8.035443 z"
         transform="matrix(-0.3,0,0,-0.3,0.69,0)"
         class="arrow"
         id="path3338"
         style="font-size:12px;fill:#0000ff;fill-rule:evenodd;stroke:#0000ff;stroke-width:1pt;stroke-linejoin:round;marker-start:none"
         inkscape:connector-curvature="0" />
    </marker>
    <marker
       refX="0"
       refY="0"
       orient="auto"
       style="overflow:visible"
       id="Arrow1Send">
      <path
         d="M 0,0 5,-5 -12.5,0 5,5 0,0 z"
         transform="matrix(-0.2,0,0,-0.2,-1.2,0)"
         class="arrow"
         id="path3356"
         style="font-size:12px;fill:#0000ff;fill-rule:evenodd;stroke:#0000ff;stroke-width:1pt;stroke-linejoin:round;marker-start:none"
         inkscape:connector-curvature="0" />
    </marker>
    <marker
       refX="0"
       refY="0"
       orient="auto"
       style="overflow:visible"
       id="Arrow1Mend">
      <path
         d="M 0,0 5,-5 -12.5,0 5,5 0,0 z"
         transform="matrix(-0.4,0,0,-0.4,-4,0)"
         class="arrow"
         id="path3362"
         style="font-size:12px;fill:#0000ff;fill-rule:evenodd;stroke:#0000ff;stroke-width:1pt;stroke-linejoin:round;marker-start:none"
         inkscape:connector-curvature="0" />
    </marker>
    <marker
       refX="0"
       refY="0"
       orient="auto"
       style="overflow:visible"
       id="Arrow1Lend">
      <path
         d="M 0,0 5,-5 -12.5,0 5,5 0,0 z"
         transform="matrix(-0.8,0,0,-0.8,-10,0)"
         class="arrow"
         id="path3368"
         style="font-size:12px;fill:#0000ff;fill-rule:evenodd;stroke:#0000ff;stroke-width:1pt;stroke-linejoin:round;marker-start:none"
         inkscape:connector-curvature="0" />
    </marker>
  </defs>
  <style
     type="text/css"
     id="style3609">
		path.stroke /* arrow lines */
		{
			fill: none; fill-opacity: 0.75; fill-rule: evenodd;
			stroke: blue; stroke-width: 1px; stroke-linecap: butt; stroke-linejoin: miter; stroke-opacity:1;
			marker-end: url(#Arrow1Mend);
		}
		path.arrow /* heads */
		{
			font-size: 12px;
			fill-rule: evenodd;
			fill: blue;
			stroke: blue; stroke-width: 1pt;/*0.625*/ stroke-linejoin: round;
			marker-start: none;
		}
		text.number
		{
			font-size: 8px;
			fill: blue;
		}
		text.label
		{
			font-size: 22px;
		}
		text.cell
		{
			font-style: italic;
			text-transform: lowercase;
			fill: gray;
/*			display: none;*/
		}
/*		path.old
		{
			fill: gray;
		}
*/		path.rule
		{
			fill: none; fill-opacity: 0.75; fill-rule: evenodd;
			stroke: black; stroke-width: 1px; stroke-linecap: butt; stroke-linejoin: miter; stroke-opacity: 0.1;
		}
		path.rule[id*=&quot;V&quot;]
		{
			stroke-opacity: 0;
		}
		path#ruleH1, path#ruleV12
		{
			stroke-opacity: 0.8;
		}
		defs marker
		{
			overflow: visible;
		}
	</style>
  <!-- table rules -->
  <!-- glyphs -->
  <!-- -A -->
  <!-- -I -->
  <!-- -U -->
  <!-- -E -->
  <g
     id="gWE"
     transform="translate(-80.282392,-290.0241)">
    <path
       d="m 114.68607,299.90768 c -0.10937,0 -0.20314,0.0313 -0.3125,0.125 l -0.625,0.71875 c -3.59378,0.50004 -6.18752,0.78129 -7.78125,0.875 -1.56252,0.0938 -3.25002,0.12503 -5.0625,0.0625 l -0.125,0.375 c 0.68749,1.31254 1.06249,2.46878 1.125,3.46875 4.46873,-0.74997 7.87498,-1.31247 10.21875,-1.6875 -3.65627,3.93752 -9.00002,8.53127 -16.031248,13.78125 l 0,0.375 c 1.21874,0.93752 2.21875,1.96877 3.03125,3.125 1.218738,-1.34373 2.906238,-2.96873 5.031248,-4.875 l -0.625,0.65625 c 1.24998,-0.99998 2.74998,-1.87498 4.5,-2.625 1.74997,-0.78123 3.53123,-1.21873 5.3125,-1.3125 1.81247,-0.12498 3.31247,0.0313 4.53125,0.46875 1.24996,0.43752 2.15622,1.09377 2.6875,1.96875 0.53122,0.84377 0.71872,1.90627 0.5625,3.15625 -0.15628,1.21877 -0.62504,2.21876 -1.375,3 -0.71879,0.78127 -1.50003,1.37501 -2.34375,1.78125 -0.81253,0.37501 -1.46878,0.62501 -1.96875,0.75 0.28122,-0.53124 0.40622,-1.18749 0.375,-1.9375 -3e-5,-0.78123 -0.40628,-1.62498 -1.21875,-2.53125 -0.81253,-0.90623 -1.96878,-1.43749 -3.46875,-1.625 -1.50003,-0.21873 -2.78127,-0.12498 -3.875,0.3125 -1.09377,0.43752 -1.96877,1.28126 -2.59375,2.5 -0.59377,1.18752 -0.62502,2.31251 -0.125,3.40625 0.49998,1.09376 1.37498,1.93751 2.625,2.5 -1.37502,0.9375 -3.375,2.28125 -5.96875,4.03125 -2.593758,1.75001 -5.968758,3.6875 -10.156248,5.84375 l 0,0.375 c 1.03125,1.21875 1.87499,2.40625 2.5625,3.5625 3.78124,-2.71875 7.062488,-5.03125 9.812498,-6.9375 3.46873,-1.125 5.46873,-1.25 6,-0.40625 0.56248,0.84376 0.90623,1.6875 1.03125,2.5625 0.12498,0.875 0.12498,1.96875 0,3.28125 l 4.125,0 c 0.12497,-1.25 0.74997,-2.375 1.90625,-3.375 1.18747,-1.03125 2.31246,-1.8125 3.375,-2.375 1.09371,-0.59375 2.31247,-0.99999 3.625,-1.1875 1.31246,-0.21874 2.49996,-0.0937 3.59375,0.375 1.0937,0.46875 1.78121,1.0625 2.03125,1.78125 0.24996,0.6875 0.24995,1.125 0.0312,1.28125 -0.2188,0.15625 -0.81255,0.375 -1.78125,0.65625 -0.96879,0.25001 -2.40629,0.40625 -4.34375,0.5 l 0,0.46875 c 0.56247,0.84375 0.99996,2 1.3125,3.46875 3.56246,-0.875 5.87495,-1.5 6.96875,-1.875 1.0937,-0.34375 1.87495,-0.84376 2.34375,-1.53125 0.4687,-0.6875 0.4062,-1.78125 -0.21875,-3.28125 -0.62504,-1.53124 -1.9688,-2.84374 -4,-3.90625 -2.03129,-1.09374 -4.09379,-1.46874 -6.1875,-1.125 -2.09379,0.34376 -3.87503,0.90625 -5.375,1.65625 -1.50003,0.71876 -2.90628,1.65626 -4.21875,2.84375 -0.71877,-2.37499 -2.37502,-3.5 -4.96875,-3.40625 1.28123,-0.87499 2.37498,-1.68749 3.28125,-2.40625 0.62498,10e-6 1.65623,-0.0312 3.09375,-0.125 1.43747,-0.12499 3.03122,-0.68749 4.8125,-1.65625 1.78121,-0.96874 3.12497,-2.06249 4,-3.3125 0.87496,-1.24998 1.34371,-2.56249 1.4375,-3.9375 0.0937,-1.37497 -0.21879,-2.81248 -0.9375,-4.28125 -0.71879,-1.46873 -2.21878,-2.59372 -4.53125,-3.375 -2.28128,-0.81247 -4.28128,-1.09372 -5.96875,-0.84375 -1.65628,0.25003 -2.93752,0.56252 -3.875,0.90625 2.06248,-1.96873 4.53122,-4.34372 7.40625,-7.09375 l 1.15625,-0.375 c 0.84371,-0.31247 0.90622,-0.71872 0.15625,-1.21875 -1.46878,-0.87496 -2.68753,-1.62496 -3.65625,-2.25 -0.10939,-0.0937 -0.23438,-0.125 -0.34375,-0.125 z m -5.28125,20.9375 c 1.03123,-0.12498 1.78122,0.15626 2.28125,0.8125 0.53122,0.65626 0.12497,1.53126 -1.21875,2.625 -0.53128,-0.0625 -1.12503,-0.15624 -1.78125,-0.25 -0.62502,-0.0937 -0.90627,-0.59374 -0.875,-1.53125 0.0625,-0.96873 0.59373,-1.53123 1.59375,-1.65625 z"
       class="old"
       id="path2255"
       inkscape:connector-curvature="0" />
    <path
       d="M 99.512691,298.9797 114.2335,297.50761"
       class="stroke"
       id="path7764"
       inkscape:connector-curvature="0"
       style="fill:none;stroke:#0000ff;stroke-width:1px;stroke-linecap:butt;stroke-linejoin:miter;stroke-opacity:1;marker-end:url(#Arrow1Mend)" />
    <text
       x="98.875938"
       y="296.9838"
       class="number"
       id="text3941"
       style="font-size:8px;fill:#0000ff">1</text>
    <path
       d="m 120.53838,308.79903 c 0,0 4.94436,0.6766 6.76597,3.64322 1.82161,2.96662 0.68476,6.90349 0.44686,9.10651"
       class="stroke"
       id="path8685"
       inkscape:connector-curvature="0"
       style="fill:none;stroke:#0000ff;stroke-width:1px;stroke-linecap:butt;stroke-linejoin:miter;stroke-opacity:1;marker-end:url(#Arrow1Mend)" />
    <path
       d="m 91.416244,334.16244 c 0,0 -6.645835,3.74586 -4.121828,6.77157 2.524006,3.02571 11.836515,0.24253 15.573834,-0.71755"
       class="stroke"
       id="path9602"
       inkscape:connector-curvature="0"
       style="fill:none;stroke:#0000ff;stroke-width:1px;stroke-linecap:butt;stroke-linejoin:miter;stroke-opacity:1;marker-end:url(#Arrow1Mend)" />
    <path
       d="m 128.95431,327.31725 c 4.94988,-0.1288 7.56282,4.25064 9.49493,6.55077"
       class="stroke"
       id="path10519"
       inkscape:connector-curvature="0"
       style="fill:none;stroke:#0000ff;stroke-width:1px;stroke-linecap:butt;stroke-linejoin:miter;stroke-opacity:1;marker-end:url(#Arrow1Mend)" />
  </g>
  <!-- -O -->
  <!-- column headers -->
  <!-- row headers -->
</svg>
