<?xml version="1.0" encoding="UTF-8" standalone="no"?>
<svg
   xmlns:dc="http://purl.org/dc/elements/1.1/"
   xmlns:cc="http://creativecommons.org/ns#"
   xmlns:rdf="http://www.w3.org/1999/02/22-rdf-syntax-ns#"
   xmlns:svg="http://www.w3.org/2000/svg"
   xmlns="http://www.w3.org/2000/svg"
   xmlns:sodipodi="http://sodipodi.sourceforge.net/DTD/sodipodi-0.dtd"
   xmlns:inkscape="http://www.inkscape.org/namespaces/inkscape"
   version="1.0"
   width="65"
   height="55"
   id="svg2"
   sodipodi:version="0.32"
   inkscape:version="0.48.0 r9654"
   sodipodi:docname="wi.svg"
   inkscape:output_extension="org.inkscape.output.svg.inkscape"
   inkscape:export-filename="E:\trevorde\EllieSoft\Hiragana Tracer\Resources\www\Resources\Formation\wi.png"
   inkscape:export-xdpi="360"
   inkscape:export-ydpi="360">
  <metadata
     id="metadataHiragana">
    <rdf:RDF>
      <cc:Work
         rdf:about="">
        <dc:format>image/svg+xml</dc:format>
        <dc:type
           rdf:resource="http://purl.org/dc/dcmitype/StillImage" />
        <dc:title></dc:title>
      </cc:Work>
    </rdf:RDF>
  </metadata>
  <sodipodi:namedview
     inkscape:window-height="752"
     inkscape:window-width="1280"
     inkscape:pageshadow="2"
     inkscape:pageopacity="0.0"
     guidetolerance="10.0"
     gridtolerance="10.0"
     objecttolerance="10.0"
     borderopacity="1.0"
     bordercolor="#666666"
     pagecolor="#ffffff"
     id="base"
     inkscape:zoom="10.236364"
     inkscape:cx="32.5"
     inkscape:cy="27.5"
     inkscape:window-x="0"
     inkscape:window-y="100"
     inkscape:current-layer="svg2"
     showgrid="false"
     inkscape:window-maximized="0" />
  <!-- arrow ends -->
  <defs
     id="defsHiragana">
    <marker
       refX="0"
       refY="0"
       orient="auto"
       style="overflow:visible"
       id="Arrow2Mend">
      <path
         d="M 8.7185878,4.0337352 -2.2072895,0.01601326 8.7185884,-4.0017078 c -1.7454984,2.3720609 -1.7354408,5.6174519 -6e-7,8.035443 z"
         transform="scale(-0.6,-0.6)"
         class="arrow"
         id="path3344"
         style="font-size:12px;fill:#0000ff;fill-rule:evenodd;stroke:#0000ff;stroke-width:1pt;stroke-linejoin:round;marker-start:none"
         inkscape:connector-curvature="0" />
    </marker>
    <marker
       refX="0"
       refY="0"
       orient="auto"
       style="overflow:visible"
       id="Arrow2Send">
      <path
         d="M 8.7185878,4.0337352 -2.2072895,0.01601326 8.7185884,-4.0017078 c -1.7454984,2.3720609 -1.7354408,5.6174519 -6e-7,8.035443 z"
         transform="matrix(-0.3,0,0,-0.3,0.69,0)"
         class="arrow"
         id="path3338"
         style="font-size:12px;fill:#0000ff;fill-rule:evenodd;stroke:#0000ff;stroke-width:1pt;stroke-linejoin:round;marker-start:none"
         inkscape:connector-curvature="0" />
    </marker>
    <marker
       refX="0"
       refY="0"
       orient="auto"
       style="overflow:visible"
       id="Arrow1Send">
      <path
         d="M 0,0 5,-5 -12.5,0 5,5 0,0 z"
         transform="matrix(-0.2,0,0,-0.2,-1.2,0)"
         class="arrow"
         id="path3356"
         style="font-size:12px;fill:#0000ff;fill-rule:evenodd;stroke:#0000ff;stroke-width:1pt;stroke-linejoin:round;marker-start:none"
         inkscape:connector-curvature="0" />
    </marker>
    <marker
       refX="0"
       refY="0"
       orient="auto"
       style="overflow:visible"
       id="Arrow1Mend">
      <path
         d="M 0,0 5,-5 -12.5,0 5,5 0,0 z"
         transform="matrix(-0.4,0,0,-0.4,-4,0)"
         class="arrow"
         id="path3362"
         style="font-size:12px;fill:#0000ff;fill-rule:evenodd;stroke:#0000ff;stroke-width:1pt;stroke-linejoin:round;marker-start:none"
         inkscape:connector-curvature="0" />
    </marker>
    <marker
       refX="0"
       refY="0"
       orient="auto"
       style="overflow:visible"
       id="Arrow1Lend">
      <path
         d="M 0,0 5,-5 -12.5,0 5,5 0,0 z"
         transform="matrix(-0.8,0,0,-0.8,-10,0)"
         class="arrow"
         id="path3368"
         style="font-size:12px;fill:#0000ff;fill-rule:evenodd;stroke:#0000ff;stroke-width:1pt;stroke-linejoin:round;marker-start:none"
         inkscape:connector-curvature="0" />
    </marker>
  </defs>
  <style
     type="text/css"
     id="style3609">
		path.stroke /* arrow lines */
		{
			fill: none; fill-opacity: 0.75; fill-rule: evenodd;
			stroke: blue; stroke-width: 1px; stroke-linecap: butt; stroke-linejoin: miter; stroke-opacity:1;
			marker-end: url(#Arrow1Mend);
		}
		path.arrow /* heads */
		{
			font-size: 12px;
			fill-rule: evenodd;
			fill: blue;
			stroke: blue; stroke-width: 1pt;/*0.625*/ stroke-linejoin: round;
			marker-start: none;
		}
		text.number
		{
			font-size: 8px;
			fill: blue;
		}
		text.label
		{
			font-size: 22px;
		}
		text.cell
		{
			font-style: italic;
			text-transform: lowercase;
			fill: gray;
/*			display: none;*/
		}
/*		path.old
		{
			fill: gray;
		}
*/		path.rule
		{
			fill: none; fill-opacity: 0.75; fill-rule: evenodd;
			stroke: black; stroke-width: 1px; stroke-linecap: butt; stroke-linejoin: miter; stroke-opacity: 0.1;
		}
		path.rule[id*=&quot;V&quot;]
		{
			stroke-opacity: 0;
		}
		path#ruleH1, path#ruleV12
		{
			stroke-opacity: 0.8;
		}
		defs marker
		{
			overflow: visible;
		}
	</style>
  <!-- table rules -->
  <!-- glyphs -->
  <!-- -A -->
  <!-- -I -->
  <g
     id="gWI"
     transform="translate(-81.699751,-130.2697)">
    <path
       d="m 114.45561,143.03685 c -0.10937,0 -0.20313,0.0313 -0.3125,0.125 l -0.53125,0.8125 c -3.53127,0.81253 -6.03127,1.34378 -7.53125,1.625 -1.46876,0.25003 -3.18751,0.40628 -5.125,0.4375 l -0.21875,0.59375 c 1.09374,1.21878 1.81248,2.40628 2.1875,3.5625 3.87498,-1.12497 7.24998,-2.03122 10.09375,-2.71875 -0.43752,2.43753 -0.90627,4.71878 -1.40625,6.84375 -0.25002,0.0625 -0.90628,0.25002 -1.9375,0.53125 -1.03127,0.25002 -2.87501,1.09377 -5.53125,2.5625 -2.65626,1.46877 -4.812515,3.43751 -6.500002,5.875 -1.65626,2.43751 -2.531253,4.75001 -2.625,6.96875 -0.09375,2.21876 0.156242,3.90625 0.78125,5.0625 0.65624,1.125 1.562487,2 2.6875,2.625 1.12499,0.59375 2.218732,0.87499 3.312502,0.8125 1.12498,-0.0937 2.31249,-0.59375 3.53125,-1.46875 1.24998,-0.875 2.65623,-2.8125 4.21875,-5.84375 1.59373,-3.06248 2.78123,-5.78124 3.59375,-8.15625 0.81248,-2.37499 1.43748,-4.40623 1.875,-6.0625 1.65623,-0.15623 3.46873,-0.18748 5.4375,-0.0937 1.96872,0.0938 3.74997,0.56252 5.3125,1.40625 1.59371,0.81252 2.74996,2.03126 3.46875,3.625 0.74996,1.59376 1.06247,3.15626 0.96875,4.71875 -0.0938,1.56251 -0.78128,3.21875 -2.0625,4.9375 -2.37503,-2.43749 -4.46878,-3.81249 -6.3125,-4.125 -1.81253,-0.34373 -3.43753,-0.15624 -4.875,0.5625 -1.43752,0.71876 -2.25002,2.15626 -2.4375,4.34375 -0.18752,2.1875 0.28123,3.9375 1.40625,5.25 1.15622,1.28125 2.81247,1.93749 4.96875,1.9375 2.18747,0.0312 4.31246,-0.625 6.40625,-1.9375 2.12496,-1.34375 3.81246,-2.96875 5.03125,-4.90625 1.21871,-1.93749 1.87496,-3.9375 2,-6 0.15621,-2.09373 -0.21879,-4.12498 -1.15625,-6.0625 -0.90629,-1.93748 -2.75004,-3.59373 -5.53125,-5 -2.75003,-1.43747 -5.18754,-2.15623 -7.28125,-2.15625 -2.06253,2e-5 -3.50003,3e-5 -4.34375,0.0312 0.53122,-2.12497 1.09372,-4.46872 1.6875,-7.03125 l 0.65625,-0.3125 c 0.74997,-0.34372 0.78122,-0.74997 0.0937,-1.1875 -1.34378,-0.71872 -2.56253,-1.40622 -3.65625,-2.0625 -0.10938,-0.0937 -0.23437,-0.125 -0.34375,-0.125 z m -3.875,15.28125 c -0.28127,1.03127 -0.84377,2.75001 -1.65625,5.15625 -0.81252,2.37501 -1.84376,4.65626 -3.09375,6.84375 -1.25001,2.18751 -2.18751,3.5 -2.84375,3.9375 -0.65626,0.40626 -1.34376,0.5 -2.03125,0.3125 -0.6875,-0.21875 -1.218765,-0.71875 -1.625002,-1.5 -0.37501,-0.81249 -0.531251,-1.90624 -0.4375,-3.28125 0.125,-1.40624 0.874987,-3.09374 2.218752,-5.0625 1.37499,-1.96873 3.03124,-3.43748 4.96875,-4.40625 1.96873,-0.96873 3.46873,-1.62498 4.5,-2 z m 9.46875,12.28125 c 0.1919,-0.002 0.375,0 0.59375,0.0312 1.78122,0.25001 3.37497,1.53125 4.75,3.8125 -0.25003,0.18751 -0.84378,0.5625 -1.78125,1.15625 -0.90628,0.5625 -2.09378,0.78125 -3.53125,0.625 -1.40627,-0.15625 -2.09378,-1.1875 -2.09375,-3.09375 0.0273,-1.66796 0.71923,-2.51415 2.0625,-2.53125 z"
       class="old"
       id="path2261"
       inkscape:connector-curvature="0" />
    <path
       d="m 99.517652,142.91475 16.064698,-2.71222"
       class="stroke"
       id="path25876"
       inkscape:connector-curvature="0"
       style="fill:none;stroke:#0000ff;stroke-width:1px;stroke-linecap:butt;stroke-linejoin:miter;stroke-opacity:1;marker-end:url(#Arrow1Mend)" />
    <text
       x="101.07877"
       y="139.44202"
       class="number"
       id="text3768"
       style="font-size:8px;fill:#0000ff">1</text>
    <path
       d="M 104.83778,181.40742 C 88.068949,182.11156 92.580624,165.70784 93.571628,161.06576"
       class="stroke"
       id="path26767"
       inkscape:connector-curvature="0"
       style="fill:none;stroke:#0000ff;stroke-width:1px;stroke-linecap:butt;stroke-linejoin:miter;stroke-opacity:1;marker-end:url(#Arrow1Mend)" />
    <path
       d="m 124.86649,152.9291 c 11.21398,0.88669 11.52694,7.14565 12.83089,11.89204"
       class="stroke"
       id="path30313"
       inkscape:connector-curvature="0"
       style="fill:none;stroke:#0000ff;stroke-width:1px;stroke-linecap:butt;stroke-linejoin:miter;stroke-opacity:1;marker-end:url(#Arrow1Mend)" />
  </g>
  <!-- -U -->
  <!-- -E -->
  <!-- -O -->
  <!-- column headers -->
  <!-- row headers -->
</svg>
