<?xml version="1.0" encoding="UTF-8" standalone="no"?>
<!-- Created with Inkscape (http://www.inkscape.org/) -->

<svg
   xmlns:dc="http://purl.org/dc/elements/1.1/"
   xmlns:cc="http://creativecommons.org/ns#"
   xmlns:rdf="http://www.w3.org/1999/02/22-rdf-syntax-ns#"
   xmlns:svg="http://www.w3.org/2000/svg"
   xmlns="http://www.w3.org/2000/svg"
   xmlns:sodipodi="http://sodipodi.sourceforge.net/DTD/sodipodi-0.dtd"
   xmlns:inkscape="http://www.inkscape.org/namespaces/inkscape"
   width="63"
   height="150"
   id="svg4005"
   version="1.1"
   inkscape:version="0.48.0 r9654"
   sodipodi:docname="Lower_V.svg">
  <defs
     id="defs4007">
    <inkscape:perspective
       sodipodi:type="inkscape:persp3d"
       inkscape:vp_x="0 : 526.18109 : 1"
       inkscape:vp_y="0 : 1000 : 0"
       inkscape:vp_z="744.09448 : 526.18109 : 1"
       inkscape:persp3d-origin="372.04724 : 350.78739 : 1"
       id="perspective4013" />
  </defs>
  <sodipodi:namedview
     id="base"
     pagecolor="#ffffff"
     bordercolor="#666666"
     borderopacity="1.0"
     inkscape:pageopacity="0.0"
     inkscape:pageshadow="2"
     inkscape:zoom="2.42"
     inkscape:cx="31.5"
     inkscape:cy="75"
     inkscape:document-units="mm"
     inkscape:current-layer="flowRoot4015"
     showgrid="false"
     units="mm"
     borderlayer="true"
     inkscape:window-width="1200"
     inkscape:window-height="581"
     inkscape:window-x="108"
     inkscape:window-y="128"
     inkscape:window-maximized="0"
     showguides="true"
     inkscape:guide-bbox="true" />
  <metadata
     id="metadata4010">
    <rdf:RDF>
      <cc:Work
         rdf:about="">
        <dc:format>image/svg+xml</dc:format>
        <dc:type
           rdf:resource="http://purl.org/dc/dcmitype/StillImage" />
        <dc:title />
      </cc:Work>
    </rdf:RDF>
  </metadata>
  <g
     inkscape:label="Layer 1"
     inkscape:groupmode="layer"
     id="layer1"
     transform="translate(-795.21624,-329.85747)">
    <g
       transform="translate(4.6357211,285.08907)"
       style="font-size:144px;font-style:normal;font-variant:normal;font-weight:normal;font-stretch:normal;text-align:start;line-height:125%;writing-mode:lr-tb;text-anchor:start;fill:none;stroke:#000000;stroke-opacity:1;font-family:Chalkboard;-inkscape-font-specification:Chalkboard"
       id="flowRoot4015">
      <path
         d="m 838.60322,83.541907 c 1.0607,-1.803236 2.2806,-2.970086 3.6597,-3.500546 1.485,-0.63639 2.864,-0.74247 4.137,-0.31823 1.3789,0.3183 2.4927,1.16692 3.3414,2.54585 0.9547,1.272996 1.379,2.917196 1.2729,4.932596 -1.4851,5.72824 -3.2354,11.350343 -5.2508,16.866313 -1.9094,5.40999 -3.8188,10.87296 -5.7282,16.38895 -1.8033,5.09174 -3.6066,10.13041 -5.4099,15.11602 -1.6973,4.87957 -3.6067,9.75912 -5.7282,14.63868 -1.9094,2.3337 -4.031,3.34143 -6.3646,3.0232 -2.3338,-0.31823 -4.1371,-1.80332 -5.41,-4.45525 -3.8188,-10.07733 -7.7436,-20.0486 -11.7746,-29.91381 -3.9248,-9.86515 -8.327,-19.57122 -13.2066,-29.118243 -1.0608,-2.12149 -1.326,-3.97784 -0.7956,-5.56906 0.5304,-1.697166 1.4321,-2.917056 2.705,-3.659666 1.2729,-0.84855 2.758,-1.11374 4.4553,-0.79558 1.8033,0.3183 3.3944,1.43211 4.7734,3.34143 3.7127,7.425476 7.2133,14.956969 10.5017,22.594489 3.2884,7.63761 6.4707,15.38124 9.547,23.23094 0.7425,-2.01545 1.432,-4.03091 2.0685,-6.04641 0.7425,-2.01544 1.485,-4.03091 2.2276,-6.04641 1.9093,-5.51598 3.8187,-10.97896 5.7282,-16.38895 1.9093,-5.515983 3.6596,-11.138073 5.2508,-16.866313"
         style="fill:#000000;stroke:#000000;stroke-opacity:1;fill-opacity:1"
         id="path4087" />
    </g>
  </g>
</svg>
