<?xml version="1.0" encoding="UTF-8" standalone="no"?>
<!-- Created with Inkscape (http://www.inkscape.org/) -->

<svg
   xmlns:dc="http://purl.org/dc/elements/1.1/"
   xmlns:cc="http://creativecommons.org/ns#"
   xmlns:rdf="http://www.w3.org/1999/02/22-rdf-syntax-ns#"
   xmlns:svg="http://www.w3.org/2000/svg"
   xmlns="http://www.w3.org/2000/svg"
   xmlns:sodipodi="http://sodipodi.sourceforge.net/DTD/sodipodi-0.dtd"
   xmlns:inkscape="http://www.inkscape.org/namespaces/inkscape"
   width="65"
   height="150"
   id="svg4005"
   version="1.1"
   inkscape:version="0.48.0 r9654"
   sodipodi:docname="Lower_G.svg">
  <defs
     id="defs4007">
    <inkscape:perspective
       sodipodi:type="inkscape:persp3d"
       inkscape:vp_x="0 : 526.18109 : 1"
       inkscape:vp_y="0 : 1000 : 0"
       inkscape:vp_z="744.09448 : 526.18109 : 1"
       inkscape:persp3d-origin="372.04724 : 350.78739 : 1"
       id="perspective4013" />
  </defs>
  <sodipodi:namedview
     id="base"
     pagecolor="#ffffff"
     bordercolor="#666666"
     borderopacity="1.0"
     inkscape:pageopacity="0.0"
     inkscape:pageshadow="2"
     inkscape:zoom="2.22"
     inkscape:cx="37.5"
     inkscape:cy="75"
     inkscape:document-units="mm"
     inkscape:current-layer="flowRoot4015"
     showgrid="false"
     units="mm"
     borderlayer="true"
     inkscape:window-width="1200"
     inkscape:window-height="581"
     inkscape:window-x="108"
     inkscape:window-y="128"
     inkscape:window-maximized="0"
     showguides="true"
     inkscape:guide-bbox="true" />
  <metadata
     id="metadata4010">
    <rdf:RDF>
      <cc:Work
         rdf:about="">
        <dc:format>image/svg+xml</dc:format>
        <dc:type
           rdf:resource="http://purl.org/dc/dcmitype/StillImage" />
        <dc:title />
      </cc:Work>
    </rdf:RDF>
  </metadata>
  <g
     inkscape:label="Layer 1"
     inkscape:groupmode="layer"
     id="layer1"
     transform="translate(-795.21624,-329.85747)">
    <g
       transform="translate(4.6357211,285.08907)"
       style="font-size:144px;font-style:normal;font-variant:normal;font-weight:normal;font-stretch:normal;text-align:start;line-height:125%;writing-mode:lr-tb;text-anchor:start;fill:none;stroke:#000000;stroke-opacity:1;font-family:Chalkboard;-inkscape-font-specification:Chalkboard"
       id="flowRoot4015">
      <path
         d="m 797.60428,183.95461 c -1.37902,-1.37903 -2.22763,-2.86411 -2.54585,-4.45525 -0.21217,-1.59118 -1e-5,-2.97019 0.63646,-4.13701 0.74253,-1.16688 1.85634,-2.06853 3.34144,-2.70497 1.48506,-0.53041 3.23534,-0.47737 5.25082,0.15911 1.37899,0.74252 2.54584,1.37898 3.50056,1.90939 0.95467,0.63644 1.90936,1.16683 2.86409,1.59116 0.95466,0.53037 1.90936,0.95467 2.86408,1.27293 1.06075,0.31821 2.28064,0.63644 3.65967,0.9547 1.90936,0.42428 3.97787,0.63644 6.20553,0.63646 2.22758,-2e-5 4.40216,-0.26522 6.52375,-0.79558 2.22758,-0.53041 4.24305,-1.37903 6.04641,-2.54585 1.90934,-1.16688 3.39442,-2.705 4.45525,-4.61437 0.74249,-1.27294 1.1668,-2.81106 1.27293,-4.61436 0.10602,-1.80333 0.15906,-3.44753 0.15912,-4.9326 l 0,-10.34254 c -1.6973,0.84862 -3.39453,1.53812 -5.09172,2.06851 -1.69728,0.53038 -3.44756,1.06077 -5.25083,1.59116 -2.5459,0.53038 -5.09175,0.84861 -7.63756,0.95469 -2.5459,0.21215 -5.09175,0.053 -7.63757,-0.47735 -5.51605,-0.95469 -10.13041,-3.18232 -13.8431,-6.68287 -3.71272,-3.50054 -6.52377,-7.63756 -8.43315,-12.41105 -1.80332,-4.77346 -2.75801,-9.86517 -2.86409,-15.27514 0,-5.4099 0.90166,-10.50161 2.70498,-15.27513 1.48507,-3.81874 3.65965,-7.31929 6.52375,-10.501659 2.86407,-3.18226 6.09943,-5.675075 9.70608,-7.478453 3.6066,-1.909325 7.47842,-3.023136 11.61547,-3.341436 4.13698,-0.318164 8.16791,0.424377 12.09282,2.227624 3.07619,1.485147 5.99331,3.129345 8.75138,4.932597 0.63641,-1.485021 1.53806,-2.545793 2.70497,-3.182321 1.16679,-0.742476 2.38668,-1.007669 3.65967,-0.79558 1.27286,0.106142 2.43971,0.636529 3.50055,1.59116 1.16679,0.954759 2.0154,2.333763 2.54586,4.137017 l 0,67.783421 c -7e-5,5.72816 -0.84869,10.60772 -2.54586,14.63868 -1.6973,4.13698 -4.98569,7.79665 -9.86519,10.979 -2.01553,1.27289 -4.19011,2.3867 -6.52376,3.34144 -2.33375,0.95466 -4.66745,1.53808 -7.0011,1.75027 -5.09175,0.63643 -9.97131,0.42427 -14.63868,-0.63646 -3.3945,-0.74258 -6.25858,-1.75031 -8.59226,-3.0232 -2.33372,-1.16689 -5.03869,-2.59893 -8.11492,-4.29614 m 43.12044,-47.41657 c 0.42426,-0.21214 0.79553,-0.31822 1.11382,-0.31823 l 0,-28.64089 c -0.10614,5e-5 -0.15918,-0.053 -0.15912,-0.15911 -2.1216,-2.01543 -4.56138,-3.92482 -7.31934,-5.72818 -2.65198,-1.80326 -5.46302,-3.12923 -8.43315,-3.977898 -1.27296,0.106132 -2.54589,0.212209 -3.81878,0.318228 -1.27296,0.10613 -2.54589,0.21221 -3.81879,0.31823 -0.84865,0.42437 -1.7503,0.84867 -2.70497,1.27293 -0.84865,0.42436 -1.69726,0.84867 -2.54585,1.27293 -5.30389,5.40999 -8.22102,10.92601 -8.75139,16.54807 -0.42432,5.62212 0.90164,11.82764 3.97791,18.61657 0.53036,0.63648 1.11378,1.27294 1.75027,1.90939 0.63644,0.63648 1.21986,1.27294 1.75028,1.90939 10.18339,5.09172 19.83642,3.97791 28.95911,-3.34143"
         style="fill:#000000;stroke:#000000;stroke-opacity:1"
         id="path4057" />
    </g>
  </g>
</svg>
