<?xml version="1.0" encoding="UTF-8" standalone="no"?>
<!-- Created with Inkscape (http://www.inkscape.org/) -->

<svg
   xmlns:dc="http://purl.org/dc/elements/1.1/"
   xmlns:cc="http://creativecommons.org/ns#"
   xmlns:rdf="http://www.w3.org/1999/02/22-rdf-syntax-ns#"
   xmlns:svg="http://www.w3.org/2000/svg"
   xmlns="http://www.w3.org/2000/svg"
   xmlns:sodipodi="http://sodipodi.sourceforge.net/DTD/sodipodi-0.dtd"
   xmlns:inkscape="http://www.inkscape.org/namespaces/inkscape"
   width="94"
   height="150"
   id="svg4005"
   version="1.1"
   inkscape:version="0.48.0 r9654"
   sodipodi:docname="Lower_M.svg">
  <defs
     id="defs4007">
    <inkscape:perspective
       sodipodi:type="inkscape:persp3d"
       inkscape:vp_x="0 : 526.18109 : 1"
       inkscape:vp_y="0 : 1000 : 0"
       inkscape:vp_z="744.09448 : 526.18109 : 1"
       inkscape:persp3d-origin="372.04724 : 350.78739 : 1"
       id="perspective4013" />
  </defs>
  <sodipodi:namedview
     id="base"
     pagecolor="#ffffff"
     bordercolor="#666666"
     borderopacity="1.0"
     inkscape:pageopacity="0.0"
     inkscape:pageshadow="2"
     inkscape:zoom="2.22"
     inkscape:cx="37.499999"
     inkscape:cy="88.077674"
     inkscape:document-units="mm"
     inkscape:current-layer="flowRoot4015"
     showgrid="false"
     units="mm"
     borderlayer="true"
     inkscape:window-width="1200"
     inkscape:window-height="581"
     inkscape:window-x="108"
     inkscape:window-y="128"
     inkscape:window-maximized="0"
     showguides="true"
     inkscape:guide-bbox="true" />
  <metadata
     id="metadata4010">
    <rdf:RDF>
      <cc:Work
         rdf:about="">
        <dc:format>image/svg+xml</dc:format>
        <dc:type
           rdf:resource="http://purl.org/dc/dcmitype/StillImage" />
        <dc:title />
      </cc:Work>
    </rdf:RDF>
  </metadata>
  <g
     inkscape:label="Layer 1"
     inkscape:groupmode="layer"
     id="layer1"
     transform="translate(-795.21624,-288.88108)">
    <g
       transform="translate(4.6357211,285.08907)"
       style="font-size:144px;font-style:normal;font-variant:normal;font-weight:normal;font-stretch:normal;text-align:start;line-height:125%;writing-mode:lr-tb;text-anchor:start;fill:none;stroke:#000000;stroke-opacity:1;font-family:Chalkboard;-inkscape-font-specification:Chalkboard"
       id="flowRoot4015">
      <path
         d="m 831.17775,67.058172 c -4e-5,-0.31818 0.053,-0.53034 0.15912,-0.63646 -0.10612,-0.31819 -0.15916,-0.7425 -0.15912,-1.27293 l 0,-1.75027 c -1.27297,-3.28835 -3.28844,-5.675086 -6.0464,-7.160226 -2.75805,-1.48502 -5.78126,-2.2806 -9.06962,-2.38674 -2.33373,0.7426 -4.56135,1.85641 -6.68287,3.34144 l -3.34144,4.296126 c -0.31825,0.42436 -0.63648,0.79563 -0.95469,1.11382 -0.31826,0.2122 -0.63649,0.42435 -0.9547,0.63646 l 0,43.756908 c -0.1061,2.43978 -0.84864,4.24309 -2.22762,5.40994 -1.27295,1.27293 -2.70499,1.90939 -4.29614,1.90939 -1.48509,0 -2.8641,-0.58342 -4.13701,-1.75027 -1.27294,-1.06078 -2.06852,-2.75801 -2.38674,-5.09172 l 0,-61.577891 c 0.53038,-2.12148 1.37899,-3.6596 2.54585,-4.61436 1.16684,-1.060704 2.49281,-1.591094 3.9779,-1.591164 1.27292,7e-5 2.49281,0.47742 3.65967,1.432044 1.27291,0.84869 2.17457,2.2277 2.70497,4.13702 1.69722,-1.16678 3.71269,-2.22756 6.04641,-3.18232 2.43975,-1.0607 4.98561,-1.591094 7.63757,-1.591164 3.81875,7e-5 7.69057,1.007804 11.61547,3.023204 4.03089,1.90946 7.26625,4.34924 9.70608,7.31934 1.16679,-1.16679 2.38668,-2.33364 3.65967,-3.50055 1.37894,-1.27287 2.81099,-2.38668 4.29613,-3.34144 1.48502,-1.0607 3.02314,-1.90932 4.61437,-2.54586 1.59109,-0.74247 3.18224,-1.113744 4.77348,-1.113814 3.28832,7e-5 6.52367,0.583504 9.70607,1.750284 3.18224,1.06084 5.99329,2.59896 8.43315,4.61436 2.54577,1.90946 4.56123,4.19012 6.04641,6.84199 1.59106,2.545907 2.38664,5.250877 2.38674,8.114913 -10e-5,0.2122 -0.0531,0.37132 -0.15911,0.47735 -10e-5,0.10612 -10e-5,0.26524 0,0.47735 0.10597,0.10612 0.15901,0.2122 0.15911,0.31823 -10e-5,0.10612 0.0529,0.2122 0.15912,0.31823 l 0,43.120438 c -0.10618,2.43978 -0.84872,4.2431 -2.22763,5.40995 -1.27302,1.27292 -2.70506,1.90939 -4.29613,1.90939 -1.48517,0 -2.86418,-0.58343 -4.13702,-1.75028 -1.27301,-1.06077 -2.06859,-2.75801 -2.38674,-5.09171 l 0,-43.597788 c -1.16693,-3.71266 -2.97025,-6.205466 -5.40994,-7.478446 -2.43986,-1.37895 -4.87963,-2.068447 -7.31934,-2.068507 -2.75808,6e-5 -5.25089,0.689557 -7.47845,2.068507 -2.22769,1.37906 -4.08404,3.924906 -5.56906,7.637566 l 0,42.802208 c -0.10614,2.43978 -0.84868,4.29613 -2.22763,5.56906 -1.27298,1.16685 -2.70502,1.75027 -4.29613,1.75027 -1.48513,0 -2.86414,-0.58342 -4.13702,-1.75027 -1.27297,-1.06078 -2.06855,-2.75801 -2.38674,-5.09172 l 0,-39.619888 0,0"
         style="fill:#000000;stroke:#000000;stroke-opacity:1"
         id="path4069" />
    </g>
  </g>
</svg>
