<?xml version="1.0" encoding="UTF-8" standalone="no"?>
<!-- Created with Inkscape (http://www.inkscape.org/) -->

<svg
   xmlns:dc="http://purl.org/dc/elements/1.1/"
   xmlns:cc="http://creativecommons.org/ns#"
   xmlns:rdf="http://www.w3.org/1999/02/22-rdf-syntax-ns#"
   xmlns:svg="http://www.w3.org/2000/svg"
   xmlns="http://www.w3.org/2000/svg"
   xmlns:sodipodi="http://sodipodi.sourceforge.net/DTD/sodipodi-0.dtd"
   xmlns:inkscape="http://www.inkscape.org/namespaces/inkscape"
   width="20"
   height="150"
   id="svg4005"
   version="1.1"
   inkscape:version="0.48.0 r9654"
   sodipodi:docname="Lower_I.svg">
  <defs
     id="defs4007">
    <inkscape:perspective
       sodipodi:type="inkscape:persp3d"
       inkscape:vp_x="0 : 526.18109 : 1"
       inkscape:vp_y="0 : 1000 : 0"
       inkscape:vp_z="744.09448 : 526.18109 : 1"
       inkscape:persp3d-origin="372.04724 : 350.78739 : 1"
       id="perspective4013" />
  </defs>
  <sodipodi:namedview
     id="base"
     pagecolor="#ffffff"
     bordercolor="#666666"
     borderopacity="1.0"
     inkscape:pageopacity="0.0"
     inkscape:pageshadow="2"
     inkscape:zoom="2.22"
     inkscape:cx="37.5"
     inkscape:cy="75"
     inkscape:document-units="mm"
     inkscape:current-layer="flowRoot4015"
     showgrid="false"
     units="mm"
     borderlayer="true"
     inkscape:window-width="1200"
     inkscape:window-height="581"
     inkscape:window-x="108"
     inkscape:window-y="128"
     inkscape:window-maximized="0"
     showguides="true"
     inkscape:guide-bbox="true" />
  <metadata
     id="metadata4010">
    <rdf:RDF>
      <cc:Work
         rdf:about="">
        <dc:format>image/svg+xml</dc:format>
        <dc:type
           rdf:resource="http://purl.org/dc/dcmitype/StillImage" />
        <dc:title />
      </cc:Work>
    </rdf:RDF>
  </metadata>
  <g
     inkscape:label="Layer 1"
     inkscape:groupmode="layer"
     id="layer1"
     transform="translate(-795.21624,-329.85747)">
    <g
       transform="translate(4.6357211,285.08907)"
       style="font-size:144px;font-style:normal;font-variant:normal;font-weight:normal;font-stretch:normal;text-align:start;line-height:125%;writing-mode:lr-tb;text-anchor:start;fill:none;stroke:#000000;stroke-opacity:1;font-family:Chalkboard;-inkscape-font-specification:Chalkboard"
       id="flowRoot4015">
      <path
         d="m 805.71882,145.97269 c -0.10609,2.43979 -0.84861,4.2431 -2.22757,5.40995 -1.27291,1.27292 -2.70492,1.90939 -4.29602,1.90939 -1.48506,0 -2.86403,-0.58343 -4.13691,-1.75028 -1.2729,-1.06077 -2.06846,-2.758 -2.38668,-5.09171 -0.10608,-9.97125 -0.21216,-20.15467 -0.31823,-30.55028 -1e-5,-10.39554 -0.053,-20.578949 -0.1591,-30.55028 0.53035,-2.12148 1.37895,-3.71264 2.54578,-4.773481 1.16681,-1.0607 2.49275,-1.59109 3.9778,-1.59116 1.37896,7e-5 2.65185,0.47742 3.81869,1.43204 1.27287,0.954771 2.17451,2.439851 2.70491,4.455251 0.10604,9.971331 0.15908,20.15474 0.15911,30.55028 0.10605,10.3956 0.21213,20.57903 0.31822,30.55028 M 791.08051,59.413567 c 0,-2.33361 0.74253,-4.296041 2.22758,-5.887301 1.48503,-1.69713 3.28829,-2.54575 5.4098,-2.54585 2.12148,1e-4 3.92474,0.84872 5.40981,2.54585 1.59109,1.59126 2.38665,3.553691 2.38668,5.887301 -3e-5,2.22771 -0.79559,4.19014 -2.38668,5.887291 -1.48507,1.59124 -3.28833,2.38682 -5.40981,2.38674 -2.12151,8e-5 -3.92477,-0.7955 -5.4098,-2.38674 -1.48505,-1.697151 -2.22758,-3.659581 -2.22758,-5.887291"
         style="fill:#0000ff;stroke:#000000;stroke-width:0.99998748000000004;stroke-opacity:1"
         id="path4061" />
    </g>
  </g>
</svg>
