<?xml version="1.0" encoding="UTF-8" standalone="no"?>
<!-- Created with Inkscape (http://www.inkscape.org/) -->

<svg
   xmlns:dc="http://purl.org/dc/elements/1.1/"
   xmlns:cc="http://creativecommons.org/ns#"
   xmlns:rdf="http://www.w3.org/1999/02/22-rdf-syntax-ns#"
   xmlns:svg="http://www.w3.org/2000/svg"
   xmlns="http://www.w3.org/2000/svg"
   xmlns:sodipodi="http://sodipodi.sourceforge.net/DTD/sodipodi-0.dtd"
   xmlns:inkscape="http://www.inkscape.org/namespaces/inkscape"
   width="70"
   height="150"
   id="svg4005"
   version="1.1"
   inkscape:version="0.48.0 r9654"
   sodipodi:docname="Lower_X.svg">
  <defs
     id="defs4007">
    <inkscape:perspective
       sodipodi:type="inkscape:persp3d"
       inkscape:vp_x="0 : 526.18109 : 1"
       inkscape:vp_y="0 : 1000 : 0"
       inkscape:vp_z="744.09448 : 526.18109 : 1"
       inkscape:persp3d-origin="372.04724 : 350.78739 : 1"
       id="perspective4013" />
  </defs>
  <sodipodi:namedview
     id="base"
     pagecolor="#ffffff"
     bordercolor="#666666"
     borderopacity="1.0"
     inkscape:pageopacity="0.0"
     inkscape:pageshadow="2"
     inkscape:zoom="2.22"
     inkscape:cx="37.5"
     inkscape:cy="75"
     inkscape:document-units="mm"
     inkscape:current-layer="flowRoot4015"
     showgrid="false"
     units="mm"
     borderlayer="true"
     inkscape:window-width="1200"
     inkscape:window-height="581"
     inkscape:window-x="108"
     inkscape:window-y="128"
     inkscape:window-maximized="0"
     showguides="true"
     inkscape:guide-bbox="true" />
  <metadata
     id="metadata4010">
    <rdf:RDF>
      <cc:Work
         rdf:about="">
        <dc:format>image/svg+xml</dc:format>
        <dc:type
           rdf:resource="http://purl.org/dc/dcmitype/StillImage" />
        <dc:title />
      </cc:Work>
    </rdf:RDF>
  </metadata>
  <g
     inkscape:label="Layer 1"
     inkscape:groupmode="layer"
     id="layer1"
     transform="translate(-795.21624,-329.85747)">
    <g
       transform="translate(4.6357211,285.08907)"
       style="font-size:144px;font-style:normal;font-variant:normal;font-weight:normal;font-stretch:normal;text-align:start;line-height:125%;writing-mode:lr-tb;text-anchor:start;fill:none;stroke:#000000;stroke-opacity:1;font-family:Chalkboard;-inkscape-font-specification:Chalkboard"
       id="flowRoot4015">
      <path
         d="m 845.65732,78.914126 c 1.8033,-1.48501 3.5535,-2.17452 5.2508,-2.06851 1.8033,0.10615 3.2353,0.68957 4.2962,1.75027 1.0607,1.06085 1.6441,2.49289 1.7503,4.29614 0.106,1.6973 -0.5835,3.44757 -2.0686,5.25083 -3.9249,3.81884 -7.7967,7.69066 -11.6154,11.615474 -3.7128,3.9249 -7.3724,7.9028 -10.979,11.9337 4.4552,5.09174 8.6452,10.34257 12.5701,15.75248 4.0309,5.30389 7.7967,10.8199 11.2973,16.54807 0.6364,2.01547 0.6364,3.76575 0,5.25083 -0.5305,1.48508 -1.3791,2.54585 -2.5459,3.18232 -1.1669,0.74254 -2.5459,1.00773 -4.137,0.79558 -1.4851,-0.21216 -2.9702,-1.06078 -4.4552,-2.54586 -3.0763,-5.09171 -6.4178,-10.0243 -10.0244,-14.79779 -3.6066,-4.87954 -7.3724,-9.59997 -11.2972,-14.16132 -7.0011,8.59228 -13.684,17.76796 -20.0486,27.52707 -1.4851,1.80331 -3.1293,2.81104 -4.9326,3.0232 -1.6973,0.21215 -3.1823,-0.15912 -4.4553,-1.11381 -1.2729,-0.84862 -2.1215,-2.12155 -2.5458,-3.81878 -0.3183,-1.80332 0.1591,-3.71271 1.432,-5.72818 3.2884,-5.19778 6.7359,-10.28949 10.3426,-15.27514 3.7126,-4.98561 7.5314,-9.86516 11.4563,-14.63867 -3.3945,-3.71267 -6.895,-7.37233 -10.5016,-10.97901 -3.5006,-3.712654 -7.0542,-7.425364 -10.6608,-11.138124 -1.6973,-1.69718 -2.5989,-3.39441 -2.705,-5.09171 0,-1.80325 0.4774,-3.23529 1.4321,-4.29614 1.0607,-1.16678 2.4397,-1.85628 4.137,-2.0685 1.8033,-0.31816 3.6596,0.21222 5.569,1.59116 3.6066,3.71277 7.2133,7.42547 10.8199,11.13812 3.6066,3.60668 7.1072,7.266354 10.5017,10.979004 3.5005,-3.924814 7.1071,-7.796634 10.8199,-11.615474 3.7126,-3.81872 7.4784,-7.58446 11.2972,-11.29723"
         style="fill:#000000;stroke:#000000;stroke-opacity:1;fill-opacity:1"
         id="path4091" />
    </g>
  </g>
</svg>
