<?xml version="1.0" encoding="UTF-8" standalone="no"?>
<!-- Created with Inkscape (http://www.inkscape.org/) -->

<svg
   xmlns:dc="http://purl.org/dc/elements/1.1/"
   xmlns:cc="http://creativecommons.org/ns#"
   xmlns:rdf="http://www.w3.org/1999/02/22-rdf-syntax-ns#"
   xmlns:svg="http://www.w3.org/2000/svg"
   xmlns="http://www.w3.org/2000/svg"
   xmlns:sodipodi="http://sodipodi.sourceforge.net/DTD/sodipodi-0.dtd"
   xmlns:inkscape="http://www.inkscape.org/namespaces/inkscape"
   width="70"
   height="150"
   id="svg4005"
   version="1.1"
   inkscape:version="0.48.0 r9654"
   sodipodi:docname="Lower_Z.svg">
  <defs
     id="defs4007">
    <inkscape:perspective
       sodipodi:type="inkscape:persp3d"
       inkscape:vp_x="0 : 526.18109 : 1"
       inkscape:vp_y="0 : 1000 : 0"
       inkscape:vp_z="744.09448 : 526.18109 : 1"
       inkscape:persp3d-origin="372.04724 : 350.78739 : 1"
       id="perspective4013" />
  </defs>
  <sodipodi:namedview
     id="base"
     pagecolor="#ffffff"
     bordercolor="#666666"
     borderopacity="1.0"
     inkscape:pageopacity="0.0"
     inkscape:pageshadow="2"
     inkscape:zoom="2.22"
     inkscape:cx="37.5"
     inkscape:cy="75"
     inkscape:document-units="mm"
     inkscape:current-layer="flowRoot4015"
     showgrid="false"
     units="mm"
     borderlayer="true"
     inkscape:window-width="1200"
     inkscape:window-height="581"
     inkscape:window-x="81"
     inkscape:window-y="118"
     inkscape:window-maximized="0"
     showguides="true"
     inkscape:guide-bbox="true" />
  <metadata
     id="metadata4010">
    <rdf:RDF>
      <cc:Work
         rdf:about="">
        <dc:format>image/svg+xml</dc:format>
        <dc:type
           rdf:resource="http://purl.org/dc/dcmitype/StillImage" />
        <dc:title />
      </cc:Work>
    </rdf:RDF>
  </metadata>
  <g
     inkscape:label="Layer 1"
     inkscape:groupmode="layer"
     id="layer1"
     transform="translate(-795.21624,-329.85747)">
    <g
       transform="translate(4.6357211,285.08907)"
       style="font-size:144px;font-style:normal;font-variant:normal;font-weight:normal;font-stretch:normal;text-align:start;line-height:125%;writing-mode:lr-tb;text-anchor:start;fill:none;stroke:#000000;stroke-opacity:1;font-family:Chalkboard;-inkscape-font-specification:Chalkboard"
       id="flowRoot4015">
      <path
         d="m 854.10811,140.45259 c 2.2276,0.63647 3.7657,1.75028 4.6144,3.34143 0.9546,1.48509 1.2728,2.97017 0.9547,4.45525 -0.3183,1.48509 -1.22,2.75801 -2.705,3.81879 -1.3791,1.06077 -3.2354,1.43204 -5.5691,1.11381 -8.8044,-1.16685 -17.6619,-1.6442 -26.5723,-1.43205 -8.8045,0.10608 -17.6089,0.42431 -26.4133,0.9547 -3.0763,-0.42431 -5.0917,-1.6442 -6.0464,-3.65967 -0.9547,-2.12154 -0.6895,-4.50828 0.7956,-7.16022 5.7281,-8.59225 12.0397,-16.76019 18.9348,-24.50387 7.001,-7.7436 14.0021,-15.4342 21.0033,-23.071811 -5.9404,6e-5 -11.8277,0.10614 -17.6619,0.31823 -5.7282,0.21221 -11.5624,0.58348 -17.5028,1.11381 -2.0154,-0.21209 -3.6066,-0.84856 -4.7734,-1.90939 -1.1669,-1.16679 -1.8564,-2.38668 -2.0685,-3.65967 -0.1061,-1.37894 0.2651,-2.75794 1.1138,-4.13701 0.8486,-1.37894 2.2276,-2.43971 4.137,-3.18232 8.6983,-0.84855 17.3966,-1.3259 26.095,-1.43205 8.6983,-0.21208 17.4497,-0.21208 26.2542,0 2.864,0.84869 4.6143,2.43985 5.2508,4.77348 0.7425,2.22769 0.159,4.45531 -1.7503,6.68288 -7.0012,7.531531 -14.0553,15.063011 -21.1624,22.594461 -7.1072,7.42544 -13.7901,15.27516 -20.0486,23.54917 7.3193,-0.21214 14.5325,-0.26518 21.6397,-0.15911 7.1072,0.10609 14.2674,0.63647 21.4807,1.59116"
         style="fill:#000000;stroke:#000000;stroke-opacity:1;fill-opacity:1"
         id="path4095" />
    </g>
  </g>
</svg>
