<?xml version="1.0" encoding="UTF-8" standalone="no"?>
<!-- Created with Inkscape (http://www.inkscape.org/) -->

<svg
   xmlns:dc="http://purl.org/dc/elements/1.1/"
   xmlns:cc="http://creativecommons.org/ns#"
   xmlns:rdf="http://www.w3.org/1999/02/22-rdf-syntax-ns#"
   xmlns:svg="http://www.w3.org/2000/svg"
   xmlns="http://www.w3.org/2000/svg"
   xmlns:sodipodi="http://sodipodi.sourceforge.net/DTD/sodipodi-0.dtd"
   xmlns:inkscape="http://www.inkscape.org/namespaces/inkscape"
   width="70"
   height="150"
   id="svg4005"
   version="1.1"
   inkscape:version="0.48.0 r9654"
   sodipodi:docname="Lower_E.svg">
  <defs
     id="defs4007">
    <inkscape:perspective
       sodipodi:type="inkscape:persp3d"
       inkscape:vp_x="0 : 526.18109 : 1"
       inkscape:vp_y="0 : 1000 : 0"
       inkscape:vp_z="744.09448 : 526.18109 : 1"
       inkscape:persp3d-origin="372.04724 : 350.78739 : 1"
       id="perspective4013" />
  </defs>
  <sodipodi:namedview
     id="base"
     pagecolor="#ffffff"
     bordercolor="#666666"
     borderopacity="1.0"
     inkscape:pageopacity="0.0"
     inkscape:pageshadow="2"
     inkscape:zoom="2.22"
     inkscape:cx="35"
     inkscape:cy="75"
     inkscape:document-units="mm"
     inkscape:current-layer="flowRoot4015"
     showgrid="false"
     units="mm"
     borderlayer="true"
     inkscape:window-width="1200"
     inkscape:window-height="581"
     inkscape:window-x="91"
     inkscape:window-y="77"
     inkscape:window-maximized="0"
     showguides="true"
     inkscape:guide-bbox="true" />
  <metadata
     id="metadata4010">
    <rdf:RDF>
      <cc:Work
         rdf:about="">
        <dc:format>image/svg+xml</dc:format>
        <dc:type
           rdf:resource="http://purl.org/dc/dcmitype/StillImage" />
        <dc:title />
      </cc:Work>
    </rdf:RDF>
  </metadata>
  <g
     inkscape:label="Layer 1"
     inkscape:groupmode="layer"
     id="layer1"
     transform="translate(-795.21624,-329.85747)">
    <g
       transform="translate(4.6357211,285.08907)"
       style="font-size:144px;font-style:normal;font-variant:normal;font-weight:normal;font-stretch:normal;text-align:start;line-height:125%;writing-mode:lr-tb;text-anchor:start;fill:none;stroke:#000000;stroke-opacity:1;font-family:Chalkboard;-inkscape-font-specification:Chalkboard"
       id="flowRoot4015">
      <path
         d="m 844.846,137.53302 c 2.35503,-0.25951 4.23976,0.12049 5.65419,1.13999 1.4143,1.01951 2.28316,2.2783 2.6066,3.77636 0.42675,1.52488 0.19863,3.0431 -0.68434,4.55467 -0.77968,1.53837 -2.2779,2.61843 -4.49466,3.24016 -3.84794,1.06901 -7.9201,1.91667 -12.21651,2.54301 -4.29651,0.62631 -8.53036,0.72495 -12.70156,0.29591 -4.17128,-0.42905 -8.14219,-1.51325 -11.91269,-3.25258 -3.79345,-1.6365 -7.22591,-4.15844 -10.29741,-7.56583 -3.68127,-4.10945 -6.0995,-8.97919 -7.25468,-14.60924 -1.13234,-5.73288 -1.14427,-11.3384 -0.0358,-16.81655 1.1313,-5.58096 3.29153,-10.62315 6.48072,-15.126575 3.31546,-4.579377 7.59179,-7.821756 12.82903,-9.727154 5.4669,-1.954489 11.16468,-2.978897 17.0933,-3.073228 5.95141,-0.197057 11.63446,1.059196 17.04918,3.768782 2.65554,1.341457 4.89249,3.335791 6.71086,5.982992 1.84109,2.54444 3.13676,5.328114 3.88702,8.351033 0.8764,2.94696 1.0348,5.92524 0.47521,8.93482 -0.53688,2.90678 -1.86689,5.44466 -3.99001,7.61364 -2.39875,2.42392 -5.48173,4.23523 -9.24896,5.43391 -3.74451,1.09586 -7.7421,1.85408 -11.99277,2.27467 -4.12448,0.34461 -8.2549,0.47007 -12.39126,0.3764 -4.033,-0.0668 -7.58906,-0.0644 -10.6682,0.007 -1.30986,-0.0133 -2.51083,-0.27038 -3.60288,-0.77118 0.81983,3.69374 2.48949,7.00955 5.00903,9.94741 2.64576,2.86187 6.27857,4.72866 10.89844,5.6004 3.666,0.73317 7.50352,0.69493 11.51259,-0.11473 4.13526,-0.88568 7.89711,-1.81383 11.28558,-2.78444 M 821.89623,96.824521 c -4.26166,0.961756 -7.72355,3.001143 -10.38569,6.118169 -2.63933,3.01426 -4.39344,6.47561 -5.26231,10.38406 0.83836,-0.32647 1.7056,-0.53669 2.60172,-0.63069 1.97618,-0.0314 3.95237,-0.0628 5.9286,-0.0943 2.10247,-0.10743 4.19354,-0.16345 6.27321,-0.16808 1.30979,0.0134 3.06769,-0.0203 5.27366,-0.10093 2.30933,-0.0538 4.6933,-0.19703 7.15189,-0.42975 2.45848,-0.23265 4.73302,-0.62185 6.82361,-1.16756 2.11332,-0.64853 3.62896,-1.56089 4.54691,-2.73708 0.96136,-3.34054 0.64836,-5.86936 -0.93907,-7.58651 -1.58753,-1.717081 -3.67424,-2.910948 -6.2601,-3.581621 -2.58599,-0.670582 -5.37826,-0.905186 -8.37678,-0.703811 -2.97579,0.09861 -5.43433,0.33129 -7.37565,0.698063"
         style="fill:#0000ff;stroke:#000000;stroke-opacity:1"
         id="path4053" />
    </g>
  </g>
</svg>
