<?xml version="1.0" encoding="UTF-8" standalone="no"?>
<!-- Created with Inkscape (http://www.inkscape.org/) -->

<svg
   xmlns:dc="http://purl.org/dc/elements/1.1/"
   xmlns:cc="http://creativecommons.org/ns#"
   xmlns:rdf="http://www.w3.org/1999/02/22-rdf-syntax-ns#"
   xmlns:svg="http://www.w3.org/2000/svg"
   xmlns="http://www.w3.org/2000/svg"
   xmlns:sodipodi="http://sodipodi.sourceforge.net/DTD/sodipodi-0.dtd"
   xmlns:inkscape="http://www.inkscape.org/namespaces/inkscape"
   width="57"
   height="150"
   id="svg4005"
   version="1.1"
   inkscape:version="0.48.0 r9654"
   sodipodi:docname="Lower_F.svg">
  <defs
     id="defs4007">
    <inkscape:perspective
       sodipodi:type="inkscape:persp3d"
       inkscape:vp_x="0 : 526.18109 : 1"
       inkscape:vp_y="0 : 1000 : 0"
       inkscape:vp_z="744.09448 : 526.18109 : 1"
       inkscape:persp3d-origin="372.04724 : 350.78739 : 1"
       id="perspective4013" />
  </defs>
  <sodipodi:namedview
     id="base"
     pagecolor="#ffffff"
     bordercolor="#666666"
     borderopacity="1.0"
     inkscape:pageopacity="0.0"
     inkscape:pageshadow="2"
     inkscape:zoom="2.22"
     inkscape:cx="37.5"
     inkscape:cy="75"
     inkscape:document-units="mm"
     inkscape:current-layer="flowRoot4015"
     showgrid="false"
     units="mm"
     borderlayer="true"
     inkscape:window-width="1200"
     inkscape:window-height="581"
     inkscape:window-x="108"
     inkscape:window-y="128"
     inkscape:window-maximized="0"
     showguides="true"
     inkscape:guide-bbox="true" />
  <metadata
     id="metadata4010">
    <rdf:RDF>
      <cc:Work
         rdf:about="">
        <dc:format>image/svg+xml</dc:format>
        <dc:type
           rdf:resource="http://purl.org/dc/dcmitype/StillImage" />
        <dc:title />
      </cc:Work>
    </rdf:RDF>
  </metadata>
  <g
     inkscape:label="Layer 1"
     inkscape:groupmode="layer"
     id="layer1"
     transform="translate(-795.21624,-329.85747)">
    <g
       transform="translate(4.6357211,285.08907)"
       style="font-size:144px;font-style:normal;font-variant:normal;font-weight:normal;font-stretch:normal;text-align:start;line-height:125%;writing-mode:lr-tb;text-anchor:start;fill:none;stroke:#000000;stroke-opacity:1;font-family:Chalkboard;-inkscape-font-specification:Chalkboard"
       id="flowRoot4015">
      <path
         d="m 814.31142,147.97269 c -0.1061,2.43978 -0.8486,4.24309 -2.2276,5.40994 -1.273,1.27293 -2.705,1.90939 -4.2961,1.90939 -1.4851,0 -2.8641,-0.58342 -4.137,-1.75027 -1.273,-1.06078 -2.0686,-2.75801 -2.3868,-5.09172 l 0,-45.18895 -3.3414,0 c -2.3337,-0.31818 -4.084,-1.11376 -5.2509,-2.38674 -1.0607,-1.272868 -1.5911,-2.651878 -1.5911,-4.137008 0,-1.48503 0.5834,-2.91707 1.7503,-4.29613 1.2729,-1.48502 3.1292,-2.22756 5.569,-2.22763 l 2.8641,0 0,-17.82099 c 0,-3.712626 0.5834,-7.160136 1.7503,-10.342546 1.1668,-3.18222 2.758,-5.88719 4.7735,-8.11491 2.1215,-2.3336 4.6143,-4.13692 7.4784,-5.40995 2.8641,-1.27282 6.0464,-1.90928 9.547,-1.90939 1.485,1.1e-4 3.3944,0.2653 5.7282,0.79558 2.4397,0.42441 4.7734,1.11392 7.0011,2.06851 2.2275,0.9548 4.1369,2.17469 5.7281,3.65967 1.6972,1.3791 2.5458,3.0233 2.5459,4.93259 -10e-5,1.69733 -0.5835,3.12938 -1.7503,4.29614 -1.1669,1.16694 -2.652,1.75036 -4.4552,1.75027 -1.0609,9e-5 -2.1747,-0.21206 -3.3415,-0.63646 -1.1669,-0.5303 -2.3868,-1.06068 -3.6596,-1.59116 -1.273,-0.5303 -2.599,-1.00764 -3.9779,-1.43205 -1.3791,-0.53029 -2.705,-0.79548 -3.9779,-0.79558 -2.7581,10e-5 -5.0387,0.95479 -6.842,2.86409 -1.6973,1.80341 -2.8641,4.72053 -3.5006,8.751376 l 0,18.61658 c 2.9702,-0.10602 6.1525,-0.15906 9.547,-0.15912 3.5005,-0.10601 6.7889,-0.21209 9.8652,-0.31823 2.0154,0.53045 3.5005,1.43211 4.4552,2.70498 0.9547,1.16691 1.432,2.43983 1.4321,3.81878 -10e-5,2.1216 -0.9017,3.65972 -2.705,4.614358 -1.8034,0.95475 -4.031,1.59121 -6.6829,1.90939 -2.652,0.31829 -5.41,0.4774 -8.274,0.47735 -2.8641,-0.10603 -5.41,-0.10603 -7.6376,0 l 0,45.02984 0,0"
         style="fill:#000000;stroke:#000000;stroke-opacity:1"
         id="path4055" />
    </g>
  </g>
</svg>
