<?xml version="1.0" encoding="UTF-8" standalone="no"?>
<!-- Created with Inkscape (http://www.inkscape.org/) -->
<svg
   xmlns:dc="http://purl.org/dc/elements/1.1/"
   xmlns:cc="http://web.resource.org/cc/"
   xmlns:rdf="http://www.w3.org/1999/02/22-rdf-syntax-ns#"
   xmlns:svg="http://www.w3.org/2000/svg"
   xmlns="http://www.w3.org/2000/svg"
   xmlns:sodipodi="http://sodipodi.sourceforge.net/DTD/sodipodi-0.dtd"
   xmlns:inkscape="http://www.inkscape.org/namespaces/inkscape"
   id="svg2"
   sodipodi:version="0.32"
   inkscape:version="0.44+devel"
   width="750"
   height="684"
   version="1.0"
   sodipodi:docbase="C:\DOCUME~1\James\デスク~1"
   sodipodi:docname="WORLDL~2.JPG"
   sodipodi:modified="true">
  <metadata
     id="metadata7">
    <rdf:RDF>
      <cc:Work
         rdf:about="">
        <dc:format>image/svg+xml</dc:format>
        <dc:type
           rdf:resource="http://purl.org/dc/dcmitype/StillImage" />
      </cc:Work>
    </rdf:RDF>
  </metadata>
  <defs
     id="defs5" />
  <sodipodi:namedview
     inkscape:window-height="602"
     inkscape:window-width="742"
     inkscape:pageshadow="2"
     inkscape:pageopacity="0.0"
     guidetolerance="10.0"
     gridtolerance="10.0"
     objecttolerance="10.0"
     borderopacity="1.0"
     bordercolor="#666666"
     pagecolor="#ffffff"
     id="base"
     inkscape:zoom="0.55116959"
     inkscape:cx="315.19688"
     inkscape:cy="342"
     inkscape:window-x="24"
     inkscape:window-y="26"
     inkscape:current-layer="svg2" />
  <path
     style="fill:#000000"
     d="M 384.53719,668.21347 C 384.25261,667.92889 379.58317,667.03568 374.16065,666.22856 C 338.96977,660.99054 328.18294,655.41214 320.17729,638.31115 C 317.46169,632.51031 317.36292,631.73026 317.20191,614.81115 C 317.02738,596.47178 316.19461,587.15879 314.54165,585.06115 C 313.9359,584.29244 311.0762,583.81115 307.11447,583.81115 C 295.87708,583.81115 278.06252,574.9886 264.7111,562.81115 C 258.7723,557.39453 249.66753,536.46507 244.91762,517.31115 C 242.05357,505.76193 241.38117,499.23422 240.74584,476.81115 C 240.36404,463.33615 239.60097,450.06115 239.05013,447.31115 C 238.49929,444.56115 238.02509,436.23615 237.99635,428.81115 C 237.96182,419.88987 237.41117,413.2897 236.37281,409.35105 C 235.50861,406.073 234.80153,401.73464 234.80153,399.71026 C 234.80153,397.68587 233.91141,394.06792 232.82349,391.67035 C 231.73557,389.27279 230.83557,386.15426 230.82349,384.74027 C 230.81141,383.32629 228.95931,377.02629 226.70771,370.74027 C 222.39684,358.70518 217.86,345.67614 215.06737,337.31115 C 213.22949,331.80602 208.69522,323.69604 205.28316,319.81115 C 202.8544,317.04582 192.34054,299.85769 188.76746,292.81115 C 185.88101,287.11874 180.32612,270.87128 177.485,259.81115 L 175.30153,251.31115 L 174.56139,271.81115 C 173.85022,291.50884 171.97056,325.60686 171.309,330.81115 C 168.40706,353.63982 165.33799,368.32198 161.27536,378.81115 C 159.46466,383.48615 157.66037,389.11115 157.26583,391.31115 C 156.87129,393.51115 152.56037,403.58194 147.68599,413.69068 C 139.37701,430.92231 138.37002,432.51632 131.56252,439.21321 C 121.06198,449.54313 117.83873,450.98201 103.89954,451.56213 C 96.869946,451.85468 91.044386,451.60128 88.708126,450.90131 C 83.933536,449.47081 79.202236,444.0309 74.254326,434.28274 C 70.570786,427.02559 70.474506,426.55491 70.127016,414.10614 C 69.725346,399.71642 70.919156,394.81938 78.720636,378.85481 C 86.158206,363.63495 89.090966,350.25312 88.592426,333.81115 C 88.258636,322.80281 87.890496,320.61056 85.507466,315.44031 C 84.019196,312.21134 82.801526,309.17652 82.801526,308.69626 C 82.801526,308.21599 80.808366,303.65787 78.372296,298.5671 C 74.026926,289.4864 71.380366,283.30026 65.855966,269.31115 C 60.227316,255.05803 57.435926,248.20769 55.642146,244.24543 C 54.629806,242.00928 53.801526,239.82729 53.801526,239.39655 C 53.801526,238.96582 53.144886,237.1954 52.342326,235.46228 C 51.539776,233.72916 48.787366,226.01115 46.225866,218.31115 C 43.664366,210.61115 40.946646,203.09725 40.186496,201.61359 C 37.393356,196.16197 36.514536,179.41834 37.205126,144.81115 C 38.054566,102.24407 38.551136,98.609602 45.497356,84.118822 C 50.330606,74.036 64.145836,64.108822 78.532446,60.380876 C 88.647066,57.759916 113.30465,58.233852 129.30153,61.356694 C 142.35108,63.90417 145.09231,64.865868 158.62347,71.643604 C 169.56095,77.122176 189.23236,93.966359 192.84368,100.9456 C 193.87801,102.94455 196.01811,105.87388 197.59944,107.45522 C 199.18078,109.03656 200.74705,111.00105 201.08003,111.82077 C 201.61226,113.13097 201.80464,113.1259 202.67134,111.77887 C 203.21357,110.93612 205.93969,107.39126 208.72938,103.90141 C 211.51906,100.41156 213.80153,97.189242 213.80153,96.740692 C 213.80153,96.292145 216.38903,93.130399 219.55153,89.714591 C 222.71403,86.298783 226.42653,81.585211 227.80153,79.239988 C 231.04202,73.71296 248.01181,57.756533 253.76684,54.825215 C 256.22277,53.574294 260.49777,50.876308 263.26684,48.82969 C 276.11649,39.332548 291.73146,31.423251 307.80153,26.271974 C 310.82653,25.302307 315.10153,23.914021 317.30153,23.186894 C 321.57705,21.773783 331.33928,20.183129 344.30153,18.787525 C 348.70153,18.313791 356.80153,17.383753 362.30153,16.720774 C 367.80153,16.057795 382.65153,15.490181 395.30153,15.459411 C 416.74018,15.407263 422.92649,15.915678 434.30153,18.664589 C 436.50153,19.196244 441.74712,20.331123 445.95839,21.186542 C 450.16966,22.041961 457.5451,24.557442 462.34824,26.7765 C 467.15138,28.995559 471.94064,30.811152 472.99104,30.811152 C 475.12649,30.811152 480.44918,33.306974 482.9181,35.46598 C 483.80722,36.243488 489.28297,39.325607 495.08643,42.315133 C 505.57516,47.718169 516.80153,55.298364 516.80153,56.977462 C 516.80153,57.460569 518.5955,59.802068 520.78813,62.180793 C 528.6073,70.663588 538.91624,85.478135 544.33689,96.021736 C 550.33634,107.69116 551.37448,108.30219 554.27455,101.87097 C 557.44065,94.849831 577.4552,77.397337 588.95785,71.627476 C 602.3399,64.914883 605.19665,63.914971 618.30153,61.356694 C 634.29841,58.233852 658.95599,57.759916 669.0706,60.380876 C 683.45722,64.108822 697.27245,74.036 702.1057,84.118822 C 709.05192,98.609602 709.54849,102.24407 710.39792,144.81115 C 711.08851,179.41834 710.2097,196.16197 707.41656,201.61359 C 706.6564,203.09725 703.93869,210.61115 701.37719,218.31115 C 698.81569,226.01115 696.06328,233.72916 695.26072,235.46228 C 694.45817,237.1954 693.80153,238.96582 693.80153,239.39655 C 693.80153,239.82729 692.97325,242.00928 691.96091,244.24543 C 690.16713,248.20769 687.37574,255.05803 681.74709,269.31115 C 676.22269,283.30026 673.57613,289.4864 669.23076,298.5671 C 666.79468,303.65787 664.80153,308.21599 664.80153,308.69626 C 664.80153,309.17652 663.58386,312.21134 662.09559,315.44031 C 659.71255,320.61056 659.34441,322.80281 659.01063,333.81115 C 658.51282,350.22876 661.80115,365.09773 669.11511,379.50102 C 671.12316,383.45545 673.89344,389.98045 675.27128,394.00102 C 677.52592,400.58011 677.74501,402.58553 677.46214,414.05452 C 677.15402,426.54728 677.0734,426.94454 673.36252,434.25556 C 668.40138,444.02979 663.67332,449.46967 658.89493,450.90131 C 656.55866,451.60128 650.73311,451.85468 643.70352,451.56213 C 629.76433,450.98201 626.54108,449.54313 616.04054,439.21321 C 609.23304,432.51632 608.22605,430.92231 599.91707,413.69068 C 595.04269,403.58194 590.73177,393.51115 590.33723,391.31115 C 589.94269,389.11115 588.1384,383.48615 586.3277,378.81115 C 582.05772,367.78662 577.6458,346.06442 576.27392,329.31115 C 576.00369,326.01115 575.33839,318.13615 574.79548,311.81115 C 574.25257,305.48615 573.80683,294.04865 573.80495,286.39448 C 573.80307,278.74032 573.52807,272.75128 573.19384,273.0855 C 572.85962,273.41973 571.26605,277.62163 569.65259,282.42306 C 566.6409,291.38539 553.41604,314.79362 547.22223,322.12516 C 545.45006,324.22286 543.71251,327.47212 543.36102,329.34572 C 543.00953,331.21933 541.57698,334.11299 540.17758,335.77609 C 537.51939,338.93516 534.13272,346.8288 532.86889,352.81115 C 532.46221,354.73615 530.88098,359.90576 529.35504,364.29917 C 524.35304,378.70065 522.60189,408.66268 522.34085,484.31115 L 522.14071,542.31115 L 517.56875,551.9983 C 513.32098,560.99855 508.37703,568.56522 504.80153,571.53842 C 501.90997,573.94288 492.69463,578.87902 487.52269,580.79372 C 479.26231,583.85178 473.95254,584.96871 464.37207,585.66354 L 455.44261,586.31115 L 455.86769,593.31115 C 457.01591,612.21923 455.9334,627.21007 452.6834,637.40805 C 449.57231,647.17012 433.76658,663.67099 425.81785,665.45516 C 424.43387,665.7658 420.82653,666.60209 417.80153,667.31356 C 412.52518,668.55456 385.60651,669.2828 384.53719,668.21347 z "
     id="path2269" />
  <path
     style="fill:#a91616;fill-opacity:1"
     d="M 420.65445,663.46257 C 429.79223,661.27329 437.01275,655.84204 444.78565,645.31115 C 448.95392,639.66389 451.75358,632.8156 452.21156,627.14655 C 452.38198,625.03708 452.82484,619.71115 453.19571,615.31115 C 453.56657,610.91115 453.5171,602.58615 453.08577,596.81115 L 452.30153,586.31115 L 449.00086,586.63191 C 444.90913,587.02954 433.63022,584.27183 428.36174,581.58561 C 426.19485,580.48079 423.05477,579.36138 421.38378,579.09803 C 417.10368,578.42348 408.34751,573.33019 402.73336,568.24946 C 401.78653,567.39258 399.0742,566.81115 396.02382,566.81115 L 390.90358,566.81115 L 392.20492,570.06115 C 392.92065,571.84865 393.87133,574.21115 394.31753,575.31115 C 394.76372,576.41115 395.20653,577.53615 395.30153,577.81115 C 395.39653,578.08615 395.75722,578.98615 396.10305,579.81115 C 398.48251,585.48751 400.80153,603.25596 400.80153,615.81115 C 400.80153,633.88723 397.08913,653.81115 393.72103,653.81115 C 392.64095,653.81115 393.49562,647.07917 394.80017,645.31115 C 398.06061,640.89234 399.40574,607.91803 396.83983,595.31115 C 394.88578,585.71049 388.73563,568.81115 387.19572,568.81115 C 386.914,568.81115 387.00458,569.33068 387.39702,569.96566 C 387.82909,570.66476 387.67237,570.84936 386.99971,570.43363 C 386.38875,570.05604 386.14237,569.08651 386.45219,568.27912 C 386.88246,567.15788 386.2226,566.83469 383.65852,566.91083 C 380.52163,567.00397 380.46544,567.063 382.80153,567.81115 C 384.88569,568.47862 384.96886,568.63092 383.30153,568.72678 C 381.63546,568.82258 381.55197,569.00363 382.80153,569.81115 C 383.67131,570.37324 383.80858,570.78696 383.12826,570.79584 C 382.48295,570.80426 380.5743,571.97292 378.8868,573.39285 C 372.16404,579.04969 357.80153,584.10275 357.80153,580.81115 C 357.80153,580.26115 358.64715,579.81115 359.68069,579.81115 C 360.71422,579.81115 364.11029,578.64352 367.2275,577.21641 C 371.18229,575.40585 372.8104,574.12143 372.61472,572.96641 C 372.32722,571.26936 372.8621,570.79964 375.05153,570.82646 C 375.89805,570.83683 375.8267,571.14207 374.83049,571.77209 C 374.02142,572.28376 373.61168,572.95463 373.91995,573.26291 C 374.22823,573.57118 375.32757,572.88736 376.36293,571.7433 C 377.39829,570.59924 377.80803,569.74977 377.27347,569.85559 C 376.7389,569.96141 375.62653,569.98781 374.80153,569.91426 C 373.4682,569.79538 373.4682,569.67282 374.80153,568.81115 C 375.62653,568.27799 375.79413,567.83488 375.17397,567.82646 C 374.55382,567.81804 373.47933,568.49445 372.78621,569.3296 C 372.0931,570.16475 370.1255,571.45719 368.41377,572.20168 C 358.22706,576.63225 352.65502,578.82168 347.55153,580.39912 C 344.36075,581.38536 341.80153,582.76273 341.80153,583.49377 C 341.80153,584.21833 341.35153,584.81115 340.80153,584.81115 C 340.25153,584.81115 339.80153,584.42836 339.80153,583.96049 C 339.80153,583.49263 337.43903,583.49358 334.55153,583.9626 C 331.66403,584.43161 327.05153,585.09229 324.30153,585.43078 C 321.55153,585.76926 319.00128,586.22185 318.63431,586.43653 C 318.26733,586.65122 318.42061,588.4694 318.97492,590.47694 C 320.14328,594.70838 320.4795,603.93135 319.88026,615.31115 C 319.64857,619.71115 319.84698,625.33615 320.32117,627.81115 C 320.79537,630.28615 321.20994,632.55073 321.24244,632.84355 C 321.47944,634.9789 325.76608,642.85323 328.02958,645.31115 C 329.54906,646.96115 330.79436,648.62968 330.7969,649.019 C 330.80391,650.09018 338.7855,654.54493 343.8343,656.29554 C 346.29127,657.14746 348.97653,658.12996 349.80153,658.47886 C 352.68957,659.70025 367.96794,662.49887 375.98217,663.2745 C 379.10652,663.57688 382.70652,664.21131 383.98217,664.68436 C 387.62413,666.03489 413.51877,665.17218 420.65445,663.46257 z "
     id="path2267" />
  <path
     style="fill:#000000"
     d="M 390.80153,660.31115 C 390.80153,659.48615 391.47653,658.81115 392.30153,658.81115 C 393.12653,658.81115 393.80153,659.48615 393.80153,660.31115 C 393.80153,661.13615 393.12653,661.81115 392.30153,661.81115 C 391.47653,661.81115 390.80153,661.13615 390.80153,660.31115 z "
     id="path2265" />
  <path
     style="fill:#000000"
     d="M 376.80153,659.31115 C 376.80153,658.48615 377.47653,657.81115 378.30153,657.81115 C 379.12653,657.81115 379.80153,658.48615 379.80153,659.31115 C 379.80153,660.13615 379.12653,660.81115 378.30153,660.81115 C 377.47653,660.81115 376.80153,660.13615 376.80153,659.31115 z "
     id="path2263" />
  <path
     style="fill:#000000"
     d="M 400.80153,659.14674 C 400.80153,657.49782 401.54239,657.17638 405.55153,657.08583 C 411.39061,656.95395 422.63436,653.51709 426.07132,650.81358 C 428.91464,648.57702 432.80519,648.14162 432.7947,650.06115 C 432.77527,653.61465 418.42549,659.4399 407.05153,660.51151 C 401.31671,661.05182 400.80153,660.93933 400.80153,659.14674 z "
     id="path2261" />
  <path
     style="fill:#000000"
     d="M 358.80153,656.43417 C 342.16618,650.10297 332.80153,644.60374 332.80153,641.16612 C 332.80153,639.01775 335.74413,639.58506 339.05619,642.37198 C 342.88415,645.59299 351.64144,649.99809 358.80153,652.30429 C 361.82653,653.27861 364.77386,654.44651 365.35114,654.89961 C 365.92843,655.35271 368.29093,656.02568 370.60114,656.3951 C 373.16795,656.80555 374.80153,657.60043 374.80153,658.43896 C 374.80153,660.77068 367.93525,659.91034 358.80153,656.43417 z "
     id="path2259" />
  <path
     style="fill:#000000"
     d="M 434.80153,645.31115 C 434.80153,644.48615 435.47653,643.81115 436.30153,643.81115 C 437.12653,643.81115 437.80153,644.48615 437.80153,645.31115 C 437.80153,646.13615 437.12653,646.81115 436.30153,646.81115 C 435.47653,646.81115 434.80153,646.13615 434.80153,645.31115 z "
     id="path2257" />
  <path
     style="fill:#000000"
     d="M 435.80153,587.81115 C 435.80153,587.26115 436.25153,586.81115 436.80153,586.81115 C 437.35153,586.81115 437.80153,587.26115 437.80153,587.81115 C 437.80153,588.36115 437.35153,588.81115 436.80153,588.81115 C 436.25153,588.81115 435.80153,588.36115 435.80153,587.81115 z "
     id="path2255" />
  <path
     style="fill:#000000"
     d="M 427.80153,586.81115 C 427.80153,586.26115 428.25153,585.81115 428.80153,585.81115 C 429.35153,585.81115 429.80153,586.26115 429.80153,586.81115 C 429.80153,587.36115 429.35153,587.81115 428.80153,587.81115 C 428.25153,587.81115 427.80153,587.36115 427.80153,586.81115 z "
     id="path2253" />
  <path
     style="fill:#000000"
     d="M 420.80153,583.81115 C 420.80153,583.26115 421.25153,582.81115 421.80153,582.81115 C 422.35153,582.81115 422.80153,583.26115 422.80153,583.81115 C 422.80153,584.36115 422.35153,584.81115 421.80153,584.81115 C 421.25153,584.81115 420.80153,584.36115 420.80153,583.81115 z "
     id="path2251" />
  <path
     style="fill:#000000"
     d="M 412.52866,581.81115 C 411.13024,580.71115 409.68928,579.81115 409.32654,579.81115 C 408.00869,579.81115 400.8371,573.27772 400.81956,572.06115 C 400.79083,570.06892 402.16502,570.57838 406.37153,574.11945 C 408.53303,575.93902 411.98903,578.45072 414.05153,579.70101 C 416.11403,580.9513 417.80153,582.38757 417.80153,582.89271 C 417.80153,584.44677 415.20125,583.91341 412.52866,581.81115 z "
     id="path2249" />
  <path
     style="fill:#000000"
     d="M 350.80153,581.81115 C 350.80153,581.26115 351.25153,580.81115 351.80153,580.81115 C 352.35153,580.81115 352.80153,581.26115 352.80153,581.81115 C 352.80153,582.36115 352.35153,582.81115 351.80153,582.81115 C 351.25153,582.81115 350.80153,582.36115 350.80153,581.81115 z "
     id="path2247" />
  <path
     style="fill:#f9f9f9"
     d="M 454.50769,582.81115 C 449.62283,574.47285 447.53648,562.10761 449.73035,554.49717 C 450.39403,552.19486 451.40209,548.73615 451.97046,546.81115 C 452.53884,544.88615 454.12166,541.5754 455.48785,539.45392 C 456.85404,537.33245 459.0652,533.54034 460.40154,531.02703 C 463.27254,525.62743 470.68306,515.81115 471.88834,515.81115 C 472.35232,515.81115 474.2695,514.46115 476.14875,512.81115 C 478.02799,511.16115 480.06865,509.81115 480.68355,509.81115 C 481.29844,509.81115 481.80153,509.41383 481.80153,508.92822 C 481.80153,508.44261 484.16403,506.8533 487.05153,505.39641 C 489.93903,503.93953 494.81314,501.2565 497.88288,499.43412 C 500.95263,497.61174 505.33393,495.82173 507.61912,495.45631 C 509.90431,495.09089 513.3552,494.0379 515.28777,493.11632 L 518.80153,491.44073 L 518.81631,460.37594 C 518.82719,437.50545 519.19651,427.72846 520.21639,423.31115 C 521.0688,419.61919 521.52531,412.69507 521.40314,405.31115 C 521.28007,397.87244 521.65924,392.17083 522.40069,390.31115 C 523.05854,388.66115 523.64722,383.56089 523.70888,378.97725 C 523.77053,374.3936 524.25734,369.82798 524.79068,368.83142 C 525.58736,367.34282 525.18415,366.72615 522.53096,365.37541 C 518.35612,363.25001 511.03582,358.72156 502.48809,352.9766 C 496.05997,348.65624 495.38893,347.8293 490.62243,338.35421 C 487.8437,332.83053 485.10156,326.28615 484.52877,323.81115 C 483.11477,317.70132 482.42305,272.26023 483.67631,267.81115 C 487.30523,254.92852 488.24508,251.98447 489.58215,249.31115 C 491.80798,244.86086 502.60567,233.58942 506.71778,231.4237 C 514.143,227.51306 515.57075,226.86577 520.35154,225.24265 C 523.04966,224.32662 528.64218,222.98458 532.77937,222.26034 C 536.91656,221.53611 542.10153,220.4198 544.30153,219.77965 C 546.50153,219.13951 551.67653,217.92451 555.80153,217.07965 C 559.92653,216.23479 564.38159,215.04125 565.70167,214.42735 C 567.02175,213.81344 570.50791,213.31115 573.44871,213.31115 L 578.79562,213.31115 L 578.71419,204.31115 C 578.59392,191.01739 576.61814,180.09553 571.35951,163.65537 C 564.79784,143.1415 563.57101,139.81453 559.80061,132.30931 C 557.60111,127.93109 555.79713,123.66541 555.79176,122.83003 C 555.77531,120.27252 551.13179,111.15825 549.09863,109.6928 C 548.04433,108.93289 544.84632,103.58615 541.99192,97.811152 C 536.95775,87.626023 526.72786,72.8135 519.39531,65.092033 C 517.42057,63.012548 515.55719,60.550112 515.25447,59.619952 C 514.66787,57.817494 506.59839,51.600826 500.80153,48.485507 C 498.87653,47.450984 495.05153,45.332381 492.30153,43.777499 C 489.55153,42.222618 486.85153,40.922784 486.30153,40.888981 C 485.75153,40.855178 484.50889,40.148837 483.5401,39.319336 C 481.14828,37.271399 480.80153,37.401048 480.80153,40.343271 C 480.80153,43.456362 478.31733,49.578775 476.01339,52.143833 C 471.67269,56.976489 448.65077,69.811152 444.32299,69.811152 C 443.16877,69.811152 440.47201,70.704579 438.33018,71.796546 C 436.18835,72.888512 429.6807,74.699701 423.86874,75.821408 C 418.05677,76.943116 411.91958,78.299689 410.23053,78.836015 C 408.54148,79.37234 400.9674,79.811152 393.39923,79.811152 C 380.48825,79.811152 378.23974,79.496858 356.97023,74.719137 C 344.50244,71.918529 333.85153,69.291825 333.30153,68.882016 C 332.75153,68.472208 329.37653,67.127468 325.80153,65.893707 C 322.22653,64.659945 318.52014,63.23665 317.5651,62.730828 C 316.61006,62.225006 315.06124,61.811152 314.12327,61.811152 C 311.69811,61.811152 300.14368,54.754281 294.66665,49.928017 C 292.11747,47.681722 289.30275,44.021842 288.41172,41.794951 C 286.91645,38.057897 286.61877,37.835479 284.5466,38.907104 C 283.31181,39.545679 281.62653,40.627641 280.80153,41.311464 C 279.97653,41.995287 276.66299,44.004392 273.43812,45.776141 C 270.21324,47.54789 265.54206,50.549051 263.05773,52.445387 C 260.57339,54.341722 256.94901,56.558345 255.00354,57.371214 C 250.32892,59.324396 234.26203,74.788451 229.64641,81.776947 C 227.63609,84.82076 223.69859,89.708802 220.89641,92.639263 C 218.09422,95.569723 215.80153,98.428602 215.80153,98.992331 C 215.80153,99.556061 213.7748,102.2715 211.29768,105.02665 C 208.82057,107.7818 205.7131,112.12292 204.39219,114.67358 C 203.07129,117.22424 200.63353,121.78615 198.97494,124.81115 C 192.22476,137.12243 188.83387,144.75984 186.32137,153.31115 C 184.86699,158.26115 182.80505,164.56985 181.73929,167.33048 C 180.67352,170.09111 179.80153,172.9546 179.80153,173.69381 C 179.80153,174.43301 178.87791,178.85853 177.74904,183.52829 C 175.8912,191.21356 175.73155,194.45099 176.06563,217.66496 C 176.45281,244.56876 177.61649,253.39508 182.67704,267.81115 C 183.73892,270.83615 185.60195,276.46115 186.81712,280.31115 C 189.94232,290.2127 201.29494,310.72686 208.2201,318.98628 C 209.91488,321.00761 212.26509,324.60761 213.44277,326.98628 C 216.05894,332.27041 221.81293,346.93411 221.81058,348.31115 C 221.80858,349.48853 226.95249,362.74763 228.11117,364.55175 C 228.71445,365.49107 229.59017,365.28796 231.71718,363.71539 C 234.43349,361.70714 234.68809,361.69297 239.41397,363.28719 C 242.10213,364.19401 245.2982,365.58287 246.51635,366.37355 C 247.7345,367.16423 249.46332,367.81115 250.35819,367.81115 C 252.19229,367.81115 255.68659,370.29057 262.86395,376.68476 C 267.34862,380.68009 272.79178,389.61054 272.80769,392.99922 C 272.81108,393.72078 273.58987,395.66115 274.53833,397.31115 C 275.84942,399.59199 276.43097,403.90694 276.96429,415.31115 C 277.35011,423.56115 277.97182,432.51388 278.34587,435.2061 C 278.77719,438.31046 278.54877,441.60269 277.72145,444.2061 C 276.28999,448.71059 271.12218,458.54317 269.08802,460.63258 C 268.38045,461.35936 267.80153,462.30615 267.80153,462.73656 C 267.80153,466.08847 252.95579,476.4094 245.58916,478.17886 C 242.96365,478.8095 242.89027,479.01421 243.29773,484.57076 C 243.52925,487.72797 243.71922,491.99641 243.71989,494.05618 C 243.72055,496.11595 244.41419,500.13512 245.26131,502.98768 C 246.10843,505.84024 246.80153,509.8519 246.80153,511.90247 C 246.80153,513.95305 248.15684,519.83388 249.81333,524.97097 C 252.97541,534.77717 253.28205,535.58457 256.5888,542.81115 C 257.72132,545.28615 259.74453,549.81228 261.08482,552.86922 C 262.42511,555.92616 264.82217,559.44437 266.41162,560.68745 C 277.28637,569.19245 282.27154,572.48056 289.42223,575.86481 C 298.58535,580.20149 299.57067,580.47787 309.30153,581.44084 C 317.99135,582.30078 324.39473,582.34744 328.30153,581.57929 C 329.95153,581.25487 333.43903,580.55741 336.05153,580.0294 C 338.66403,579.50138 340.80153,579.2521 340.80153,579.47544 C 340.80153,579.69878 341.81403,579.32483 343.05153,578.64443 C 344.28903,577.96403 345.87601,577.31125 346.57815,577.19382 C 348.52083,576.8689 359.17264,572.52003 360.25153,571.61131 C 360.77403,571.17122 361.94176,570.81115 362.84649,570.81115 C 363.75122,570.81115 367.27641,569.01115 370.68024,566.81115 C 374.08406,564.61115 377.87058,562.81115 379.09472,562.81115 C 383.29668,562.81115 384.0816,559.59818 384.71185,539.81801 C 385.27403,522.17438 385.39482,521.31115 387.30153,521.31115 C 389.23929,521.31115 389.29958,521.95688 389.23873,542.06115 L 389.17593,562.81115 L 395.51539,562.81115 C 401.72756,562.81115 401.98925,562.92201 408.54769,568.33171 C 412.51162,571.60134 416.8839,574.26243 419.27103,574.85822 C 421.4878,575.41149 425.77653,576.99276 428.80153,578.37216 C 431.82653,579.75155 435.20153,581.05185 436.30153,581.2617 C 437.40153,581.47155 439.42653,582.10162 440.80153,582.66185 C 443.25651,583.66211 455.08167,583.79092 454.50769,582.81115 z "
     id="path2245" />
  <path
     style="fill:#000000"
     d="M 371.06414,517.69564 C 369.28357,517.18131 365.84331,515.4219 363.41911,513.78582 C 360.99492,512.14975 358.57581,510.81115 358.04332,510.81115 C 357.14408,510.81115 353.66949,507.3958 339.44745,492.53232 C 336.40625,489.35396 333.6402,485.8782 333.30066,484.8084 C 332.96112,483.73861 331.58491,481.99932 330.24242,480.94332 C 328.89993,479.88731 327.80153,478.59532 327.80153,478.07222 C 327.80153,477.54912 326.90153,476.30664 325.80153,475.31115 C 324.70153,474.31566 323.80153,472.95102 323.80153,472.27861 C 323.80153,471.60619 323.10053,470.47426 322.24375,469.7632 C 321.38698,469.05214 320.02049,466.87763 319.20712,464.93095 C 318.39375,462.98428 316.84475,460.56843 315.7649,459.56239 C 314.68504,458.55636 313.80153,456.65233 313.80153,455.33121 C 313.80153,454.0101 313.35153,452.65107 312.80153,452.31115 C 312.25153,451.97123 311.80153,450.62123 311.80153,449.31115 C 311.80153,448.00107 311.38615,446.67247 310.87847,446.3587 C 308.97947,445.18506 308.70054,440.09069 310.34953,436.69846 C 312.49545,432.28398 317.7438,428.96245 325.25694,427.26397 C 346.59018,422.44123 346.95489,422.4 366.80153,422.56704 C 396.83129,422.8198 424.49645,424.31348 432.66528,426.12313 C 441.67069,428.11811 448.10839,431.72355 449.75254,435.69288 C 451.32839,439.49731 450.20102,450.9971 447.78027,455.81115 C 443.68246,463.96029 440.80153,470.98731 440.80153,472.8333 C 440.80153,473.92112 439.94595,475.66673 438.90025,476.71243 C 437.85455,477.75813 436.73461,479.44563 436.41149,480.46243 C 436.08838,481.47923 434.10367,484.11115 432.00103,486.31115 C 429.89839,488.51115 427.58874,491.77365 426.86847,493.56115 C 426.1482,495.34865 425.22919,496.81115 424.82623,496.81115 C 424.42327,496.81115 422.95215,497.86899 421.55707,499.16191 C 420.16199,500.45482 417.28378,502.56354 415.16104,503.84795 C 413.03831,505.13235 410.1861,507.26608 408.8228,508.58956 C 407.4595,509.91304 403.1845,512.74837 399.3228,514.8903 C 392.57031,518.63563 391.957,518.78176 383.30153,518.70774 C 378.35153,518.66541 372.8447,518.20996 371.06414,517.69564 z "
     id="path2243" />
  <path
     style="fill:#f9f9f9"
     d="M 320.80153,442.31115 C 320.80153,441.48615 320.12653,440.81115 319.30153,440.81115 C 318.47653,440.81115 317.80153,441.48615 317.80153,442.31115 C 317.80153,443.13615 318.47653,443.81115 319.30153,443.81115 C 320.12653,443.81115 320.80153,443.13615 320.80153,442.31115 z "
     id="path2241" />
  <path
     style="fill:#f9f9f9"
     d="M 339.56212,437.90166 C 344.36879,436.85144 352.01403,435.6796 356.55153,435.29758 C 362.97441,434.75682 364.80153,434.26527 364.80153,433.07808 C 364.80153,431.77336 363.46595,431.64953 355.55153,432.22046 C 343.03875,433.12312 325.80153,436.74879 325.80153,438.47808 C 325.80153,440.30293 329.22903,440.15935 339.56212,437.90166 z "
     id="path2239" />
  <path
     style="fill:#f9f9f9"
     d="M 389.80153,436.31115 C 389.80153,435.48615 389.12653,434.81115 388.30153,434.81115 C 387.47653,434.81115 386.80153,435.48615 386.80153,436.31115 C 386.80153,437.13615 387.47653,437.81115 388.30153,437.81115 C 389.12653,437.81115 389.80153,437.13615 389.80153,436.31115 z "
     id="path2237" />
  <path
     style="fill:#f9f9f9"
     d="M 376.80153,434.31115 C 376.80153,433.48615 376.12653,432.81115 375.30153,432.81115 C 374.47653,432.81115 373.80153,433.48615 373.80153,434.31115 C 373.80153,435.13615 374.47653,435.81115 375.30153,435.81115 C 376.12653,435.81115 376.80153,435.13615 376.80153,434.31115 z "
     id="path2235" />
  <path
     style="fill:#000000"
     d="M 509.80153,429.31115 C 509.80153,428.47782 510.69042,427.81115 511.80153,427.81115 C 512.91264,427.81115 513.80153,428.47782 513.80153,429.31115 C 513.80153,430.14448 512.91264,430.81115 511.80153,430.81115 C 510.69042,430.81115 509.80153,430.14448 509.80153,429.31115 z "
     id="path2233" />
  <path
     style="fill:#000000"
     d="M 447.80153,422.31115 C 447.80153,421.48615 448.47653,420.81115 449.30153,420.81115 C 450.12653,420.81115 450.80153,421.48615 450.80153,422.31115 C 450.80153,423.13615 450.12653,423.81115 449.30153,423.81115 C 448.47653,423.81115 447.80153,423.13615 447.80153,422.31115 z "
     id="path2231" />
  <path
     style="fill:#000000"
     d="M 510.80153,422.31115 C 510.80153,421.48615 511.47653,420.81115 512.30153,420.81115 C 513.12653,420.81115 513.80153,421.48615 513.80153,422.31115 C 513.80153,423.13615 513.12653,423.81115 512.30153,423.81115 C 511.47653,423.81115 510.80153,423.13615 510.80153,422.31115 z "
     id="path2229" />
  <path
     style="fill:#f9f9f9"
     d="M 308.80153,419.31115 C 308.80153,418.48615 309.47653,417.81115 310.30153,417.81115 C 311.12653,417.81115 311.80153,418.48615 311.80153,419.31115 C 311.80153,420.13615 311.12653,420.81115 310.30153,420.81115 C 309.47653,420.81115 308.80153,420.13615 308.80153,419.31115 z "
     id="path2227" />
  <path
     style="fill:#000000"
     d="M 434.84802,418.69509 C 430.92324,416.95475 423.17179,415.3159 401.30153,411.60252 C 393.07135,410.20511 347.17947,410.29688 337.08139,411.73095 C 332.56031,412.37301 326.30237,413.77871 323.17484,414.85474 C 316.17584,417.26275 314.55866,417.31078 314.9848,415.09801 C 315.21458,413.90487 317.74096,412.68208 323.30813,411.06948 C 339.66565,406.33129 394.38588,405.80509 413.80153,410.19927 C 417.37653,411.00837 423.3193,412.15957 427.00768,412.7575 C 435.26492,414.09608 442.80153,417.20643 442.80153,419.27561 C 442.80153,421.29723 440.30546,421.11504 434.84802,418.69509 z "
     id="path2225" />
  <path
     style="fill:#000000"
     d="M 510.80153,412.31115 C 510.80153,411.48615 511.47653,410.81115 512.30153,410.81115 C 513.12653,410.81115 513.80153,411.48615 513.80153,412.31115 C 513.80153,413.13615 513.12653,413.81115 512.30153,413.81115 C 511.47653,413.81115 510.80153,413.13615 510.80153,412.31115 z "
     id="path2223" />
  <path
     style="fill:#000000"
     d="M 513.14553,396.06115 C 513.50064,390.69865 513.79351,382.14865 513.79636,377.06115 C 513.80058,369.50789 514.07668,367.81115 515.30153,367.81115 C 516.54221,367.81115 516.80049,369.6696 516.79554,378.56115 C 516.78587,395.89601 515.7696,405.81115 514.00249,405.81115 C 512.72428,405.81115 512.5963,404.35512 513.14553,396.06115 z "
     id="path2221" />
  <path
     style="fill:#000000"
     d="M 345.92799,363.53774 C 345.50269,363.11237 344.06275,362.55746 342.72812,362.30461 C 331.06529,360.09506 325.40501,357.27701 319.05153,350.51689 C 314.37052,345.53628 313.80153,344.45703 313.80153,340.55884 C 313.80153,336.16264 317.02463,327.9159 319.25326,326.60983 C 319.91145,326.22411 321.72888,323.88521 323.29201,321.41229 C 324.85513,318.93936 327.40923,316.38786 328.96779,315.74228 C 330.52635,315.09671 331.80153,314.28483 331.80153,313.93811 C 331.80153,313.10921 339.08968,309.43347 344.96311,307.30014 C 348.80758,305.90376 352.31331,305.67927 364.96311,306.01946 C 381.59817,306.46682 380.56284,306.171 394.80153,314.54496 C 396.72653,315.67708 401.62054,317.6306 405.67711,318.88613 C 416.75415,322.31451 421.80153,328.67238 421.80153,339.19704 C 421.80153,343.18125 418.57073,349.08972 414.1514,353.18755 C 411.2907,355.84015 402.22259,359.64753 397.25,360.28387 C 395.62834,360.49139 393.17653,361.09101 391.80153,361.61636 C 390.42653,362.14172 388.85153,362.63084 388.30153,362.70331 C 387.75153,362.77578 386.54463,363.0753 385.61954,363.36891 C 382.90234,364.23132 346.77509,364.38498 345.92799,363.53774 z "
     id="path2219" />
  <path
     style="fill:#000000"
     d="M 196.80153,282.31115 C 196.80153,281.48615 197.47653,280.81115 198.30153,280.81115 C 199.12653,280.81115 199.80153,281.48615 199.80153,282.31115 C 199.80153,283.13615 199.12653,283.81115 198.30153,283.81115 C 197.47653,283.81115 196.80153,283.13615 196.80153,282.31115 z "
     id="path2217" />
  <path
     style="fill:#000000"
     d="M 192.80153,271.31115 C 192.80153,270.48615 193.47653,269.81115 194.30153,269.81115 C 195.12653,269.81115 195.80153,270.48615 195.80153,271.31115 C 195.80153,272.13615 195.12653,272.81115 194.30153,272.81115 C 193.47653,272.81115 192.80153,272.13615 192.80153,271.31115 z "
     id="path2215" />
  <path
     style="fill:#000000"
     d="M 186.80153,262.31115 C 186.80153,261.48615 187.47653,260.81115 188.30153,260.81115 C 189.12653,260.81115 189.80153,261.48615 189.80153,262.31115 C 189.80153,263.13615 189.12653,263.81115 188.30153,263.81115 C 187.47653,263.81115 186.80153,263.13615 186.80153,262.31115 z "
     id="path2213" />
  <path
     style="fill:#000000"
     d="M 182.88462,255.13664 C 181.84313,253.96172 181.34482,249.49493 181.0039,238.27823 C 180.51476,222.18458 181.10847,215.81125 183.09684,215.811 C 183.99097,215.81088 184.30153,220.36513 184.30153,233.47733 C 184.30153,246.72146 184.61444,251.24821 185.55153,251.56082 C 187.1817,252.10464 187.1817,256.82272 185.55153,256.77311 C 184.86403,256.75219 183.66392,256.01578 182.88462,255.13664 z "
     id="path2211" />
  <path
     style="fill:#000000"
     d="M 318.30153,224.309 C 313.26697,222.52883 308.21887,217.12486 306.93531,212.1415 C 305.58443,206.89683 305.69609,187.20742 307.10433,182.33515 C 307.73639,180.14835 309.8706,176.74208 311.84703,174.76565 C 319.34301,167.26967 330.33305,167.34267 337.92928,174.9389 C 342.72752,179.73714 343.63725,183.45854 343.63749,198.28934 C 343.63775,214.48727 341.30284,219.76673 332.30153,223.92111 C 327.54081,226.11832 323.71807,226.22424 318.30153,224.309 z "
     id="path2209" />
  <path
     style="fill:#ffffff"
     d="M 327.60153,189.61115 C 330.40653,186.80615 328.29326,181.81115 324.30153,181.81115 C 320.3098,181.81115 318.19653,186.80615 321.00153,189.61115 C 322.54403,191.15365 326.05903,191.15365 327.60153,189.61115 z "
     id="path2207" />
  <path
     style="fill:#000000"
     d="M 426.45672,224.3525 C 416.86711,220.93334 413.94432,214.84239 413.96054,198.31115 C 413.97462,183.96153 415.08247,179.53021 419.84703,174.76565 C 427.34301,167.26967 438.33305,167.34267 445.92928,174.9389 C 450.72752,179.73714 451.63725,183.45854 451.63749,198.28934 C 451.63775,214.48727 449.30284,219.76673 440.30153,223.92111 C 435.57007,226.10482 431.70882,226.22513 426.45672,224.3525 z "
     id="path2205" />
  <path
     style="fill:#ffffff"
     d="M 432.60153,189.61115 C 435.40653,186.80615 433.29326,181.81115 429.30153,181.81115 C 425.3098,181.81115 423.19653,186.80615 426.00153,189.61115 C 427.54403,191.15365 431.05903,191.15365 432.60153,189.61115 z "
     id="path2203" />
  <path
     style="fill:#000000"
     d="M 219.30153,218.74879 C 213.06514,217.97188 203.84486,214.88274 201.00525,212.61886 C 200.1031,211.89962 198.48449,210.63615 197.40834,209.81115 C 192.55849,206.09314 190.93805,203.71018 187.96468,195.92372 C 182.64196,181.98493 183.13648,168.93624 189.43994,156.99699 C 195.50301,145.51306 196.27367,144.22719 199.12218,140.84193 C 200.59582,139.0906 201.80153,137.31593 201.80153,136.8982 C 201.80153,136.48048 204.08633,134.3775 206.87887,132.22493 C 209.67141,130.07235 212.81635,127.5287 213.86764,126.57238 C 216.45408,124.21957 228.97016,118.45325 236.13074,116.31547 C 240.18842,115.10406 243.07554,114.81259 245.63074,115.35638 C 247.64968,115.78604 255.37653,116.17663 262.80153,116.22437 C 277.36188,116.31797 275.9849,115.92122 286.76131,123.12791 C 297.63394,130.39896 298.74472,150.02804 289.34645,168.81115 C 287.55767,172.38615 284.6277,178.46115 282.83542,182.31115 C 275.97414,197.04981 268.91543,205.41559 256.5799,213.42845 C 248.23382,218.84986 235.12756,220.72038 219.30153,218.74879 z "
     id="path2201" />
  <path
     style="fill:#000000"
     d="M 445.80153,162.30883 C 442.22653,160.42902 438.62653,158.61935 437.80153,158.28734 C 433.74082,156.65314 429.22417,154.22399 428.56684,153.32072 C 427.24386,151.50275 427.76621,148.81115 429.442,148.81115 C 430.96019,148.81115 438.3196,151.86637 441.80153,153.94214 C 442.62653,154.43397 445.32653,155.73129 447.80153,156.82509 C 455.15298,160.07396 457.30153,161.58316 457.30153,163.49813 C 457.30153,166.48398 452.87025,166.0257 445.80153,162.30883 z "
     id="path2199" />
  <path
     style="fill:#000000"
     d="M 309.15827,162.29842 C 308.32891,160.13714 310.44102,158.0131 315.71506,155.70459 C 318.23762,154.60044 322.1529,152.78341 324.41569,151.66674 C 329.06777,149.37099 333.12736,149.50406 333.59664,151.96769 C 333.82814,153.18302 331.56691,154.73045 325.10686,157.77751 C 320.26393,160.06181 315.52014,162.35387 314.5651,162.87097 C 312.01543,164.25148 309.81845,164.01883 309.15827,162.29842 z "
     id="path2197" />
  <path
     style="fill:#000000"
     d="M 379.32799,566.00428 C 379.0201,565.69639 378.2132,566.00364 377.53486,566.68706 C 376.5546,567.67468 376.66946,567.78954 378.09466,567.24686 C 379.08088,566.87133 379.63588,566.31217 379.32799,566.00428 z "
     id="path2195" />
  <path
     style="fill:#f2f2f2"
     d="M 117.48132,446.43735 C 124.38376,442.88798 129.14362,438.9854 134.72647,432.29817 C 138.53632,427.73467 153.99193,394.94027 155.33921,388.56115 C 156.94387,380.96336 157.26166,380.93458 144.29505,389.56115 C 139.54233,392.72309 139.11882,392.81115 128.66477,392.81115 C 122.57999,392.81115 117.65151,392.37743 117.30153,391.81115 C 116.96161,391.26115 115.16161,390.81115 113.30153,390.81115 C 111.44145,390.81115 109.6796,390.42288 109.38631,389.94832 C 109.09302,389.47377 106.80487,388.51204 104.30153,387.81115 C 101.79819,387.11026 99.510036,386.14853 99.216746,385.67398 C 98.923456,385.19942 97.889256,384.81115 96.918526,384.81115 C 95.947796,384.81115 92.938296,383.23615 90.230746,381.31115 C 87.523186,379.38615 84.605916,377.81115 83.747916,377.81115 C 82.791366,377.81115 81.002226,380.42228 79.122826,384.56115 C 73.378306,397.21186 73.301446,397.57838 73.303056,412.31115 C 73.304706,427.44456 73.020046,426.34838 80.535066,440.15991 C 84.903636,448.18871 88.849846,449.74983 103.48132,449.23746 C 110.87222,448.97864 113.60044,448.43297 117.48132,446.43735 z "
     id="path2193" />
  <path
     style="fill:#000000"
     d="M 108.80153,444.43359 C 108.80153,442.52895 110.71816,441.16683 114.55153,440.34717 C 116.33903,439.96496 117.80153,439.23799 117.80153,438.73169 C 117.80153,438.2254 118.43153,437.81115 119.20153,437.81115 C 120.44912,437.81115 127.80153,431.27759 127.80153,430.16894 C 127.80153,429.92573 128.36403,429.05511 129.05153,428.23424 C 131.92512,424.80318 132.37902,424.12323 134.017,420.79589 C 134.96051,418.87929 136.03506,415.96115 136.40489,414.31115 C 136.77472,412.66115 137.43632,410.8499 137.87513,410.28615 C 138.31393,409.7224 138.98485,406.9099 139.36607,404.03615 C 139.85651,400.33905 140.50244,398.81115 141.57497,398.81115 C 142.84027,398.81115 142.98769,399.91466 142.46714,405.48915 C 142.12416,409.16205 141.40524,412.43804 140.86954,412.76912 C 140.33383,413.1002 139.59187,415.2701 139.22072,417.59112 C 138.84958,419.91214 138.18918,421.81115 137.75318,421.81115 C 137.31717,421.81115 136.67219,423.12356 136.31988,424.72761 C 135.96757,426.33166 135.03181,427.89254 134.24042,428.19623 C 133.44903,428.49991 132.80153,429.4375 132.80153,430.27977 C 132.80153,431.12203 132.35153,431.81115 131.80153,431.81115 C 131.25153,431.81115 130.80153,432.21615 130.80153,432.71115 C 130.80153,434.1568 123.73641,440.81115 122.20153,440.81115 C 121.43153,440.81115 120.80153,441.24076 120.80153,441.76584 C 120.80153,442.29091 119.22156,443.01693 117.29048,443.3792 C 115.35941,443.74147 113.53285,444.43686 113.23147,444.92451 C 112.35565,446.34162 108.80153,445.94776 108.80153,444.43359 z "
     id="path2191" />
  <path
     style="fill:#000000"
     d="M 96.801526,441.31115 C 96.801526,440.48615 97.476526,439.81115 98.301526,439.81115 C 99.126526,439.81115 99.801526,440.48615 99.801526,441.31115 C 99.801526,442.13615 99.126526,442.81115 98.301526,442.81115 C 97.476526,442.81115 96.801526,442.13615 96.801526,441.31115 z "
     id="path2189" />
  <path
     style="fill:#000000"
     d="M 88.801526,436.31115 C 88.801526,435.48615 89.476526,434.81115 90.301526,434.81115 C 91.126526,434.81115 91.801526,435.48615 91.801526,436.31115 C 91.801526,437.13615 91.126526,437.81115 90.301526,437.81115 C 89.476526,437.81115 88.801526,437.13615 88.801526,436.31115 z "
     id="path2187" />
  <path
     style="fill:#f9f9f9"
     d="M 661.21808,447.0293 C 663.97826,445.35295 666.8393,441.05828 672.02235,430.81115 C 674.06755,426.76769 674.29862,424.89081 674.3,412.31115 C 674.30167,396.99092 674.45812,397.63715 666.67422,380.81115 C 664.00263,375.03615 661.52409,368.73615 661.16634,366.81115 C 660.8086,364.88615 659.95969,362.18615 659.27989,360.81115 C 654.85576,351.86267 654.71722,326.80371 659.0311,315.81115 C 663.35194,304.80085 663.6113,305.55579 654.41016,302.36039 C 647.21615,299.86204 645.55053,298.7766 639.64346,292.73741 C 630.8079,283.70422 624.39824,271.4229 625.11131,264.89288 C 625.37667,262.46283 625.01155,258.41283 624.29993,255.89288 C 622.46171,249.38349 622.69135,239.53166 624.88456,230.81115 C 625.92201,226.68615 626.78586,222.18615 626.80424,220.81115 C 626.82262,219.43615 628.86876,214.82554 631.35121,210.56534 C 634.88569,204.49975 636.7564,202.36466 639.97519,200.72256 C 642.23591,199.56922 646.15919,196.72285 648.69357,194.3973 C 654.05874,189.4742 660.93397,185.52558 672.80153,180.55146 C 683.08238,176.24238 685.5444,175.71395 698.05153,175.13199 L 707.80153,174.67832 L 707.80446,150.99474 C 707.80741,127.07624 706.37605,101.99151 704.79828,98.311152 C 704.32671,97.211152 703.38763,94.511152 702.71145,92.311152 C 699.52129,81.93177 692.65317,74.082868 681.74522,68.350901 C 678.04033,66.404039 674.57505,64.811152 674.04459,64.811152 C 673.51413,64.811152 672.81711,67.031816 672.49566,69.745961 C 672.17421,72.460106 670.98653,76.594629 669.85637,78.93379 C 668.72621,81.272952 667.80153,83.914186 667.80153,84.803201 C 667.80153,87.149849 662.50721,94.85342 658.63482,98.141342 C 645.74812,109.08304 627.12613,119.22654 616.90705,120.87069 C 613.77415,121.37474 606.44518,121.42125 600.29201,120.97612 C 589.36827,120.18588 589.17588,120.12744 575.59834,113.47475 C 568.07205,109.78704 561.03657,105.65412 559.96393,104.29048 C 557.731,101.45177 556.80153,101.16393 556.80153,103.31115 C 556.80153,104.13615 555.87885,105.73383 554.75112,106.86156 C 552.71313,108.89955 552.71245,108.93133 554.63857,112.11156 C 555.70439,113.87133 557.33294,117.9616 558.25757,121.20103 C 559.18221,124.44046 560.536,128.04046 561.266,129.20103 C 561.99601,130.3616 562.91836,132.43615 563.31569,133.81115 C 563.71301,135.18615 564.59721,136.98615 565.28057,137.81115 C 567.57267,140.57832 577.67444,174.18257 579.86015,186.31115 C 581.78192,196.97516 581.96518,200.70481 581.50616,219.81115 C 581.15444,234.45162 580.44737,243.86353 579.28998,249.31115 C 578.35516,253.71115 577.23836,259.0528 576.80819,261.18147 C 575.48263,267.74102 578.13483,326.97794 580.36284,340.57472 C 580.93044,344.03855 581.54043,344.9585 583.61486,345.47915 C 585.01921,345.83162 587.32322,346.72274 588.73488,347.45941 C 590.14654,348.19609 591.70013,348.8016 592.18731,348.80499 C 594.56624,348.82154 610.40017,357.69122 615.26466,361.73223 C 622.7552,367.95471 633.79886,386.58252 633.80074,392.9978 C 633.80117,394.47546 634.69838,399.42546 635.79452,403.9978 C 638.59018,415.6593 638.57271,431.03397 635.75855,435.64984 C 632.64919,440.74992 633.7722,442.41865 640.80874,443.15412 C 644.08748,443.49681 648.80216,443.49867 651.28581,443.15825 C 655.00686,442.64822 655.80153,442.81921 655.80153,444.12991 C 655.80153,446.39991 650.34274,447.17609 640.27574,446.33751 C 634.78922,445.88048 631.80153,445.98644 631.80153,446.63805 C 631.80153,448.34919 633.89488,448.65076 646.30153,448.72694 C 656.11107,448.78717 658.83391,448.47729 661.21808,447.0293 z "
     id="path2185" />
  <path
     style="fill:#000000"
     d="M 657.80153,439.31115 C 657.80153,438.48615 658.47653,437.81115 659.30153,437.81115 C 660.12653,437.81115 660.80153,438.48615 660.80153,439.31115 C 660.80153,440.13615 660.12653,440.81115 659.30153,440.81115 C 658.47653,440.81115 657.80153,440.13615 657.80153,439.31115 z "
     id="path2183" />
  <path
     style="fill:#000000"
     d="M 588.80153,325.37017 C 588.80153,323.47763 588.35153,321.65107 587.80153,321.31115 C 587.22157,320.95271 586.80153,315.46743 586.80153,308.25213 C 586.80153,297.86015 587.04858,295.81115 588.30153,295.81115 C 589.54746,295.81115 589.80153,297.74904 589.80153,307.25213 C 589.80153,313.80077 590.22915,318.9574 590.80153,319.31115 C 591.35153,319.65107 591.80153,321.92763 591.80153,324.37017 C 591.80153,327.65104 591.40969,328.81115 590.30153,328.81115 C 589.25881,328.81115 588.80153,327.76215 588.80153,325.37017 z "
     id="path2181" />
  <path
     style="fill:#000000"
     d="M 589.80153,289.31115 C 589.80153,288.48615 590.47653,287.81115 591.30153,287.81115 C 592.12653,287.81115 592.80153,288.48615 592.80153,289.31115 C 592.80153,290.13615 592.12653,290.81115 591.30153,290.81115 C 590.47653,290.81115 589.80153,290.13615 589.80153,289.31115 z "
     id="path2179" />
  <path
     style="fill:#000000"
     d="M 585.80153,275.87017 C 585.80153,273.15263 585.35153,270.65107 584.80153,270.31115 C 583.48403,269.49689 583.48403,248.12541 584.80153,247.31115 C 585.35153,246.97123 585.80153,245.59467 585.80153,244.25213 C 585.80153,242.67804 586.37154,241.81115 587.40657,241.81115 C 588.73422,241.81115 588.89477,242.54562 588.33555,246.06115 C 586.97565,254.61013 586.63156,267.04118 587.72457,268.13419 C 588.3169,268.72652 588.80153,271.82115 588.80153,275.01115 C 588.80153,279.50004 588.46245,280.81115 587.30153,280.81115 C 586.17059,280.81115 585.80153,279.59549 585.80153,275.87017 z "
     id="path2177" />
  <path
     style="fill:#000000"
     d="M 585.80153,196.31115 C 585.80153,195.48615 586.47653,194.81115 587.30153,194.81115 C 588.12653,194.81115 588.80153,195.48615 588.80153,196.31115 C 588.80153,197.13615 588.12653,197.81115 587.30153,197.81115 C 586.47653,197.81115 585.80153,197.13615 585.80153,196.31115 z "
     id="path2175" />
  <path
     style="fill:#000000"
     d="M 583.36346,179.82864 C 582.98048,175.43825 582.30669,171.62335 581.86614,171.35108 C 581.42559,171.07881 580.76533,168.59594 580.3989,165.83359 C 580.03246,163.07125 579.34822,160.81115 578.87838,160.81115 C 578.40853,160.81115 577.73221,159.25516 577.37543,157.35339 C 577.01866,155.45162 576.07135,152.63912 575.2703,151.10339 C 573.45715,147.62729 573.37278,143.81115 575.10908,143.81115 C 576.55466,143.81115 579.41829,149.64497 580.41227,154.61485 C 580.76386,156.37281 581.41771,157.81115 581.86526,157.81115 C 582.31281,157.81115 582.95462,159.94865 583.2915,162.56115 C 583.62838,165.17365 584.32743,168.08689 584.84493,169.03502 C 585.36243,169.98315 586.08076,174.59565 586.44121,179.28502 C 586.99817,186.53081 586.86857,187.81115 585.57818,187.81115 C 584.40528,187.81115 583.90134,185.99481 583.36346,179.82864 z "
     id="path2173" />
  <path
     style="fill:#000000"
     d="M 573.80153,135.31115 C 573.80153,134.48615 574.47653,133.81115 575.30153,133.81115 C 576.12653,133.81115 576.80153,134.48615 576.80153,135.31115 C 576.80153,136.13615 576.12653,136.81115 575.30153,136.81115 C 574.47653,136.81115 573.80153,136.13615 573.80153,135.31115 z "
     id="path2171" />
  <path
     style="fill:#000000"
     d="M 565.80153,123.31115 C 565.80153,122.48615 566.47653,121.81115 567.30153,121.81115 C 568.12653,121.81115 568.80153,122.48615 568.80153,123.31115 C 568.80153,124.13615 568.12653,124.81115 567.30153,124.81115 C 566.47653,124.81115 565.80153,124.13615 565.80153,123.31115 z "
     id="path2169" />
  <path
     style="fill:#f9f9f9"
     d="M 170.85947,291.31115 C 172.04337,265.0664 172.54925,249.81115 172.23563,249.81115 C 172.117,249.81115 170.0583,250.70127 167.66073,251.78919 C 165.26317,252.87711 161.82458,253.77711 160.01941,253.78919 C 152.05429,253.84249 141.93366,246.46269 134.61869,235.2674 C 127.75669,224.76536 125.7557,217.77565 123.31983,195.79915 C 122.55707,188.91755 121.43831,181.98601 120.83369,180.39573 C 120.22906,178.80545 119.51044,172.73585 119.23674,166.90773 C 118.84344,158.5329 119.14229,154.69805 120.6621,148.6175 C 122.86094,139.82019 124.55764,137.09983 131.76801,130.81115 C 141.43962,122.37584 142.42222,122.02629 156.64945,121.95988 C 170.77665,121.89394 175.45084,122.94322 185.31417,128.39464 L 191.32682,131.71781 L 193.41544,128.51448 C 200.96946,116.92886 201.10203,114.9869 194.76308,108.77346 C 192.58423,106.63775 190.80153,103.97847 190.80153,102.86394 C 190.80153,100.89069 185.12588,94.687458 177.21256,88.011822 C 167.38984,79.725417 162.84348,76.585333 155.83395,73.246039 C 151.69112,71.272421 147.17653,69.074624 145.80153,68.362044 C 143.06897,66.945924 137.82514,65.692655 124.80153,63.343077 C 112.96174,61.20707 85.090086,61.245219 77.733026,63.407501 C 70.293786,65.593936 59.903056,71.165178 55.475416,75.341454 C 51.565456,79.029443 51.122486,79.811152 52.942566,79.811152 C 54.879586,79.811152 63.832216,87.141088 65.826886,90.360144 C 66.865996,92.037089 68.217846,96.762089 68.830986,100.86014 C 69.444136,104.9582 70.363336,109.09254 70.873656,110.04758 C 72.128936,112.39675 72.066506,132.52935 70.801526,133.31115 C 70.251526,133.65107 69.801526,136.96998 69.801526,140.68651 C 69.801526,148.67714 68.165256,158.50369 66.367206,161.31115 C 65.662716,162.41115 64.355576,165.78615 63.462456,168.81115 C 60.678706,178.23974 56.028126,183.21554 45.472736,188.05894 L 40.643946,190.27466 L 41.317036,194.79291 C 41.687246,197.27794 43.023236,201.56115 44.285906,204.31115 C 45.548576,207.06115 46.824736,210.43615 47.121826,211.81115 C 48.255886,217.05997 56.778516,240.38341 58.995016,244.30387 C 59.614646,245.39986 60.459176,247.64986 60.871736,249.30387 C 61.284296,250.95787 64.182926,258.38615 67.313126,265.81115 C 70.443326,273.23615 73.815256,281.33615 74.806316,283.81115 C 75.797366,286.28615 78.674336,292.58615 81.199576,297.81115 C 83.724806,303.03615 85.795386,307.76115 85.800846,308.31115 C 85.806316,308.86115 86.923016,312.01115 88.282416,315.31115 C 89.641816,318.61115 90.764736,322.32365 90.777786,323.56115 C 90.810746,326.68589 91.933666,326.35465 94.441686,322.48036 C 95.803786,320.37624 99.205006,317.79589 103.79724,315.38275 C 112.69779,310.70564 122.10815,309.22945 132.4308,310.89104 C 136.2097,311.49932 141.55153,312.32583 144.30153,312.72775 C 151.18102,313.73319 163.46433,320.3213 166.16094,324.45197 L 168.30153,327.73092 L 169.06173,321.02104 C 169.47984,317.3306 170.28882,303.96115 170.85947,291.31115 z "
     id="path2167" />
  <path
     style="fill:#000000"
     d="M 157.80153,312.31115 C 157.80153,311.48615 158.47653,310.81115 159.30153,310.81115 C 160.12653,310.81115 160.80153,311.48615 160.80153,312.31115 C 160.80153,313.13615 160.12653,313.81115 159.30153,313.81115 C 158.47653,313.81115 157.80153,313.13615 157.80153,312.31115 z "
     id="path2165" />
  <path
     style="fill:#000000"
     d="M 160.80153,299.37017 C 160.80153,296.37763 161.25153,293.65107 161.80153,293.31115 C 162.40053,292.94095 162.80153,286.30077 162.80153,276.75213 C 162.80153,263.24904 163.03093,260.81115 164.30153,260.81115 C 165.57772,260.81115 165.80153,263.42226 165.80153,278.31115 C 165.80153,289.31115 165.4301,295.81115 164.80153,295.81115 C 164.25153,295.81115 163.80153,297.83615 163.80153,300.31115 C 163.80153,303.64448 163.41264,304.81115 162.30153,304.81115 C 161.15199,304.81115 160.80153,303.53993 160.80153,299.37017 z "
     id="path2161" />
</svg>
